<svg width="52" height="83" viewBox="0 0 52 83" fill="none" xmlns="http://www.w3.org/2000/svg">
<rect x="0.441406" y="0.813721" width="3.49443" height="3.79851" rx="1" fill="#D9D9D9"/>
<rect x="0.441406" y="11.9053" width="3.49443" height="3.79851" rx="1" fill="#D9D9D9"/>
<rect x="0.441406" y="22.9966" width="3.49443" height="3.79851" rx="1" fill="#D9D9D9"/>
<rect x="0.441406" y="34.0881" width="3.49443" height="3.79851" rx="1" fill="#D9D9D9"/>
<rect x="0.441406" y="45.1797" width="3.49443" height="3.79851" rx="1" fill="#D9D9D9"/>
<rect x="0.441406" y="56.271" width="3.49443" height="3.79851" rx="1" fill="#D9D9D9"/>
<rect x="0.441406" y="67.3625" width="3.49443" height="3.79851" rx="1" fill="#D9D9D9"/>
<rect x="0.441406" y="78.4539" width="3.49443" height="3.79851" rx="1" fill="#D9D9D9"/>
<rect x="12.4453" y="0.813721" width="3.49443" height="3.79851" rx="1" fill="#D9D9D9"/>
<rect x="12.4453" y="11.9053" width="3.49443" height="3.79851" rx="1" fill="#D9D9D9"/>
<rect x="12.4453" y="22.9966" width="3.49443" height="3.79851" rx="1" fill="#D9D9D9"/>
<rect x="12.4453" y="34.0881" width="3.49443" height="3.79851" rx="1" fill="#D9D9D9"/>
<rect x="12.4453" y="45.1797" width="3.49443" height="3.79851" rx="1" fill="#D9D9D9"/>
<rect x="12.4453" y="56.271" width="3.49443" height="3.79851" rx="1" fill="#D9D9D9"/>
<rect x="12.4453" y="67.3625" width="3.49443" height="3.79851" rx="1" fill="#D9D9D9"/>
<rect x="12.4453" y="78.4539" width="3.49443" height="3.79851" rx="1" fill="#D9D9D9"/>
<rect x="24.4453" y="0.813721" width="3.49443" height="3.79851" rx="1" fill="#D9D9D9"/>
<rect x="24.4453" y="11.9053" width="3.49443" height="3.79851" rx="1" fill="#D9D9D9"/>
<rect x="24.4453" y="22.9966" width="3.49443" height="3.79851" rx="1" fill="#D9D9D9"/>
<rect x="24.4453" y="34.0881" width="3.49443" height="3.79851" rx="1" fill="#D9D9D9"/>
<rect x="24.4453" y="45.1797" width="3.49443" height="3.79851" rx="1" fill="#D9D9D9"/>
<rect x="24.4453" y="56.271" width="3.49443" height="3.79851" rx="1" fill="#D9D9D9"/>
<rect x="24.4453" y="67.3625" width="3.49443" height="3.79851" rx="1" fill="#D9D9D9"/>
<rect x="24.4453" y="78.4539" width="3.49443" height="3.79851" rx="1" fill="#D9D9D9"/>
<rect x="36.4492" y="0.813721" width="3.49443" height="3.79851" rx="1" fill="#D9D9D9"/>
<rect x="36.4492" y="11.9053" width="3.49443" height="3.79851" rx="1" fill="#D9D9D9"/>
<rect x="36.4492" y="22.9966" width="3.49443" height="3.79851" rx="1" fill="#D9D9D9"/>
<rect x="36.4492" y="34.0881" width="3.49443" height="3.79851" rx="1" fill="#D9D9D9"/>
<rect x="36.4492" y="45.1797" width="3.49443" height="3.79851" rx="1" fill="#D9D9D9"/>
<rect x="36.4492" y="56.271" width="3.49443" height="3.79851" rx="1" fill="#D9D9D9"/>
<rect x="36.4492" y="67.3625" width="3.49443" height="3.79851" rx="1" fill="#D9D9D9"/>
<rect x="36.4492" y="78.4539" width="3.49443" height="3.79851" rx="1" fill="#D9D9D9"/>
<rect x="48.4531" y="0.813721" width="3.49443" height="3.79851" rx="1" fill="#D9D9D9"/>
<rect x="48.4531" y="11.9053" width="3.49443" height="3.79851" rx="1" fill="#D9D9D9"/>
<rect x="48.4531" y="22.9966" width="3.49443" height="3.79851" rx="1" fill="#D9D9D9"/>
<rect x="48.4531" y="34.0881" width="3.49443" height="3.79851" rx="1" fill="#D9D9D9"/>
<rect x="48.4531" y="45.1797" width="3.49443" height="3.79851" rx="1" fill="#D9D9D9"/>
<rect x="48.4531" y="56.271" width="3.49443" height="3.79851" rx="1" fill="#D9D9D9"/>
<rect x="48.4531" y="67.3625" width="3.49443" height="3.79851" rx="1" fill="#D9D9D9"/>
<rect x="48.4531" y="78.4539" width="3.49443" height="3.79851" rx="1" fill="#D9D9D9"/>
</svg>
