<svg width="52" height="82" viewBox="0 0 52 82" fill="none" xmlns="http://www.w3.org/2000/svg">
<rect y="0.280762" width="3.49443" height="3.79851" rx="1" fill="#D9D9D9"/>
<rect y="11.3721" width="3.49443" height="3.79851" rx="1" fill="#D9D9D9"/>
<rect y="22.4636" width="3.49443" height="3.79851" rx="1" fill="#D9D9D9"/>
<rect y="33.5552" width="3.49443" height="3.79851" rx="1" fill="#D9D9D9"/>
<rect y="44.6465" width="3.49443" height="3.79851" rx="1" fill="#D9D9D9"/>
<rect y="55.738" width="3.49443" height="3.79851" rx="1" fill="#D9D9D9"/>
<rect y="66.8296" width="3.49443" height="3.79851" rx="1" fill="#D9D9D9"/>
<rect y="77.9209" width="3.49443" height="3.79851" rx="1" fill="#D9D9D9"/>
<rect x="12.0039" y="0.280762" width="3.49443" height="3.79851" rx="1" fill="#D9D9D9"/>
<rect x="12.0039" y="11.3721" width="3.49443" height="3.79851" rx="1" fill="#D9D9D9"/>
<rect x="12.0039" y="22.4636" width="3.49443" height="3.79851" rx="1" fill="#D9D9D9"/>
<rect x="12.0039" y="33.5552" width="3.49443" height="3.79851" rx="1" fill="#D9D9D9"/>
<rect x="12.0039" y="44.6465" width="3.49443" height="3.79851" rx="1" fill="#D9D9D9"/>
<rect x="12.0039" y="55.738" width="3.49443" height="3.79851" rx="1" fill="#D9D9D9"/>
<rect x="12.0039" y="66.8296" width="3.49443" height="3.79851" rx="1" fill="#D9D9D9"/>
<rect x="12.0039" y="77.9209" width="3.49443" height="3.79851" rx="1" fill="#D9D9D9"/>
<rect x="24.0078" y="0.280762" width="3.49443" height="3.79851" rx="1" fill="#D9D9D9"/>
<rect x="24.0078" y="11.3721" width="3.49443" height="3.79851" rx="1" fill="#D9D9D9"/>
<rect x="24.0078" y="22.4636" width="3.49443" height="3.79851" rx="1" fill="#D9D9D9"/>
<rect x="24.0078" y="33.5552" width="3.49443" height="3.79851" rx="1" fill="#D9D9D9"/>
<rect x="24.0078" y="44.6465" width="3.49443" height="3.79851" rx="1" fill="#D9D9D9"/>
<rect x="24.0078" y="55.738" width="3.49443" height="3.79851" rx="1" fill="#D9D9D9"/>
<rect x="24.0078" y="66.8296" width="3.49443" height="3.79851" rx="1" fill="#D9D9D9"/>
<rect x="24.0078" y="77.9209" width="3.49443" height="3.79851" rx="1" fill="#D9D9D9"/>
<rect x="36.0078" y="0.280762" width="3.49443" height="3.79851" rx="1" fill="#D9D9D9"/>
<rect x="36.0078" y="11.3721" width="3.49443" height="3.79851" rx="1" fill="#D9D9D9"/>
<rect x="36.0078" y="22.4636" width="3.49443" height="3.79851" rx="1" fill="#D9D9D9"/>
<rect x="36.0078" y="33.5552" width="3.49443" height="3.79851" rx="1" fill="#D9D9D9"/>
<rect x="36.0078" y="44.6465" width="3.49443" height="3.79851" rx="1" fill="#D9D9D9"/>
<rect x="36.0078" y="55.738" width="3.49443" height="3.79851" rx="1" fill="#D9D9D9"/>
<rect x="36.0078" y="66.8296" width="3.49443" height="3.79851" rx="1" fill="#D9D9D9"/>
<rect x="36.0078" y="77.9209" width="3.49443" height="3.79851" rx="1" fill="#D9D9D9"/>
<rect x="48.0117" y="0.280762" width="3.49443" height="3.79851" rx="1" fill="#D9D9D9"/>
<rect x="48.0117" y="11.3721" width="3.49443" height="3.79851" rx="1" fill="#D9D9D9"/>
<rect x="48.0117" y="22.4636" width="3.49443" height="3.79851" rx="1" fill="#D9D9D9"/>
<rect x="48.0117" y="33.5552" width="3.49443" height="3.79851" rx="1" fill="#D9D9D9"/>
<rect x="48.0117" y="44.6465" width="3.49443" height="3.79851" rx="1" fill="#D9D9D9"/>
<rect x="48.0117" y="55.738" width="3.49443" height="3.79851" rx="1" fill="#D9D9D9"/>
<rect x="48.0117" y="66.8296" width="3.49443" height="3.79851" rx="1" fill="#D9D9D9"/>
<rect x="48.0117" y="77.9209" width="3.49443" height="3.79851" rx="1" fill="#D9D9D9"/>
</svg>
