<svg width="34" height="34" viewBox="0 0 34 34" fill="none" xmlns="http://www.w3.org/2000/svg">
<circle cx="17" cy="17" r="17" fill="#FAFAFA"/>
<g clip-path="url(#clip0_231_1463)">
<path d="M21.9971 21.9998V21.9993H21.9998V17.9651C21.9998 15.9915 21.575 14.4712 19.2677 14.4712C18.1585 14.4712 17.4142 15.0799 17.1103 15.6569H17.0783V14.6554H14.8906V21.9993H17.1685V18.3629C17.1685 17.4054 17.35 16.4796 18.5358 16.4796C19.704 16.4796 19.7215 17.5723 19.7215 18.4243V21.9998H21.9971Z" fill="#1A202C"/>
<path d="M11.1797 14.6562H13.4604V22.0001H11.1797V14.6562Z" fill="#1A202C"/>
<path d="M12.3209 11C11.5917 11 11 11.5917 11 12.3209C11 13.0501 11.5917 13.6542 12.3209 13.6542C13.0501 13.6542 13.6418 13.0501 13.6418 12.3209C13.6414 11.5917 13.0497 11 12.3209 11V11Z" fill="#1A202C"/>
</g>
<defs>
<clipPath id="clip0_231_1463">
<rect width="11" height="11" fill="white" transform="translate(11 11)"/>
</clipPath>
</defs>
</svg>
