<svg width="170" height="57" viewBox="0 0 170 57" fill="none" xmlns="http://www.w3.org/2000/svg">
<path d="M44.4655 6.35829L14.7627 6.34814C10.754 6.3467 8.74671 11.1931 11.58 14.0279C12.4264 14.8742 13.5742 15.3481 14.7713 15.3452L35.525 15.2989L35.4786 36.0525C35.4757 37.2496 35.9496 38.3974 36.796 39.2438C39.6308 42.0786 44.4771 40.0699 44.4757 36.0612L44.4655 6.35829Z" fill="white"/>
<path d="M29.0858 18.6366L16.3989 31.3235C15.5597 32.1612 15.5597 33.5206 16.3989 34.3598C16.8177 34.7786 17.367 34.9887 17.9163 34.9887C18.4655 34.9887 19.0148 34.7786 19.4337 34.3598L32.1206 21.6728C32.9583 20.8337 32.9583 19.4757 32.1206 18.6366C31.2844 17.7989 29.925 17.7989 29.0858 18.6366Z" fill="white"/>
<path d="M20.6132 18.2856C19.7755 17.4465 18.4161 17.4465 17.5769 18.2856L4.88998 30.9726C4.0523 31.8117 4.0523 33.1697 4.88998 34.0088C5.30882 34.4276 5.8581 34.6378 6.40737 34.6378C6.95665 34.6378 7.50592 34.4276 7.92476 34.0088L20.6117 21.3218C21.4508 20.4827 21.4508 19.1233 20.6132 18.2856Z" fill="white"/>
<path d="M28.8543 29.9959L16.1673 42.6829C15.3296 43.5206 15.3296 44.88 16.1673 45.7191C16.5862 46.138 17.1354 46.3481 17.6847 46.3481C18.234 46.3481 18.7833 46.138 19.2021 45.7191L31.8891 33.0322C32.7282 32.1945 32.7282 30.8351 31.8891 29.9959C31.0514 29.1583 29.692 29.1583 28.8543 29.9959Z" fill="white"/>
<path d="M84.6091 14.0825L80.3637 29.8782L75.8011 14.0825H72.7401L68.1494 29.8782L63.904 14.0825H60.4102L66.1274 34.297H69.9682L74.2714 19.5405L78.5449 34.297H82.3856L88.1029 14.0825H84.6091Z" fill="white"/>
<path d="M95.5845 19.4824C93.447 19.4824 91.648 20.2142 90.1844 21.6778C88.7027 23.1612 87.9609 24.9602 87.9609 27.0779C87.9609 29.1957 88.7027 30.9963 90.1844 32.4781C91.648 33.9417 93.447 34.6735 95.5845 34.6735C97.7221 34.6735 99.5211 33.9417 100.985 32.4781C102.466 30.9963 103.208 29.1957 103.208 27.0779C103.208 24.9602 102.466 23.1612 100.985 21.6778C99.5211 20.2142 97.7205 19.4824 95.5845 19.4824ZM98.7893 30.3405C97.9237 31.2061 96.8549 31.6405 95.5845 31.6405C94.3142 31.6405 93.2454 31.2077 92.3798 30.3405C91.5142 29.4732 91.0798 28.3863 91.0798 27.0779C91.0798 25.7696 91.5126 24.681 92.3798 23.8154C93.2454 22.9498 94.3142 22.5153 95.5845 22.5153C96.8549 22.5153 97.9237 22.9481 98.7893 23.8154C99.6565 24.681 100.089 25.7696 100.089 27.0779C100.089 28.3879 99.6549 29.4749 98.7893 30.3405Z" fill="white"/>
<path d="M109.154 22.2845V19.8595H106.035V34.2972H109.154V27.0205C109.154 25.5387 109.597 24.4799 110.482 23.8439C111.387 23.1897 112.426 22.9006 113.601 22.9783V19.6001C111.424 19.5984 109.942 20.4938 109.154 22.2845Z" fill="white"/>
<path d="M128.443 19.8593H124.631L119.029 26.2406V14.0825H115.91V34.297H119.029V27.6266L124.948 34.297H128.673L122.09 26.9328L128.443 19.8593Z" fill="white"/>
<path d="M142.768 27.3953C142.768 28.6475 142.396 29.6337 141.656 30.3556C140.915 31.0774 139.841 31.4392 138.437 31.4392C137.031 31.4392 135.957 31.0774 135.217 30.3556C134.476 29.6337 134.106 28.6475 134.106 27.3953V14.0825H130.785V27.5969C130.785 29.7344 131.497 31.4574 132.923 32.7657C134.329 34.036 136.167 34.672 138.438 34.672C140.71 34.672 142.548 34.036 143.954 32.7657C145.378 31.4574 146.092 29.7328 146.092 27.5969V14.0825H142.771V27.3953H142.768Z" fill="white"/>
<path d="M162.954 21.7059C161.529 20.2241 159.835 19.4824 157.871 19.4824C155.676 19.4824 153.993 20.3018 152.818 21.9372V19.8574H149.699V40.0719H152.818V32.2468C154.011 33.864 155.696 34.6718 157.871 34.6718C159.854 34.6718 161.548 33.94 162.954 32.4764C164.358 31.0128 165.062 29.2139 165.062 27.0763C165.062 24.9602 164.36 23.1695 162.954 21.7059ZM160.645 30.3983C159.778 31.2639 158.691 31.6984 157.382 31.6984C156.072 31.6984 154.985 31.2655 154.12 30.3983C153.254 29.493 152.82 28.3863 152.82 27.0779C152.82 25.7498 153.252 24.6529 154.12 23.7857C154.985 22.9002 156.074 22.4575 157.382 22.4575C158.691 22.4575 159.779 22.9002 160.645 23.7857C161.51 24.6513 161.945 25.7498 161.945 27.0779C161.945 28.4061 161.51 29.5129 160.645 30.3983Z" fill="white"/>
</svg>
