<svg width="31" height="88" viewBox="0 0 31 88" fill="none" xmlns="http://www.w3.org/2000/svg">
<rect y="3" width="3.49443" height="3.79851" rx="1" fill="#D9D9D9"/>
<rect y="14.0913" width="3.49443" height="3.79851" rx="1" fill="#D9D9D9"/>
<rect y="25.1829" width="3.49443" height="3.79851" rx="1" fill="#D9D9D9"/>
<rect y="36.2744" width="3.49443" height="3.79851" rx="1" fill="#D9D9D9"/>
<rect y="47.3657" width="3.49443" height="3.79851" rx="1" fill="#D9D9D9"/>
<rect y="58.4573" width="3.49443" height="3.79851" rx="1" fill="#D9D9D9"/>
<rect y="69.5488" width="3.49443" height="3.79851" rx="1" fill="#D9D9D9"/>
<rect y="80.6401" width="3.49443" height="3.79851" rx="1" fill="#D9D9D9"/>
<rect x="12.0039" y="3" width="3.49443" height="3.79851" rx="1" fill="#D9D9D9"/>
<rect x="12.0039" y="14.0913" width="3.49443" height="3.79851" rx="1" fill="#D9D9D9"/>
<rect x="12.0039" y="25.1829" width="3.49443" height="3.79851" rx="1" fill="#D9D9D9"/>
<rect x="12.0039" y="36.2744" width="3.49443" height="3.79851" rx="1" fill="#D9D9D9"/>
<rect x="12.0039" y="47.3657" width="3.49443" height="3.79851" rx="1" fill="#D9D9D9"/>
<rect x="12.0039" y="58.4573" width="3.49443" height="3.79851" rx="1" fill="#D9D9D9"/>
<rect x="12.0039" y="69.5488" width="3.49443" height="3.79851" rx="1" fill="#D9D9D9"/>
<rect x="12.0039" y="80.6401" width="3.49443" height="3.79851" rx="1" fill="#D9D9D9"/>
<rect x="24.0078" y="3" width="3.49443" height="3.79851" rx="1" fill="#D9D9D9"/>
<rect x="24.0078" y="14.0916" width="3.49443" height="3.79851" rx="1" fill="#D9D9D9"/>
<rect x="24.0078" y="25.1829" width="3.49443" height="3.79851" rx="1" fill="#D9D9D9"/>
<rect x="24.0078" y="36.2744" width="3.49443" height="3.79851" rx="1" fill="#D9D9D9"/>
<rect x="24.0078" y="47.366" width="3.49443" height="3.79851" rx="1" fill="#D9D9D9"/>
<rect x="24.0078" y="58.4573" width="3.49443" height="3.79851" rx="1" fill="#D9D9D9"/>
<rect x="24.0078" y="69.5488" width="3.49443" height="3.79851" rx="1" fill="#D9D9D9"/>
<rect x="24.0078" y="80.6401" width="3.49443" height="3.79851" rx="1" fill="#D9D9D9"/>
</svg>
