<svg width="52" height="82" viewBox="0 0 52 82" fill="none" xmlns="http://www.w3.org/2000/svg">
<rect x="-0.480469" y="0.0246582" width="3.49443" height="3.79851" rx="1" fill="#D9D9D9"/>
<rect x="-0.480469" y="11.1162" width="3.49443" height="3.79851" rx="1" fill="#D9D9D9"/>
<rect x="-0.480469" y="22.2075" width="3.49443" height="3.79851" rx="1" fill="#D9D9D9"/>
<rect x="-0.480469" y="33.2991" width="3.49443" height="3.79851" rx="1" fill="#D9D9D9"/>
<rect x="-0.480469" y="44.3906" width="3.49443" height="3.79851" rx="1" fill="#D9D9D9"/>
<rect x="-0.480469" y="55.4819" width="3.49443" height="3.79851" rx="1" fill="#D9D9D9"/>
<rect x="-0.480469" y="66.5735" width="3.49443" height="3.79851" rx="1" fill="#D9D9D9"/>
<rect x="-0.480469" y="77.6648" width="3.49443" height="3.79851" rx="1" fill="#D9D9D9"/>
<rect x="11.5234" y="0.0246582" width="3.49443" height="3.79851" rx="1" fill="#D9D9D9"/>
<rect x="11.5234" y="11.1162" width="3.49443" height="3.79851" rx="1" fill="#D9D9D9"/>
<rect x="11.5234" y="22.2075" width="3.49443" height="3.79851" rx="1" fill="#D9D9D9"/>
<rect x="11.5234" y="33.2991" width="3.49443" height="3.79851" rx="1" fill="#D9D9D9"/>
<rect x="11.5234" y="44.3906" width="3.49443" height="3.79851" rx="1" fill="#D9D9D9"/>
<rect x="11.5234" y="55.4819" width="3.49443" height="3.79851" rx="1" fill="#D9D9D9"/>
<rect x="11.5234" y="66.5735" width="3.49443" height="3.79851" rx="1" fill="#D9D9D9"/>
<rect x="11.5234" y="77.6648" width="3.49443" height="3.79851" rx="1" fill="#D9D9D9"/>
<rect x="23.5273" y="0.0246582" width="3.49443" height="3.79851" rx="1" fill="#D9D9D9"/>
<rect x="23.5273" y="11.1162" width="3.49443" height="3.79851" rx="1" fill="#D9D9D9"/>
<rect x="23.5273" y="22.2075" width="3.49443" height="3.79851" rx="1" fill="#D9D9D9"/>
<rect x="23.5273" y="33.2991" width="3.49443" height="3.79851" rx="1" fill="#D9D9D9"/>
<rect x="23.5273" y="44.3906" width="3.49443" height="3.79851" rx="1" fill="#D9D9D9"/>
<rect x="23.5273" y="55.4819" width="3.49443" height="3.79851" rx="1" fill="#D9D9D9"/>
<rect x="23.5273" y="66.5735" width="3.49443" height="3.79851" rx="1" fill="#D9D9D9"/>
<rect x="23.5273" y="77.6648" width="3.49443" height="3.79851" rx="1" fill="#D9D9D9"/>
<rect x="35.5273" y="0.0246582" width="3.49443" height="3.79851" rx="1" fill="#D9D9D9"/>
<rect x="35.5273" y="11.1162" width="3.49443" height="3.79851" rx="1" fill="#D9D9D9"/>
<rect x="35.5273" y="22.2075" width="3.49443" height="3.79851" rx="1" fill="#D9D9D9"/>
<rect x="35.5273" y="33.2991" width="3.49443" height="3.79851" rx="1" fill="#D9D9D9"/>
<rect x="35.5273" y="44.3906" width="3.49443" height="3.79851" rx="1" fill="#D9D9D9"/>
<rect x="35.5273" y="55.4819" width="3.49443" height="3.79851" rx="1" fill="#D9D9D9"/>
<rect x="35.5273" y="66.5735" width="3.49443" height="3.79851" rx="1" fill="#D9D9D9"/>
<rect x="35.5273" y="77.6648" width="3.49443" height="3.79851" rx="1" fill="#D9D9D9"/>
<rect x="47.5312" y="0.0246582" width="3.49443" height="3.79851" rx="1" fill="#D9D9D9"/>
<rect x="47.5312" y="11.1162" width="3.49443" height="3.79851" rx="1" fill="#D9D9D9"/>
<rect x="47.5312" y="22.2075" width="3.49443" height="3.79851" rx="1" fill="#D9D9D9"/>
<rect x="47.5312" y="33.2991" width="3.49443" height="3.79851" rx="1" fill="#D9D9D9"/>
<rect x="47.5312" y="44.3906" width="3.49443" height="3.79851" rx="1" fill="#D9D9D9"/>
<rect x="47.5312" y="55.4819" width="3.49443" height="3.79851" rx="1" fill="#D9D9D9"/>
<rect x="47.5312" y="66.5735" width="3.49443" height="3.79851" rx="1" fill="#D9D9D9"/>
<rect x="47.5312" y="77.6648" width="3.49443" height="3.79851" rx="1" fill="#D9D9D9"/>
</svg>
