<svg width="1140" height="382" viewBox="0 0 1140 382" fill="none" xmlns="http://www.w3.org/2000/svg">
<g filter="url(#filter0_d_1409_4652)">
<rect x="523.738" y="158.963" width="91" height="79" rx="12" fill="white"/>
<path d="M593.779 177.632L557.669 177.619C552.795 177.617 550.355 183.525 553.8 186.981C554.829 188.013 556.224 188.59 557.679 188.587L582.91 188.53L582.853 213.829C582.85 215.289 583.426 216.688 584.455 217.719C587.901 221.175 593.793 218.726 593.791 213.84L593.779 177.632Z" fill="black" fill-opacity="0.8"/>
<path d="M575.079 192.599L559.656 208.064C558.636 209.086 558.636 210.743 559.656 211.766C560.165 212.276 560.833 212.532 561.5 212.532C562.168 212.532 562.836 212.276 563.345 211.766L578.769 196.3C579.787 195.277 579.787 193.622 578.769 192.599C577.752 191.578 576.099 191.578 575.079 192.599Z" fill="black" fill-opacity="0.8"/>
<path d="M564.777 192.171C563.759 191.148 562.106 191.148 561.086 192.171L545.662 207.637C544.644 208.66 544.644 210.315 545.662 211.338C546.171 211.849 546.839 212.105 547.507 212.105C548.175 212.105 548.842 211.849 549.352 211.338L564.775 195.872C565.795 194.85 565.795 193.192 564.777 192.171Z" fill="black" fill-opacity="0.8"/>
<path d="M574.797 206.446L559.373 221.912C558.355 222.933 558.355 224.59 559.373 225.613C559.882 226.124 560.55 226.38 561.218 226.38C561.886 226.38 562.553 226.124 563.063 225.613L578.486 210.147C579.506 209.126 579.506 207.469 578.486 206.446C577.468 205.425 575.815 205.425 574.797 206.446Z" fill="black" fill-opacity="0.8"/>
<path d="M593.779 177.632L557.669 177.619C552.795 177.617 550.355 183.525 553.8 186.981C554.829 188.013 556.224 188.59 557.679 188.587L582.91 188.53L582.853 213.829C582.85 215.289 583.426 216.688 584.455 217.719C587.901 221.175 593.793 218.726 593.791 213.84L593.779 177.632Z" fill="url(#paint0_linear_1409_4652)"/>
<path d="M575.079 192.599L559.656 208.064C558.636 209.086 558.636 210.743 559.656 211.766C560.165 212.276 560.833 212.532 561.5 212.532C562.168 212.532 562.836 212.276 563.345 211.766L578.769 196.3C579.787 195.277 579.787 193.622 578.769 192.599C577.752 191.578 576.099 191.578 575.079 192.599Z" fill="url(#paint1_linear_1409_4652)"/>
<path d="M564.777 192.171C563.759 191.148 562.106 191.148 561.086 192.171L545.662 207.637C544.644 208.66 544.644 210.315 545.662 211.338C546.171 211.849 546.839 212.105 547.507 212.105C548.175 212.105 548.842 211.849 549.352 211.338L564.775 195.872C565.795 194.85 565.795 193.192 564.777 192.171Z" fill="url(#paint2_linear_1409_4652)"/>
<path d="M574.797 206.446L559.373 221.912C558.355 222.933 558.355 224.59 559.373 225.613C559.882 226.124 560.55 226.38 561.218 226.38C561.886 226.38 562.553 226.124 563.063 225.613L578.486 210.147C579.506 209.126 579.506 207.469 578.486 206.446C577.468 205.425 575.815 205.425 574.797 206.446Z" fill="url(#paint3_linear_1409_4652)"/>
</g>
<path d="M637.336 174.223H728.271C744.84 174.223 758.271 160.792 758.271 144.223V53.0539C758.271 36.4854 771.703 23.054 788.271 23.054H1035.52" stroke="url(#paint4_linear_1409_4652)" stroke-width="2"/>
<path d="M497.59 174.223H406.654C390.086 174.223 376.654 160.792 376.654 144.223V53.0539C376.654 36.4854 363.223 23.054 346.654 23.054H99.4038" stroke="url(#paint5_linear_1409_4652)" stroke-width="2"/>
<path d="M642.605 190.371H757.239C772.742 190.371 785.309 177.804 785.309 162.301V162.301C785.309 146.799 797.876 134.232 813.378 134.232H1053.57" stroke="url(#paint6_linear_1409_4652)" stroke-width="2"/>
<path d="M492.32 190.371H377.686C362.184 190.371 349.617 177.804 349.617 162.301V162.301C349.617 146.799 337.05 134.232 321.548 134.232H81.3523" stroke="url(#paint7_linear_1409_4652)" stroke-width="2"/>
<path d="M640.891 206.227H784.451C797.231 206.227 807.592 216.587 807.592 229.368V229.368C807.592 242.148 817.952 252.509 830.733 252.509H1061.71" stroke="url(#paint8_linear_1409_4652)" stroke-width="2"/>
<path d="M494.035 206.227H350.475C337.695 206.227 327.334 216.587 327.334 229.368V229.368C327.334 242.148 316.973 252.509 304.193 252.509H73.211" stroke="url(#paint9_linear_1409_4652)" stroke-width="2"/>
<path d="M633.176 224.654H746.736C763.305 224.654 776.736 238.085 776.736 254.654V330.072C776.736 346.64 790.168 360.072 806.736 360.072H1062.14" stroke="url(#paint10_linear_1409_4652)" stroke-width="2"/>
<path d="M501.75 224.654H388.189C371.621 224.654 358.189 238.085 358.189 254.654V330.072C358.189 346.64 344.758 360.072 328.189 360.072H72.7834" stroke="url(#paint11_linear_1409_4652)" stroke-width="2"/>
<rect x="865.786" y="110.806" width="46.8929" height="46.8929" rx="7.93042" fill="white"/>
<g clip-path="url(#clip0_1409_4652)">
<path d="M897.117 135.792L901.058 134.708L902.043 139.043" stroke="url(#paint12_linear_1409_4652)" stroke-width="2.75841" stroke-linecap="round" stroke-linejoin="round"/>
<path d="M899.579 137.439C898.844 139.73 897.509 141.731 895.741 143.189C893.974 144.647 891.854 145.497 889.649 145.632C887.61 145.632 885.62 144.942 883.95 143.655C882.28 142.369 881.011 140.548 880.314 138.44M883.028 131.067L879.718 131.977L878.891 128.336" stroke="url(#paint13_linear_1409_4652)" stroke-width="2.75841" stroke-linecap="round" stroke-linejoin="round"/>
<path d="M879.719 131.977C881.109 127.79 885.379 123.785 889.649 123.785C891.698 123.791 893.695 124.494 895.366 125.798C897.037 127.102 898.301 128.942 898.984 131.067" stroke="url(#paint14_linear_1409_4652)" stroke-width="2.75841" stroke-linecap="round" stroke-linejoin="round"/>
</g>
<rect x="865.786" y="110.806" width="46.8929" height="46.8929" rx="7.93042" stroke="url(#paint15_linear_1409_4652)" stroke-width="0.689602"/>
<rect x="801.555" y="331.516" width="45.765" height="45.765" rx="7.73966" fill="white"/>
<path fill-rule="evenodd" clip-rule="evenodd" d="M816.53 349.13C816.53 349.324 816.502 349.511 816.45 349.688L819.917 351.69C819.691 352.066 819.51 352.473 819.383 352.903L815.671 350.76C815.353 350.978 814.969 351.105 814.554 351.105C813.463 351.105 812.578 350.221 812.578 349.13C812.578 348.038 813.463 347.154 814.554 347.154C815.645 347.154 816.53 348.038 816.53 349.13ZM823.773 359.626C823.991 359.654 824.212 359.668 824.437 359.668C824.658 359.668 824.877 359.654 825.091 359.628V363.073C825.859 363.344 826.409 364.076 826.409 364.937C826.409 366.028 825.524 366.913 824.433 366.913C823.342 366.913 822.457 366.028 822.457 364.937C822.457 364.077 823.006 363.345 823.773 363.074V359.626ZM829.49 352.899C829.362 352.469 829.182 352.062 828.955 351.686L832.416 349.688C832.364 349.511 832.336 349.323 832.336 349.13C832.336 348.038 833.221 347.154 834.312 347.154C835.403 347.154 836.288 348.038 836.288 349.13C836.288 350.221 835.403 351.105 834.312 351.105C833.897 351.105 833.512 350.978 833.195 350.76L829.49 352.899Z" fill="url(#paint16_linear_1409_4652)"/>
<path fill-rule="evenodd" clip-rule="evenodd" d="M825.091 347.739C826.411 347.44 827.397 346.259 827.397 344.848C827.397 343.211 826.07 341.884 824.433 341.884C822.796 341.884 821.469 343.211 821.469 344.848C821.469 346.259 822.454 347.439 823.774 347.739V350.501C821.905 350.815 820.481 352.441 820.481 354.399C820.481 355.251 820.751 356.041 821.21 356.687L818.435 359.463C817.978 359.175 817.438 359.009 816.858 359.009C815.222 359.009 813.895 360.336 813.895 361.973C813.895 363.61 815.222 364.937 816.858 364.937C818.495 364.937 819.822 363.61 819.822 361.973C819.822 361.392 819.655 360.851 819.367 360.393L822.141 357.619C822.787 358.08 823.578 358.351 824.433 358.351C825.286 358.351 826.076 358.08 826.722 357.621L829.5 360.398C829.213 360.855 829.047 361.395 829.047 361.973C829.047 363.61 830.374 364.937 832.011 364.937C833.648 364.937 834.975 363.61 834.975 361.973C834.975 360.336 833.648 359.009 832.011 359.009C831.43 359.009 830.887 359.177 830.43 359.466L827.653 356.689C828.114 356.043 828.385 355.253 828.385 354.399C828.385 352.44 826.96 350.815 825.091 350.501V347.739Z" fill="url(#paint17_linear_1409_4652)"/>
<rect x="801.555" y="331.516" width="45.765" height="45.765" rx="7.73966" stroke="url(#paint18_linear_1409_4652)" stroke-width="0.673014"/>
<rect x="829.887" y="0.676275" width="45.2234" height="45.2234" rx="7.64807" fill="white"/>
<path fill-rule="evenodd" clip-rule="evenodd" d="M852.4 10.6016L854.574 11.6587L855.472 12.1261C855.789 12.2858 856.079 12.4158 856.601 12.6128L857.215 12.8371C858.022 13.1356 858.591 13.2312 858.826 13.261L858.902 13.2697L859.025 13.2753L859.128 13.2822L863.074 13.5976V25.685C863.074 31.4747 854.641 35.9742 852.502 35.9742C850.02 35.9742 842.135 31.3488 841.934 25.8978L841.93 25.685V13.5789L844.758 13.3824C845.128 13.3541 845.473 13.3261 845.747 13.301L846.027 13.2722C846.228 13.245 846.894 13.1378 847.943 12.8046L848.263 12.6862C849.039 12.3898 849.651 12.0949 850.003 11.9139L850.335 11.7356L852.4 10.6016ZM852.46 12.7351L851.346 13.3373L851.123 13.4603C851.033 13.5081 850.927 13.5628 850.804 13.6244L850.4 13.8201C849.934 14.0395 849.421 14.2576 848.872 14.4634C848.729 14.5171 848.585 14.5695 848.439 14.6204C847.81 14.8183 847.224 14.9686 846.713 15.0714L846.498 15.1126C846.262 15.1557 846.092 15.18 845.99 15.1915L845.911 15.1989L843.691 15.3607V25.7025L843.696 25.8896C843.785 27.882 845.29 29.7751 847.641 31.5485C849.442 32.907 851.591 34.0494 852.501 34.0494C853.381 34.0494 855.536 32.899 857.332 31.5506C859.703 29.7715 861.218 27.8833 861.307 25.8897L861.311 25.7025V15.3685L859.182 15.2004L859.071 15.1961L858.98 15.1901L858.771 15.1687C858.694 15.1592 858.611 15.1473 858.521 15.1326C858.047 15.0553 857.507 14.9216 856.908 14.7179L856.283 14.4992L855.844 14.3355C855.412 14.1689 855.013 13.9963 854.649 13.8231L854.274 13.6385L854.007 13.4982V13.4982L853.937 13.4601L853.79 13.3751L853.658 13.3037L852.46 12.7351Z" fill="url(#paint19_linear_1409_4652)"/>
<path fill-rule="evenodd" clip-rule="evenodd" d="M856.167 15.951C857.966 16.6058 859.072 16.6058 859.072 16.6058L859.902 16.6713V25.7026C859.902 29.0412 853.262 32.6399 852.502 32.6399C851.672 32.6399 845.102 29.0412 845.102 25.7026V16.6713L846 16.6058C846 16.6058 847.038 16.5402 848.905 15.951C850.773 15.2977 852.017 14.5774 852.017 14.5774L852.502 14.3152L853.054 14.5774C853.054 14.5774 854.231 15.2977 856.167 15.951ZM848.562 24.0012L852.02 27.0121L857.208 20.8599L855.963 19.7471L851.813 24.656L849.6 22.758L848.562 24.0012Z" fill="url(#paint20_linear_1409_4652)"/>
<rect x="829.887" y="0.676275" width="45.2234" height="45.2234" rx="7.64807" stroke="url(#paint21_linear_1409_4652)" stroke-width="0.66505"/>
<rect x="251.321" y="230.695" width="43.6277" height="43.6277" rx="7.37821" fill="white"/>
<path d="M271.602 253.298C273.091 255.455 276.225 255.076 277.761 253.298L280.815 250.141C282.541 248.203 282.603 245.7 280.815 243.828C279.071 242.002 276.417 242.002 274.673 243.828L271.602 246.985" stroke="url(#paint22_linear_1409_4652)" stroke-width="2.56634" stroke-linecap="round" stroke-linejoin="round"/>
<path d="M274.676 251.83C273.186 249.673 270.069 249.941 268.533 251.72L265.462 254.837C263.736 256.775 263.675 259.317 265.462 261.189C267.207 263.015 269.86 263.015 271.605 261.189L274.676 258.033" stroke="url(#paint23_linear_1409_4652)" stroke-width="2.56634" stroke-linecap="round" stroke-linejoin="round"/>
<rect x="251.321" y="230.695" width="43.6277" height="43.6277" rx="7.37821" stroke="url(#paint24_linear_1409_4652)" stroke-width="0.641584"/>
<rect x="31.5" y="116.732" width="74" height="38" rx="11.5" fill="white"/>
<path d="M52.5902 129.141L56.2337 139.803H56.3807L60.0241 129.141H62.1591L57.4482 142.232H55.1662L50.4553 129.141H52.5902ZM63.8961 142.232V132.414H65.8074V142.232H63.8961ZM64.8613 130.899C64.5289 130.899 64.2434 130.788 64.0048 130.567C63.7704 130.341 63.6532 130.072 63.6532 129.761C63.6532 129.446 63.7704 129.177 64.0048 128.956C64.2434 128.73 64.5289 128.617 64.8613 128.617C65.1937 128.617 65.4771 128.73 65.7115 128.956C65.9501 129.177 66.0694 129.446 66.0694 129.761C66.0694 130.072 65.9501 130.341 65.7115 130.567C65.4771 130.788 65.1937 130.899 64.8613 130.899ZM75.7358 134.811L74.0036 135.118C73.9311 134.896 73.8161 134.685 73.6584 134.485C73.505 134.285 73.2962 134.121 73.032 133.993C72.7678 133.865 72.4375 133.801 72.0412 133.801C71.5 133.801 71.0483 133.923 70.6861 134.165C70.3239 134.404 70.1428 134.713 70.1428 135.092C70.1428 135.42 70.2642 135.685 70.5071 135.885C70.75 136.085 71.142 136.249 71.6832 136.377L73.2429 136.735C74.1463 136.944 74.8196 137.266 75.2628 137.7C75.706 138.135 75.9276 138.7 75.9276 139.394C75.9276 139.982 75.7571 140.506 75.4162 140.967C75.0795 141.423 74.6087 141.78 74.0036 142.04C73.4027 142.3 72.706 142.43 71.9134 142.43C70.8139 142.43 69.9169 142.196 69.2223 141.727C68.5277 141.254 68.1016 140.583 67.9439 139.714L69.7912 139.432C69.9063 139.914 70.1428 140.278 70.5007 140.526C70.8587 140.768 71.3253 140.89 71.9006 140.89C72.527 140.89 73.0277 140.76 73.4027 140.5C73.7777 140.236 73.9652 139.914 73.9652 139.535C73.9652 139.228 73.8501 138.97 73.62 138.761C73.3942 138.552 73.0469 138.395 72.5781 138.288L70.9162 137.924C70 137.715 69.3224 137.383 68.8835 136.927C68.4489 136.471 68.2315 135.893 68.2315 135.195C68.2315 134.615 68.3935 134.108 68.7173 133.673C69.0412 133.239 69.4886 132.9 70.0597 132.657C70.6307 132.41 71.2848 132.286 72.022 132.286C73.0831 132.286 73.9183 132.516 74.5277 132.976C75.1371 133.432 75.5398 134.044 75.7358 134.811ZM80.8862 142.45C80.264 142.45 79.7015 142.334 79.1987 142.104C78.6958 141.87 78.2974 141.531 78.0034 141.088C77.7136 140.645 77.5687 140.101 77.5687 139.458C77.5687 138.904 77.6752 138.448 77.8883 138.09C78.1014 137.732 78.389 137.449 78.7512 137.24C79.1135 137.031 79.5183 136.874 79.9657 136.767C80.4132 136.66 80.8691 136.579 81.3336 136.524C81.9217 136.456 82.399 136.401 82.7654 136.358C83.1319 136.311 83.3983 136.236 83.5645 136.134C83.7306 136.032 83.8137 135.866 83.8137 135.636V135.591C83.8137 135.033 83.6561 134.6 83.3407 134.293C83.0297 133.986 82.5652 133.833 81.9473 133.833C81.3038 133.833 80.7967 133.976 80.426 134.261C80.0595 134.543 79.8059 134.856 79.6653 135.201L77.8691 134.792C78.0822 134.195 78.3933 133.714 78.8024 133.347C79.2157 132.976 79.6909 132.708 80.2278 132.542C80.7647 132.371 81.3294 132.286 81.9217 132.286C82.3137 132.286 82.7292 132.333 83.1681 132.427C83.6113 132.516 84.0247 132.682 84.4082 132.925C84.796 133.168 85.1135 133.516 85.3606 133.967C85.6078 134.415 85.7314 134.996 85.7314 135.712V142.232H83.8649V140.89H83.7882C83.6646 141.137 83.4792 141.38 83.2321 141.619C82.9849 141.857 82.6674 142.055 82.2797 142.213C81.8919 142.371 81.4274 142.45 80.8862 142.45ZM81.3017 140.915C81.8301 140.915 82.2818 140.811 82.6568 140.602C83.036 140.393 83.3237 140.121 83.5197 139.784C83.72 139.443 83.8201 139.079 83.8201 138.691V137.425C83.752 137.494 83.6199 137.557 83.4238 137.617C83.2321 137.673 83.0126 137.722 82.7654 137.764C82.5183 137.802 82.2775 137.839 82.0431 137.873C81.8088 137.903 81.6127 137.928 81.4551 137.95C81.0843 137.996 80.7456 138.075 80.4387 138.186C80.1362 138.297 79.8933 138.457 79.71 138.665C79.5311 138.87 79.4416 139.143 79.4416 139.484C79.4416 139.957 79.6163 140.315 79.9657 140.557C80.3152 140.796 80.7605 140.915 81.3017 140.915Z" fill="black" fill-opacity="0.7"/>
<rect x="31.5" y="116.732" width="74" height="38" rx="11.5" stroke="url(#paint25_linear_1409_4652)"/>
<rect x="0.980469" y="235.009" width="149" height="38" rx="11.5" fill="white"/>
<path d="M20.735 249.118V247.418H30.8664V249.118H26.7819V260.509H24.8131V249.118H20.735ZM31.9323 260.509V250.691H33.7796V252.25H33.8818C34.0608 251.722 34.3762 251.306 34.8279 251.004C35.2838 250.697 35.7994 250.544 36.3747 250.544C36.4941 250.544 36.6347 250.548 36.7966 250.556C36.9628 250.565 37.0928 250.576 37.1865 250.588V252.416C37.1098 252.395 36.9735 252.372 36.7774 252.346C36.5814 252.316 36.3854 252.301 36.1894 252.301C35.7377 252.301 35.335 252.397 34.9813 252.589C34.6318 252.777 34.3548 253.039 34.1503 253.375C33.9458 253.708 33.8435 254.087 33.8435 254.513V260.509H31.9323ZM41.6098 260.726C40.9877 260.726 40.4252 260.611 39.9223 260.381C39.4195 260.147 39.021 259.808 38.727 259.365C38.4372 258.921 38.2923 258.378 38.2923 257.735C38.2923 257.181 38.3989 256.725 38.6119 256.367C38.825 256.009 39.1127 255.725 39.4749 255.517C39.8371 255.308 40.2419 255.15 40.6894 255.044C41.1368 254.937 41.5928 254.856 42.0573 254.801C42.6453 254.733 43.1226 254.677 43.4891 254.634C43.8556 254.588 44.1219 254.513 44.2881 254.411C44.4543 254.309 44.5374 254.142 44.5374 253.912V253.867C44.5374 253.309 44.3797 252.877 44.0644 252.57C43.7533 252.263 43.2888 252.11 42.6709 252.11C42.0274 252.11 41.5203 252.252 41.1496 252.538C40.7831 252.819 40.5296 253.132 40.3889 253.478L38.5928 253.068C38.8058 252.472 39.1169 251.99 39.526 251.624C39.9394 251.253 40.4145 250.985 40.9514 250.818C41.4884 250.648 42.053 250.563 42.6453 250.563C43.0374 250.563 43.4529 250.61 43.8918 250.703C44.335 250.793 44.7483 250.959 45.1318 251.202C45.5196 251.445 45.8371 251.792 46.0843 252.244C46.3314 252.691 46.455 253.273 46.455 253.989V260.509H44.5885V259.166H44.5118C44.3882 259.414 44.2029 259.657 43.9557 259.895C43.7085 260.134 43.3911 260.332 43.0033 260.49C42.6155 260.647 42.151 260.726 41.6098 260.726ZM42.0253 259.192C42.5537 259.192 43.0054 259.088 43.3804 258.879C43.7597 258.67 44.0473 258.397 44.2433 258.061C44.4436 257.72 44.5438 257.355 44.5438 256.968V255.702C44.4756 255.77 44.3435 255.834 44.1475 255.894C43.9557 255.949 43.7362 255.998 43.4891 256.041C43.2419 256.079 43.0012 256.115 42.7668 256.149C42.5324 256.179 42.3364 256.205 42.1787 256.226C41.808 256.273 41.4692 256.352 41.1624 256.463C40.8598 256.573 40.6169 256.733 40.4337 256.942C40.2547 257.147 40.1652 257.419 40.1652 257.76C40.1652 258.233 40.3399 258.591 40.6894 258.834C41.0388 259.073 41.4841 259.192 42.0253 259.192ZM50.9118 254.679V260.509H49.0006V250.691H50.8351V252.289H50.9566C51.1824 251.769 51.5361 251.351 52.0177 251.036C52.5035 250.72 53.115 250.563 53.8522 250.563C54.5212 250.563 55.1072 250.703 55.61 250.985C56.1128 251.262 56.5028 251.675 56.7797 252.225C57.0567 252.774 57.1952 253.454 57.1952 254.264V260.509H55.284V254.494C55.284 253.782 55.0986 253.226 54.7279 252.826C54.3572 252.421 53.8479 252.218 53.2002 252.218C52.757 252.218 52.3628 252.314 52.0177 252.506C51.6768 252.698 51.4062 252.979 51.2059 253.35C51.0099 253.716 50.9118 254.159 50.9118 254.679ZM67.1157 253.088L65.3834 253.394C65.311 253.173 65.1959 252.962 65.0383 252.762C64.8849 252.561 64.676 252.397 64.4118 252.269C64.1476 252.142 63.8174 252.078 63.4211 252.078C62.8799 252.078 62.4282 252.199 62.066 252.442C61.7037 252.681 61.5226 252.99 61.5226 253.369C61.5226 253.697 61.6441 253.961 61.887 254.161C62.1299 254.362 62.5219 254.526 63.0631 254.654L64.6228 255.012C65.5262 255.22 66.1995 255.542 66.6427 255.977C67.0858 256.411 67.3074 256.976 67.3074 257.671C67.3074 258.259 67.137 258.783 66.7961 259.243C66.4594 259.699 65.9885 260.057 65.3834 260.317C64.7826 260.577 64.0858 260.707 63.2932 260.707C62.1938 260.707 61.2968 260.473 60.6022 260.004C59.9076 259.531 59.4814 258.86 59.3238 257.99L61.1711 257.709C61.2861 258.191 61.5226 258.555 61.8806 258.802C62.2385 259.045 62.7052 259.166 63.2805 259.166C63.9069 259.166 64.4076 259.036 64.7826 258.777C65.1576 258.512 65.3451 258.191 65.3451 257.811C65.3451 257.505 65.23 257.247 64.9999 257.038C64.7741 256.829 64.4268 256.671 63.958 256.565L62.2961 256.201C61.3799 255.992 60.7023 255.659 60.2634 255.203C59.8287 254.747 59.6114 254.17 59.6114 253.471C59.6114 252.892 59.7733 252.384 60.0972 251.95C60.4211 251.515 60.8685 251.176 61.4395 250.934C62.0106 250.686 62.6647 250.563 63.4019 250.563C64.463 250.563 65.2982 250.793 65.9076 251.253C66.517 251.709 66.9197 252.321 67.1157 253.088ZM72.2661 260.726C71.6439 260.726 71.0814 260.611 70.5786 260.381C70.0757 260.147 69.6773 259.808 69.3833 259.365C69.0935 258.921 68.9486 258.378 68.9486 257.735C68.9486 257.181 69.0551 256.725 69.2682 256.367C69.4813 256.009 69.7689 255.725 70.1311 255.517C70.4933 255.308 70.8982 255.15 71.3456 255.044C71.7931 254.937 72.249 254.856 72.7135 254.801C73.3016 254.733 73.7789 254.677 74.1453 254.634C74.5118 254.588 74.7781 254.513 74.9443 254.411C75.1105 254.309 75.1936 254.142 75.1936 253.912V253.867C75.1936 253.309 75.036 252.877 74.7206 252.57C74.4095 252.263 73.945 252.11 73.3271 252.11C72.6837 252.11 72.1766 252.252 71.8058 252.538C71.4394 252.819 71.1858 253.132 71.0452 253.478L69.249 253.068C69.4621 252.472 69.7732 251.99 70.1823 251.624C70.5956 251.253 71.0708 250.985 71.6077 250.818C72.1446 250.648 72.7093 250.563 73.3016 250.563C73.6936 250.563 74.1091 250.61 74.548 250.703C74.9912 250.793 75.4046 250.959 75.7881 251.202C76.1759 251.445 76.4933 251.792 76.7405 252.244C76.9877 252.691 77.1112 253.273 77.1112 253.989V260.509H75.2448V259.166H75.1681C75.0445 259.414 74.8591 259.657 74.6119 259.895C74.3648 260.134 74.0473 260.332 73.6595 260.49C73.2718 260.647 72.8073 260.726 72.2661 260.726ZM72.6816 259.192C73.21 259.192 73.6617 259.088 74.0367 258.879C74.4159 258.67 74.7036 258.397 74.8996 258.061C75.0999 257.72 75.2 257.355 75.2 256.968V255.702C75.1318 255.77 74.9997 255.834 74.8037 255.894C74.6119 255.949 74.3925 255.998 74.1453 256.041C73.8982 256.079 73.6574 256.115 73.423 256.149C73.1887 256.179 72.9926 256.205 72.835 256.226C72.4642 256.273 72.1254 256.352 71.8186 256.463C71.5161 256.573 71.2732 256.733 71.0899 256.942C70.911 257.147 70.8215 257.419 70.8215 257.76C70.8215 258.233 70.9962 258.591 71.3456 258.834C71.695 259.073 72.1404 259.192 72.6816 259.192ZM83.7925 260.707C82.8422 260.707 82.0241 260.492 81.338 260.061C80.6562 259.627 80.132 259.028 79.7655 258.265C79.3991 257.502 79.2158 256.629 79.2158 255.644C79.2158 254.647 79.4033 253.767 79.7783 253.005C80.1533 252.237 80.6817 251.639 81.3635 251.208C82.0454 250.778 82.8486 250.563 83.7733 250.563C84.5191 250.563 85.1839 250.701 85.7677 250.978C86.3515 251.251 86.8224 251.634 87.1803 252.129C87.5425 252.623 87.7577 253.201 87.8259 253.861H85.9658C85.8635 253.401 85.6292 253.005 85.2627 252.672C84.9005 252.34 84.4147 252.174 83.8053 252.174C83.2726 252.174 82.806 252.314 82.4055 252.595C82.0091 252.872 81.7002 253.269 81.4786 253.784C81.257 254.296 81.1462 254.901 81.1462 255.6C81.1462 256.316 81.2549 256.934 81.4722 257.453C81.6895 257.973 81.9964 258.376 82.3927 258.661C82.7932 258.947 83.2641 259.09 83.8053 259.09C84.1675 259.09 84.4956 259.024 84.7897 258.892C85.088 258.755 85.3373 258.561 85.5376 258.31C85.7421 258.059 85.8849 257.756 85.9658 257.402H87.8259C87.7577 258.037 87.551 258.604 87.2059 259.103C86.8607 259.601 86.3983 259.993 85.8188 260.279C85.2435 260.564 84.5681 260.707 83.7925 260.707ZM94.4529 250.691V252.225H89.0899V250.691H94.4529ZM90.5281 248.338H92.4394V257.626C92.4394 257.997 92.4948 258.276 92.6056 258.463C92.7164 258.647 92.8591 258.772 93.0338 258.84C93.2128 258.904 93.4067 258.936 93.6155 258.936C93.7689 258.936 93.9031 258.926 94.0182 258.904C94.1333 258.883 94.2227 258.866 94.2867 258.853L94.6318 260.432C94.521 260.475 94.3634 260.517 94.1588 260.56C93.9543 260.607 93.6986 260.632 93.3918 260.637C92.8889 260.645 92.4202 260.556 91.9855 260.368C91.5509 260.181 91.1993 259.891 90.9308 259.499C90.6624 259.107 90.5281 258.615 90.5281 258.022V248.338ZM96.567 260.509V250.691H98.4782V260.509H96.567ZM97.5322 249.176C97.1998 249.176 96.9143 249.065 96.6757 248.843C96.4413 248.617 96.3241 248.349 96.3241 248.038C96.3241 247.723 96.4413 247.454 96.6757 247.233C96.9143 247.007 97.1998 246.894 97.5322 246.894C97.8646 246.894 98.148 247.007 98.3824 247.233C98.621 247.454 98.7403 247.723 98.7403 248.038C98.7403 248.349 98.621 248.617 98.3824 248.843C98.148 249.065 97.8646 249.176 97.5322 249.176ZM105.185 260.707C104.265 260.707 103.461 260.496 102.775 260.074C102.089 259.652 101.557 259.062 101.177 258.304C100.798 257.545 100.608 256.659 100.608 255.644C100.608 254.626 100.798 253.735 101.177 252.973C101.557 252.21 102.089 251.617 102.775 251.196C103.461 250.774 104.265 250.563 105.185 250.563C106.106 250.563 106.909 250.774 107.595 251.196C108.281 251.617 108.814 252.21 109.193 252.973C109.572 253.735 109.762 254.626 109.762 255.644C109.762 256.659 109.572 257.545 109.193 258.304C108.814 259.062 108.281 259.652 107.595 260.074C106.909 260.496 106.106 260.707 105.185 260.707ZM105.191 259.103C105.788 259.103 106.282 258.945 106.674 258.63C107.066 258.314 107.356 257.894 107.544 257.37C107.736 256.846 107.831 256.269 107.831 255.638C107.831 255.012 107.736 254.436 107.544 253.912C107.356 253.384 107.066 252.96 106.674 252.64C106.282 252.321 105.788 252.161 105.191 252.161C104.591 252.161 104.092 252.321 103.696 252.64C103.304 252.96 103.012 253.384 102.82 253.912C102.633 254.436 102.539 255.012 102.539 255.638C102.539 256.269 102.633 256.846 102.82 257.37C103.012 257.894 103.304 258.314 103.696 258.63C104.092 258.945 104.591 259.103 105.191 259.103ZM113.806 254.679V260.509H111.895V250.691H113.73V252.289H113.851C114.077 251.769 114.431 251.351 114.912 251.036C115.398 250.72 116.009 250.563 116.747 250.563C117.416 250.563 118.002 250.703 118.505 250.985C119.007 251.262 119.397 251.675 119.674 252.225C119.951 252.774 120.09 253.454 120.09 254.264V260.509H118.179V254.494C118.179 253.782 117.993 253.226 117.622 252.826C117.252 252.421 116.742 252.218 116.095 252.218C115.652 252.218 115.257 252.314 114.912 252.506C114.571 252.698 114.301 252.979 114.1 253.35C113.904 253.716 113.806 254.159 113.806 254.679ZM130.01 253.088L128.278 253.394C128.206 253.173 128.09 252.962 127.933 252.762C127.779 252.561 127.571 252.397 127.306 252.269C127.042 252.142 126.712 252.078 126.316 252.078C125.774 252.078 125.323 252.199 124.96 252.442C124.598 252.681 124.417 252.99 124.417 253.369C124.417 253.697 124.539 253.961 124.782 254.161C125.024 254.362 125.416 254.526 125.958 254.654L127.517 255.012C128.421 255.22 129.094 255.542 129.537 255.977C129.98 256.411 130.202 256.976 130.202 257.671C130.202 258.259 130.032 258.783 129.691 259.243C129.354 259.699 128.883 260.057 128.278 260.317C127.677 260.577 126.98 260.707 126.188 260.707C125.088 260.707 124.191 260.473 123.497 260.004C122.802 259.531 122.376 258.86 122.218 257.99L124.066 257.709C124.181 258.191 124.417 258.555 124.775 258.802C125.133 259.045 125.6 259.166 126.175 259.166C126.801 259.166 127.302 259.036 127.677 258.777C128.052 258.512 128.24 258.191 128.24 257.811C128.24 257.505 128.125 257.247 127.894 257.038C127.669 256.829 127.321 256.671 126.853 256.565L125.191 256.201C124.274 255.992 123.597 255.659 123.158 255.203C122.723 254.747 122.506 254.17 122.506 253.471C122.506 252.892 122.668 252.384 122.992 251.95C123.316 251.515 123.763 251.176 124.334 250.934C124.905 250.686 125.559 250.563 126.296 250.563C127.358 250.563 128.193 250.793 128.802 251.253C129.411 251.709 129.814 252.321 130.01 253.088Z" fill="black" fill-opacity="0.7"/>
<rect x="0.980469" y="235.009" width="149" height="38" rx="11.5" stroke="url(#paint26_linear_1409_4652)"/>
<rect x="1013.98" y="342.384" width="125" height="38" rx="11.5" fill="white"/>
<path d="M1035.11 367.884H1033.02L1037.73 354.793H1040.01L1044.72 367.884H1042.62L1038.92 357.171H1038.82L1035.11 367.884ZM1035.47 362.758H1042.27V364.42H1035.47V362.758ZM1052.68 363.813V358.066H1054.6V367.884H1052.72V366.184H1052.61C1052.39 366.708 1052.03 367.145 1051.53 367.494C1051.03 367.84 1050.42 368.012 1049.68 368.012C1049.05 368.012 1048.49 367.874 1048.01 367.597C1047.52 367.315 1047.14 366.9 1046.87 366.35C1046.59 365.8 1046.46 365.121 1046.46 364.311V358.066H1048.37V364.081C1048.37 364.75 1048.56 365.283 1048.93 365.679C1049.3 366.075 1049.78 366.273 1050.37 366.273C1050.73 366.273 1051.08 366.184 1051.44 366.005C1051.8 365.826 1052.09 365.555 1052.33 365.193C1052.57 364.831 1052.68 364.371 1052.68 363.813ZM1061.75 358.066V359.6H1056.38V358.066H1061.75ZM1057.82 355.714H1059.73V365.001C1059.73 365.372 1059.79 365.651 1059.9 365.839C1060.01 366.022 1060.15 366.148 1060.33 366.216C1060.51 366.28 1060.7 366.312 1060.91 366.312C1061.06 366.312 1061.2 366.301 1061.31 366.28C1061.43 366.259 1061.52 366.242 1061.58 366.229L1061.93 367.808C1061.81 367.85 1061.66 367.893 1061.45 367.935C1061.25 367.982 1060.99 368.008 1060.69 368.012C1060.18 368.021 1059.71 367.931 1059.28 367.744C1058.84 367.556 1058.49 367.266 1058.22 366.874C1057.96 366.482 1057.82 365.99 1057.82 365.398V355.714ZM1067.89 368.082C1066.97 368.082 1066.17 367.871 1065.48 367.45C1064.8 367.028 1064.26 366.438 1063.88 365.679C1063.5 364.92 1063.31 364.034 1063.31 363.02C1063.31 362.001 1063.5 361.111 1063.88 360.348C1064.26 359.585 1064.8 358.993 1065.48 358.571C1066.17 358.149 1066.97 357.938 1067.89 357.938C1068.81 357.938 1069.61 358.149 1070.3 358.571C1070.99 358.993 1071.52 359.585 1071.9 360.348C1072.28 361.111 1072.47 362.001 1072.47 363.02C1072.47 364.034 1072.28 364.92 1071.9 365.679C1071.52 366.438 1070.99 367.028 1070.3 367.45C1069.61 367.871 1068.81 368.082 1067.89 368.082ZM1067.9 366.478C1068.49 366.478 1068.99 366.32 1069.38 366.005C1069.77 365.69 1070.06 365.27 1070.25 364.746C1070.44 364.222 1070.54 363.644 1070.54 363.014C1070.54 362.387 1070.44 361.812 1070.25 361.288C1070.06 360.759 1069.77 360.335 1069.38 360.016C1068.99 359.696 1068.49 359.536 1067.9 359.536C1067.3 359.536 1066.8 359.696 1066.4 360.016C1066.01 360.335 1065.72 360.759 1065.53 361.288C1065.34 361.812 1065.24 362.387 1065.24 363.014C1065.24 363.644 1065.34 364.222 1065.53 364.746C1065.72 365.27 1066.01 365.69 1066.4 366.005C1066.8 366.32 1067.3 366.478 1067.9 366.478ZM1079.36 367.884V358.066H1081.21V359.626H1081.31C1081.49 359.097 1081.81 358.682 1082.26 358.379C1082.72 358.072 1083.23 357.919 1083.81 357.919C1083.93 357.919 1084.07 357.923 1084.23 357.932C1084.4 357.94 1084.53 357.951 1084.62 357.964V359.792C1084.54 359.771 1084.41 359.747 1084.21 359.722C1084.01 359.692 1083.82 359.677 1083.62 359.677C1083.17 359.677 1082.77 359.773 1082.41 359.965C1082.06 360.152 1081.79 360.414 1081.58 360.751C1081.38 361.083 1081.28 361.462 1081.28 361.889V367.884H1079.36ZM1092.49 363.813V358.066H1094.41V367.884H1092.53V366.184H1092.43C1092.2 366.708 1091.84 367.145 1091.34 367.494C1090.85 367.84 1090.23 368.012 1089.49 368.012C1088.86 368.012 1088.31 367.874 1087.82 367.597C1087.34 367.315 1086.96 366.9 1086.68 366.35C1086.41 365.8 1086.27 365.121 1086.27 364.311V358.066H1088.18V364.081C1088.18 364.75 1088.37 365.283 1088.74 365.679C1089.11 366.075 1089.59 366.273 1090.19 366.273C1090.54 366.273 1090.9 366.184 1091.25 366.005C1091.61 365.826 1091.91 365.555 1092.14 365.193C1092.38 364.831 1092.5 364.371 1092.49 363.813ZM1098.89 354.793V367.884H1096.98V354.793H1098.89ZM1105.69 368.082C1104.72 368.082 1103.89 367.876 1103.19 367.462C1102.5 367.045 1101.96 366.459 1101.58 365.705C1101.21 364.946 1101.02 364.058 1101.02 363.039C1101.02 362.033 1101.21 361.147 1101.58 360.38C1101.96 359.613 1102.49 359.014 1103.17 358.584C1103.85 358.153 1104.65 357.938 1105.56 357.938C1106.11 357.938 1106.65 358.03 1107.17 358.213C1107.69 358.396 1108.16 358.684 1108.57 359.076C1108.98 359.468 1109.31 359.977 1109.55 360.604C1109.79 361.226 1109.9 361.982 1109.9 362.873V363.55H1102.1V362.119H1108.03C1108.03 361.616 1107.93 361.17 1107.72 360.783C1107.52 360.391 1107.23 360.082 1106.86 359.856C1106.5 359.63 1106.06 359.517 1105.57 359.517C1105.03 359.517 1104.56 359.649 1104.16 359.913C1103.77 360.173 1103.46 360.514 1103.24 360.936C1103.03 361.354 1102.92 361.808 1102.92 362.298V363.416C1102.92 364.072 1103.04 364.631 1103.27 365.091C1103.5 365.551 1103.83 365.903 1104.25 366.146C1104.67 366.384 1105.15 366.504 1105.71 366.504C1106.07 366.504 1106.4 366.452 1106.7 366.35C1107 366.244 1107.26 366.086 1107.48 365.877C1107.69 365.668 1107.86 365.411 1107.97 365.104L1109.78 365.43C1109.64 365.962 1109.38 366.429 1109 366.83C1108.63 367.226 1108.17 367.535 1107.6 367.756C1107.05 367.974 1106.41 368.082 1105.69 368.082ZM1119.38 360.463L1117.65 360.77C1117.58 360.548 1117.46 360.337 1117.3 360.137C1117.15 359.937 1116.94 359.773 1116.68 359.645C1116.41 359.517 1116.08 359.453 1115.69 359.453C1115.15 359.453 1114.69 359.575 1114.33 359.818C1113.97 360.056 1113.79 360.365 1113.79 360.744C1113.79 361.072 1113.91 361.337 1114.15 361.537C1114.4 361.737 1114.79 361.901 1115.33 362.029L1116.89 362.387C1117.79 362.596 1118.47 362.918 1118.91 363.352C1119.35 363.787 1119.57 364.352 1119.57 365.046C1119.57 365.634 1119.4 366.158 1119.06 366.619C1118.73 367.075 1118.26 367.433 1117.65 367.693C1117.05 367.952 1116.35 368.082 1115.56 368.082C1114.46 368.082 1113.56 367.848 1112.87 367.379C1112.17 366.906 1111.75 366.235 1111.59 365.366L1113.44 365.085C1113.55 365.566 1113.79 365.93 1114.15 366.178C1114.51 366.42 1114.97 366.542 1115.55 366.542C1116.17 366.542 1116.67 366.412 1117.05 366.152C1117.42 365.888 1117.61 365.566 1117.61 365.187C1117.61 364.88 1117.5 364.622 1117.27 364.413C1117.04 364.205 1116.69 364.047 1116.22 363.94L1114.56 363.576C1113.65 363.367 1112.97 363.035 1112.53 362.579C1112.1 362.123 1111.88 361.545 1111.88 360.847C1111.88 360.267 1112.04 359.76 1112.36 359.325C1112.69 358.891 1113.14 358.552 1113.71 358.309C1114.28 358.062 1114.93 357.938 1115.67 357.938C1116.73 357.938 1117.56 358.168 1118.17 358.629C1118.78 359.085 1119.19 359.696 1119.38 360.463Z" fill="black" fill-opacity="0.7"/>
<rect x="1013.98" y="342.384" width="125" height="38" rx="11.5" stroke="url(#paint27_linear_1409_4652)"/>
<rect x="31.5" y="342.572" width="115" height="38" rx="11.5" fill="white"/>
<path d="M51.8279 368.072V354.981H59.9458V356.681H53.803V360.67H59.3641V362.363H53.803V368.072H51.8279ZM62.2213 368.072V358.253H64.1325V368.072H62.2213ZM63.1865 356.738C62.8541 356.738 62.5686 356.628 62.33 356.406C62.0956 356.18 61.9784 355.912 61.9784 355.601C61.9784 355.285 62.0956 355.017 62.33 354.795C62.5686 354.569 62.8541 354.456 63.1865 354.456C63.5189 354.456 63.8023 354.569 64.0367 354.795C64.2753 355.017 64.3946 355.285 64.3946 355.601C64.3946 355.912 64.2753 356.18 64.0367 356.406C63.8023 356.628 63.5189 356.738 63.1865 356.738ZM68.615 362.242V368.072H66.7037V358.253H68.5383V359.851H68.6597C68.8856 359.331 69.2393 358.914 69.7208 358.599C70.2066 358.283 70.8181 358.126 71.5553 358.126C72.2243 358.126 72.8103 358.266 73.3131 358.547C73.816 358.824 74.2059 359.238 74.4829 359.787C74.7599 360.337 74.8983 361.017 74.8983 361.827V368.072H72.9871V362.057C72.9871 361.345 72.8018 360.789 72.431 360.388C72.0603 359.983 71.551 359.781 70.9033 359.781C70.4601 359.781 70.066 359.877 69.7208 360.069C69.3799 360.26 69.1093 360.542 68.909 360.912C68.713 361.279 68.615 361.722 68.615 362.242ZM80.3188 368.289C79.6966 368.289 79.1341 368.174 78.6313 367.944C78.1285 367.709 77.73 367.371 77.436 366.927C77.1462 366.484 77.0013 365.941 77.0013 365.297C77.0013 364.743 77.1079 364.287 77.3209 363.929C77.534 363.572 77.8216 363.288 78.1839 363.079C78.5461 362.871 78.9509 362.713 79.3983 362.606C79.8458 362.5 80.3018 362.419 80.7662 362.363C81.3543 362.295 81.8316 362.24 82.1981 362.197C82.5645 362.15 82.8309 362.076 82.9971 361.974C83.1633 361.871 83.2464 361.705 83.2464 361.475V361.43C83.2464 360.872 83.0887 360.439 82.7733 360.133C82.4623 359.826 81.9978 359.672 81.3799 359.672C80.7364 359.672 80.2293 359.815 79.8586 360.101C79.4921 360.382 79.2385 360.695 79.0979 361.04L77.3018 360.631C77.5148 360.035 77.8259 359.553 78.235 359.187C78.6483 358.816 79.1235 358.547 79.6604 358.381C80.1974 358.211 80.762 358.126 81.3543 358.126C81.7464 358.126 82.1618 358.172 82.6008 358.266C83.0439 358.356 83.4573 358.522 83.8408 358.765C84.2286 359.008 84.5461 359.355 84.7932 359.807C85.0404 360.254 85.164 360.836 85.164 361.552V368.072H83.2975V366.729H83.2208C83.0972 366.976 82.9118 367.219 82.6647 367.458C82.4175 367.697 82.1001 367.895 81.7123 368.052C81.3245 368.21 80.86 368.289 80.3188 368.289ZM80.7343 366.755C81.2627 366.755 81.7144 366.65 82.0894 366.442C82.4687 366.233 82.7563 365.96 82.9523 365.623C83.1526 365.282 83.2528 364.918 83.2528 364.53V363.265C83.1846 363.333 83.0525 363.397 82.8564 363.456C82.6647 363.512 82.4452 363.561 82.1981 363.603C81.9509 363.642 81.7101 363.678 81.4758 363.712C81.2414 363.742 81.0454 363.768 80.8877 363.789C80.517 363.836 80.1782 363.915 79.8714 364.025C79.5688 364.136 79.3259 364.296 79.1427 364.505C78.9637 364.709 78.8742 364.982 78.8742 365.323C78.8742 365.796 79.0489 366.154 79.3983 366.397C79.7478 366.635 80.1931 366.755 80.7343 366.755ZM89.6208 362.242V368.072H87.7096V358.253H89.5441V359.851H89.6656C89.8914 359.331 90.2451 358.914 90.7267 358.599C91.2124 358.283 91.824 358.126 92.5612 358.126C93.2302 358.126 93.8161 358.266 94.319 358.547C94.8218 358.824 95.2117 359.238 95.4887 359.787C95.7657 360.337 95.9042 361.017 95.9042 361.827V368.072H93.993V362.057C93.993 361.345 93.8076 360.789 93.4369 360.388C93.0661 359.983 92.5569 359.781 91.9092 359.781C91.466 359.781 91.0718 359.877 90.7267 360.069C90.3857 360.26 90.1151 360.542 89.9149 360.912C89.7188 361.279 89.6208 361.722 89.6208 362.242ZM102.603 368.27C101.653 368.27 100.835 368.054 100.149 367.624C99.4667 367.189 98.9426 366.591 98.5761 365.828C98.2096 365.065 98.0264 364.192 98.0264 363.207C98.0264 362.21 98.2139 361.33 98.5889 360.567C98.9639 359.8 99.4923 359.202 100.174 358.771C100.856 358.341 101.659 358.126 102.584 358.126C103.33 358.126 103.994 358.264 104.578 358.541C105.162 358.814 105.633 359.197 105.991 359.692C106.353 360.186 106.568 360.763 106.636 361.424H104.776C104.674 360.964 104.44 360.567 104.073 360.235C103.711 359.902 103.225 359.736 102.616 359.736C102.083 359.736 101.617 359.877 101.216 360.158C100.82 360.435 100.511 360.831 100.289 361.347C100.068 361.858 99.9568 362.464 99.9568 363.162C99.9568 363.878 100.065 364.496 100.283 365.016C100.5 365.536 100.807 365.939 101.203 366.224C101.604 366.51 102.075 366.652 102.616 366.652C102.978 366.652 103.306 366.586 103.6 366.454C103.899 366.318 104.148 366.124 104.348 365.873C104.553 365.621 104.695 365.319 104.776 364.965H106.636C106.568 365.6 106.362 366.167 106.016 366.665C105.671 367.164 105.209 367.556 104.629 367.841C104.054 368.127 103.379 368.27 102.603 368.27ZM112.912 368.27C111.945 368.27 111.111 368.063 110.413 367.65C109.718 367.232 109.181 366.646 108.802 365.892C108.427 365.133 108.239 364.245 108.239 363.226C108.239 362.221 108.427 361.334 108.802 360.567C109.181 359.8 109.709 359.202 110.387 358.771C111.069 358.341 111.866 358.126 112.778 358.126C113.332 358.126 113.869 358.217 114.388 358.4C114.908 358.584 115.375 358.871 115.788 359.263C116.202 359.655 116.528 360.165 116.766 360.791C117.005 361.413 117.124 362.17 117.124 363.06V363.738H109.32V362.306H115.251C115.251 361.803 115.149 361.358 114.945 360.97C114.74 360.578 114.452 360.269 114.082 360.043C113.715 359.817 113.285 359.704 112.79 359.704C112.253 359.704 111.785 359.836 111.384 360.101C110.988 360.361 110.681 360.702 110.464 361.123C110.251 361.541 110.144 361.995 110.144 362.485V363.603C110.144 364.26 110.259 364.818 110.489 365.278C110.724 365.738 111.05 366.09 111.467 366.333C111.885 366.572 112.373 366.691 112.931 366.691C113.293 366.691 113.623 366.64 113.922 366.537C114.22 366.431 114.478 366.273 114.695 366.064C114.913 365.856 115.079 365.598 115.194 365.291L117.003 365.617C116.858 366.15 116.598 366.616 116.223 367.017C115.852 367.413 115.386 367.722 114.823 367.944C114.265 368.161 113.628 368.27 112.912 368.27ZM126.602 360.65L124.87 360.957C124.797 360.736 124.682 360.525 124.525 360.324C124.371 360.124 124.162 359.96 123.898 359.832C123.634 359.704 123.304 359.64 122.907 359.64C122.366 359.64 121.915 359.762 121.552 360.005C121.19 360.243 121.009 360.552 121.009 360.932C121.009 361.26 121.13 361.524 121.373 361.724C121.616 361.925 122.008 362.089 122.549 362.216L124.109 362.574C125.013 362.783 125.686 363.105 126.129 363.54C126.572 363.974 126.794 364.539 126.794 365.233C126.794 365.822 126.623 366.346 126.282 366.806C125.946 367.262 125.475 367.62 124.87 367.88C124.269 368.14 123.572 368.27 122.78 368.27C121.68 368.27 120.783 368.035 120.089 367.567C119.394 367.094 118.968 366.422 118.81 365.553L120.657 365.272C120.772 365.753 121.009 366.118 121.367 366.365C121.725 366.608 122.191 366.729 122.767 366.729C123.393 366.729 123.894 366.599 124.269 366.339C124.644 366.075 124.831 365.753 124.831 365.374C124.831 365.067 124.716 364.809 124.486 364.601C124.26 364.392 123.913 364.234 123.444 364.128L121.782 363.763C120.866 363.554 120.189 363.222 119.75 362.766C119.315 362.31 119.098 361.733 119.098 361.034C119.098 360.454 119.26 359.947 119.584 359.513C119.907 359.078 120.355 358.739 120.926 358.496C121.497 358.249 122.151 358.126 122.888 358.126C123.949 358.126 124.785 358.356 125.394 358.816C126.003 359.272 126.406 359.883 126.602 360.65Z" fill="black" fill-opacity="0.7"/>
<rect x="31.5" y="342.572" width="115" height="38" rx="11.5" stroke="url(#paint28_linear_1409_4652)"/>
<rect x="39.2852" y="6.51611" width="77" height="38" rx="11.5" fill="white"/>
<path d="M60.875 18.9252L64.0071 24.0452H64.1094L67.2415 18.9252H69.5298L65.4517 25.4707L69.5554 32.0161H67.2543L64.1094 26.9664H64.0071L60.8622 32.0161H58.5611L62.7351 25.4707L58.5866 18.9252H60.875ZM75.0574 32.2143C74.09 32.2143 73.2569 32.0076 72.5581 31.5942C71.8635 31.1766 71.3265 30.5907 70.9473 29.8364C70.5723 29.0779 70.3848 28.1894 70.3848 27.1709C70.3848 26.1653 70.5723 25.2789 70.9473 24.5119C71.3265 23.7448 71.8549 23.1461 72.5325 22.7157C73.2143 22.2853 74.0112 22.0701 74.9231 22.0701C75.4771 22.0701 76.014 22.1617 76.5339 22.3449C77.0538 22.5282 77.5204 22.8158 77.9338 23.2079C78.3471 23.5999 78.6731 24.1092 78.9118 24.7356C79.1504 25.3577 79.2697 26.1141 79.2697 27.0047V27.6823H71.465V26.2505H77.3968C77.3968 25.7476 77.2946 25.3023 77.09 24.9146C76.8855 24.5225 76.5978 24.2136 76.2271 23.9877C75.8606 23.7619 75.4302 23.6489 74.9359 23.6489C74.399 23.6489 73.9302 23.781 73.5297 24.0452C73.1333 24.3052 72.8265 24.6461 72.6092 25.068C72.3961 25.4856 72.2896 25.9394 72.2896 26.4295V27.5481C72.2896 28.2043 72.4047 28.7626 72.6348 29.2228C72.8691 29.683 73.1951 30.0346 73.6127 30.2775C74.0304 30.5161 74.5183 30.6354 75.0765 30.6354C75.4387 30.6354 75.769 30.5843 76.0673 30.482C76.3656 30.3755 76.6234 30.2178 76.8407 30.009C77.0581 29.8002 77.2243 29.5424 77.3393 29.2356L79.1483 29.5616C79.0034 30.0942 78.7434 30.5609 78.3684 30.9614C77.9977 31.3577 77.5311 31.6667 76.9686 31.8883C76.4103 32.1056 75.7733 32.2143 75.0574 32.2143ZM81.3903 32.0161V22.1979H83.2376V23.7576H83.3398C83.5188 23.2292 83.8342 22.8137 84.2859 22.5111C84.7418 22.2043 85.2575 22.0509 85.8327 22.0509C85.9521 22.0509 86.0927 22.0552 86.2546 22.0637C86.4208 22.0722 86.5508 22.0829 86.6445 22.0957V23.9238C86.5678 23.9025 86.4315 23.879 86.2354 23.8535C86.0394 23.8236 85.8434 23.8087 85.6474 23.8087C85.1957 23.8087 84.793 23.9046 84.4393 24.0964C84.0898 24.2839 83.8129 24.5459 83.6083 24.8826C83.4038 25.215 83.3015 25.5942 83.3015 26.0204V32.0161H81.3903ZM92.0826 32.2143C91.1621 32.2143 90.3588 32.0033 89.6728 31.5815C88.9867 31.1596 88.454 30.5694 88.0748 29.8109C87.6955 29.0523 87.5059 28.166 87.5059 27.1518C87.5059 26.1333 87.6955 25.2427 88.0748 24.4799C88.454 23.7171 88.9867 23.1248 89.6728 22.7029C90.3588 22.281 91.1621 22.0701 92.0826 22.0701C93.003 22.0701 93.8063 22.281 94.4924 22.7029C95.1784 23.1248 95.7111 23.7171 96.0904 24.4799C96.4696 25.2427 96.6593 26.1333 96.6593 27.1518C96.6593 28.166 96.4696 29.0523 96.0904 29.8109C95.7111 30.5694 95.1784 31.1596 94.4924 31.5815C93.8063 32.0033 93.003 32.2143 92.0826 32.2143ZM92.089 30.6099C92.6855 30.6099 93.1799 30.4522 93.5719 30.1369C93.964 29.8215 94.2537 29.4018 94.4412 28.8776C94.633 28.3535 94.7289 27.7761 94.7289 27.1454C94.7289 26.519 94.633 25.9437 94.4412 25.4195C94.2537 24.8911 93.964 24.4671 93.5719 24.1475C93.1799 23.8279 92.6855 23.6681 92.089 23.6681C91.4881 23.6681 90.9895 23.8279 90.5932 24.1475C90.2012 24.4671 89.9093 24.8911 89.7175 25.4195C89.53 25.9437 89.4363 26.519 89.4363 27.1454C89.4363 27.7761 89.53 28.3535 89.7175 28.8776C89.9093 29.4018 90.2012 29.8215 90.5932 30.1369C90.9895 30.4522 91.4881 30.6099 92.089 30.6099Z" fill="black" fill-opacity="0.7"/>
<rect x="39.2852" y="6.51611" width="77" height="38" rx="11.5" stroke="url(#paint29_linear_1409_4652)"/>
<rect x="976.98" y="233.751" width="162" height="38" rx="11.5" fill="white"/>
<path d="M998.43 259.251H996.333L1001.04 246.16H1003.33L1008.04 259.251H1005.94L1002.24 248.538H1002.14L998.43 259.251ZM998.781 254.125H1005.58V255.786H998.781V254.125ZM1015.99 255.179V249.433H1017.91V259.251H1016.03V257.551H1015.93C1015.7 258.075 1015.34 258.512 1014.84 258.861C1014.35 259.206 1013.73 259.379 1013 259.379C1012.36 259.379 1011.81 259.24 1011.32 258.963C1010.84 258.682 1010.46 258.267 1010.18 257.717C1009.91 257.167 1009.77 256.487 1009.77 255.678V249.433H1011.69V255.448C1011.69 256.117 1011.87 256.649 1012.24 257.046C1012.61 257.442 1013.09 257.64 1013.69 257.64C1014.04 257.64 1014.4 257.551 1014.75 257.372C1015.11 257.193 1015.41 256.922 1015.64 256.56C1015.88 256.198 1016 255.737 1015.99 255.179ZM1025.06 249.433V250.967H1019.7V249.433H1025.06ZM1021.14 247.081H1023.05V256.368C1023.05 256.739 1023.1 257.018 1023.21 257.206C1023.33 257.389 1023.47 257.514 1023.64 257.583C1023.82 257.647 1024.02 257.679 1024.22 257.679C1024.38 257.679 1024.51 257.668 1024.63 257.647C1024.74 257.625 1024.83 257.608 1024.9 257.595L1025.24 259.174C1025.13 259.217 1024.97 259.259 1024.77 259.302C1024.56 259.349 1024.31 259.375 1024 259.379C1023.5 259.387 1023.03 259.298 1022.59 259.11C1022.16 258.923 1021.81 258.633 1021.54 258.241C1021.27 257.849 1021.14 257.357 1021.14 256.764V247.081ZM1031.21 259.449C1030.29 259.449 1029.48 259.238 1028.8 258.816C1028.11 258.394 1027.58 257.804 1027.2 257.046C1026.82 256.287 1026.63 255.401 1026.63 254.387C1026.63 253.368 1026.82 252.478 1027.2 251.715C1027.58 250.952 1028.11 250.36 1028.8 249.938C1029.48 249.516 1030.29 249.305 1031.21 249.305C1032.13 249.305 1032.93 249.516 1033.62 249.938C1034.3 250.36 1034.84 250.952 1035.21 251.715C1035.59 252.478 1035.78 253.368 1035.78 254.387C1035.78 255.401 1035.59 256.287 1035.21 257.046C1034.84 257.804 1034.3 258.394 1033.62 258.816C1032.93 259.238 1032.13 259.449 1031.21 259.449ZM1031.21 257.845C1031.81 257.845 1032.3 257.687 1032.7 257.372C1033.09 257.056 1033.38 256.637 1033.57 256.112C1033.76 255.588 1033.85 255.011 1033.85 254.38C1033.85 253.754 1033.76 253.179 1033.57 252.654C1033.38 252.126 1033.09 251.702 1032.7 251.382C1032.3 251.063 1031.81 250.903 1031.21 250.903C1030.61 250.903 1030.11 251.063 1029.72 251.382C1029.33 251.702 1029.03 252.126 1028.84 252.654C1028.65 253.179 1028.56 253.754 1028.56 254.38C1028.56 255.011 1028.65 255.588 1028.84 256.112C1029.03 256.637 1029.33 257.056 1029.72 257.372C1030.11 257.687 1030.61 257.845 1031.21 257.845ZM1042.68 259.251V249.433H1044.53V250.992H1044.63C1044.81 250.464 1045.12 250.049 1045.58 249.746C1046.03 249.439 1046.55 249.286 1047.12 249.286C1047.24 249.286 1047.38 249.29 1047.54 249.299C1047.71 249.307 1047.84 249.318 1047.93 249.331V251.159C1047.86 251.137 1047.72 251.114 1047.53 251.088C1047.33 251.059 1047.13 251.044 1046.94 251.044C1046.49 251.044 1046.08 251.139 1045.73 251.331C1045.38 251.519 1045.1 251.781 1044.9 252.117C1044.69 252.45 1044.59 252.829 1044.59 253.255V259.251H1042.68ZM1053.47 259.449C1052.5 259.449 1051.67 259.242 1050.97 258.829C1050.27 258.411 1049.74 257.826 1049.36 257.071C1048.98 256.313 1048.8 255.424 1048.8 254.406C1048.8 253.4 1048.98 252.514 1049.36 251.747C1049.74 250.98 1050.27 250.381 1050.94 249.951C1051.63 249.52 1052.42 249.305 1053.33 249.305C1053.89 249.305 1054.43 249.397 1054.95 249.58C1055.46 249.763 1055.93 250.051 1056.34 250.443C1056.76 250.835 1057.08 251.344 1057.32 251.97C1057.56 252.593 1057.68 253.349 1057.68 254.24V254.917H1049.88V253.485H1055.81C1055.81 252.983 1055.71 252.537 1055.5 252.149C1055.3 251.757 1055.01 251.448 1054.64 251.223C1054.27 250.997 1053.84 250.884 1053.35 250.884C1052.81 250.884 1052.34 251.016 1051.94 251.28C1051.54 251.54 1051.24 251.881 1051.02 252.303C1050.81 252.72 1050.7 253.174 1050.7 253.664V254.783C1050.7 255.439 1050.82 255.997 1051.05 256.458C1051.28 256.918 1051.61 257.269 1052.02 257.512C1052.44 257.751 1052.93 257.87 1053.49 257.87C1053.85 257.87 1054.18 257.819 1054.48 257.717C1054.78 257.61 1055.03 257.453 1055.25 257.244C1055.47 257.035 1055.64 256.777 1055.75 256.47L1057.56 256.796C1057.41 257.329 1057.15 257.796 1056.78 258.196C1056.41 258.593 1055.94 258.902 1055.38 259.123C1054.82 259.34 1054.18 259.449 1053.47 259.449ZM1063.94 259.449C1062.99 259.449 1062.17 259.234 1061.48 258.804C1060.8 258.369 1060.28 257.77 1059.91 257.007C1059.54 256.245 1059.36 255.371 1059.36 254.387C1059.36 253.389 1059.55 252.509 1059.92 251.747C1060.3 250.98 1060.83 250.381 1061.51 249.951C1062.19 249.52 1062.99 249.305 1063.92 249.305C1064.66 249.305 1065.33 249.443 1065.91 249.72C1066.5 249.993 1066.97 250.377 1067.32 250.871C1067.69 251.365 1067.9 251.943 1067.97 252.603H1066.11C1066.01 252.143 1065.77 251.747 1065.41 251.414C1065.05 251.082 1064.56 250.916 1063.95 250.916C1063.42 250.916 1062.95 251.056 1062.55 251.338C1062.15 251.615 1061.84 252.011 1061.62 252.527C1061.4 253.038 1061.29 253.643 1061.29 254.342C1061.29 255.058 1061.4 255.676 1061.62 256.196C1061.83 256.715 1062.14 257.118 1062.54 257.404C1062.94 257.689 1063.41 257.832 1063.95 257.832C1064.31 257.832 1064.64 257.766 1064.93 257.634C1065.23 257.497 1065.48 257.304 1065.68 257.052C1065.89 256.801 1066.03 256.498 1066.11 256.144H1067.97C1067.9 256.779 1067.7 257.346 1067.35 257.845C1067.01 258.343 1066.54 258.735 1065.96 259.021C1065.39 259.306 1064.71 259.449 1063.94 259.449ZM1074.15 259.449C1073.23 259.449 1072.43 259.238 1071.74 258.816C1071.05 258.394 1070.52 257.804 1070.14 257.046C1069.76 256.287 1069.57 255.401 1069.57 254.387C1069.57 253.368 1069.76 252.478 1070.14 251.715C1070.52 250.952 1071.05 250.36 1071.74 249.938C1072.43 249.516 1073.23 249.305 1074.15 249.305C1075.07 249.305 1075.87 249.516 1076.56 249.938C1077.25 250.36 1077.78 250.952 1078.16 251.715C1078.54 252.478 1078.73 253.368 1078.73 254.387C1078.73 255.401 1078.54 256.287 1078.16 257.046C1077.78 257.804 1077.25 258.394 1076.56 258.816C1075.87 259.238 1075.07 259.449 1074.15 259.449ZM1074.16 257.845C1074.75 257.845 1075.25 257.687 1075.64 257.372C1076.03 257.056 1076.32 256.637 1076.51 256.112C1076.7 255.588 1076.8 255.011 1076.8 254.38C1076.8 253.754 1076.7 253.179 1076.51 252.654C1076.32 252.126 1076.03 251.702 1075.64 251.382C1075.25 251.063 1074.75 250.903 1074.16 250.903C1073.56 250.903 1073.06 251.063 1072.66 251.382C1072.27 251.702 1071.98 252.126 1071.78 252.654C1071.6 253.179 1071.5 253.754 1071.5 254.38C1071.5 255.011 1071.6 255.588 1071.78 256.112C1071.98 256.637 1072.27 257.056 1072.66 257.372C1073.06 257.687 1073.56 257.845 1074.16 257.845ZM1082.77 253.421V259.251H1080.86V249.433H1082.69V251.031H1082.82C1083.04 250.511 1083.4 250.093 1083.88 249.778C1084.36 249.463 1084.97 249.305 1085.71 249.305C1086.38 249.305 1086.97 249.446 1087.47 249.727C1087.97 250.004 1088.36 250.417 1088.64 250.967C1088.92 251.517 1089.05 252.196 1089.05 253.006V259.251H1087.14V253.236C1087.14 252.524 1086.96 251.968 1086.59 251.568C1086.22 251.163 1085.71 250.96 1085.06 250.96C1084.62 250.96 1084.22 251.056 1083.88 251.248C1083.54 251.44 1083.27 251.721 1083.07 252.092C1082.87 252.458 1082.77 252.902 1082.77 253.421ZM1095.75 259.449C1094.8 259.449 1093.98 259.234 1093.3 258.804C1092.62 258.369 1092.09 257.77 1091.73 257.007C1091.36 256.245 1091.18 255.371 1091.18 254.387C1091.18 253.389 1091.36 252.509 1091.74 251.747C1092.11 250.98 1092.64 250.381 1093.32 249.951C1094.01 249.52 1094.81 249.305 1095.73 249.305C1096.48 249.305 1097.14 249.443 1097.73 249.72C1098.31 249.993 1098.78 250.377 1099.14 250.871C1099.5 251.365 1099.72 251.943 1099.79 252.603H1097.93C1097.82 252.143 1097.59 251.747 1097.22 251.414C1096.86 251.082 1096.38 250.916 1095.77 250.916C1095.23 250.916 1094.77 251.056 1094.37 251.338C1093.97 251.615 1093.66 252.011 1093.44 252.527C1093.22 253.038 1093.11 253.643 1093.11 254.342C1093.11 255.058 1093.22 255.676 1093.43 256.196C1093.65 256.715 1093.96 257.118 1094.35 257.404C1094.75 257.689 1095.23 257.832 1095.77 257.832C1096.13 257.832 1096.46 257.766 1096.75 257.634C1097.05 257.497 1097.3 257.304 1097.5 257.052C1097.7 256.801 1097.85 256.498 1097.93 256.144H1099.79C1099.72 256.779 1099.51 257.346 1099.17 257.845C1098.82 258.343 1098.36 258.735 1097.78 259.021C1097.2 259.306 1096.53 259.449 1095.75 259.449ZM1101.83 259.251V249.433H1103.74V259.251H1101.83ZM1102.8 247.918C1102.46 247.918 1102.18 247.807 1101.94 247.585C1101.7 247.36 1101.59 247.091 1101.59 246.78C1101.59 246.465 1101.7 246.196 1101.94 245.975C1102.18 245.749 1102.46 245.636 1102.8 245.636C1103.13 245.636 1103.41 245.749 1103.65 245.975C1103.88 246.196 1104 246.465 1104 246.78C1104 247.091 1103.88 247.36 1103.65 247.585C1103.41 247.807 1103.13 247.918 1102.8 247.918ZM1108.22 246.16V259.251H1106.31V246.16H1108.22ZM1115.03 259.449C1114.06 259.449 1113.23 259.242 1112.53 258.829C1111.83 258.411 1111.3 257.826 1110.92 257.071C1110.54 256.313 1110.35 255.424 1110.35 254.406C1110.35 253.4 1110.54 252.514 1110.92 251.747C1111.3 250.98 1111.82 250.381 1112.5 249.951C1113.18 249.52 1113.98 249.305 1114.89 249.305C1115.45 249.305 1115.98 249.397 1116.5 249.58C1117.02 249.763 1117.49 250.051 1117.9 250.443C1118.32 250.835 1118.64 251.344 1118.88 251.97C1119.12 252.593 1119.24 253.349 1119.24 254.24V254.917H1111.43V253.485H1117.37C1117.37 252.983 1117.26 252.537 1117.06 252.149C1116.86 251.757 1116.57 251.448 1116.2 251.223C1115.83 250.997 1115.4 250.884 1114.91 250.884C1114.37 250.884 1113.9 251.016 1113.5 251.28C1113.1 251.54 1112.8 251.881 1112.58 252.303C1112.37 252.72 1112.26 253.174 1112.26 253.664V254.783C1112.26 255.439 1112.37 255.997 1112.6 256.458C1112.84 256.918 1113.16 257.269 1113.58 257.512C1114 257.751 1114.49 257.87 1115.05 257.87C1115.41 257.87 1115.74 257.819 1116.04 257.717C1116.34 257.61 1116.59 257.453 1116.81 257.244C1117.03 257.035 1117.19 256.777 1117.31 256.47L1119.12 256.796C1118.97 257.329 1118.71 257.796 1118.34 258.196C1117.97 258.593 1117.5 258.902 1116.94 259.123C1116.38 259.34 1115.74 259.449 1115.03 259.449Z" fill="black" fill-opacity="0.7"/>
<rect x="976.98" y="233.751" width="162" height="38" rx="11.5" stroke="url(#paint30_linear_1409_4652)"/>
<rect x="229.294" y="4.04227" width="39.9477" height="39.9477" rx="6.75586" fill="white"/>
<path fill-rule="evenodd" clip-rule="evenodd" d="M245.246 23.6651C243.515 22.9576 242.297 21.2578 242.297 19.2721C242.297 16.651 244.42 14.5281 247.041 14.5281C249.662 14.5281 251.785 16.651 251.785 19.2721C251.785 21.258 250.566 22.958 248.836 23.6652C250.501 24.0568 251.961 24.9812 253.026 26.2486H250.34L250.248 26.2512C249.393 26.2984 248.715 26.9979 248.715 27.8538V31.2717H239.227C239.227 27.5738 241.795 24.4759 245.246 23.6651ZM249.544 20.4176C249.255 21.5487 248.222 22.3416 247.038 22.3416C245.853 22.3416 244.82 21.5487 244.531 20.4176L245.784 20.1091C245.927 20.6762 246.444 21.0744 247.038 21.0744C247.631 21.0744 248.148 20.6762 248.291 20.1091L249.544 20.4176Z" fill="url(#paint31_linear_1409_4652)"/>
<path fill-rule="evenodd" clip-rule="evenodd" d="M249.828 28.2549C249.828 27.7636 250.226 27.3652 250.718 27.3652H257.868C258.36 27.3652 258.758 27.7636 258.758 28.2549V32.1969C258.758 32.6883 258.36 33.0866 257.868 33.0866H250.718C250.226 33.0866 249.828 32.6883 249.828 32.1969V28.2549ZM252.492 33.0867H256.099C255.861 33.0867 255.274 33.487 254.834 33.8141C254.521 34.0461 254.084 34.0292 253.781 33.7855C253.381 33.4642 252.837 33.0867 252.492 33.0867ZM252.195 30.7981C252.527 30.7981 252.796 30.5419 252.796 30.2259C252.796 29.91 252.527 29.6538 252.195 29.6538C251.863 29.6538 251.594 29.91 251.594 30.2259C251.594 30.5419 251.863 30.7981 252.195 30.7981ZM254.296 30.7981C254.628 30.7981 254.897 30.5419 254.897 30.2259C254.897 29.91 254.628 29.6538 254.296 29.6538C253.964 29.6538 253.695 29.91 253.695 30.2259C253.695 30.5419 253.964 30.7981 254.296 30.7981ZM257.007 30.2259C257.007 30.5419 256.738 30.7981 256.406 30.7981C256.074 30.7981 255.805 30.5419 255.805 30.2259C255.805 29.91 256.074 29.6538 256.406 29.6538C256.738 29.6538 257.007 29.91 257.007 30.2259Z" fill="url(#paint32_linear_1409_4652)"/>
<rect x="229.294" y="4.04227" width="39.9477" height="39.9477" rx="6.75586" stroke="url(#paint33_linear_1409_4652)" stroke-width="0.587466"/>
<line x1="851.5" y1="360.091" x2="956.064" y2="360.091" stroke="url(#paint34_linear_1409_4652)" stroke-width="5"/>
<line x1="703.688" y1="206.064" x2="759.281" y2="206.064" stroke="url(#paint35_linear_1409_4652)" stroke-width="5"/>
<line x1="899.609" y1="22.7275" x2="955.203" y2="22.7275" stroke="url(#paint36_linear_1409_4652)" stroke-width="5"/>
<line y1="-2.5" x2="55.5938" y2="-2.5" transform="matrix(-1 0 0 1 426.891 208.564)" stroke="url(#paint37_linear_1409_4652)" stroke-width="5"/>
<line x1="468.824" y1="174.375" x2="435.481" y2="174.375" stroke="url(#paint38_linear_1409_4652)" stroke-width="5"/>
<line x1="210.273" y1="252.48" x2="176.931" y2="252.48" stroke="url(#paint39_linear_1409_4652)" stroke-width="5"/>
<line x1="286.836" y1="360.416" x2="229.225" y2="360.416" stroke="url(#paint40_linear_1409_4652)" stroke-width="5"/>
<rect x="1028.57" y="117.208" width="88" height="38" rx="11.5" fill="white"/>
<path d="M1059.41 133.874H1057.41C1057.33 133.448 1057.19 133.073 1056.98 132.749C1056.77 132.426 1056.52 132.151 1056.22 131.925C1055.91 131.699 1055.57 131.529 1055.2 131.414C1054.83 131.298 1054.43 131.241 1054.02 131.241C1053.26 131.241 1052.59 131.431 1051.99 131.81C1051.4 132.189 1050.93 132.745 1050.58 133.478C1050.24 134.211 1050.07 135.106 1050.07 136.163C1050.07 137.228 1050.24 138.127 1050.58 138.86C1050.93 139.593 1051.4 140.147 1052 140.522C1052.59 140.897 1053.27 141.085 1054.01 141.085C1054.42 141.085 1054.82 141.029 1055.19 140.918C1055.56 140.803 1055.9 140.635 1056.2 140.414C1056.51 140.192 1056.76 139.921 1056.97 139.602C1057.18 139.278 1057.33 138.907 1057.41 138.49L1059.41 138.496C1059.3 139.139 1059.09 139.732 1058.79 140.273C1058.48 140.81 1058.09 141.274 1057.62 141.666C1057.14 142.054 1056.6 142.355 1055.99 142.568C1055.38 142.781 1054.72 142.887 1054 142.887C1052.86 142.887 1051.85 142.619 1050.97 142.082C1050.08 141.541 1049.38 140.767 1048.87 139.762C1048.36 138.756 1048.11 137.556 1048.11 136.163C1048.11 134.765 1048.37 133.565 1048.88 132.564C1049.39 131.558 1050.09 130.787 1050.97 130.25C1051.86 129.709 1052.87 129.438 1054 129.438C1054.69 129.438 1055.34 129.539 1055.94 129.739C1056.55 129.935 1057.09 130.225 1057.57 130.608C1058.05 130.987 1058.45 131.452 1058.77 132.002C1059.08 132.547 1059.3 133.171 1059.41 133.874ZM1064.47 142.926C1063.85 142.926 1063.29 142.811 1062.79 142.58C1062.28 142.346 1061.88 142.007 1061.59 141.564C1061.3 141.121 1061.16 140.578 1061.16 139.934C1061.16 139.38 1061.26 138.924 1061.48 138.566C1061.69 138.208 1061.98 137.925 1062.34 137.716C1062.7 137.507 1063.11 137.35 1063.55 137.243C1064 137.137 1064.46 137.056 1064.92 137C1065.51 136.932 1065.99 136.877 1066.35 136.834C1066.72 136.787 1066.99 136.713 1067.15 136.61C1067.32 136.508 1067.4 136.342 1067.4 136.112V136.067C1067.4 135.509 1067.24 135.076 1066.93 134.769C1066.62 134.463 1066.15 134.309 1065.53 134.309C1064.89 134.309 1064.38 134.452 1064.01 134.737C1063.65 135.019 1063.39 135.332 1063.25 135.677L1061.46 135.268C1061.67 134.671 1061.98 134.19 1062.39 133.823C1062.8 133.453 1063.28 133.184 1063.81 133.018C1064.35 132.847 1064.92 132.762 1065.51 132.762C1065.9 132.762 1066.32 132.809 1066.76 132.903C1067.2 132.992 1067.61 133.159 1068 133.401C1068.38 133.644 1068.7 133.992 1068.95 134.443C1069.19 134.891 1069.32 135.472 1069.32 136.188V142.708H1067.45V141.366H1067.38C1067.25 141.613 1067.07 141.856 1066.82 142.095C1066.57 142.333 1066.25 142.531 1065.87 142.689C1065.48 142.847 1065.01 142.926 1064.47 142.926ZM1064.89 141.391C1065.42 141.391 1065.87 141.287 1066.24 141.078C1066.62 140.869 1066.91 140.597 1067.11 140.26C1067.31 139.919 1067.41 139.555 1067.41 139.167V137.901C1067.34 137.97 1067.21 138.034 1067.01 138.093C1066.82 138.149 1066.6 138.198 1066.35 138.24C1066.11 138.279 1065.86 138.315 1065.63 138.349C1065.4 138.379 1065.2 138.404 1065.04 138.426C1064.67 138.472 1064.33 138.551 1064.03 138.662C1063.72 138.773 1063.48 138.933 1063.3 139.141C1063.12 139.346 1063.03 139.619 1063.03 139.96C1063.03 140.433 1063.2 140.791 1063.55 141.034C1063.9 141.272 1064.35 141.391 1064.89 141.391ZM1071.86 142.708V132.89H1073.71V134.45H1073.81C1073.99 133.921 1074.31 133.506 1074.76 133.203C1075.22 132.896 1075.73 132.743 1076.31 132.743C1076.43 132.743 1076.57 132.747 1076.73 132.756C1076.89 132.764 1077.02 132.775 1077.12 132.788V134.616C1077.04 134.595 1076.91 134.571 1076.71 134.546C1076.51 134.516 1076.32 134.501 1076.12 134.501C1075.67 134.501 1075.27 134.597 1074.91 134.789C1074.56 134.976 1074.29 135.238 1074.08 135.575C1073.88 135.907 1073.78 136.286 1073.78 136.713V142.708H1071.86ZM1082.1 142.9C1081.3 142.9 1080.6 142.698 1079.97 142.293C1079.36 141.884 1078.87 141.302 1078.52 140.548C1078.17 139.789 1077.99 138.879 1077.99 137.818C1077.99 136.757 1078.17 135.85 1078.52 135.095C1078.88 134.341 1079.37 133.764 1079.99 133.363C1080.62 132.963 1081.32 132.762 1082.11 132.762C1082.72 132.762 1083.21 132.865 1083.58 133.069C1083.95 133.269 1084.24 133.504 1084.45 133.772C1084.66 134.041 1084.82 134.277 1084.93 134.482H1085.05V129.617H1086.96V142.708H1085.09V141.181H1084.93C1084.82 141.389 1084.65 141.628 1084.44 141.896C1084.22 142.165 1083.93 142.399 1083.55 142.6C1083.18 142.8 1082.69 142.9 1082.1 142.9ZM1082.52 141.27C1083.07 141.27 1083.53 141.125 1083.91 140.835C1084.29 140.541 1084.58 140.134 1084.78 139.615C1084.98 139.095 1085.08 138.49 1085.08 137.799C1085.08 137.117 1084.98 136.521 1084.79 136.009C1084.59 135.498 1084.3 135.1 1083.92 134.814C1083.54 134.529 1083.08 134.386 1082.52 134.386C1081.94 134.386 1081.46 134.535 1081.08 134.833C1080.7 135.132 1080.41 135.539 1080.21 136.054C1080.02 136.57 1079.92 137.151 1079.92 137.799C1079.92 138.455 1080.02 139.046 1080.22 139.57C1080.41 140.094 1080.7 140.509 1081.09 140.816C1081.47 141.119 1081.95 141.27 1082.52 141.27ZM1097.05 135.287L1095.31 135.594C1095.24 135.372 1095.13 135.161 1094.97 134.961C1094.81 134.761 1094.61 134.597 1094.34 134.469C1094.08 134.341 1093.75 134.277 1093.35 134.277C1092.81 134.277 1092.36 134.399 1092 134.641C1091.63 134.88 1091.45 135.189 1091.45 135.568C1091.45 135.896 1091.57 136.161 1091.82 136.361C1092.06 136.561 1092.45 136.725 1092.99 136.853L1094.55 137.211C1095.46 137.42 1096.13 137.742 1096.57 138.176C1097.02 138.611 1097.24 139.176 1097.24 139.87C1097.24 140.458 1097.07 140.982 1096.73 141.443C1096.39 141.899 1095.92 142.257 1095.31 142.516C1094.71 142.776 1094.02 142.906 1093.22 142.906C1092.12 142.906 1091.23 142.672 1090.53 142.203C1089.84 141.73 1089.41 141.059 1089.25 140.19L1091.1 139.909C1091.22 140.39 1091.45 140.754 1091.81 141.002C1092.17 141.244 1092.63 141.366 1093.21 141.366C1093.84 141.366 1094.34 141.236 1094.71 140.976C1095.09 140.712 1095.27 140.39 1095.27 140.011C1095.27 139.704 1095.16 139.446 1094.93 139.237C1094.7 139.029 1094.36 138.871 1093.89 138.764L1092.23 138.4C1091.31 138.191 1090.63 137.859 1090.19 137.403C1089.76 136.947 1089.54 136.369 1089.54 135.671C1089.54 135.091 1089.7 134.584 1090.03 134.149C1090.35 133.715 1090.8 133.376 1091.37 133.133C1091.94 132.886 1092.59 132.762 1093.33 132.762C1094.39 132.762 1095.23 132.992 1095.84 133.453C1096.45 133.909 1096.85 134.52 1097.05 135.287Z" fill="black" fill-opacity="0.7"/>
<rect x="1028.57" y="117.208" width="88" height="38" rx="11.5" stroke="url(#paint41_linear_1409_4652)"/>
<rect x="1016.98" y="6.51611" width="122" height="38" rx="11.5" fill="white"/>
<path d="M1038.04 32.0161H1035.94L1040.65 18.9252H1042.93L1047.65 32.0161H1045.55L1041.85 21.303H1041.75L1038.04 32.0161ZM1038.39 26.8897H1045.19V28.5516H1038.39V26.8897ZM1051.51 18.9252V32.0161H1049.54V18.9252H1051.51ZM1059 32.0161V22.1979H1060.84V23.7576H1060.95C1061.13 23.2292 1061.44 22.8137 1061.89 22.5111C1062.35 22.2043 1062.86 22.0509 1063.44 22.0509C1063.56 22.0509 1063.7 22.0552 1063.86 22.0637C1064.03 22.0722 1064.16 22.0829 1064.25 22.0957V23.9238C1064.18 23.9025 1064.04 23.879 1063.84 23.8535C1063.65 23.8236 1063.45 23.8087 1063.25 23.8087C1062.8 23.8087 1062.4 23.9046 1062.05 24.0964C1061.7 24.2839 1061.42 24.5459 1061.22 24.8826C1061.01 25.215 1060.91 25.5942 1060.91 26.0204V32.0161H1059ZM1069.79 32.2143C1068.82 32.2143 1067.99 32.0076 1067.29 31.5942C1066.59 31.1766 1066.06 30.5907 1065.68 29.8364C1065.3 29.0779 1065.11 28.1894 1065.11 27.1709C1065.11 26.1653 1065.3 25.2789 1065.68 24.5119C1066.06 23.7448 1066.58 23.1461 1067.26 22.7157C1067.94 22.2853 1068.74 22.0701 1069.65 22.0701C1070.21 22.0701 1070.74 22.1617 1071.26 22.3449C1071.78 22.5282 1072.25 22.8158 1072.66 23.2079C1073.08 23.5999 1073.4 24.1092 1073.64 24.7356C1073.88 25.3577 1074 26.1141 1074 27.0047V27.6823H1066.19V26.2505H1072.13C1072.13 25.7476 1072.02 25.3023 1071.82 24.9146C1071.61 24.5225 1071.33 24.2136 1070.96 23.9877C1070.59 23.7619 1070.16 23.6489 1069.66 23.6489C1069.13 23.6489 1068.66 23.781 1068.26 24.0452C1067.86 24.3052 1067.56 24.6461 1067.34 25.068C1067.12 25.4856 1067.02 25.9394 1067.02 26.4295V27.5481C1067.02 28.2043 1067.13 28.7626 1067.36 29.2228C1067.6 29.683 1067.92 30.0346 1068.34 30.2775C1068.76 30.5161 1069.25 30.6354 1069.81 30.6354C1070.17 30.6354 1070.5 30.5843 1070.8 30.482C1071.09 30.3755 1071.35 30.2178 1071.57 30.009C1071.79 29.8002 1071.95 29.5424 1072.07 29.2356L1073.88 29.5616C1073.73 30.0942 1073.47 30.5609 1073.1 30.9614C1072.73 31.3577 1072.26 31.6667 1071.7 31.8883C1071.14 32.1056 1070.5 32.2143 1069.79 32.2143ZM1076.12 35.6979V22.1979H1077.99V23.7896H1078.15C1078.26 23.585 1078.42 23.3485 1078.62 23.08C1078.83 22.8116 1079.12 22.5772 1079.49 22.3769C1079.86 22.1724 1080.35 22.0701 1080.96 22.0701C1081.76 22.0701 1082.46 22.2704 1083.09 22.6709C1083.71 23.0715 1084.2 23.6489 1084.55 24.4032C1084.91 25.1574 1085.09 26.0651 1085.09 27.1262C1085.09 28.1873 1084.91 29.0971 1084.56 29.8556C1084.2 30.6099 1083.72 31.1915 1083.1 31.6006C1082.48 32.0055 1081.78 32.2079 1080.98 32.2079C1080.39 32.2079 1079.9 32.1077 1079.52 31.9074C1079.14 31.7072 1078.85 31.4728 1078.64 31.2043C1078.42 30.9359 1078.26 30.6972 1078.15 30.4884H1078.03V35.6979H1076.12ZM1077.99 27.107C1077.99 27.7974 1078.09 28.4025 1078.29 28.9224C1078.49 29.4422 1078.78 29.8492 1079.16 30.1432C1079.54 30.433 1080.01 30.5779 1080.55 30.5779C1081.13 30.5779 1081.6 30.4266 1081.99 30.1241C1082.37 29.8172 1082.66 29.4018 1082.86 28.8776C1083.06 28.3535 1083.16 27.7633 1083.16 27.107C1083.16 26.4593 1083.06 25.8776 1082.86 25.362C1082.67 24.8464 1082.38 24.4394 1081.99 24.1411C1081.61 23.8428 1081.13 23.6937 1080.55 23.6937C1080 23.6937 1079.53 23.8364 1079.15 24.1219C1078.77 24.4074 1078.48 24.8059 1078.29 25.3172C1078.09 25.8286 1077.99 26.4252 1077.99 27.107ZM1091.36 32.2143C1090.44 32.2143 1089.64 32.0033 1088.95 31.5815C1088.27 31.1596 1087.74 30.5694 1087.36 29.8109C1086.98 29.0523 1086.79 28.166 1086.79 27.1518C1086.79 26.1333 1086.98 25.2427 1087.36 24.4799C1087.74 23.7171 1088.27 23.1248 1088.95 22.7029C1089.64 22.281 1090.44 22.0701 1091.36 22.0701C1092.28 22.0701 1093.09 22.281 1093.77 22.7029C1094.46 23.1248 1094.99 23.7171 1095.37 24.4799C1095.75 25.2427 1095.94 26.1333 1095.94 27.1518C1095.94 28.166 1095.75 29.0523 1095.37 29.8109C1094.99 30.5694 1094.46 31.1596 1093.77 31.5815C1093.09 32.0033 1092.28 32.2143 1091.36 32.2143ZM1091.37 30.6099C1091.97 30.6099 1092.46 30.4522 1092.85 30.1369C1093.25 29.8215 1093.53 29.4018 1093.72 28.8776C1093.91 28.3535 1094.01 27.7761 1094.01 27.1454C1094.01 26.519 1093.91 25.9437 1093.72 25.4195C1093.53 24.8911 1093.25 24.4671 1092.85 24.1475C1092.46 23.8279 1091.97 23.6681 1091.37 23.6681C1090.77 23.6681 1090.27 23.8279 1089.87 24.1475C1089.48 24.4671 1089.19 24.8911 1089 25.4195C1088.81 25.9437 1088.72 26.519 1088.72 27.1454C1088.72 27.7761 1088.81 28.3535 1089 28.8776C1089.19 29.4018 1089.48 29.8215 1089.87 30.1369C1090.27 30.4522 1090.77 30.6099 1091.37 30.6099ZM1098.07 32.0161V22.1979H1099.92V23.7576H1100.02C1100.2 23.2292 1100.52 22.8137 1100.97 22.5111C1101.43 22.2043 1101.94 22.0509 1102.52 22.0509C1102.64 22.0509 1102.78 22.0552 1102.94 22.0637C1103.1 22.0722 1103.23 22.0829 1103.33 22.0957V23.9238C1103.25 23.9025 1103.12 23.879 1102.92 23.8535C1102.72 23.8236 1102.53 23.8087 1102.33 23.8087C1101.88 23.8087 1101.48 23.9046 1101.12 24.0964C1100.77 24.2839 1100.5 24.5459 1100.29 24.8826C1100.09 25.215 1099.99 25.5942 1099.99 26.0204V32.0161H1098.07ZM1110.15 22.1979V23.732H1104.78V22.1979H1110.15ZM1106.22 19.8457H1108.13V29.1333C1108.13 29.504 1108.19 29.7832 1108.3 29.9707C1108.41 30.1539 1108.55 30.2796 1108.73 30.3478C1108.91 30.4117 1109.1 30.4437 1109.31 30.4437C1109.46 30.4437 1109.6 30.433 1109.71 30.4117C1109.83 30.3904 1109.92 30.3734 1109.98 30.3606L1110.32 31.9394C1110.21 31.982 1110.06 32.0246 1109.85 32.0672C1109.65 32.1141 1109.39 32.1397 1109.08 32.144C1108.58 32.1525 1108.11 32.063 1107.68 31.8755C1107.24 31.688 1106.89 31.3982 1106.62 31.0062C1106.35 30.6141 1106.22 30.1219 1106.22 29.5296V19.8457ZM1119.46 24.5949L1117.73 24.9018C1117.65 24.6802 1117.54 24.4692 1117.38 24.269C1117.23 24.0687 1117.02 23.9046 1116.75 23.7768C1116.49 23.6489 1116.16 23.585 1115.76 23.585C1115.22 23.585 1114.77 23.7065 1114.41 23.9494C1114.05 24.188 1113.87 24.4969 1113.87 24.8762C1113.87 25.2043 1113.99 25.4685 1114.23 25.6688C1114.47 25.8691 1114.86 26.0332 1115.41 26.161L1116.97 26.519C1117.87 26.7278 1118.54 27.0495 1118.99 27.4842C1119.43 27.9188 1119.65 28.4834 1119.65 29.178C1119.65 29.7661 1119.48 30.2903 1119.14 30.7505C1118.8 31.2065 1118.33 31.5644 1117.73 31.8244C1117.13 32.0843 1116.43 32.2143 1115.64 32.2143C1114.54 32.2143 1113.64 31.9799 1112.94 31.5111C1112.25 31.0381 1111.82 30.367 1111.67 29.4976L1113.51 29.2164C1113.63 29.6979 1113.87 30.0623 1114.22 30.3094C1114.58 30.5523 1115.05 30.6738 1115.62 30.6738C1116.25 30.6738 1116.75 30.5438 1117.13 30.2839C1117.5 30.0197 1117.69 29.6979 1117.69 29.3187C1117.69 29.0119 1117.57 28.754 1117.34 28.5452C1117.12 28.3364 1116.77 28.1788 1116.3 28.0722L1114.64 27.7079C1113.72 27.4991 1113.05 27.1667 1112.61 26.7107C1112.17 26.2547 1111.95 25.6773 1111.95 24.9785C1111.95 24.3989 1112.12 23.8918 1112.44 23.4572C1112.76 23.0225 1113.21 22.6837 1113.78 22.4408C1114.35 22.1937 1115.01 22.0701 1115.74 22.0701C1116.81 22.0701 1117.64 22.3002 1118.25 22.7604C1118.86 23.2164 1119.26 23.8279 1119.46 24.5949Z" fill="black" fill-opacity="0.7"/>
<rect x="1016.98" y="6.51611" width="122" height="38" rx="11.5" stroke="url(#paint42_linear_1409_4652)"/>
<defs>
<filter id="filter0_d_1409_4652" x="508.738" y="147.963" width="121" height="109" filterUnits="userSpaceOnUse" color-interpolation-filters="sRGB">
<feFlood flood-opacity="0" result="BackgroundImageFix"/>
<feColorMatrix in="SourceAlpha" type="matrix" values="0 0 0 0 0 0 0 0 0 0 0 0 0 0 0 0 0 0 127 0" result="hardAlpha"/>
<feOffset dy="4"/>
<feGaussianBlur stdDeviation="7.5"/>
<feComposite in2="hardAlpha" operator="out"/>
<feColorMatrix type="matrix" values="0 0 0 0 0 0 0 0 0 0 0 0 0 0 0 0 0 0 0.1 0"/>
<feBlend mode="normal" in2="BackgroundImageFix" result="effect1_dropShadow_1409_4652"/>
<feBlend mode="normal" in="SourceGraphic" in2="effect1_dropShadow_1409_4652" result="shape"/>
</filter>
<linearGradient id="paint0_linear_1409_4652" x1="594.55" y1="176.687" x2="558.18" y2="213.243" gradientUnits="userSpaceOnUse">
<stop stop-color="#FBCB24"/>
<stop offset="0.5168" stop-color="#E939D9"/>
<stop offset="1" stop-color="#2ABAE9"/>
</linearGradient>
<linearGradient id="paint1_linear_1409_4652" x1="579.909" y1="191.371" x2="561.863" y2="209.508" gradientUnits="userSpaceOnUse">
<stop stop-color="#FBCB24"/>
<stop offset="0.5168" stop-color="#E939D9"/>
<stop offset="1" stop-color="#2ABAE9"/>
</linearGradient>
<linearGradient id="paint2_linear_1409_4652" x1="565.917" y1="190.942" x2="547.87" y2="209.079" gradientUnits="userSpaceOnUse">
<stop stop-color="#FBCB24"/>
<stop offset="0.5168" stop-color="#E939D9"/>
<stop offset="1" stop-color="#2ABAE9"/>
</linearGradient>
<linearGradient id="paint3_linear_1409_4652" x1="579.628" y1="205.218" x2="561.582" y2="223.356" gradientUnits="userSpaceOnUse">
<stop stop-color="#FBCB24"/>
<stop offset="0.5168" stop-color="#E939D9"/>
<stop offset="1" stop-color="#2ABAE9"/>
</linearGradient>
<linearGradient id="paint4_linear_1409_4652" x1="637.336" y1="52.9555" x2="1033.62" y2="67.2879" gradientUnits="userSpaceOnUse">
<stop stop-color="#994FFF"/>
<stop offset="1" stop-color="#4AB6FE"/>
</linearGradient>
<linearGradient id="paint5_linear_1409_4652" x1="497.59" y1="52.9555" x2="101.305" y2="67.2879" gradientUnits="userSpaceOnUse">
<stop stop-color="#994FFF"/>
<stop offset="1" stop-color="#4AB6FE"/>
</linearGradient>
<linearGradient id="paint6_linear_1409_4652" x1="642.605" y1="145.336" x2="1048.05" y2="186.09" gradientUnits="userSpaceOnUse">
<stop stop-color="#994FFF"/>
<stop offset="1" stop-color="#4AB6FE"/>
</linearGradient>
<linearGradient id="paint7_linear_1409_4652" x1="492.32" y1="145.336" x2="86.8761" y2="186.09" gradientUnits="userSpaceOnUse">
<stop stop-color="#994FFF"/>
<stop offset="1" stop-color="#4AB6FE"/>
</linearGradient>
<linearGradient id="paint8_linear_1409_4652" x1="640.891" y1="215.381" x2="1053.82" y2="266.934" gradientUnits="userSpaceOnUse">
<stop stop-color="#994FFF"/>
<stop offset="1" stop-color="#4AB6FE"/>
</linearGradient>
<linearGradient id="paint9_linear_1409_4652" x1="494.035" y1="215.381" x2="81.1089" y2="266.934" gradientUnits="userSpaceOnUse">
<stop stop-color="#994FFF"/>
<stop offset="1" stop-color="#4AB6FE"/>
</linearGradient>
<linearGradient id="paint10_linear_1409_4652" x1="633.176" y1="251.439" x2="1059.85" y2="269.997" gradientUnits="userSpaceOnUse">
<stop stop-color="#994FFF"/>
<stop offset="1" stop-color="#4AB6FE"/>
</linearGradient>
<linearGradient id="paint11_linear_1409_4652" x1="501.75" y1="251.439" x2="75.0806" y2="269.997" gradientUnits="userSpaceOnUse">
<stop stop-color="#994FFF"/>
<stop offset="1" stop-color="#4AB6FE"/>
</linearGradient>
<linearGradient id="paint12_linear_1409_4652" x1="897.117" y1="135.566" x2="902.025" y2="135.642" gradientUnits="userSpaceOnUse">
<stop stop-color="#994FFF"/>
<stop offset="1" stop-color="#4AB6FE"/>
</linearGradient>
<linearGradient id="paint13_linear_1409_4652" x1="878.891" y1="131.757" x2="899.502" y2="132.096" gradientUnits="userSpaceOnUse">
<stop stop-color="#994FFF"/>
<stop offset="1" stop-color="#4AB6FE"/>
</linearGradient>
<linearGradient id="paint14_linear_1409_4652" x1="879.719" y1="125.405" x2="898.897" y2="126.024" gradientUnits="userSpaceOnUse">
<stop stop-color="#994FFF"/>
<stop offset="1" stop-color="#4AB6FE"/>
</linearGradient>
<linearGradient id="paint15_linear_1409_4652" x1="924.446" y1="88.8798" x2="873.968" y2="142.418" gradientUnits="userSpaceOnUse">
<stop stop-color="#FBC524"/>
<stop offset="0.52" stop-color="#E939D9"/>
<stop offset="1" stop-color="#2ABAE9"/>
</linearGradient>
<linearGradient id="paint16_linear_1409_4652" x1="841.979" y1="338.191" x2="821.577" y2="364.156" gradientUnits="userSpaceOnUse">
<stop stop-color="#FBC524"/>
<stop offset="0.52" stop-color="#E939D9"/>
<stop offset="1" stop-color="#2ABAE9"/>
</linearGradient>
<linearGradient id="paint17_linear_1409_4652" x1="840.035" y1="331.428" x2="815.549" y2="355.177" gradientUnits="userSpaceOnUse">
<stop stop-color="#FBC524"/>
<stop offset="0.52" stop-color="#E939D9"/>
<stop offset="1" stop-color="#2ABAE9"/>
</linearGradient>
<linearGradient id="paint18_linear_1409_4652" x1="858.804" y1="310.117" x2="809.54" y2="362.367" gradientUnits="userSpaceOnUse">
<stop stop-color="#FBC524"/>
<stop offset="0.52" stop-color="#E939D9"/>
<stop offset="1" stop-color="#2ABAE9"/>
</linearGradient>
<linearGradient id="paint19_linear_1409_4652" x1="868.149" y1="-0.906664" x2="841.39" y2="22.7445" gradientUnits="userSpaceOnUse">
<stop stop-color="#FBC524"/>
<stop offset="0.52" stop-color="#E939D9"/>
<stop offset="1" stop-color="#2ABAE9"/>
</linearGradient>
<linearGradient id="paint20_linear_1409_4652" x1="863.455" y1="6.00369" x2="844.212" y2="22.4881" gradientUnits="userSpaceOnUse">
<stop stop-color="#FBC524"/>
<stop offset="0.52" stop-color="#E939D9"/>
<stop offset="1" stop-color="#2ABAE9"/>
</linearGradient>
<linearGradient id="paint21_linear_1409_4652" x1="886.458" y1="-20.4698" x2="837.777" y2="31.1623" gradientUnits="userSpaceOnUse">
<stop stop-color="#FBC524"/>
<stop offset="0.52" stop-color="#E939D9"/>
<stop offset="1" stop-color="#2ABAE9"/>
</linearGradient>
<linearGradient id="paint22_linear_1409_4652" x1="284.661" y1="236.871" x2="271.632" y2="248.685" gradientUnits="userSpaceOnUse">
<stop stop-color="#FBC524"/>
<stop offset="0.52" stop-color="#E939D9"/>
<stop offset="1" stop-color="#2ABAE9"/>
</linearGradient>
<linearGradient id="paint23_linear_1409_4652" x1="277.204" y1="244.737" x2="264.231" y2="256.556" gradientUnits="userSpaceOnUse">
<stop stop-color="#FBC524"/>
<stop offset="0.52" stop-color="#E939D9"/>
<stop offset="1" stop-color="#2ABAE9"/>
</linearGradient>
<linearGradient id="paint24_linear_1409_4652" x1="305.896" y1="210.295" x2="258.933" y2="260.105" gradientUnits="userSpaceOnUse">
<stop stop-color="#FBC524"/>
<stop offset="0.52" stop-color="#E939D9"/>
<stop offset="1" stop-color="#2ABAE9"/>
</linearGradient>
<linearGradient id="paint25_linear_1409_4652" x1="124.003" y1="98.543" x2="91.2396" y2="165.37" gradientUnits="userSpaceOnUse">
<stop stop-color="#FBC524"/>
<stop offset="0.52" stop-color="#E939D9"/>
<stop offset="1" stop-color="#2ABAE9"/>
</linearGradient>
<linearGradient id="paint26_linear_1409_4652" x1="186.487" y1="216.82" x2="167.319" y2="295.011" gradientUnits="userSpaceOnUse">
<stop stop-color="#FBC524"/>
<stop offset="0.52" stop-color="#E939D9"/>
<stop offset="1" stop-color="#2ABAE9"/>
</linearGradient>
<linearGradient id="paint27_linear_1409_4652" x1="1169.73" y1="324.195" x2="1147.43" y2="400.58" gradientUnits="userSpaceOnUse">
<stop stop-color="#FBC524"/>
<stop offset="0.52" stop-color="#E939D9"/>
<stop offset="1" stop-color="#2ABAE9"/>
</linearGradient>
<linearGradient id="paint28_linear_1409_4652" x1="174.845" y1="324.382" x2="150.969" y2="399.704" gradientUnits="userSpaceOnUse">
<stop stop-color="#FBC524"/>
<stop offset="0.52" stop-color="#E939D9"/>
<stop offset="1" stop-color="#2ABAE9"/>
</linearGradient>
<linearGradient id="paint29_linear_1409_4652" x1="135.508" y1="-11.673" x2="103.538" y2="56.1451" gradientUnits="userSpaceOnUse">
<stop stop-color="#FBC524"/>
<stop offset="0.52" stop-color="#E939D9"/>
<stop offset="1" stop-color="#2ABAE9"/>
</linearGradient>
<linearGradient id="paint30_linear_1409_4652" x1="1178.61" y1="215.562" x2="1160.81" y2="294.438" gradientUnits="userSpaceOnUse">
<stop stop-color="#FBC524"/>
<stop offset="0.52" stop-color="#E939D9"/>
<stop offset="1" stop-color="#2ABAE9"/>
</linearGradient>
<linearGradient id="paint31_linear_1409_4652" x1="256.338" y1="6.9337" x2="238.705" y2="22.3472" gradientUnits="userSpaceOnUse">
<stop stop-color="#FBC524"/>
<stop offset="0.52" stop-color="#E939D9"/>
<stop offset="1" stop-color="#2ABAE9"/>
</linearGradient>
<linearGradient id="paint32_linear_1409_4652" x1="260.902" y1="24.3657" x2="254.304" y2="33.8146" gradientUnits="userSpaceOnUse">
<stop stop-color="#FBC524"/>
<stop offset="0.52" stop-color="#E939D9"/>
<stop offset="1" stop-color="#2ABAE9"/>
</linearGradient>
<linearGradient id="paint33_linear_1409_4652" x1="279.265" y1="-14.6369" x2="236.264" y2="30.9719" gradientUnits="userSpaceOnUse">
<stop stop-color="#FBC524"/>
<stop offset="0.52" stop-color="#E939D9"/>
<stop offset="1" stop-color="#2ABAE9"/>
</linearGradient>
<linearGradient id="paint34_linear_1409_4652" x1="851.5" y1="362.789" x2="885.538" y2="411.658" gradientUnits="userSpaceOnUse">
<stop stop-color="#994FFF"/>
<stop offset="1" stop-color="#4AB6FE"/>
</linearGradient>
<linearGradient id="paint35_linear_1409_4652" x1="703.688" y1="208.762" x2="738.692" y2="235.482" gradientUnits="userSpaceOnUse">
<stop stop-color="#994FFF"/>
<stop offset="1" stop-color="#4AB6FE"/>
</linearGradient>
<linearGradient id="paint36_linear_1409_4652" x1="899.609" y1="25.4253" x2="934.614" y2="52.1454" gradientUnits="userSpaceOnUse">
<stop stop-color="#994FFF"/>
<stop offset="1" stop-color="#4AB6FE"/>
</linearGradient>
<linearGradient id="paint37_linear_1409_4652" x1="9.60156e-08" y1="0.197801" x2="35.0042" y2="26.9179" gradientUnits="userSpaceOnUse">
<stop stop-color="#994FFF"/>
<stop offset="1" stop-color="#4AB6FE"/>
</linearGradient>
<linearGradient id="paint38_linear_1409_4652" x1="468.824" y1="171.678" x2="441.355" y2="159.102" gradientUnits="userSpaceOnUse">
<stop stop-color="#994FFF"/>
<stop offset="1" stop-color="#4AB6FE"/>
</linearGradient>
<linearGradient id="paint39_linear_1409_4652" x1="210.273" y1="249.782" x2="182.804" y2="237.206" gradientUnits="userSpaceOnUse">
<stop stop-color="#994FFF"/>
<stop offset="1" stop-color="#4AB6FE"/>
</linearGradient>
<linearGradient id="paint40_linear_1409_4652" x1="286.836" y1="357.718" x2="251.522" y2="329.784" gradientUnits="userSpaceOnUse">
<stop stop-color="#994FFF"/>
<stop offset="1" stop-color="#4AB6FE"/>
</linearGradient>
<linearGradient id="paint41_linear_1409_4652" x1="1138.44" y1="99.0191" x2="1109.18" y2="169.823" gradientUnits="userSpaceOnUse">
<stop stop-color="#FBC524"/>
<stop offset="0.52" stop-color="#E939D9"/>
<stop offset="1" stop-color="#2ABAE9"/>
</linearGradient>
<linearGradient id="paint42_linear_1409_4652" x1="1169.01" y1="-11.673" x2="1146.26" y2="64.4166" gradientUnits="userSpaceOnUse">
<stop stop-color="#FBC524"/>
<stop offset="0.52" stop-color="#E939D9"/>
<stop offset="1" stop-color="#2ABAE9"/>
</linearGradient>
<clipPath id="clip0_1409_4652">
<rect width="27.5841" height="30.3425" fill="white" transform="translate(875.441 116.286)"/>
</clipPath>
</defs>
</svg>
