<svg width="355" height="556" viewBox="0 0 355 556" fill="none" xmlns="http://www.w3.org/2000/svg">
<path d="M-51.8144 548.916L-51.8318 548.682C-44.725 547.445 -37.9875 541.925 -32.3475 532.721C-27.1944 524.099 -23.3648 513.778 -21.0405 502.25C-18.6418 490.389 -17.5544 477.891 -16.5024 465.806C-15.6005 455.44 -14.6673 444.721 -12.9115 434.426C-2.97714 376.197 36.4808 331.775 76.9196 333.297C78.8082 333.368 80.7483 333.526 82.6251 333.678C89.9829 334.277 97.5912 334.895 104.359 330.55C110.556 326.571 115.44 318.742 118.481 307.908C121.189 298.159 122.258 287.133 121.614 275.6C120.919 263.969 118.812 252.501 116.774 241.411C115.047 232.011 113.261 222.292 112.336 212.494C110.863 196.883 111.643 180.361 114.591 164.713C117.648 148.75 122.653 134.304 129.398 121.979C136.293 109.485 144.802 99.2538 154.595 91.6845C164.342 84.1708 175.113 79.6313 185.743 78.5563L185.752 78.7917C175.144 79.8638 164.395 84.3942 154.667 91.8928C144.895 99.4473 136.402 109.658 129.521 122.126C122.79 134.427 117.794 148.843 114.744 164.775C111.802 180.391 111.023 196.88 112.493 212.459C113.417 222.242 115.201 231.955 116.927 241.347C118.967 252.447 121.076 263.925 121.772 275.578C122.418 287.15 121.345 298.214 118.628 307.997C115.57 318.889 110.657 326.762 104.421 330.765C97.6184 335.133 89.991 334.513 82.6153 333.913C80.7396 333.76 78.8004 333.603 76.9142 333.532C36.5473 332.014 -2.84156 376.356 -12.7575 434.482C-14.5115 444.763 -15.4437 455.475 -16.3447 465.834C-17.3977 477.93 -18.4864 490.436 -20.8884 502.316C-23.2201 513.879 -27.0617 524.23 -32.2308 532.879C-37.8965 542.126 -44.6689 547.671 -51.8144 548.916Z" fill="url(#paint0_linear_231_621)" fill-opacity="0.5"/>
<path d="M-52.8774 547.429L-52.9178 547.097C-46.5243 545.313 -40.2326 539.37 -34.7236 529.911C-29.7163 521.099 -25.8033 510.91 -23.1104 499.671C-22.7792 498.295 -22.4488 496.853 -22.1286 495.384C-20.0334 485.765 -18.7219 476.019 -17.4538 466.593C-16.1186 456.673 -14.7381 446.412 -12.4567 436.61C-8.98547 421.693 -2.7944 407.748 2.80385 396.074C9.90604 381.263 16.2963 370.341 22.9135 361.702C32.9511 348.607 44.5454 339.051 56.4428 334.066C61.3928 331.926 66.5844 330.567 71.9454 330.009C74.7457 329.737 77.624 329.747 80.671 329.757C83.4203 329.767 86.2639 329.777 89.0206 329.557C92.8363 329.356 96.4986 328.373 99.9109 326.634C106.12 323.295 111.028 316.929 114.498 307.715C117.728 299.078 119.42 289.005 119.452 278.23C119.426 268.029 118.14 257.918 116.895 248.14C115.799 239.531 114.666 230.629 114.369 221.577C113.915 207.689 115.55 192.93 119.096 178.897C123.08 163.45 128.863 149.617 136.232 137.906C143.799 125.96 152.738 116.09 162.785 108.59C172.843 101.069 183.851 96.0965 194.619 94.2092L194.644 94.5453C183.902 96.4279 172.921 101.389 162.887 108.891C152.864 116.373 143.947 126.218 136.399 138.135C129.05 149.814 123.283 163.608 119.31 179.014C115.775 193.004 114.145 207.715 114.597 221.558C114.893 230.586 116.025 239.477 117.119 248.075C118.366 257.868 119.654 267.994 119.68 278.225C119.648 289.062 117.946 299.193 114.697 307.879C111.249 317.035 106.162 323.631 99.9872 326.952C96.5542 328.702 92.8696 329.692 89.0307 329.895C86.2676 330.115 83.4209 330.105 80.6683 330.095C77.625 330.085 74.7509 330.075 71.9585 330.347C66.6139 330.903 61.4382 332.257 56.5033 334.391C44.6386 339.362 33.0752 348.893 23.0641 361.955C16.4602 370.576 10.0811 381.479 2.98923 396.269C-2.59924 407.923 -8.77918 421.841 -12.2408 436.719C-14.5172 446.499 -15.8963 456.746 -17.2297 466.657C-18.4996 476.091 -19.8125 485.847 -21.911 495.485C-22.2324 496.957 -22.5638 498.403 -22.8954 499.781C-25.5984 511.061 -29.5257 521.287 -34.5512 530.131C-40.0944 539.649 -46.4316 545.631 -52.8774 547.429Z" fill="url(#paint1_linear_231_621)" fill-opacity="0.5"/>
<path d="M-53.6969 546.799L-53.7733 546.374C-41.1293 541.213 -30.5898 517.973 -24.9427 497.946C-24.5689 496.621 -24.1907 495.235 -23.8162 493.826C-21.5242 485.175 -19.9073 476.678 -18.3436 468.46C-16.4395 458.451 -14.6409 448.998 -11.7625 439.643C-8.69678 429.68 -3.93557 419.989 1.10617 409.729C2.49389 406.904 3.92844 403.985 5.34136 401.03C6.49065 398.625 7.62148 396.24 8.73382 393.874C13.7526 383.246 18.4934 373.207 23.7752 364.732C32.4444 350.84 42.5904 340.112 53.1163 333.709C57.5388 330.878 62.2592 328.825 67.2013 327.583C70.9756 326.674 75.3123 326.474 79.506 326.28C81.1504 326.204 82.8511 326.125 84.5039 326.005C89.1489 325.667 92.6027 324.918 95.7024 323.577C102.059 320.776 107.361 315.19 111.029 307.427C114.556 300.094 116.773 291.32 117.528 281.704C118.151 272.867 117.655 264.051 117.175 255.526C116.738 247.77 116.286 239.75 116.639 231.505C117.18 218.952 119.745 205.559 124.054 192.775C128.663 179.059 135.32 165.889 143.305 154.689C159.297 132.301 181.321 116.275 203.728 110.723L203.775 111.158C181.425 116.696 159.458 132.68 143.509 155.009C135.549 166.173 128.914 179.299 124.321 192.97C120.029 205.702 117.475 219.035 116.935 231.529C116.585 239.742 117.035 247.745 117.472 255.486C117.953 264.031 118.45 272.867 117.825 281.747C117.062 291.442 114.827 300.288 111.27 307.681C107.564 315.525 102.208 321.17 95.7841 324C92.6602 325.351 89.1854 326.106 84.5158 326.445C82.8605 326.566 81.1587 326.645 79.5129 326.721C75.3287 326.915 71.0018 327.114 67.246 328.019C62.3271 329.255 57.629 331.299 53.2276 334.117C42.7413 340.496 32.6325 351.185 23.993 365.031C18.725 373.481 13.99 383.509 8.97749 394.125C7.86187 396.488 6.73044 398.874 5.58321 401.283C4.16987 404.24 2.73444 407.161 1.34628 409.986C-3.68567 420.228 -8.43881 429.901 -11.492 439.824C-14.3604 449.147 -16.1559 458.585 -18.0572 468.576C-19.6228 476.804 -21.2415 485.312 -23.5394 493.985C-23.9139 495.396 -24.2939 496.784 -24.6677 498.112C-30.3423 518.238 -40.9481 541.596 -53.6969 546.799Z" fill="url(#paint2_linear_231_621)" fill-opacity="0.5"/>
<path d="M-54.6243 545.734L-54.7537 545.226C-41.3757 537.59 -30.0435 505.453 -26.8889 495.785C-26.4549 494.455 -26.031 493.138 -25.6171 491.832C-23.2441 484.336 -21.4137 477.183 -19.6441 470.266C-17.1373 460.47 -14.7699 451.217 -11.1799 442.236C-8.61051 435.809 -5.05766 429.438 -1.29604 422.693C1.71343 417.297 4.82576 411.716 7.76238 405.555C10.9203 398.929 13.6621 392.334 16.314 385.956C19.0849 379.289 21.7028 372.992 24.516 367.345C31.7878 352.769 40.4836 340.87 49.6628 332.934C53.1167 329.948 56.9399 326.855 62.3338 324.731C67.0966 322.854 73.0032 322.47 78.7147 322.098L79.871 322.023C83.8115 321.876 87.6616 321.229 91.3817 320.089C97.7309 317.985 103.253 313.382 107.451 306.696C111.262 300.631 113.998 293.156 115.492 284.73C116.775 277.149 117.031 269.86 117.301 262.142C117.539 255.342 117.786 248.31 118.795 240.984C120.349 229.772 123.844 217.749 128.903 206.214C134.37 193.689 141.757 181.525 150.267 171.039C167.239 150.17 190.002 134.048 212.719 126.808L212.793 127.339C190.133 134.562 167.428 150.642 150.5 171.456C142.019 181.907 134.657 194.028 129.211 206.507C124.177 217.985 120.7 229.943 119.154 241.089C118.151 248.375 117.905 255.386 117.668 262.166C117.396 269.911 117.14 277.225 115.848 284.858C114.338 293.377 111.572 300.933 107.719 307.065C103.472 313.831 97.885 318.489 91.4609 320.618C87.7197 321.766 83.8475 322.418 79.8842 322.566L78.7276 322.642C73.0357 323.012 67.1495 323.395 62.4256 325.257C57.0758 327.363 53.2777 330.436 49.8459 333.404C40.7096 341.302 32.0528 353.15 24.8104 367.665C22.007 373.294 19.3932 379.582 16.6258 386.239C13.9712 392.624 11.2267 399.227 8.06166 405.866C5.11655 412.045 2.00025 417.633 -1.01365 423.038C-4.76591 429.765 -8.30946 436.12 -10.8645 442.511C-14.4375 451.45 -16.7995 460.682 -19.3004 470.455C-21.0732 477.382 -22.9053 484.544 -25.2851 492.06C-25.7 493.366 -26.1244 494.686 -26.5582 496.019C-29.7281 505.732 -41.119 538.024 -54.6243 545.734Z" fill="url(#paint3_linear_231_621)" fill-opacity="0.5"/>
<path d="M-55.5438 544.66L-55.7453 544.088C-48.2105 538.195 -39.1565 521.216 -28.8335 493.62L-27.4166 489.832C-25.1739 483.826 -23.3059 478.214 -21.499 472.787C-18.2093 462.904 -15.1017 453.57 -10.591 444.818C-8.31715 440.406 -5.41258 436.006 -2.33702 431.345C1.70474 425.221 6.28567 418.28 10.1826 410.081C14.4852 401.03 17.5785 391.943 20.5699 383.156C22.1602 378.486 23.6624 374.074 25.2516 369.968C31.1661 354.735 38.4096 341.666 46.1979 332.175C49.0428 328.709 52.2669 324.781 57.4585 321.886C62.3555 319.151 68.8974 318.422 75.2375 318.04C79.1634 317.805 83.2233 317.561 87.064 316.6C93.4156 315.122 99.1535 311.491 103.884 305.956C107.96 301.092 111.208 294.913 113.463 287.731C115.418 281.315 116.409 275.068 117.458 268.454C118.348 262.258 119.517 256.243 120.958 250.443C123.546 240.579 127.971 229.929 133.757 219.643C140.669 207.519 148.53 196.716 157.23 187.385C175.103 168.076 198.604 151.859 221.705 142.893L221.812 143.519C198.762 152.465 175.316 168.644 157.485 187.906C148.815 197.206 140.981 207.971 134.092 220.053C128.336 230.287 123.936 240.874 121.365 250.672C119.932 256.444 118.769 262.431 117.882 268.596C116.829 275.242 115.834 281.52 113.861 287.993C111.576 295.27 108.286 301.53 104.156 306.458C99.369 312.063 93.5621 315.741 87.1335 317.239C83.2649 318.205 79.1911 318.45 75.2519 318.687C68.9479 319.066 62.4481 319.789 57.609 322.491C52.4861 325.347 49.2916 329.24 46.4738 332.674C38.7254 342.115 31.5184 355.122 25.6298 370.287C24.0464 374.376 22.5469 378.78 20.9598 383.444C17.9612 392.252 14.8602 401.359 10.5385 410.45C6.62147 418.691 2.02726 425.653 -2.02611 431.795C-5.09188 436.44 -7.98755 440.829 -10.2449 445.207C-14.7294 453.909 -17.8275 463.215 -21.1078 473.069C-22.9164 478.503 -24.7867 484.121 -27.0353 490.141L-28.4526 493.93C-38.8167 521.638 -47.932 538.707 -55.5438 544.66Z" fill="url(#paint4_linear_231_621)" fill-opacity="0.5"/>
<path d="M-56.451 543.571L-56.7444 542.964C-49.2081 534.917 -39.9945 513.189 -32.5914 495.73L-30.7744 491.451C-30.2495 490.218 -29.7286 489.01 -29.2118 487.826C-27.5387 483.993 -26.0286 480.401 -24.5681 476.926C-19.8969 465.815 -15.8629 456.219 -9.99079 447.391C-7.96204 444.34 -5.52759 441.291 -2.94957 438.062C2.16709 431.653 7.96656 424.389 12.6048 414.607C17.7143 403.829 20.7263 392.353 23.3835 382.228C24.2704 378.848 25.1088 375.655 25.9881 372.607C30.5577 356.823 36.3453 342.587 42.7268 331.44L42.8816 331.169C45.3103 326.924 47.8222 322.535 52.5795 319.046C56.5443 316.134 62.4413 314.502 70.6067 314.059C71.4421 314.013 72.272 313.972 73.0965 313.934C76.4662 313.773 79.6489 313.621 82.7523 313.112C89.6021 311.99 95.5166 309.331 100.331 305.209C104.688 301.493 108.443 296.597 111.455 290.708C114.182 285.309 115.972 279.941 117.866 274.258C119.389 269.692 120.962 264.971 123.137 259.879C126.793 251.36 132.147 242.089 138.621 233.064C146.496 222.179 155.045 212.374 164.199 203.729C182.81 186.075 207.045 169.764 230.691 158.981L230.836 159.697C207.232 170.462 183.043 186.74 164.47 204.359C155.342 212.979 146.818 222.755 138.967 233.608C132.522 242.589 127.197 251.811 123.564 260.276C121.404 265.334 119.836 270.037 118.32 274.586C116.414 280.301 114.615 285.699 111.859 291.154C108.806 297.125 104.998 302.09 100.581 305.858C95.7051 310.032 89.7237 312.723 82.8033 313.857C79.6802 314.369 76.4881 314.522 73.1089 314.684C72.2848 314.723 71.4555 314.765 70.6211 314.808C62.529 315.248 56.7 316.854 52.8009 319.717C48.1385 323.137 45.6622 327.465 43.2669 331.651L43.1117 331.921C36.7631 343.013 31.0027 357.181 26.453 372.897C25.5773 375.933 24.7407 379.12 23.8552 382.494C21.1871 392.659 18.1633 404.181 13.0182 415.034C8.34244 424.896 2.51549 432.194 -2.62509 438.633C-5.19339 441.85 -7.619 444.889 -9.63174 447.915C-15.4639 456.684 -19.4836 466.246 -24.1387 477.318C-25.6005 480.796 -27.1124 484.391 -28.7877 488.23C-29.3043 489.41 -29.824 490.616 -30.3467 491.846L-32.1628 496.124C-39.5897 513.64 -48.8332 535.437 -56.451 543.571Z" fill="url(#paint5_linear_231_621)" fill-opacity="0.5"/>
<path d="M-57.7546 541.86C-53.3852 535.416 -47.8268 522.864 -41.9424 509.576C-38.8679 502.633 -35.6884 495.453 -32.7139 489.276C-32.1438 488.091 -31.5738 486.937 -31.0039 485.814L-30.9549 485.718C-22.9837 469.977 -17.7172 459.578 -9.38264 449.957C-7.61374 447.915 -5.60237 445.874 -3.4729 443.714C2.71927 437.432 9.73758 430.312 15.0244 419.133C20.7788 406.966 23.2377 393.783 25.407 382.153C25.8556 379.746 26.2796 377.473 26.7233 375.257C29.8463 359.534 34.0402 344.627 39.2508 330.729L39.4896 330.102C41.3102 325.316 43.1926 320.367 47.6938 316.213C52.6497 311.636 60.3702 310.35 65.9738 310.077C67.7623 309.989 69.5406 309.953 71.2599 309.916C73.7553 309.865 76.1116 309.816 78.4421 309.624C85.7003 309.03 91.7022 307.342 96.7905 304.463C101.447 301.822 105.708 298.194 109.469 293.669C113.307 289.059 116.16 284.278 119.181 279.216C121.051 276.082 122.985 272.842 125.334 269.299C130.976 261.031 137.04 253.411 143.492 246.481C152.3 236.875 161.538 228.061 171.169 220.07C190.383 204.095 214.711 188.112 239.673 175.07L239.86 175.874C214.93 188.901 190.634 204.86 171.448 220.813C161.838 228.786 152.62 237.581 143.831 247.166C137.404 254.069 131.363 261.659 125.742 269.895C123.405 273.42 121.477 276.652 119.611 279.778C116.573 284.867 113.704 289.675 109.829 294.329C106.022 298.911 101.706 302.584 96.9916 305.258C91.8467 308.17 85.7881 309.877 78.469 310.477C76.1267 310.668 73.7642 310.717 71.2633 310.769C69.5463 310.805 67.7711 310.842 65.9881 310.93C60.4548 311.199 52.8414 312.46 47.9959 316.936C43.6208 320.973 41.7755 325.824 39.9907 330.516L39.7519 331.144C34.5625 344.986 30.3855 359.833 27.275 375.494C26.8336 377.701 26.4101 379.971 25.9619 382.373C23.7798 394.071 21.3071 407.329 15.4952 419.617C10.1472 430.925 3.08247 438.093 -3.15036 444.416C-5.27237 446.569 -7.27623 448.602 -9.03089 450.628C-17.3044 460.177 -22.5522 470.54 -30.4957 486.226L-30.5443 486.323C-31.1117 487.439 -31.6788 488.587 -32.2458 489.767C-35.2141 495.931 -38.3904 503.102 -41.4622 510.039C-47.3637 523.366 -52.9376 535.953 -57.3506 542.462L-57.7546 541.86Z" fill="url(#paint6_linear_231_621)" fill-opacity="0.5"/>
<path d="M-58.7717 540.783C-56.8955 536.837 -54.5008 531.14 -51.7283 524.546C-46.7602 512.728 -40.577 498.021 -34.6513 487.098C-34.0249 485.942 -33.3997 484.832 -32.7926 483.798C-23.7747 468.375 -17.2627 459.897 -8.76538 452.52C-7.31957 451.266 -5.75218 450.012 -4.09258 448.684C2.86944 443.116 11.5339 436.185 17.4439 423.658C23.7514 410.289 25.4358 395.542 26.9216 382.531C27.1018 380.958 27.2778 379.418 27.4578 377.918C29.4528 361.45 32.2319 345.456 35.7766 330.041L35.9511 329.278C37.1898 323.867 38.4707 318.271 42.8044 313.388C48.0102 307.519 56.652 306.3 61.3402 306.096C64.1332 305.973 66.8732 306.028 69.5228 306.082C71.0838 306.113 72.6214 306.144 74.1331 306.138C81.9181 306.108 88.1747 305.317 93.2603 303.72C98.2628 302.119 103.034 299.746 107.507 296.633C113.648 292.433 118.192 287.944 123.945 282.262C125.09 281.13 126.283 279.952 127.547 278.718C134.006 272.45 141.011 266.118 148.37 259.897C157.943 251.742 167.961 243.84 178.142 236.412C196.611 222.99 219.674 208.188 248.651 191.162L248.884 192.049C219.923 209.067 196.875 223.858 178.423 237.269C168.254 244.688 158.249 252.58 148.686 260.726C141.339 266.937 134.345 273.259 127.899 279.516C126.637 280.748 125.444 281.925 124.3 283.056C118.523 288.761 113.96 293.268 107.773 297.501C103.257 300.642 98.4395 303.038 93.3889 304.655C88.2592 306.266 81.9594 307.064 74.1294 307.094C72.6141 307.1 71.0731 307.069 69.5081 307.037C66.8658 306.985 64.133 306.929 61.3532 307.051C56.7429 307.251 48.2533 308.441 43.1923 314.148C39.0175 318.851 37.7693 324.304 36.5625 329.578L36.3866 330.343C32.8529 345.713 30.0821 361.659 28.0926 378.078C27.913 379.575 27.7376 381.111 27.5583 382.682C26.0607 395.794 24.3635 410.655 17.9712 424.202C11.9729 436.916 3.23291 443.907 -3.7896 449.524C-5.44436 450.847 -7.00682 452.098 -8.44292 453.344C-16.8727 460.662 -23.3403 469.084 -32.3076 484.421C-32.9084 485.446 -33.5283 486.546 -34.1498 487.692C-40.0506 498.571 -46.2222 513.251 -51.1813 525.046C-53.9592 531.654 -56.3588 537.36 -58.2457 541.329L-58.7717 540.783Z" fill="url(#paint7_linear_231_621)" fill-opacity="0.5"/>
<path d="M-59.7882 539.73C-55.7978 526.972 -46.4206 501.07 -36.5844 484.915C-35.9114 483.809 -35.2362 482.754 -34.5769 481.778C-24.7993 467.246 -17.2108 460.791 -8.13674 455.085C-7.12316 454.447 -6.05727 453.804 -4.95345 453.137C3.18515 448.218 13.3131 442.098 19.8637 428.185C26.67 413.727 27.4498 396.781 28.0768 383.166L28.1965 380.588C28.9811 364.478 30.2882 348.203 32.3101 329.369L32.3884 328.637C33.0055 322.827 33.7052 316.24 37.9131 310.571C41.6653 305.512 48.5153 302.429 56.7077 302.113C60.5723 301.963 64.309 302.242 67.9224 302.513L69.8289 302.653C77.8592 303.22 84.3183 303.494 89.7398 302.986C95.1438 302.431 100.43 301.306 105.562 299.618C113.62 297.076 120.183 293.968 129.777 288.147C136.183 284.287 143.794 279.395 152.609 273.73L159.561 269.222C167.262 264.219 175.99 258.548 185.119 252.751C193.912 247.191 202.991 241.566 212.603 235.61C227.601 226.319 243.108 216.712 257.629 207.253L257.912 208.222C243.385 217.684 227.874 227.294 212.874 236.587C203.263 242.541 194.185 248.165 185.395 253.724C176.27 259.519 167.543 265.188 159.843 270.19L152.888 274.7C144.07 280.368 136.455 285.262 130.043 289.127C120.405 294.973 113.809 298.098 105.704 300.653C100.539 302.352 95.2179 303.485 89.7783 304.042C84.3245 304.554 77.8428 304.28 69.7888 303.71L67.8801 303.57C64.2801 303.301 60.5575 303.023 56.7201 303.172C48.6977 303.481 42.0174 306.463 38.3921 311.352C34.3722 316.767 33.7223 322.88 33.0938 328.793L33.016 329.526C30.9974 348.331 29.6928 364.576 28.9097 380.655L28.79 383.229C28.1567 396.976 27.3695 414.084 20.4485 428.785C13.7761 442.959 3.53836 449.145 -4.68801 454.116C-5.78872 454.781 -6.85106 455.424 -7.862 456.059C-16.8567 461.714 -24.3785 468.114 -34.0736 482.523C-34.7239 483.487 -35.3912 484.528 -36.0557 485.62C-45.8341 501.681 -55.1665 527.465 -59.1398 540.168L-59.7882 539.73Z" fill="url(#paint8_linear_231_621)" fill-opacity="0.5"/>
<path d="M-60.7963 538.698C-58.4264 525.464 -49.364 498.651 -38.5124 482.73C-37.7986 481.682 -37.0725 480.681 -36.354 479.755C-25.9019 466.231 -16.7402 461.584 -7.49828 457.653L-6.2086 457.107C2.75834 453.322 15.0389 448.138 22.2859 432.711C29.5579 417.229 29.2226 398.765 28.9538 383.929L28.9416 383.265C28.6333 365.463 28.7327 348.965 28.821 334.409L28.8577 328.121C28.8903 321.623 28.9268 314.259 33.0234 307.761C36.6432 302.013 43.7663 298.413 52.0769 298.131C56.5091 298.073 61.0009 298.419 65.5284 299.169C68.7849 299.631 71.8015 300.124 74.719 300.6C78.8473 301.274 82.7471 301.911 86.2257 302.262C92.7929 302.924 98.704 302.815 103.62 302.623C113.389 302.394 122.899 300.708 132.016 297.59C139.175 295.212 147.722 291.661 158.148 286.734C167.564 282.242 178.67 276.471 192.1 269.092C222.111 252.675 246.482 237.712 266.608 223.347L266.943 224.394C246.794 238.774 222.4 253.751 192.366 270.181C178.926 277.565 167.81 283.342 158.382 287.84C147.932 292.778 139.363 296.338 132.182 298.723C123.017 301.858 113.455 303.553 103.634 303.784C98.6998 303.978 92.7656 304.086 86.1655 303.421C82.6707 303.068 78.7635 302.43 74.6262 301.754C71.7118 301.278 68.698 300.787 65.4472 300.325C60.9508 299.581 56.4898 299.236 52.0878 299.292C43.9856 299.567 37.0721 303.027 33.5944 308.549C29.7088 314.713 29.6746 321.528 29.6416 328.12L29.6049 334.41C29.5171 348.955 29.4174 365.443 29.7254 383.225L29.7372 383.888C30.0098 398.894 30.3488 417.57 22.9282 433.369C15.5196 449.14 3.08192 454.39 -5.99997 458.224L-7.28789 458.77C-16.4409 462.662 -25.5118 467.263 -35.8416 480.628C-36.5477 481.538 -37.2613 482.521 -37.9627 483.551C-48.7145 499.327 -57.6915 525.882 -60.0379 538.986L-60.7963 538.698Z" fill="url(#paint9_linear_231_621)" fill-opacity="0.5"/>
<path d="M-61.7963 537.679C-60.7808 522.583 -51.7587 495.406 -40.4375 480.542C-39.6758 479.541 -38.8984 478.595 -38.1282 477.731C-27.081 465.281 -16.7993 462.712 -6.85525 460.227C1.9499 458.028 16.686 454.346 24.7063 437.237C32.415 420.791 30.8393 400.652 29.6886 385.946C28.9047 375.845 28.211 366.156 27.5405 356.785C26.8152 346.651 26.1302 337.079 25.4054 328.038L25.379 327.713C24.7993 320.5 24.1422 312.324 28.1321 304.955C31.6567 298.441 38.8772 294.401 47.4455 294.149C51.9751 294.102 56.5848 294.616 61.2294 295.686C66.871 296.872 72.0618 298.419 76.641 299.783C78.7685 300.417 80.7777 301.016 82.712 301.546C89.5991 303.432 95.896 304.63 101.674 305.644C112.676 307.574 122.426 308.551 134.254 307.046C142.581 306.006 152.267 303.688 163.045 300.158C173.773 296.603 185.898 291.648 199.083 285.432C218.932 276.114 248.315 260.573 275.584 239.444L275.975 240.564C248.651 261.736 219.216 277.304 199.335 286.637C186.127 292.864 173.977 297.828 163.223 301.392C152.407 304.935 142.683 307.261 134.319 308.306C122.42 309.82 112.62 308.839 101.567 306.9C95.7739 305.884 89.4608 304.683 82.5499 302.789C80.609 302.258 78.5963 301.658 76.4657 301.023C71.8974 299.662 66.7197 298.119 61.1023 296.938C56.504 295.878 51.9402 295.368 47.4556 295.414C39.1382 295.658 32.1631 299.519 28.7961 305.741C25.0324 312.692 25.6668 320.587 26.2266 327.553L26.2525 327.879C26.9785 336.928 27.664 346.503 28.3892 356.641C29.0597 366.009 29.753 375.695 30.5365 385.79C31.7031 400.696 33.3008 421.111 25.406 437.952C17.1786 455.504 2.21793 459.241 -6.72047 461.474C-16.5613 463.933 -26.7378 466.476 -37.6159 478.735C-38.3689 479.581 -39.1286 480.506 -39.8743 481.485C-50.7248 495.731 -59.9489 522.962 -60.9471 537.793L-61.7963 537.679Z" fill="url(#paint10_linear_231_621)" fill-opacity="0.5"/>
<path d="M-62.7885 536.664C-63.2213 520.987 -54.5771 492.719 -42.3618 478.353C-41.5514 477.4 -40.7234 476.509 -39.9006 475.703C-28.9488 464.964 -18.6873 463.992 -7.82266 462.962L-6.21102 462.808C5.24561 461.698 19.3876 458.303 27.1256 441.762C34.5972 425.793 32.7522 405.963 30.436 388.629L29.4847 381.466C26.9318 362.234 24.52 344.067 21.9595 327.371C20.7407 319.427 19.3598 310.424 23.2402 302.154C27.2608 293.577 35.987 290.338 42.8125 290.167C47.4422 290.121 52.1734 290.804 56.9309 292.205C63.8246 294.104 70.0977 296.856 75.6324 299.285C76.8465 299.817 78.0345 300.339 79.1971 300.837C86.8814 304.134 93.8846 306.649 99.7217 308.675C110.575 312.439 122.541 315.996 136.489 316.513C145.965 316.879 156.548 315.894 167.941 313.585C180.955 310.781 193.683 306.837 206.066 301.772C226.24 293.732 256.234 279.185 284.557 255.542L285.005 256.732C256.597 280.445 226.524 295.032 206.299 303.092C193.878 308.172 181.112 312.127 168.059 314.94C156.616 317.259 145.983 318.248 136.457 317.88C122.427 317.36 110.405 313.788 99.5035 310.006C93.6548 307.976 86.6374 305.456 78.9326 302.151C77.7686 301.652 76.5792 301.13 75.363 300.596C69.85 298.177 63.6012 295.436 56.7542 293.55C52.0591 292.166 47.39 291.49 42.8208 291.534C36.2253 291.7 27.8166 294.78 23.9969 302.928C20.3507 310.699 21.6837 319.389 22.8595 327.057C25.4234 343.772 27.836 361.948 30.3901 381.192L31.3418 388.352C33.6946 405.962 35.5614 426.122 27.8828 442.535C19.9176 459.562 5.50639 463.043 -6.15881 464.173L-7.7722 464.327C-18.5095 465.344 -28.6515 466.306 -39.3961 476.842C-40.1968 477.626 -41.0021 478.493 -41.7912 479.421C-53.7945 493.537 -62.2894 521.249 -61.8659 536.596L-62.7885 536.664Z" fill="url(#paint11_linear_231_621)" fill-opacity="0.5"/>
<path d="M-63.7711 535.648C-65.7662 517.369 -56.476 489.016 -44.2803 476.163C-43.4269 475.263 -42.5476 474.427 -41.6661 473.679C-30.5727 464.232 -20.0484 464.727 -8.90625 465.25C-7.79367 465.303 -6.67948 465.355 -5.56206 465.397C11.7557 466.045 23.2403 459.795 29.5463 446.291C36.9712 430.391 34.7239 410.472 31.1895 391.314C27.5663 371.631 23.2279 348.561 18.5193 326.7C16.7624 318.631 14.5752 308.586 18.3501 299.359C20.8932 293.139 27.4394 286.412 38.1827 286.186C42.9157 286.14 47.7705 286.994 52.6353 288.727C60.2682 291.307 67.2494 295.307 73.409 298.837L75.6822 300.135C82.3118 303.905 89.1227 307.475 97.7657 311.711C109.264 317.28 123.124 323.332 138.723 325.988C149.313 327.802 160.792 328.149 172.842 327.018C186.597 325.564 200.035 322.589 213.053 318.114C242.769 308.203 270.598 292.133 293.532 271.642L294.039 272.9C271.014 293.472 243.083 309.603 213.264 319.549C200.195 324.039 186.705 327.026 172.897 328.485C160.787 329.622 149.248 329.273 138.6 327.448C122.914 324.778 108.995 318.701 97.4481 313.109C88.7881 308.864 81.9641 305.287 75.3198 301.51L73.0443 300.209C66.9156 296.697 59.9698 292.718 52.4062 290.161C47.6203 288.454 42.8442 287.613 38.1876 287.656C31.7217 287.792 22.8684 291.136 19.1977 300.113C15.6591 308.762 17.7688 318.453 19.4648 326.24C24.1794 348.13 28.5216 371.217 32.1472 390.916C35.7451 410.417 38.0188 430.722 30.3618 447.12C23.8473 461.07 12.0856 467.529 -5.59571 466.867C-6.71529 466.825 -7.83206 466.776 -8.94603 466.72C-19.943 466.203 -30.3297 465.716 -41.1775 474.952C-42.0308 475.677 -42.8826 476.487 -43.709 477.359C-55.6393 489.931 -64.7345 517.597 -62.7909 535.402L-63.7711 535.648Z" fill="url(#paint12_linear_231_621)" fill-opacity="0.5"/>
<path d="M-64.7498 534.627C-68.2217 515.329 -59.3789 486.418 -46.1967 473.971C-45.2914 473.116 -44.3609 472.336 -43.4298 471.652C-32.0612 463.278 -20.6435 465.27 -9.60109 467.198C-8.03895 467.47 -6.47637 467.744 -4.91359 467.988C7.36371 469.911 23.7281 468.492 31.9665 450.815C39.6988 434.228 36.294 412.786 31.9442 393.998C25.8693 367.728 20.3534 345.492 15.0809 326.024C12.8609 317.876 9.81926 306.716 13.4599 296.564C17.192 286.154 26.6151 282.321 33.5507 282.204C38.3921 282.165 43.3734 283.19 48.3414 285.25C56.3894 288.431 63.8414 293.63 70.416 298.217L72.1645 299.435C79.636 304.627 87.3685 309.636 95.8031 314.748C113.126 325.178 127.051 331.567 140.951 335.463C153.347 338.847 165.665 340.517 177.742 340.453C192.212 340.33 206.363 338.324 220.041 334.455C250.673 326.07 279.189 309.917 302.505 287.742L303.073 289.064C279.64 311.348 250.993 327.58 220.226 336.002C206.484 339.888 192.268 341.903 177.732 342.026C165.59 342.091 153.206 340.411 140.745 337.009C126.773 333.093 112.786 326.677 95.3949 316.205C86.9425 311.083 79.1943 306.064 71.707 300.861L69.9567 299.641C63.1027 294.86 56.0158 289.915 48.0577 286.77C43.1863 284.749 38.3016 283.741 33.5539 283.777C26.9114 283.89 17.9085 287.497 14.3971 297.292C10.9895 306.795 13.9241 317.563 16.0665 325.425C21.3463 344.921 26.8686 367.18 32.9495 393.477C37.3854 412.635 40.8413 434.535 32.8394 451.702C24.3011 470.021 7.53068 471.52 -5.03486 469.552C-6.60163 469.307 -8.1677 469.034 -9.73423 468.76C-20.622 466.86 -31.8803 464.896 -42.9638 473.06C-43.8614 473.719 -44.7583 474.472 -45.6308 475.296C-58.2376 487.199 -67.0298 515.829 -63.7226 534.209L-64.7498 534.627Z" fill="url(#paint13_linear_231_621)" fill-opacity="0.5"/>
<path d="M-65.724 533.601C-70.571 513.571 -62.0108 483.528 -48.1104 471.78C-47.1569 470.974 -46.1746 470.249 -45.1901 469.627C-33.468 462.198 -21.5731 465.635 -10.0699 468.959C-8.16473 469.51 -6.19519 470.079 -4.26686 470.585C6.23671 473.344 25.2246 475.032 34.3867 455.343C42.3906 438.141 38.0256 416.037 32.6999 396.683C25.4709 370.392 18.5834 347.057 11.6438 325.345C9.02776 317.188 5.07332 304.859 8.5705 293.773C10.8025 286.695 17.4711 278.375 28.9187 278.221C33.8712 278.189 38.9808 279.389 44.0469 281.774C52.4244 285.575 59.9555 291.687 67.2388 297.598L68.6452 298.739C76.8734 305.402 85.3489 311.811 93.8376 317.788C112.016 330.543 127.694 339.172 143.178 344.944C156.398 349.818 169.616 352.814 182.642 353.89C197.805 355.078 212.671 354.042 227.03 350.798C258.643 343.889 287.844 327.652 311.476 303.844L312.107 305.228C288.332 329.179 258.967 345.51 227.186 352.456C212.752 355.717 197.809 356.758 182.567 355.564C169.471 354.482 156.183 351.469 142.893 346.57C127.336 340.771 111.592 332.107 93.3454 319.304C84.8373 313.313 76.3421 306.889 68.0957 300.212L66.6881 299.07C59.4547 293.199 51.9751 287.129 43.7057 283.376C38.7543 281.043 33.7601 279.869 28.9194 279.898C18.0021 280.045 11.6865 287.84 9.59491 294.471C6.57441 304.046 9.32453 314.194 12.6668 324.616C19.6163 346.357 26.5116 369.72 33.7482 396.039C36.0238 404.307 38.7455 415.211 39.6063 426.23C40.5438 438.236 39.1405 448.067 35.3162 456.286C25.7916 476.756 6.2984 475.065 -4.474 472.236C-6.41149 471.727 -8.38626 471.156 -10.2958 470.604C-21.6309 467.329 -33.3521 463.942 -44.7527 471.167C-45.6976 471.765 -46.6406 472.46 -47.5562 473.234C-61.0291 484.62 -69.3405 513.677 -64.6587 533.022L-65.724 533.601Z" fill="url(#paint14_linear_231_621)" fill-opacity="0.5"/>
<path d="M-66.6937 532.569C-72.9745 511.412 -64.8709 480.804 -50.0193 469.588C-49.0304 468.84 -48.0043 468.177 -46.945 467.602C-34.8223 461.043 -22.4097 465.903 -10.4065 470.603C-8.17487 471.476 -5.8676 472.38 -3.61794 473.185C23.625 482.933 34.2127 465.457 36.8096 459.869C45.1221 441.973 39.3861 418.135 33.4605 399.366C25.2293 373.284 16.7338 348.151 8.20982 324.663C4.22823 313.706 0.598086 302.079 3.6847 290.983C6.87165 279.524 16.3299 274.317 24.2899 274.24C29.3562 274.214 34.596 275.589 39.7559 278.298C48.2984 282.656 56.1013 289.791 63.6479 296.693L65.1255 298.043C73.9022 306.092 82.9006 313.757 91.8723 320.827C110.776 335.704 128.287 346.694 145.405 354.426C159.445 360.751 173.561 365.074 187.545 367.331C203.382 369.805 218.964 369.741 234.023 367.141C266.654 361.677 296.54 345.358 320.45 319.948L321.144 321.391C297.067 346.979 266.984 363.41 234.148 368.909C219.003 371.524 203.332 371.588 187.405 369.099C173.348 366.831 159.158 362.486 145.045 356.127C127.853 348.363 110.273 337.331 91.301 322.4C82.3064 315.311 73.2852 307.627 64.488 299.559L63.0104 298.209C55.5192 291.358 47.7735 284.274 39.3554 279.981C34.3285 277.339 29.2234 275.997 24.2871 276.019C16.7281 276.092 7.76959 280.953 4.79539 291.648C1.90886 302.024 5.42264 313.225 9.26904 323.809C17.8033 347.327 26.3086 372.49 34.5493 398.602C40.6101 417.799 46.4573 442.225 37.7965 460.869C33.7356 469.61 27.3792 475.037 18.9049 476.999C10.3783 478.972 1.79239 476.955 -3.90902 474.915C-6.17135 474.105 -8.48521 473.199 -10.7224 472.323C-22.5473 467.693 -34.7745 462.906 -46.542 469.272C-47.5547 469.822 -48.5358 470.456 -49.4815 471.172C-63.8092 481.992 -71.6392 511.476 -65.593 531.841L-66.6937 532.569Z" fill="url(#paint15_linear_231_621)" fill-opacity="0.5"/>
<path d="M-67.6677 531.534C-71.6419 520.036 -71.7296 505.818 -67.9073 492.526C-64.0855 479.233 -57.0864 469.413 -48.7038 465.58C-36.1472 459.839 -23.1905 466.108 -10.6603 472.172C-8.13148 473.395 -5.51614 474.661 -2.97423 475.789C19.6 485.802 33.6267 476.469 39.226 464.396C47.8887 445.719 40.5163 419.87 34.2172 402.05C24.9195 375.749 15.0126 349.482 4.77158 323.978C2.72557 318.882 0.427583 312.925 -0.940511 306.703C-2.46987 299.749 -2.55615 293.695 -1.2045 288.194C1.82042 275.876 11.4522 270.31 19.6563 270.258C34.75 270.163 47.7334 283.309 60.2893 296.023L61.6006 297.35C107.563 343.817 150.361 371.105 192.442 380.773C243.54 392.512 293.466 376.212 329.418 336.053L330.177 337.552C293.951 378.018 243.673 394.45 192.237 382.632C149.966 372.922 106.998 345.535 60.8785 298.908L59.566 297.58C47.1695 285.027 34.3509 272.048 19.65 272.14C11.8912 272.19 2.80248 277.367 -0.01106 288.823C-2.76023 300.016 1.38409 311.847 5.86552 323.006C16.1178 348.538 26.0353 374.835 35.3438 401.166C48.8132 439.27 44.6068 456.104 40.2712 465.452C31.3411 484.708 11.8834 484.349 -3.34838 477.591C-5.90555 476.458 -8.52838 475.189 -11.0642 473.961C-23.4065 467.989 -36.1687 461.814 -48.3392 467.378C-56.3594 471.045 -63.0659 480.475 -66.7392 493.25C-70.4122 506.027 -70.3383 519.663 -66.5351 530.665L-67.6677 531.534Z" fill="url(#paint16_linear_231_621)" fill-opacity="0.5"/>
<defs>
<linearGradient id="paint0_linear_231_621" x1="141.511" y1="174.975" x2="179.214" y2="402.617" gradientUnits="userSpaceOnUse">
<stop offset="0.015625" stop-color="white"/>
<stop offset="0.197917" stop-color="#994FFF"/>
<stop offset="1" stop-color="#4AB6FE"/>
</linearGradient>
<linearGradient id="paint1_linear_231_621" x1="148.525" y1="187.194" x2="179.369" y2="410.291" gradientUnits="userSpaceOnUse">
<stop offset="0.015625" stop-color="white"/>
<stop offset="0.197917" stop-color="#994FFF"/>
<stop offset="1" stop-color="#4AB6FE"/>
</linearGradient>
<linearGradient id="paint2_linear_231_621" x1="155.777" y1="200.274" x2="180.38" y2="418.356" gradientUnits="userSpaceOnUse">
<stop offset="0.015625" stop-color="white"/>
<stop offset="0.197917" stop-color="#994FFF"/>
<stop offset="1" stop-color="#4AB6FE"/>
</linearGradient>
<linearGradient id="paint3_linear_231_621" x1="162.913" y1="212.924" x2="181.864" y2="425.606" gradientUnits="userSpaceOnUse">
<stop offset="0.015625" stop-color="white"/>
<stop offset="0.197917" stop-color="#994FFF"/>
<stop offset="1" stop-color="#4AB6FE"/>
</linearGradient>
<linearGradient id="paint4_linear_231_621" x1="170.049" y1="225.573" x2="183.904" y2="432.543" gradientUnits="userSpaceOnUse">
<stop offset="0.015625" stop-color="white"/>
<stop offset="0.197917" stop-color="#994FFF"/>
<stop offset="1" stop-color="#4AB6FE"/>
</linearGradient>
<linearGradient id="paint5_linear_231_621" x1="177.186" y1="238.22" x2="186.47" y2="439.225" gradientUnits="userSpaceOnUse">
<stop offset="0.015625" stop-color="white"/>
<stop offset="0.197917" stop-color="#994FFF"/>
<stop offset="1" stop-color="#4AB6FE"/>
</linearGradient>
<linearGradient id="paint6_linear_231_621" x1="184.322" y1="250.865" x2="189.524" y2="445.7" gradientUnits="userSpaceOnUse">
<stop offset="0.015625" stop-color="white"/>
<stop offset="0.197917" stop-color="#994FFF"/>
<stop offset="1" stop-color="#4AB6FE"/>
</linearGradient>
<linearGradient id="paint7_linear_231_621" x1="191.456" y1="263.507" x2="193.034" y2="452.01" gradientUnits="userSpaceOnUse">
<stop offset="0.015625" stop-color="white"/>
<stop offset="0.197917" stop-color="#994FFF"/>
<stop offset="1" stop-color="#4AB6FE"/>
</linearGradient>
<linearGradient id="paint8_linear_231_621" x1="198.593" y1="276.144" x2="196.974" y2="458.189" gradientUnits="userSpaceOnUse">
<stop offset="0.015625" stop-color="white"/>
<stop offset="0.197917" stop-color="#994FFF"/>
<stop offset="1" stop-color="#4AB6FE"/>
</linearGradient>
<linearGradient id="paint9_linear_231_621" x1="205.734" y1="288.78" x2="201.315" y2="464.274" gradientUnits="userSpaceOnUse">
<stop offset="0.015625" stop-color="white"/>
<stop offset="0.197917" stop-color="#994FFF"/>
<stop offset="1" stop-color="#4AB6FE"/>
</linearGradient>
<linearGradient id="paint10_linear_231_621" x1="212.878" y1="301.44" x2="206.037" y2="470.371" gradientUnits="userSpaceOnUse">
<stop offset="0.015625" stop-color="white"/>
<stop offset="0.197917" stop-color="#994FFF"/>
<stop offset="1" stop-color="#4AB6FE"/>
</linearGradient>
<linearGradient id="paint11_linear_231_621" x1="220.023" y1="314.12" x2="211.104" y2="476.487" gradientUnits="userSpaceOnUse">
<stop offset="0.015625" stop-color="white"/>
<stop offset="0.197917" stop-color="#994FFF"/>
<stop offset="1" stop-color="#4AB6FE"/>
</linearGradient>
<linearGradient id="paint12_linear_231_621" x1="227.147" y1="326.796" x2="216.449" y2="482.574" gradientUnits="userSpaceOnUse">
<stop offset="0.015625" stop-color="white"/>
<stop offset="0.197917" stop-color="#994FFF"/>
<stop offset="1" stop-color="#4AB6FE"/>
</linearGradient>
<linearGradient id="paint13_linear_231_621" x1="234.228" y1="339.459" x2="222.021" y2="488.634" gradientUnits="userSpaceOnUse">
<stop offset="0.015625" stop-color="white"/>
<stop offset="0.197917" stop-color="#994FFF"/>
<stop offset="1" stop-color="#4AB6FE"/>
</linearGradient>
<linearGradient id="paint14_linear_231_621" x1="241.283" y1="352.115" x2="227.83" y2="494.686" gradientUnits="userSpaceOnUse">
<stop offset="0.015625" stop-color="white"/>
<stop offset="0.197917" stop-color="#994FFF"/>
<stop offset="1" stop-color="#4AB6FE"/>
</linearGradient>
<linearGradient id="paint15_linear_231_621" x1="248.312" y1="364.764" x2="233.854" y2="500.736" gradientUnits="userSpaceOnUse">
<stop offset="0.015625" stop-color="white"/>
<stop offset="0.197917" stop-color="#994FFF"/>
<stop offset="1" stop-color="#4AB6FE"/>
</linearGradient>
<linearGradient id="paint16_linear_231_621" x1="255.312" y1="377.406" x2="240.078" y2="506.797" gradientUnits="userSpaceOnUse">
<stop offset="0.015625" stop-color="white"/>
<stop offset="0.197917" stop-color="#994FFF"/>
<stop offset="1" stop-color="#4AB6FE"/>
</linearGradient>
</defs>
</svg>
