<svg width="490" height="580" viewBox="0 0 490 580" fill="none" xmlns="http://www.w3.org/2000/svg">
<path d="M573.762 135.655L573.516 135.606C571.263 142.979 564.516 149.393 554.007 154.155C544.179 158.477 532.726 161.17 520.191 162.107C507.294 163.079 493.896 162.575 480.939 162.089C469.826 161.672 458.333 161.24 447.183 161.738C384.111 164.555 331.769 200.514 328.022 243.604C327.847 245.616 327.757 247.694 327.67 249.705C327.329 257.588 326.977 265.739 321.471 272.341C316.43 278.385 307.479 282.527 295.586 284.317C284.888 285.896 273.052 285.568 260.907 283.357C248.664 281.078 236.78 277.322 225.288 273.691C215.548 270.613 205.477 267.431 195.208 265.151C178.847 261.519 161.221 260.157 144.235 261.209C126.9 262.335 110.917 265.729 96.9508 271.249C82.7865 276.904 70.8073 284.573 61.4816 293.955C52.2209 303.296 45.9788 314.118 43.4296 325.249L43.6779 325.291C46.2212 314.181 52.4508 303.382 61.693 294.059C71.0004 284.697 82.9552 277.043 97.0902 271.398C111.028 265.89 126.98 262.503 144.28 261.38C161.232 260.329 178.823 261.689 195.151 265.314C205.404 267.59 215.468 270.77 225.2 273.846C236.702 277.48 248.596 281.239 260.862 283.521C273.049 285.741 284.926 286.069 295.661 284.484C307.618 282.684 316.619 278.518 321.691 272.435C327.225 265.799 327.578 257.628 327.92 249.726C328.007 247.716 328.097 245.639 328.272 243.629C332.012 200.616 384.261 164.72 447.221 161.909C458.358 161.411 469.842 161.842 480.948 162.26C493.916 162.747 507.324 163.25 520.241 162.277C532.813 161.337 544.301 158.635 554.158 154.299C564.717 149.516 571.495 143.069 573.762 135.655Z" fill="url(#paint0_linear_231_770)" fill-opacity="0.2"/>
<path d="M572.769 134.515L572.422 134.428C569.682 140.972 562.545 146.857 551.784 151.446C541.775 155.588 530.45 158.388 518.173 159.754C516.67 159.923 515.097 160.082 513.496 160.227C503.017 161.174 492.507 161.273 482.342 161.368C471.644 161.469 460.579 161.573 449.881 162.694C433.6 164.398 417.99 169.115 404.867 173.505C388.218 179.074 375.788 184.403 365.748 190.276C350.529 199.186 338.857 210.215 331.994 222.172C329.068 227.138 326.939 232.464 325.637 238.076C324.977 241.01 324.606 244.064 324.213 247.297C323.858 250.214 323.492 253.231 322.894 256.125C322.174 260.145 320.646 263.899 318.35 267.288C313.985 273.43 306.584 277.792 296.352 280.25C286.764 282.531 275.856 282.991 264.424 281.596C253.609 280.216 243.056 277.511 232.852 274.895C223.867 272.592 214.575 270.21 205.014 268.695C190.345 266.373 174.476 266.15 159.123 268.051C142.212 270.229 126.775 274.528 113.379 280.791C99.7056 287.233 88.0536 295.405 78.7671 305.066C69.458 314.736 62.7249 325.752 59.296 336.922L59.6491 336.993C63.0696 325.85 69.7865 314.861 79.0732 305.214C88.3366 295.576 99.9599 287.424 113.6 280.999C126.959 274.753 142.354 270.465 159.219 268.293C174.525 266.399 190.343 266.62 204.964 268.934C214.5 270.446 223.779 272.824 232.753 275.125C242.973 277.745 253.541 280.454 264.389 281.838C275.887 283.24 286.856 282.777 296.499 280.483C306.667 278.04 314.336 273.519 318.677 267.411C320.988 264.002 322.526 260.225 323.25 256.181C323.85 253.28 324.217 250.259 324.572 247.339C324.964 244.11 325.335 241.06 325.993 238.135C327.291 232.54 329.414 227.231 332.331 222.28C339.175 210.355 350.817 199.355 365.997 190.469C376.015 184.608 388.424 179.288 405.049 173.727C418.15 169.345 433.73 164.636 449.968 162.937C460.641 161.819 471.693 161.715 482.38 161.614C492.554 161.518 503.075 161.419 513.575 160.471C515.179 160.325 516.756 160.165 518.261 159.996C530.582 158.625 541.949 155.815 551.994 151.658C562.823 147.041 570.007 141.113 572.769 134.515Z" fill="url(#paint1_linear_231_770)" fill-opacity="0.2"/>
<path d="M571.77 133.382L571.329 133.245C564.179 145.971 538.135 154.068 516.147 157.402C514.692 157.623 513.172 157.84 511.629 158.051C502.149 159.335 492.923 159.923 484 160.492C473.133 161.185 462.869 161.839 452.566 163.652C441.593 165.583 430.684 169.348 419.134 173.335C415.955 174.432 412.668 175.566 409.347 176.673C406.645 177.573 403.966 178.457 401.309 179.323C389.371 183.236 378.096 186.933 368.408 191.412C352.526 198.765 339.803 208.103 331.617 218.417C328.028 222.732 325.225 227.467 323.253 232.543C321.789 236.426 321.001 240.998 320.24 245.42C319.941 247.154 319.632 248.948 319.286 250.685C318.311 255.566 317.059 259.13 315.226 262.239C311.413 268.61 304.786 273.492 296.066 276.353C287.822 279.122 278.223 280.31 267.925 279.837C258.469 279.326 249.186 277.631 240.208 275.992C232.04 274.5 223.594 272.958 214.803 272.239C201.419 271.149 186.875 272.094 172.745 274.97C157.587 278.039 142.738 283.353 129.801 290.338C103.937 304.331 84.0219 325.563 75.1628 348.592L75.6179 348.699C84.4545 325.729 104.317 304.552 130.113 290.596C143.008 283.634 157.809 278.337 172.916 275.278C186.988 272.413 201.468 271.473 214.789 272.557C223.546 273.273 231.975 274.812 240.127 276.301C249.125 277.944 258.43 279.643 267.931 280.156C278.314 280.633 287.992 279.435 296.304 276.643C305.114 273.752 311.811 268.819 315.664 262.382C317.511 259.248 318.772 255.663 319.751 250.756C320.098 249.016 320.408 247.222 320.706 245.486C321.467 241.074 322.252 236.512 323.709 232.649C325.672 227.596 328.462 222.884 332.035 218.59C340.19 208.314 352.866 199.01 368.696 191.682C378.356 187.216 389.62 183.523 401.543 179.614C404.196 178.744 406.877 177.861 409.584 176.963C412.907 175.856 416.195 174.721 419.375 173.623C430.904 169.644 441.793 165.886 452.722 163.963C462.99 162.157 473.237 161.503 484.085 160.811C493.02 160.242 502.257 159.653 511.76 158.365C513.306 158.155 514.829 157.936 516.287 157.716C538.383 154.365 564.562 146.214 571.77 133.382Z" fill="url(#paint2_linear_231_770)" fill-opacity="0.2"/>
<path d="M570.76 132.255L570.239 132.051C560.366 145.227 524.781 152.985 514.109 155.049C512.642 155.333 511.188 155.608 509.749 155.874C501.484 157.397 493.655 158.39 486.085 159.35C475.363 160.71 465.237 161.995 455.236 164.611C448.079 166.485 440.851 169.408 433.199 172.503C427.077 174.98 420.746 177.541 413.822 179.839C406.377 182.309 399.019 184.343 391.903 186.31C384.465 188.365 377.439 190.307 371.077 192.542C354.655 198.322 340.883 205.967 331.249 214.65C327.625 217.917 323.838 221.562 320.87 227.001C318.248 231.803 317.058 238.017 315.906 244.025L315.673 245.241C314.995 249.401 313.798 253.398 312.096 257.193C309.023 263.647 303.41 268.894 295.762 272.459C288.825 275.697 280.535 277.608 271.4 278.075C263.19 278.431 255.426 277.736 247.205 277C239.961 276.351 232.471 275.681 224.567 275.78C212.47 275.942 199.256 278.055 186.351 281.891C172.344 286.029 158.464 292.251 146.215 299.886C121.832 315.12 101.717 337.124 91.0266 360.256L91.5802 360.406C102.245 337.331 122.308 315.383 146.626 300.189C158.834 292.579 172.665 286.379 186.622 282.256C199.462 278.439 212.605 276.337 224.631 276.175C232.491 276.077 239.959 276.746 247.181 277.392C255.431 278.131 263.223 278.828 271.489 278.47C280.723 277.998 289.104 276.066 296.118 272.793C303.857 269.186 309.538 263.878 312.647 257.347C314.361 253.531 315.565 249.511 316.247 245.327L316.481 244.111C317.628 238.123 318.814 231.931 321.416 227.168C324.359 221.773 328.121 218.153 331.724 214.906C341.311 206.264 355.024 198.653 371.378 192.896C377.72 190.669 384.735 188.731 392.161 186.678C399.285 184.709 406.652 182.674 414.112 180.197C421.056 177.893 427.396 175.329 433.527 172.849C441.159 169.761 448.369 166.845 455.485 164.982C465.44 162.378 475.543 161.097 486.24 159.74C493.821 158.778 501.66 157.784 509.946 156.257C511.387 155.99 512.843 155.715 514.314 155.431C525.036 153.357 560.793 145.557 570.76 132.255Z" fill="url(#paint3_linear_231_770)" fill-opacity="0.2"/>
<path d="M569.743 131.14L569.164 130.85C561.915 138.06 542.707 145.412 512.072 152.702L507.867 153.702C501.199 155.285 495.001 156.522 489.005 157.719C478.088 159.898 467.776 161.956 457.897 165.58C452.916 167.407 447.864 169.904 442.513 172.548C435.483 176.023 427.514 179.961 418.302 183.007C408.132 186.37 398.086 188.447 388.37 190.454C383.206 191.522 378.327 192.53 373.763 193.671C356.823 197.925 342.003 203.875 330.904 210.876C326.851 213.434 322.258 216.333 318.499 221.455C314.95 226.286 313.309 233.127 312.064 239.801C311.294 243.933 310.497 248.207 308.97 252.153C306.56 258.693 301.948 264.297 295.451 268.58C289.752 272.259 282.769 274.884 274.853 276.324C267.789 277.547 261.033 277.769 253.878 278.005C247.19 278.128 240.655 278.57 234.313 279.33C223.509 280.767 211.627 284.049 199.951 288.821C186.177 294.544 173.677 301.45 162.628 309.439C139.78 325.835 119.467 348.609 106.896 371.921L107.545 372.118C120.089 348.858 140.355 326.136 163.147 309.779C174.159 301.817 186.615 294.935 200.342 289.23C211.958 284.483 223.77 281.219 234.501 279.792C240.814 279.037 247.317 278.597 253.973 278.474C261.162 278.238 267.951 278.014 275.078 276.78C283.098 275.322 290.173 272.662 295.948 268.935C302.526 264.601 307.196 258.93 309.637 252.311C311.175 248.336 311.975 244.048 312.749 239.902C313.986 233.266 315.614 226.469 319.121 221.695C322.829 216.64 327.381 213.768 331.397 211.235C342.437 204.269 357.187 198.35 374.051 194.115C378.598 192.977 383.467 191.971 388.623 190.906C398.362 188.893 408.433 186.812 418.647 183.433C427.906 180.372 435.899 176.422 442.95 172.937C448.283 170.302 453.32 167.812 458.263 165.999C468.086 162.396 478.367 160.344 489.252 158.171C495.255 156.973 501.461 155.735 508.144 154.148L512.35 153.147C543.11 145.828 562.421 138.423 569.743 131.14Z" fill="url(#paint4_linear_231_770)" fill-opacity="0.2"/>
<path d="M568.712 130.032L568.107 129.64C558.573 136.566 534.308 143.458 514.811 148.995L510.031 150.355C508.655 150.748 507.304 151.14 505.981 151.531C501.694 152.798 497.683 153.923 493.804 155.011C481.402 158.493 470.69 161.499 460.548 166.556C457.044 168.304 453.487 170.481 449.722 172.787C442.246 177.364 433.773 182.552 422.784 186.175C410.677 190.165 398.106 191.838 387.016 193.314C383.313 193.806 379.816 194.272 376.466 194.801C359.121 197.555 343.256 201.806 330.587 207.096L330.279 207.225C325.456 209.238 320.468 211.32 316.137 215.903C312.523 219.722 310.011 225.76 308.458 234.361C308.3 235.241 308.146 236.115 307.996 236.985C307.378 240.537 306.795 243.892 305.845 247.116C303.746 254.232 300.142 260.152 295.133 264.711C290.614 268.84 284.924 272.174 278.279 274.587C272.192 276.764 266.261 277.95 259.983 279.206C254.939 280.216 249.723 281.259 244.034 282.89C234.515 285.638 223.972 290.087 213.544 295.757C200.955 302.666 189.423 310.433 179.041 318.996C157.851 336.394 137.34 359.934 122.77 383.583L123.51 383.831C138.055 360.225 158.526 336.729 179.673 319.366C190.025 310.829 201.523 303.085 214.074 296.196C224.454 290.552 234.94 286.126 244.399 283.395C250.049 281.775 255.245 280.736 260.27 279.731C266.584 278.467 272.548 277.274 278.698 275.074C285.436 272.628 291.206 269.248 295.788 265.063C300.861 260.445 304.508 254.458 306.628 247.269C307.585 244.025 308.17 240.659 308.79 237.097C308.941 236.228 309.094 235.354 309.252 234.475C310.79 225.951 313.266 219.982 316.819 216.226C321.064 211.735 325.983 209.683 330.74 207.697L331.047 207.568C343.652 202.306 359.442 198.074 376.712 195.332C380.049 194.806 383.539 194.341 387.235 193.85C398.37 192.367 410.99 190.688 423.182 186.67C434.261 183.018 442.774 177.806 450.284 173.207C454.036 170.91 457.581 168.74 461.057 167.007C471.13 161.984 481.804 158.988 494.163 155.519C498.046 154.429 502.059 153.303 506.352 152.035C507.673 151.643 509.02 151.252 510.394 150.861L515.172 149.502C534.732 143.947 559.075 137.033 568.712 130.032Z" fill="url(#paint5_linear_231_770)" fill-opacity="0.2"/>
<path d="M567.068 128.423C559.655 132.203 545.606 136.434 530.733 140.913C522.962 143.254 514.926 145.674 507.981 148.01C506.648 148.457 505.349 148.909 504.083 149.364L503.974 149.404C486.223 155.771 474.496 159.978 463.188 167.542C460.787 169.147 458.357 171.01 455.784 172.982C448.3 178.716 439.819 185.216 427.262 189.341C413.595 193.831 399.288 194.691 386.666 195.45C384.054 195.607 381.587 195.755 379.178 195.932C362.089 197.16 345.723 199.632 330.293 203.316L329.596 203.486C324.28 204.783 318.781 206.123 313.779 210.346C308.268 214.995 305.881 223.013 304.848 228.92C304.518 230.805 304.244 232.686 303.977 234.504C303.591 237.144 303.227 239.637 302.715 242.083C301.123 249.702 298.536 255.843 294.809 260.858C291.391 265.446 286.978 269.485 281.681 272.873C276.283 276.333 270.834 278.725 265.065 281.258C261.494 282.826 257.801 284.448 253.732 286.469C244.216 291.357 235.33 296.778 227.126 302.702C215.771 310.77 205.198 319.399 195.447 328.555C175.956 346.814 155.781 370.497 138.641 395.241L139.468 395.546C156.589 370.833 176.735 347.181 196.197 328.949C205.927 319.813 216.477 311.204 227.806 303.153C235.98 297.251 244.831 291.851 254.31 286.981C258.358 284.97 262.042 283.353 265.604 281.788C271.404 279.241 276.883 276.836 282.333 273.343C287.697 269.912 292.165 265.823 295.626 261.177C299.396 256.107 302.009 249.907 303.615 242.224C304.129 239.766 304.495 237.267 304.881 234.621C305.147 232.805 305.422 230.927 305.75 229.048C306.77 223.215 309.116 215.308 314.505 210.762C319.367 206.657 324.756 205.343 329.969 204.072L330.666 203.902C346.035 200.233 362.335 197.772 379.356 196.549C381.755 196.373 384.219 196.225 386.826 196.068C399.521 195.304 413.91 194.439 427.713 189.904C440.415 185.732 448.953 179.189 456.486 173.417C459.05 171.452 461.472 169.596 463.853 168.004C475.077 160.495 486.763 156.303 504.452 149.958L504.561 149.919C505.82 149.465 507.112 149.016 508.439 148.571C515.37 146.24 523.397 143.822 531.16 141.484C546.077 136.992 560.165 132.749 567.653 128.931L567.068 128.423Z" fill="url(#paint6_linear_231_770)" fill-opacity="0.2"/>
<path d="M566.061 127.202C561.627 128.669 555.268 130.454 547.907 132.52C534.715 136.223 518.298 140.831 505.928 145.667C504.619 146.178 503.358 146.694 502.182 147.201C484.629 154.721 474.774 160.503 465.825 168.537C464.302 169.904 462.765 171.401 461.137 172.985C454.308 179.63 445.809 187.9 431.741 192.508C416.726 197.425 400.862 197.257 386.866 197.108C385.174 197.09 383.517 197.073 381.903 197.065C364.174 196.998 346.842 197.825 330.024 199.541L329.191 199.625C323.289 200.222 317.184 200.838 311.432 204.787C304.516 209.53 302.078 218.534 301.24 223.479C300.74 226.425 300.435 229.338 300.141 232.155C299.967 233.815 299.796 235.449 299.589 237.052C298.525 245.304 296.857 251.835 294.489 257.017C292.128 262.11 288.979 266.856 285.085 271.187C279.816 277.143 274.453 281.368 267.664 286.716C266.313 287.78 264.904 288.889 263.428 290.066C255.924 296.085 248.281 302.675 240.708 309.654C230.79 318.727 221.081 328.304 211.853 338.117C195.17 355.925 176.416 378.423 154.517 406.897L155.427 407.262C177.314 378.804 196.057 356.32 212.725 338.528C221.941 328.727 231.638 319.163 241.544 310.1C249.106 303.131 256.737 296.552 264.228 290.545C265.702 289.369 267.109 288.261 268.459 287.197C275.276 281.827 280.66 277.585 285.97 271.585C289.9 267.211 293.08 262.419 295.464 257.277C297.853 252.051 299.534 245.475 300.603 237.175C300.811 235.569 300.982 233.93 301.156 232.266C301.45 229.457 301.754 226.551 302.251 223.619C303.075 218.756 305.462 209.91 312.186 205.299C317.727 201.495 323.676 200.894 329.428 200.313L330.263 200.228C347.032 198.518 364.312 197.693 381.989 197.759C383.6 197.767 385.253 197.785 386.942 197.803C401.047 197.953 417.033 198.123 432.247 193.139C446.527 188.463 455.099 180.12 461.988 173.417C463.61 171.838 465.143 170.346 466.656 168.989C475.534 161.018 485.324 155.275 502.778 147.798C503.944 147.297 505.193 146.785 506.491 146.278C518.811 141.462 535.198 136.862 548.365 133.167C555.741 131.096 562.111 129.308 566.571 127.833L566.061 127.202Z" fill="url(#paint7_linear_231_770)" fill-opacity="0.2"/>
<path d="M565.078 125.986C551.019 128.527 522.306 135.038 503.868 143.329C502.606 143.896 501.398 144.472 500.275 145.042C483.567 153.485 475.715 160.678 468.461 169.545C467.65 170.535 466.826 171.58 465.973 172.663C459.678 180.642 451.844 190.572 436.22 195.675C419.984 200.977 401.909 199.558 387.387 198.418L384.636 198.203C367.447 196.9 350.013 196.129 329.77 195.776L328.984 195.762C322.74 195.647 315.661 195.516 309.091 199.227C303.229 202.536 299.051 209.392 297.63 218.039C296.958 222.117 296.759 226.117 296.567 229.985L296.463 232.026C296 240.618 295.435 247.504 294.177 253.187C292.873 258.844 290.978 264.302 288.508 269.52C284.744 277.729 280.577 284.278 273.132 293.682C268.189 299.963 261.992 307.387 254.816 315.985L249.113 322.76C242.786 330.264 235.615 338.77 228.257 347.682C221.194 356.271 214.025 365.155 206.435 374.56C194.593 389.233 182.348 404.407 170.392 418.553L171.382 418.982C183.342 404.829 195.59 389.653 207.435 374.976C215.023 365.572 222.191 356.69 229.252 348.104C236.608 339.195 243.777 330.691 250.103 323.188L255.808 316.41C262.987 307.809 269.188 300.381 274.136 294.093C281.614 284.647 285.802 278.065 289.587 269.809C292.073 264.556 293.98 259.063 295.292 253.367C296.558 247.651 297.126 240.741 297.59 232.124L297.694 230.081C297.885 226.227 298.084 222.242 298.751 218.192C300.143 209.725 304.19 203.035 309.856 199.838C316.131 196.293 322.701 196.414 329.056 196.531L329.843 196.546C350.054 196.898 367.457 197.668 384.612 198.968L387.358 199.183C402.022 200.333 420.271 201.766 436.779 196.375C452.696 191.177 460.614 181.14 466.976 173.074C467.827 171.995 468.649 170.953 469.457 169.965C476.647 161.175 484.432 154.047 500.999 145.674C502.107 145.112 503.3 144.543 504.546 143.983C522.876 135.741 551.458 129.261 565.457 126.731L565.078 125.986Z" fill="url(#paint8_linear_231_770)" fill-opacity="0.2"/>
<path d="M564.118 124.779C549.768 125.538 520.13 131.595 501.807 140.993C500.6 141.611 499.443 142.248 498.365 142.888C482.637 152.18 476.493 161.281 471.1 170.561L470.35 171.856C465.147 180.865 458.021 193.202 440.699 198.843C423.316 204.503 403.778 201.7 388.08 199.448L387.377 199.347C368.538 196.66 351.027 194.579 335.578 192.743L328.904 191.948C322.009 191.122 314.193 190.184 306.759 193.667C300.183 196.745 295.421 203.822 294.021 212.598C293.372 217.291 293.143 222.101 293.338 227.002C293.397 230.517 293.519 233.781 293.638 236.939C293.805 241.406 293.964 245.627 293.875 249.363C293.706 256.415 292.808 262.67 291.952 267.858C290.414 278.189 287.366 288.051 282.85 297.307C279.379 304.583 274.48 313.178 267.872 323.582C261.86 332.973 254.268 343.986 244.662 357.252C223.273 386.903 204.173 410.767 186.271 430.207L187.336 430.702C205.258 411.239 224.376 387.353 245.781 357.678C255.395 344.403 262.995 333.379 269.015 323.977C275.637 313.549 280.549 304.932 284.03 297.633C288.57 288.328 291.635 278.412 293.182 268.027C294.041 262.82 294.943 256.54 295.112 249.452C295.201 245.699 295.043 241.471 294.874 236.993C294.756 233.839 294.634 230.578 294.575 227.069C294.382 222.202 294.607 217.425 295.25 212.764C296.615 204.207 301.202 197.334 307.519 194.377C314.571 191.074 321.804 191.941 328.799 192.78L335.475 193.574C350.913 195.409 368.412 197.489 387.23 200.173L387.932 200.273C403.811 202.552 423.573 205.387 441.312 199.611C459.02 193.844 466.237 181.349 471.507 172.226L472.256 170.932C477.598 161.741 483.679 152.731 499.223 143.547C500.281 142.919 501.419 142.292 502.605 141.685C520.761 132.373 550.114 126.372 564.323 125.621L564.118 124.779Z" fill="url(#paint9_linear_231_770)" fill-opacity="0.2"/>
<path d="M563.169 123.583C547.025 122.659 517.005 128.625 499.741 138.661C498.578 139.336 497.472 140.036 496.453 140.738C481.785 150.804 477.698 161.367 473.744 171.584C470.244 180.631 464.386 195.772 445.178 202.01C426.715 208.005 405.564 203.664 390.12 200.495C379.512 198.324 369.328 196.304 359.478 194.351C348.827 192.239 338.766 190.243 329.274 188.276L328.933 188.205C321.36 186.634 312.775 184.853 304.432 188.108C297.055 190.983 291.814 198.105 290.411 207.159C289.76 211.956 289.694 216.913 290.214 221.981C290.724 228.121 291.676 233.832 292.516 238.869C292.906 241.209 293.275 243.42 293.58 245.541C294.669 253.095 295.104 259.932 295.413 266.195C296.002 278.119 295.746 288.589 292.582 300.934C290.375 309.627 286.633 319.592 281.46 330.555C276.267 341.461 269.406 353.664 261.065 366.823C248.552 386.639 228.175 415.742 202.152 441.861L203.288 442.424C229.364 416.251 249.776 387.098 262.31 367.25C270.665 354.068 277.54 341.84 282.745 330.908C287.936 319.906 291.692 309.901 293.909 301.17C297.093 288.751 297.351 278.227 296.76 266.248C296.45 259.969 296.013 253.115 294.921 245.534C294.615 243.405 294.245 241.191 293.854 238.847C293.016 233.822 292.066 228.126 291.558 222.012C291.044 216.995 291.108 212.087 291.751 207.337C293.112 198.548 298.132 191.663 305.177 188.916C313.048 185.846 321.337 187.566 328.65 189.083L328.992 189.153C338.493 191.123 348.558 193.119 359.213 195.232C369.06 197.185 379.24 199.204 389.842 201.373C405.497 204.586 426.936 208.987 445.844 202.847C465.549 196.447 471.495 181.076 475.049 171.893C478.961 161.782 483.007 151.326 497.45 141.414C498.447 140.728 499.529 140.045 500.666 139.384C517.213 129.764 547.316 123.591 563.178 124.499L563.169 123.583Z" fill="url(#paint10_linear_231_770)" fill-opacity="0.2"/>
<path d="M562.224 122.397C545.655 119.86 514.529 125.28 497.674 136.331C496.556 137.064 495.501 137.824 494.538 138.59C481.697 148.782 479.305 159.536 476.773 170.922L476.396 172.61C473.7 184.614 468.225 199.162 449.657 205.176C431.73 210.983 410.943 206.398 392.867 201.644L385.396 199.685C365.338 194.428 346.391 189.462 329.023 184.534C320.76 182.188 311.394 179.53 302.109 182.549C292.48 185.677 287.888 194.502 286.802 201.718C286.139 206.622 286.236 211.73 287.092 216.961C288.192 224.524 290.28 231.542 292.121 237.734C292.525 239.092 292.921 240.421 293.295 241.72C295.773 250.307 297.512 258.068 298.886 264.527C301.44 276.536 303.626 289.699 302.326 304.56C301.458 314.658 299.011 325.751 295.052 337.529C290.352 350.958 284.483 363.934 277.47 376.396C266.268 396.726 246.865 426.607 218.035 453.512L219.238 454.145C248.153 427.16 267.609 397.2 278.839 376.818C285.872 364.319 291.76 351.304 296.473 337.833C300.45 326.004 302.907 314.859 303.779 304.707C305.088 289.758 302.893 276.535 300.328 264.472C298.95 258 297.207 250.223 294.723 241.614C294.348 240.313 293.952 238.983 293.548 237.622C291.713 231.455 289.634 224.464 288.541 216.952C287.696 211.789 287.598 206.748 288.251 201.908C289.301 194.935 293.682 186.425 302.829 183.454C311.554 180.618 320.594 183.183 328.57 185.447C345.958 190.381 364.915 195.35 384.985 200.609L392.453 202.568C410.817 207.397 431.951 212.05 450.376 206.082C469.49 199.891 475.092 185.069 477.837 172.847L478.214 171.156C480.716 159.903 483.08 149.275 495.679 139.276C496.616 138.531 497.642 137.792 498.731 137.078C515.293 126.219 545.809 120.883 562.03 123.366L562.224 122.397Z" fill="url(#paint11_linear_231_770)" fill-opacity="0.2"/>
<path d="M561.277 121.22C542.156 116.681 510.855 122.776 495.607 134.006C494.539 134.792 493.536 135.614 492.625 136.449C481.136 146.962 480.266 158.189 479.344 170.076C479.252 171.263 479.16 172.451 479.056 173.642C477.448 192.094 469.297 203.446 454.14 208.344C436.292 214.111 415.465 209.087 395.616 202.799C375.221 196.347 351.329 188.688 328.768 180.796C320.443 177.863 310.08 174.212 299.794 176.993C292.86 178.865 284.858 184.916 283.195 196.28C282.518 201.294 282.78 206.556 283.974 211.945C285.698 220.382 289.015 228.316 291.941 235.316L293.018 237.9C296.136 245.43 299.02 253.127 302.367 262.855C306.748 275.787 311.33 291.289 312.079 308.184C312.599 319.656 311.446 331.877 308.649 344.506C305.284 358.901 300.347 372.759 293.876 385.973C279.425 416.174 258.693 443.558 233.922 465.164L235.188 465.87C260.058 444.177 280.868 416.692 295.369 386.386C301.864 373.121 306.82 359.21 310.198 344.759C313.008 332.067 314.168 319.783 313.644 308.248C312.891 291.258 308.291 275.691 303.891 262.703C300.537 252.956 297.649 245.245 294.523 237.697L293.445 235.112C290.533 228.146 287.233 220.252 285.525 211.892C284.349 206.59 284.09 201.413 284.753 196.48C285.754 189.641 290.474 180.694 300.481 177.991C310.123 175.385 320.121 178.907 328.154 181.738C350.745 189.64 374.655 197.305 395.066 203.762C415.271 210.162 436.505 215.265 454.911 209.318C470.569 204.259 478.978 192.641 480.62 173.801C480.723 172.608 480.819 171.417 480.908 170.228C481.818 158.497 482.677 147.417 493.911 137.136C494.793 136.327 495.765 135.531 496.8 134.77C511.714 123.784 542.261 117.806 560.886 122.227L561.277 121.22Z" fill="url(#paint12_linear_231_770)" fill-opacity="0.2"/>
<path d="M560.326 120.047C540.319 113.807 508.485 119.353 493.538 131.684C492.511 132.53 491.56 133.414 490.711 134.311C480.323 145.258 480.923 157.631 481.503 169.598C481.585 171.29 481.668 172.984 481.72 174.674C482.131 187.949 478.458 205.117 458.619 211.511C440.002 217.512 417.712 211.059 398.364 203.956C371.307 194.03 348.457 185.233 328.508 177.061C320.162 173.626 308.729 168.921 297.48 171.436C285.944 174.015 280.63 183.5 279.587 190.84C278.903 195.97 279.331 201.389 280.856 206.93C283.164 215.888 287.689 224.48 291.682 232.061L292.743 234.077C297.259 242.689 301.546 251.553 305.849 261.176C314.615 280.931 319.545 296.546 321.834 311.805C323.78 325.399 323.919 338.685 322.249 351.485C320.201 366.815 316.198 381.557 310.281 395.55C297.328 426.926 276.417 455.027 249.809 476.816L251.135 477.593C277.875 455.696 298.887 427.465 311.898 395.951C317.841 381.893 321.862 367.083 323.919 351.683C325.597 338.814 325.458 325.458 323.501 311.791C321.2 296.453 316.249 280.769 307.449 260.937C303.137 251.294 298.841 242.411 294.315 233.78L293.254 231.762C289.091 223.859 284.787 215.688 282.506 206.831C281.008 201.397 280.587 196.083 281.254 191.052C282.255 184.022 287.274 174.953 298.128 172.527C308.658 170.173 319.688 174.712 327.743 178.027C347.719 186.21 370.594 195.018 397.677 204.953C417.408 212.197 440.175 218.765 459.443 212.554C480.003 205.927 483.817 188.34 483.395 174.752C483.343 173.058 483.261 171.361 483.178 169.663C482.606 157.864 482.015 145.664 492.143 134.992C492.96 134.127 493.878 133.275 494.867 132.459C509.163 120.667 540.692 115.137 559.746 121.081L560.326 120.047Z" fill="url(#paint13_linear_231_770)" fill-opacity="0.2"/>
<path d="M559.367 118.878C538.767 111.083 505.769 116.179 491.467 129.364C490.486 130.268 489.587 131.214 488.797 132.175C479.364 143.623 481.433 156.693 483.434 169.334C483.765 171.427 484.107 173.592 484.389 175.704C485.922 187.209 485.196 207.571 463.1 214.678C443.794 220.886 420.931 213.327 401.111 205.113C374.186 193.961 350.351 183.563 328.244 173.326C319.939 169.47 307.388 163.642 295.167 165.881C287.365 167.31 277.657 173.279 275.977 185.4C275.286 190.648 275.881 196.226 277.739 201.915C280.66 211.304 286.144 220.101 291.448 228.609L292.471 230.252C298.447 239.862 304.12 249.7 309.334 259.495C320.452 280.465 327.525 298.236 331.594 315.423C335.011 330.089 336.437 344.505 335.851 358.463C335.1 374.701 332.032 390.33 326.687 405.129C315.169 437.74 294.079 466.557 265.697 488.465L267.081 489.317C295.633 467.278 316.845 438.299 328.425 405.514C333.797 390.638 336.882 374.928 337.636 358.605C338.224 344.572 336.791 330.08 333.356 315.336C329.268 298.069 322.167 280.223 311.007 259.174C305.781 249.356 300.094 239.495 294.105 229.864L293.081 228.22C287.814 219.771 282.367 211.033 279.484 201.766C277.666 196.205 277.082 190.753 277.755 185.623C279.357 174.064 288.462 168.399 295.772 167.06C306.327 165.126 316.726 169.388 327.336 174.314C349.472 184.566 373.335 194.976 400.289 206.14C408.756 209.649 419.96 213.981 431.531 216.354C444.14 218.94 454.753 218.755 463.976 215.788C486.948 208.401 487.739 187.503 486.167 175.703C485.884 173.581 485.54 171.411 485.208 169.312C483.237 156.857 481.199 143.977 490.372 132.843C491.132 131.921 491.994 131.013 492.936 130.144C506.797 117.365 538.715 112.402 558.612 119.931L559.367 118.878Z" fill="url(#paint14_linear_231_770)" fill-opacity="0.2"/>
<path d="M558.401 117.712C536.795 108.246 503.26 112.783 489.396 127.048C488.471 127.997 487.632 128.998 486.882 130.045C478.318 142.032 481.828 155.841 485.221 169.194C485.851 171.676 486.504 174.243 487.06 176.736C493.787 206.921 473.849 215.833 467.578 217.846C447.497 224.29 422.976 215.047 403.856 206.274C377.286 194.087 351.756 181.746 327.976 169.592C316.883 163.917 305.033 158.526 292.856 160.329C280.281 162.19 273.505 171.53 272.368 179.962C271.669 185.332 272.433 191.071 274.622 196.903C278.111 206.54 284.644 215.761 290.963 224.68L292.2 226.426C299.572 236.801 306.508 247.36 312.818 257.813C326.089 279.833 335.424 299.861 341.355 319.041C346.202 334.769 348.916 350.314 349.455 365.444C349.98 382.568 347.847 399.085 343.093 414.711C332.973 448.594 311.704 478.127 281.586 500.115L283.024 501.043C313.353 478.9 334.768 449.173 344.952 415.077C349.733 399.362 351.878 382.751 351.35 365.529C350.808 350.32 348.08 334.695 343.207 318.885C337.252 299.622 327.881 279.516 314.561 257.415C308.236 246.936 301.282 236.35 293.892 225.951L292.656 224.205C286.383 215.352 279.897 206.198 276.46 196.701C274.324 191.02 273.577 185.427 274.255 180.195C275.334 172.188 281.677 163.331 293.415 161.595C304.802 159.909 316.215 165.12 326.93 170.602C350.741 182.771 376.3 195.127 402.901 207.328C422.457 216.3 447.587 225.739 468.508 219.026C478.317 215.877 484.916 209.856 488.12 201.128C491.342 192.347 490.341 182.973 488.933 176.656C488.374 174.15 487.72 171.576 487.087 169.087C483.744 155.932 480.288 142.33 488.6 130.694C489.318 129.693 490.12 128.736 491.004 127.828C504.378 114.067 536.686 109.671 557.483 118.783L558.401 117.712Z" fill="url(#paint15_linear_231_770)" fill-opacity="0.2"/>
<path d="M557.431 116.545C545.763 110.806 530.696 108.828 516.092 111.12C501.487 113.411 490.144 119.532 484.969 127.914C477.215 140.47 482.147 155.043 486.916 169.135C487.879 171.979 488.875 174.921 489.734 177.766C497.361 203.035 485.603 216.674 472.057 221.012C451.101 227.723 424.664 216.478 406.599 207.435C379.938 194.088 353.393 180.1 327.703 165.858C322.57 163.012 316.556 159.785 310.139 157.51C302.967 154.966 296.558 154.072 290.544 154.776C277.079 156.351 269.9 165.829 268.757 174.523C266.655 190.518 278.876 206.03 290.696 221.032L291.929 222.598C335.118 277.503 358.385 326.511 363.06 372.422C368.736 428.17 344.832 478.959 297.475 511.764L298.964 512.768C346.683 479.712 370.774 428.568 365.059 372.45C360.364 326.333 337.014 277.132 293.677 222.039L292.443 220.471C280.773 205.66 268.707 190.344 270.754 174.766C271.835 166.543 278.53 157.591 291.053 156.125C303.289 154.693 315.286 160.657 326.527 166.889C352.246 181.146 378.82 195.15 405.512 208.513C444.139 227.849 462.55 225.619 473.038 222.26C494.644 215.342 496.843 194.658 491.695 177.608C490.832 174.746 489.833 171.796 488.867 168.944C484.17 155.063 479.313 140.709 486.827 128.539C491.779 120.519 502.669 114.657 516.705 112.454C530.742 110.253 545.194 112.139 556.358 117.63L557.431 116.545Z" fill="url(#paint16_linear_231_770)" fill-opacity="0.2"/>
<defs>
<linearGradient id="paint0_linear_231_770" x1="151.55" y1="291.12" x2="387.98" y2="361.282" gradientUnits="userSpaceOnUse">
<stop offset="0.015625" stop-color="white"/>
<stop offset="0.197917" stop-color="#994FFF"/>
<stop offset="1" stop-color="#4AB6FE"/>
</linearGradient>
<linearGradient id="paint1_linear_231_770" x1="164.021" y1="300.362" x2="396.541" y2="362.647" gradientUnits="userSpaceOnUse">
<stop offset="0.015625" stop-color="white"/>
<stop offset="0.197917" stop-color="#994FFF"/>
<stop offset="1" stop-color="#4AB6FE"/>
</linearGradient>
<linearGradient id="paint2_linear_231_770" x1="176.493" y1="309.607" x2="404.52" y2="364.609" gradientUnits="userSpaceOnUse">
<stop offset="0.015625" stop-color="white"/>
<stop offset="0.197917" stop-color="#994FFF"/>
<stop offset="1" stop-color="#4AB6FE"/>
</linearGradient>
<linearGradient id="paint3_linear_231_770" x1="188.959" y1="318.85" x2="412.009" y2="367.141" gradientUnits="userSpaceOnUse">
<stop offset="0.015625" stop-color="white"/>
<stop offset="0.197917" stop-color="#994FFF"/>
<stop offset="1" stop-color="#4AB6FE"/>
</linearGradient>
<linearGradient id="paint4_linear_231_770" x1="201.429" y1="328.096" x2="419.096" y2="370.226" gradientUnits="userSpaceOnUse">
<stop offset="0.015625" stop-color="white"/>
<stop offset="0.197917" stop-color="#994FFF"/>
<stop offset="1" stop-color="#4AB6FE"/>
</linearGradient>
<linearGradient id="paint5_linear_231_770" x1="213.9" y1="337.341" x2="425.845" y2="373.832" gradientUnits="userSpaceOnUse">
<stop offset="0.015625" stop-color="white"/>
<stop offset="0.197917" stop-color="#994FFF"/>
<stop offset="1" stop-color="#4AB6FE"/>
</linearGradient>
<linearGradient id="paint6_linear_231_770" x1="226.363" y1="346.585" x2="432.306" y2="377.929" gradientUnits="userSpaceOnUse">
<stop offset="0.015625" stop-color="white"/>
<stop offset="0.197917" stop-color="#994FFF"/>
<stop offset="1" stop-color="#4AB6FE"/>
</linearGradient>
<linearGradient id="paint7_linear_231_770" x1="238.824" y1="355.829" x2="438.533" y2="382.49" gradientUnits="userSpaceOnUse">
<stop offset="0.015625" stop-color="white"/>
<stop offset="0.197917" stop-color="#994FFF"/>
<stop offset="1" stop-color="#4AB6FE"/>
</linearGradient>
<linearGradient id="paint8_linear_231_770" x1="251.28" y1="365.074" x2="444.564" y2="387.488" gradientUnits="userSpaceOnUse">
<stop offset="0.015625" stop-color="white"/>
<stop offset="0.197917" stop-color="#994FFF"/>
<stop offset="1" stop-color="#4AB6FE"/>
</linearGradient>
<linearGradient id="paint9_linear_231_770" x1="263.735" y1="374.321" x2="450.442" y2="392.897" gradientUnits="userSpaceOnUse">
<stop offset="0.015625" stop-color="white"/>
<stop offset="0.197917" stop-color="#994FFF"/>
<stop offset="1" stop-color="#4AB6FE"/>
</linearGradient>
<linearGradient id="paint10_linear_231_770" x1="276.215" y1="383.576" x2="456.282" y2="398.713" gradientUnits="userSpaceOnUse">
<stop offset="0.015625" stop-color="white"/>
<stop offset="0.197917" stop-color="#994FFF"/>
<stop offset="1" stop-color="#4AB6FE"/>
</linearGradient>
<linearGradient id="paint11_linear_231_770" x1="288.715" y1="392.835" x2="462.097" y2="404.899" gradientUnits="userSpaceOnUse">
<stop offset="0.015625" stop-color="white"/>
<stop offset="0.197917" stop-color="#994FFF"/>
<stop offset="1" stop-color="#4AB6FE"/>
</linearGradient>
<linearGradient id="paint12_linear_231_770" x1="301.215" y1="402.071" x2="467.845" y2="411.374" gradientUnits="userSpaceOnUse">
<stop offset="0.015625" stop-color="white"/>
<stop offset="0.197917" stop-color="#994FFF"/>
<stop offset="1" stop-color="#4AB6FE"/>
</linearGradient>
<linearGradient id="paint13_linear_231_770" x1="313.707" y1="411.259" x2="473.535" y2="418.087" gradientUnits="userSpaceOnUse">
<stop offset="0.015625" stop-color="white"/>
<stop offset="0.197917" stop-color="#994FFF"/>
<stop offset="1" stop-color="#4AB6FE"/>
</linearGradient>
<linearGradient id="paint14_linear_231_770" x1="326.195" y1="420.42" x2="479.183" y2="425.051" gradientUnits="userSpaceOnUse">
<stop offset="0.015625" stop-color="white"/>
<stop offset="0.197917" stop-color="#994FFF"/>
<stop offset="1" stop-color="#4AB6FE"/>
</linearGradient>
<linearGradient id="paint15_linear_231_770" x1="338.678" y1="429.55" x2="484.801" y2="432.24" gradientUnits="userSpaceOnUse">
<stop offset="0.015625" stop-color="white"/>
<stop offset="0.197917" stop-color="#994FFF"/>
<stop offset="1" stop-color="#4AB6FE"/>
</linearGradient>
<linearGradient id="paint16_linear_231_770" x1="351.156" y1="438.652" x2="490.401" y2="439.647" gradientUnits="userSpaceOnUse">
<stop offset="0.015625" stop-color="white"/>
<stop offset="0.197917" stop-color="#994FFF"/>
<stop offset="1" stop-color="#4AB6FE"/>
</linearGradient>
</defs>
</svg>
