<svg width="84" height="158" viewBox="0 0 84 158" fill="none" xmlns="http://www.w3.org/2000/svg">
<g opacity="0.5">
<rect x="-1.84766" y="86.7805" width="3.49443" height="3.79851" rx="1" fill="#D9D9D9"/>
<rect x="-1.84766" y="97.8721" width="3.49443" height="3.79851" rx="1" fill="#D9D9D9"/>
<rect x="-1.84766" y="108.963" width="3.49443" height="3.79851" rx="1" fill="#D9D9D9"/>
<rect x="-1.84766" y="120.055" width="3.49443" height="3.79851" rx="1" fill="#D9D9D9"/>
<rect x="-1.84766" y="131.146" width="3.49443" height="3.79851" rx="1" fill="#D9D9D9"/>
<rect x="-1.84766" y="142.238" width="3.49443" height="3.79851" rx="1" fill="#D9D9D9"/>
<rect x="-1.84766" y="153.329" width="3.49443" height="3.79851" rx="1" fill="#D9D9D9"/>
<rect x="10.1523" y="86.7805" width="3.49443" height="3.79851" rx="1" fill="#D9D9D9"/>
<rect x="10.1523" y="97.8721" width="3.49443" height="3.79851" rx="1" fill="#D9D9D9"/>
<rect x="10.1523" y="108.963" width="3.49443" height="3.79851" rx="1" fill="#D9D9D9"/>
<rect x="10.1523" y="120.055" width="3.49443" height="3.79851" rx="1" fill="#D9D9D9"/>
<rect x="10.1523" y="131.146" width="3.49443" height="3.79851" rx="1" fill="#D9D9D9"/>
<rect x="10.1523" y="142.238" width="3.49443" height="3.79851" rx="1" fill="#D9D9D9"/>
<rect x="10.1523" y="153.329" width="3.49443" height="3.79851" rx="1" fill="#D9D9D9"/>
<rect x="22.1562" y="86.7805" width="3.49443" height="3.79851" rx="1" fill="#D9D9D9"/>
<rect x="22.1562" y="97.8721" width="3.49443" height="3.79851" rx="1" fill="#D9D9D9"/>
<rect x="22.1562" y="108.963" width="3.49443" height="3.79851" rx="1" fill="#D9D9D9"/>
<rect x="22.1562" y="120.055" width="3.49443" height="3.79851" rx="1" fill="#D9D9D9"/>
<rect x="22.1562" y="131.146" width="3.49443" height="3.79851" rx="1" fill="#D9D9D9"/>
<rect x="22.1562" y="142.238" width="3.49443" height="3.79851" rx="1" fill="#D9D9D9"/>
<rect x="22.1562" y="153.329" width="3.49443" height="3.79851" rx="1" fill="#D9D9D9"/>
<rect x="32.1445" y="86.7805" width="3.49443" height="3.79851" rx="1" fill="#D9D9D9"/>
<rect x="32.1445" y="97.8721" width="3.49443" height="3.79851" rx="1" fill="#D9D9D9"/>
<rect x="32.1445" y="108.963" width="3.49443" height="3.79851" rx="1" fill="#D9D9D9"/>
<rect x="32.1445" y="120.055" width="3.49443" height="3.79851" rx="1" fill="#D9D9D9"/>
<rect x="32.1445" y="131.146" width="3.49443" height="3.79851" rx="1" fill="#D9D9D9"/>
<rect x="32.1445" y="142.238" width="3.49443" height="3.79851" rx="1" fill="#D9D9D9"/>
<rect x="32.1445" y="153.329" width="3.49443" height="3.79851" rx="1" fill="#D9D9D9"/>
<rect x="44.1484" y="86.7805" width="3.49443" height="3.79851" rx="1" fill="#D9D9D9"/>
<rect x="44.1484" y="97.8721" width="3.49443" height="3.79851" rx="1" fill="#D9D9D9"/>
<rect x="44.1484" y="108.963" width="3.49443" height="3.79851" rx="1" fill="#D9D9D9"/>
<rect x="44.1484" y="120.055" width="3.49443" height="3.79851" rx="1" fill="#D9D9D9"/>
<rect x="44.1484" y="131.146" width="3.49443" height="3.79851" rx="1" fill="#D9D9D9"/>
<rect x="44.1484" y="142.238" width="3.49443" height="3.79851" rx="1" fill="#D9D9D9"/>
<rect x="44.1484" y="153.329" width="3.49443" height="3.79851" rx="1" fill="#D9D9D9"/>
<rect x="56.1523" y="86.7805" width="3.49443" height="3.79851" rx="1" fill="#D9D9D9"/>
<rect x="56.1523" y="97.8721" width="3.49443" height="3.79851" rx="1" fill="#D9D9D9"/>
<rect x="56.1523" y="108.963" width="3.49443" height="3.79851" rx="1" fill="#D9D9D9"/>
<rect x="56.1523" y="120.055" width="3.49443" height="3.79851" rx="1" fill="#D9D9D9"/>
<rect x="56.1523" y="131.146" width="3.49443" height="3.79851" rx="1" fill="#D9D9D9"/>
<rect x="56.1523" y="142.238" width="3.49443" height="3.79851" rx="1" fill="#D9D9D9"/>
<rect x="56.1523" y="153.329" width="3.49443" height="3.79851" rx="1" fill="#D9D9D9"/>
<rect x="68.1523" y="86.7805" width="3.49443" height="3.79851" rx="1" fill="#D9D9D9"/>
<rect x="68.1523" y="97.8721" width="3.49443" height="3.79851" rx="1" fill="#D9D9D9"/>
<rect x="68.1523" y="108.963" width="3.49443" height="3.79851" rx="1" fill="#D9D9D9"/>
<rect x="68.1523" y="120.055" width="3.49443" height="3.79851" rx="1" fill="#D9D9D9"/>
<rect x="68.1523" y="131.146" width="3.49443" height="3.79851" rx="1" fill="#D9D9D9"/>
<rect x="68.1523" y="142.238" width="3.49443" height="3.79851" rx="1" fill="#D9D9D9"/>
<rect x="68.1523" y="153.329" width="3.49443" height="3.79851" rx="1" fill="#D9D9D9"/>
<rect x="80.1562" y="86.7805" width="3.49443" height="3.79851" rx="1" fill="#D9D9D9"/>
<rect x="80.1562" y="97.8721" width="3.49443" height="3.79851" rx="1" fill="#D9D9D9"/>
<rect x="80.1562" y="108.963" width="3.49443" height="3.79851" rx="1" fill="#D9D9D9"/>
<rect x="80.1562" y="120.055" width="3.49443" height="3.79851" rx="1" fill="#D9D9D9"/>
<rect x="80.1562" y="131.146" width="3.49443" height="3.79851" rx="1" fill="#D9D9D9"/>
<rect x="80.1562" y="142.238" width="3.49443" height="3.79851" rx="1" fill="#D9D9D9"/>
<rect x="80.1562" y="153.329" width="3.49443" height="3.79851" rx="1" fill="#D9D9D9"/>
<rect x="-1.84766" y="0.00952148" width="3.49443" height="3.79851" rx="1" fill="#D9D9D9"/>
<rect x="-1.84766" y="11.1011" width="3.49443" height="3.79851" rx="1" fill="#D9D9D9"/>
<rect x="-1.84766" y="22.1924" width="3.49443" height="3.79851" rx="1" fill="#D9D9D9"/>
<rect x="-1.84766" y="33.2839" width="3.49443" height="3.79851" rx="1" fill="#D9D9D9"/>
<rect x="-1.84766" y="44.3755" width="3.49443" height="3.79851" rx="1" fill="#D9D9D9"/>
<rect x="-1.84766" y="55.4668" width="3.49443" height="3.79851" rx="1" fill="#D9D9D9"/>
<rect x="-1.84766" y="66.5583" width="3.49443" height="3.79851" rx="1" fill="#D9D9D9"/>
<rect x="-1.84766" y="77.6497" width="3.49443" height="3.79851" rx="1" fill="#D9D9D9"/>
<rect x="10.1523" y="0.00952148" width="3.49443" height="3.79851" rx="1" fill="#D9D9D9"/>
<rect x="10.1523" y="11.1011" width="3.49443" height="3.79851" rx="1" fill="#D9D9D9"/>
<rect x="10.1523" y="22.1924" width="3.49443" height="3.79851" rx="1" fill="#D9D9D9"/>
<rect x="10.1523" y="33.2839" width="3.49443" height="3.79851" rx="1" fill="#D9D9D9"/>
<rect x="10.1523" y="44.3755" width="3.49443" height="3.79851" rx="1" fill="#D9D9D9"/>
<rect x="10.1523" y="55.4668" width="3.49443" height="3.79851" rx="1" fill="#D9D9D9"/>
<rect x="10.1523" y="66.5583" width="3.49443" height="3.79851" rx="1" fill="#D9D9D9"/>
<rect x="10.1523" y="77.6497" width="3.49443" height="3.79851" rx="1" fill="#D9D9D9"/>
<rect x="22.1562" y="0.00952148" width="3.49443" height="3.79851" rx="1" fill="#D9D9D9"/>
<rect x="22.1562" y="11.1011" width="3.49443" height="3.79851" rx="1" fill="#D9D9D9"/>
<rect x="22.1562" y="22.1924" width="3.49443" height="3.79851" rx="1" fill="#D9D9D9"/>
<rect x="22.1562" y="33.2839" width="3.49443" height="3.79851" rx="1" fill="#D9D9D9"/>
<rect x="22.1562" y="44.3755" width="3.49443" height="3.79851" rx="1" fill="#D9D9D9"/>
<rect x="22.1562" y="55.4668" width="3.49443" height="3.79851" rx="1" fill="#D9D9D9"/>
<rect x="22.1562" y="66.5583" width="3.49443" height="3.79851" rx="1" fill="#D9D9D9"/>
<rect x="22.1562" y="77.6497" width="3.49443" height="3.79851" rx="1" fill="#D9D9D9"/>
<rect x="32.1445" y="0.00952148" width="3.49443" height="3.79851" rx="1" fill="#D9D9D9"/>
<rect x="32.1445" y="11.1011" width="3.49443" height="3.79851" rx="1" fill="#D9D9D9"/>
<rect x="32.1445" y="22.1924" width="3.49443" height="3.79851" rx="1" fill="#D9D9D9"/>
<rect x="32.1445" y="33.2839" width="3.49443" height="3.79851" rx="1" fill="#D9D9D9"/>
<rect x="32.1445" y="44.3755" width="3.49443" height="3.79851" rx="1" fill="#D9D9D9"/>
<rect x="32.1445" y="55.4668" width="3.49443" height="3.79851" rx="1" fill="#D9D9D9"/>
<rect x="32.1445" y="66.5583" width="3.49443" height="3.79851" rx="1" fill="#D9D9D9"/>
<rect x="32.1445" y="77.6497" width="3.49443" height="3.79851" rx="1" fill="#D9D9D9"/>
<rect x="44.1484" y="0.00952148" width="3.49443" height="3.79851" rx="1" fill="#D9D9D9"/>
<rect x="44.1484" y="11.1011" width="3.49443" height="3.79851" rx="1" fill="#D9D9D9"/>
<rect x="44.1484" y="22.1924" width="3.49443" height="3.79851" rx="1" fill="#D9D9D9"/>
<rect x="44.1484" y="33.2839" width="3.49443" height="3.79851" rx="1" fill="#D9D9D9"/>
<rect x="44.1484" y="44.3755" width="3.49443" height="3.79851" rx="1" fill="#D9D9D9"/>
<rect x="44.1484" y="55.4668" width="3.49443" height="3.79851" rx="1" fill="#D9D9D9"/>
<rect x="44.1484" y="66.5583" width="3.49443" height="3.79851" rx="1" fill="#D9D9D9"/>
<rect x="44.1484" y="77.6497" width="3.49443" height="3.79851" rx="1" fill="#D9D9D9"/>
<rect x="56.1523" y="0.00952148" width="3.49443" height="3.79851" rx="1" fill="#D9D9D9"/>
<rect x="56.1523" y="11.1011" width="3.49443" height="3.79851" rx="1" fill="#D9D9D9"/>
<rect x="56.1523" y="22.1924" width="3.49443" height="3.79851" rx="1" fill="#D9D9D9"/>
<rect x="56.1523" y="33.2839" width="3.49443" height="3.79851" rx="1" fill="#D9D9D9"/>
<rect x="56.1523" y="44.3755" width="3.49443" height="3.79851" rx="1" fill="#D9D9D9"/>
<rect x="56.1523" y="55.4668" width="3.49443" height="3.79851" rx="1" fill="#D9D9D9"/>
<rect x="56.1523" y="66.5583" width="3.49443" height="3.79851" rx="1" fill="#D9D9D9"/>
<rect x="56.1523" y="77.6497" width="3.49443" height="3.79851" rx="1" fill="#D9D9D9"/>
<rect x="68.1523" y="0.00952148" width="3.49443" height="3.79851" rx="1" fill="#D9D9D9"/>
<rect x="68.1523" y="11.1011" width="3.49443" height="3.79851" rx="1" fill="#D9D9D9"/>
<rect x="68.1523" y="22.1924" width="3.49443" height="3.79851" rx="1" fill="#D9D9D9"/>
<rect x="68.1523" y="33.2839" width="3.49443" height="3.79851" rx="1" fill="#D9D9D9"/>
<rect x="68.1523" y="44.3755" width="3.49443" height="3.79851" rx="1" fill="#D9D9D9"/>
<rect x="68.1523" y="55.4668" width="3.49443" height="3.79851" rx="1" fill="#D9D9D9"/>
<rect x="68.1523" y="66.5583" width="3.49443" height="3.79851" rx="1" fill="#D9D9D9"/>
<rect x="68.1523" y="77.6497" width="3.49443" height="3.79851" rx="1" fill="#D9D9D9"/>
<rect x="80.1562" y="0.00952148" width="3.49443" height="3.79851" rx="1" fill="#D9D9D9"/>
<rect x="80.1562" y="11.1011" width="3.49443" height="3.79851" rx="1" fill="#D9D9D9"/>
<rect x="80.1562" y="22.1924" width="3.49443" height="3.79851" rx="1" fill="#D9D9D9"/>
<rect x="80.1562" y="33.2839" width="3.49443" height="3.79851" rx="1" fill="#D9D9D9"/>
<rect x="80.1562" y="44.3755" width="3.49443" height="3.79851" rx="1" fill="#D9D9D9"/>
<rect x="80.1562" y="55.4668" width="3.49443" height="3.79851" rx="1" fill="#D9D9D9"/>
<rect x="80.1562" y="66.5583" width="3.49443" height="3.79851" rx="1" fill="#D9D9D9"/>
<rect x="80.1562" y="77.6497" width="3.49443" height="3.79851" rx="1" fill="#D9D9D9"/>
</g>
</svg>
