<svg width="425" height="226" viewBox="0 0 425 226" fill="none" xmlns="http://www.w3.org/2000/svg">
<path d="M580.424 238.993L580.246 238.821C575.085 242.555 566.686 243.115 555.958 240.442C545.985 237.853 535.418 233.247 524.758 226.843C513.787 220.259 503.071 212.392 492.708 204.786C483.819 198.261 474.627 191.514 465.296 185.589C412.513 152.077 353.57 147.065 331.105 174.179C330.056 175.446 329.046 176.804 328.07 178.119C324.242 183.273 320.283 188.602 312.813 189.987C305.974 191.254 296.799 189.036 286.279 183.57C276.83 178.633 267.311 171.764 258.388 163.443C249.414 155.022 241.399 145.801 233.649 136.884C227.08 129.327 220.288 121.513 212.927 114.2C201.2 102.548 187.418 91.7252 173.071 82.8991C158.406 73.9271 143.823 67.2515 129.931 63.1509C115.815 59.0312 102.578 57.5037 90.736 58.6281C78.9657 59.7614 68.9942 63.5938 61.8994 69.7103L62.0837 69.8778C69.1637 63.773 79.1149 59.9486 90.8617 58.8173C102.68 57.6958 115.89 59.2201 129.977 63.3308C143.841 67.4232 158.395 74.0857 173.031 83.0401C187.349 91.8484 201.104 102.65 212.808 114.278C220.157 121.579 226.944 129.388 233.508 136.94C241.265 145.864 249.287 155.092 258.277 163.529C267.231 171.879 276.783 178.772 286.265 183.726C296.841 189.221 306.069 191.451 312.951 190.175C320.459 188.783 324.428 183.44 328.265 178.274C329.241 176.96 330.25 175.602 331.298 174.337C353.723 147.271 412.562 152.273 465.25 185.727C474.57 191.644 483.755 198.386 492.638 204.907C503.01 212.52 513.734 220.391 524.722 226.986C535.414 233.409 546.014 238.029 556.017 240.625C566.795 243.311 575.234 242.746 580.424 238.993Z" fill="url(#paint0_linear_231_1522)" fill-opacity="0.5"/>
<path d="M580.129 237.659L579.885 237.406C574.7 240.304 566.221 240.287 555.365 237.354C545.325 234.542 534.814 230.08 524.172 224.112C522.868 223.382 521.512 222.606 520.139 221.806C511.154 216.562 502.525 210.727 494.181 205.083C485.397 199.143 476.314 193 467.071 187.751C453.007 179.763 438.133 174.194 425.438 169.801C409.332 164.227 396.78 160.86 385.936 159.204C369.493 156.698 354.993 157.622 344.003 161.876C339.377 163.6 335.24 166.016 331.649 169.09C329.789 170.709 328.111 172.571 326.334 174.543C324.73 176.322 323.073 178.162 321.28 179.789C318.883 182.111 315.944 183.798 312.543 184.806C306.212 186.52 298.203 185.321 288.739 181.241C279.88 177.403 270.765 171.589 262.056 164.222C253.843 157.213 246.443 149.452 239.287 141.947C232.985 135.339 226.469 128.505 219.343 122.108C208.408 112.295 195.547 103.232 182.152 95.8981C167.359 87.8776 152.815 82.1233 139.053 78.8463C124.985 75.535 111.788 74.5326 99.8524 75.8687C87.8946 77.1978 77.4348 80.886 69.6043 86.5345L69.8607 86.781C77.6722 81.1461 88.1067 77.4669 100.036 76.1408C111.942 74.8079 125.106 75.8078 139.14 79.111C152.864 82.3786 167.368 88.1172 182.121 96.1161C195.475 103.428 208.295 112.462 219.194 122.242C226.302 128.623 232.809 135.447 239.103 142.047C246.27 149.564 253.682 157.336 261.919 164.367C270.677 171.775 279.845 177.622 288.753 181.482C298.159 185.535 306.458 186.777 312.755 185.073C316.177 184.059 319.134 182.362 321.547 180.026C323.343 178.396 325.003 176.554 326.608 174.773C328.382 172.803 330.058 170.944 331.914 169.33C335.493 166.265 339.618 163.857 344.23 162.138C355.19 157.896 369.652 156.975 386.051 159.474C396.873 161.126 409.404 164.488 425.487 170.054C438.16 174.44 453.006 179.997 467.033 187.964C476.254 193.201 485.327 199.337 494.1 205.271C502.454 210.92 511.091 216.761 520.093 222.015C521.469 222.817 522.829 223.595 524.135 224.326C534.816 230.316 545.364 234.794 555.441 237.616C566.365 240.567 574.902 240.582 580.129 237.659Z" fill="url(#paint1_linear_231_1522)" fill-opacity="0.5"/>
<path d="M579.819 236.329L579.521 235.988C567.951 240.602 543.033 231.466 523.573 221.378C522.285 220.71 520.946 220.004 519.59 219.28C511.27 214.827 503.47 210.044 495.926 205.419C486.738 199.786 478.06 194.464 468.829 189.908C458.998 185.054 448.392 181.48 437.164 177.697C434.073 176.656 430.878 175.579 427.667 174.465C425.054 173.557 422.468 172.651 419.908 171.747C408.396 167.696 397.522 163.871 387.593 161.467C371.31 157.533 356.713 156.72 345.383 159.117C340.508 160.027 336.087 161.663 332.19 163.998C329.246 165.808 326.543 168.467 323.93 171.038C322.905 172.045 321.845 173.088 320.78 174.072C317.786 176.834 315.158 178.548 312.261 179.627C306.277 181.805 298.666 181.394 290.256 178.437C282.276 175.684 273.901 171.099 265.703 164.994C258.211 159.337 251.392 152.974 244.798 146.821C238.798 141.222 232.595 135.432 225.738 130.008C215.297 121.752 202.994 114.224 190.158 108.239C176.396 101.807 161.874 97.071 148.163 94.5416C120.737 89.5044 94.9102 92.7177 77.3041 103.358L77.6274 103.687C95.1887 93.0733 120.949 89.868 148.301 94.8919C161.969 97.413 176.443 102.134 190.159 108.544C202.942 114.505 215.192 121.999 225.584 130.216C232.413 135.619 238.604 141.397 244.592 146.985C251.201 153.153 258.036 159.53 265.564 165.214C273.83 171.369 282.274 175.992 290.32 178.767C298.818 181.755 306.508 182.171 312.554 179.969C315.474 178.882 318.119 177.159 321.128 174.381C322.195 173.396 323.256 172.353 324.281 171.344C326.889 168.78 329.585 166.127 332.515 164.325C336.394 162.001 340.794 160.373 345.646 159.468C356.934 157.08 371.478 157.89 387.706 161.812C397.608 164.208 408.469 168.03 419.968 172.076C422.527 172.976 425.114 173.882 427.729 174.794C430.942 175.91 434.139 176.987 437.231 178.028C448.439 181.805 459.025 185.372 468.817 190.206C478.016 194.748 486.68 200.06 495.852 205.683C503.405 210.315 511.215 215.103 519.556 219.567C520.913 220.293 522.256 221 523.546 221.669C543.101 231.807 568.154 240.981 579.819 236.329Z" fill="url(#paint2_linear_231_1522)" fill-opacity="0.5"/>
<path d="M579.503 235L579.17 234.569C565.173 237.959 532.615 223.235 522.97 218.641C521.644 218.01 520.333 217.38 519.037 216.752C511.601 213.142 504.759 209.419 498.144 205.818C488.775 200.719 479.926 195.903 470.579 192.06C463.891 189.311 456.671 187.234 449.027 185.036C442.912 183.277 436.588 181.458 429.898 179.127C422.704 176.621 415.779 173.868 409.082 171.206C402.081 168.422 395.469 165.793 389.266 163.735C373.25 158.431 358.559 155.881 346.781 156.358C342.349 156.538 337.615 156.883 332.742 158.905C328.437 160.688 324.667 164.233 321.021 167.661L320.283 168.354C317.855 170.794 315.078 172.833 311.979 174.45C306.563 177.101 299.615 177.506 291.763 175.629C284.639 173.928 277.008 170.569 269.337 165.755C262.471 161.385 256.442 156.553 250.06 151.437C244.436 146.929 238.62 142.268 232.12 137.896C222.167 131.211 210.423 125.223 198.156 120.577C184.852 115.516 170.714 111.94 157.271 110.238C130.496 106.874 104.158 110.498 85.0097 120.181L85.3947 120.593C104.496 110.935 130.767 107.32 157.471 110.674C170.868 112.371 184.957 115.934 198.212 120.976C210.418 125.599 222.1 131.555 231.994 138.199C238.458 142.547 244.257 147.195 249.864 151.689C256.269 156.824 262.319 161.673 269.231 166.072C276.987 170.938 284.701 174.335 291.904 176.055C299.849 177.955 306.879 177.546 312.36 174.864C315.478 173.239 318.272 171.189 320.713 168.735L321.452 168.042C325.085 164.626 328.842 161.093 333.112 159.324C337.945 157.319 342.649 156.977 347.052 156.799C358.775 156.323 373.402 158.864 389.352 164.144C395.534 166.196 402.137 168.821 409.127 171.6C415.832 174.266 422.765 177.023 429.973 179.533C436.682 181.87 443.015 183.692 449.14 185.454C456.764 187.647 463.965 189.718 470.616 192.452C479.919 196.277 488.748 201.082 498.096 206.17C504.721 209.775 511.57 213.504 519.026 217.121C520.323 217.75 521.636 218.381 522.965 219.015C532.656 223.63 565.373 238.423 579.503 235Z" fill="url(#paint3_linear_231_1522)" fill-opacity="0.5"/>
<path d="M579.178 233.672L578.835 233.15C569.668 233.968 550.67 228.166 522.366 215.904L518.481 214.221C512.322 211.549 506.702 208.907 501.267 206.351C491.369 201.697 482.02 197.302 472.319 194.21C467.429 192.652 462.178 191.508 456.617 190.296C449.31 188.703 441.028 186.899 432.133 183.791C422.312 180.36 413.171 176.125 404.332 172.03C399.634 169.854 395.195 167.797 390.953 166.008C375.203 159.379 360.419 155.09 348.201 153.604C343.739 153.062 338.682 152.448 333.305 153.811C328.231 155.093 323.81 158.811 319.788 162.637C317.298 165.007 314.722 167.457 311.698 169.275C306.784 172.357 300.494 173.567 293.259 172.822C286.948 172.116 280.062 169.974 272.948 166.505C266.628 163.367 261.01 159.723 255.061 155.865C249.542 152.192 244.006 148.822 238.484 145.775C229.013 140.682 217.831 136.234 206.145 132.912C192.317 129.058 178.999 126.72 166.377 125.933C140.332 124.219 113.486 128.254 92.7203 137.001L93.1623 137.5C113.882 128.772 140.666 124.746 166.648 126.455C179.227 127.24 192.5 129.569 206.28 133.409C217.905 136.715 229.022 141.135 238.43 146.194C243.925 149.227 249.435 152.581 254.927 156.237C260.904 160.113 266.55 163.775 272.926 166.941C280.134 170.456 287.11 172.626 293.505 173.342C300.829 174.098 307.197 172.875 312.172 169.757C315.218 167.926 317.802 165.467 320.301 163.09C324.3 159.285 328.691 155.59 333.705 154.323C339.01 152.978 344.021 153.587 348.442 154.124C360.595 155.601 375.308 159.871 390.989 166.47C395.214 168.253 399.645 170.305 404.336 172.478C413.196 176.583 422.358 180.828 432.222 184.273C441.163 187.397 449.47 189.208 456.798 190.805C462.341 192.013 467.576 193.154 472.43 194.7C482.075 197.774 491.396 202.157 501.265 206.797C506.707 209.355 512.334 212.001 518.507 214.678L522.393 216.362C550.811 228.674 569.918 234.498 579.178 233.672Z" fill="url(#paint4_linear_231_1522)" fill-opacity="0.5"/>
<path d="M578.829 232.339L578.511 231.734C567.606 231.076 544.684 222.121 526.266 214.926L521.75 213.164C520.449 212.658 519.17 212.165 517.912 211.687C513.841 210.138 510.058 208.649 506.4 207.208C494.703 202.603 484.6 198.626 474.04 196.36C470.391 195.577 466.505 195.056 462.391 194.505C454.224 193.41 444.968 192.169 434.361 188.454C422.676 184.36 411.655 178.434 401.933 173.207C398.687 171.461 395.62 169.813 392.647 168.29C377.24 160.416 362.368 154.389 349.639 150.861L349.329 150.775C344.483 149.431 339.472 148.042 333.871 148.717C329.199 149.277 324.429 151.961 319.287 156.921C318.761 157.429 318.241 157.935 317.728 158.441C315.623 160.503 313.636 162.451 311.408 164.103C306.49 167.75 300.88 169.74 294.735 170.018C289.186 170.28 283.037 169.345 276.523 167.249C270.571 165.307 265.193 162.781 259.5 160.107C254.925 157.958 250.195 155.736 244.814 153.647C235.803 150.165 225.188 147.26 214.117 145.248C200.724 142.863 187.808 141.653 175.473 141.629C150.331 141.525 122.978 145.969 100.428 153.822L100.921 154.407C123.431 146.568 150.731 142.132 175.822 142.235C188.121 142.26 201 143.466 214.353 145.844C225.372 147.846 235.93 150.734 244.885 154.194C250.23 156.27 254.941 158.483 259.498 160.623C265.224 163.313 270.632 165.853 276.646 167.815C283.251 169.941 289.485 170.889 295.112 170.625C301.335 170.342 307.01 168.331 311.979 164.646C314.221 162.984 316.215 161.03 318.325 158.963C318.84 158.459 319.359 157.952 319.883 157.444C324.978 152.528 329.688 149.871 334.282 149.32C339.772 148.659 344.713 150.029 349.492 151.354L349.801 151.439C362.467 154.95 377.268 160.949 392.608 168.789C395.571 170.306 398.63 171.951 401.871 173.693C411.632 178.942 422.696 184.89 434.463 189.013C445.157 192.759 454.456 194.005 462.661 195.105C466.76 195.654 470.632 196.174 474.252 196.951C484.741 199.202 494.808 203.165 506.464 207.754C510.126 209.196 513.912 210.686 517.989 212.237C519.244 212.713 520.52 213.205 521.819 213.711L526.333 215.473C544.811 222.692 567.806 231.675 578.829 232.339Z" fill="url(#paint5_linear_231_1522)" fill-opacity="0.5"/>
<path d="M578.215 230.326C570.458 228.726 557.079 223.705 542.914 218.389C535.513 215.612 527.86 212.74 521.136 210.423C519.846 209.978 518.581 209.555 517.342 209.153L517.236 209.118C499.87 203.466 488.398 199.733 475.756 198.511C473.072 198.252 470.248 198.15 467.259 198.042C458.564 197.728 448.71 197.372 436.597 193.117C423.412 188.486 411.34 181.034 400.689 174.46C398.485 173.099 396.404 171.814 394.356 170.581C379.846 161.816 365.366 154.301 351.105 148.133L350.459 147.857C345.533 145.751 340.439 143.572 334.451 143.626C327.856 143.683 322.296 147.78 318.793 151.205C317.674 152.298 316.603 153.419 315.566 154.503C314.063 156.076 312.643 157.562 311.123 158.933C306.391 163.205 301.513 165.917 296.21 167.224C291.352 168.416 285.93 168.676 280.077 167.999C274.111 167.313 268.583 165.875 262.731 164.353C259.108 163.411 255.361 162.436 251.128 161.522C241.154 159.491 231.456 158.177 222.087 157.587C209.179 156.681 196.659 156.593 184.571 157.326C160.43 158.762 133.287 163.49 108.145 170.643L108.683 171.314C133.795 164.172 160.901 159.448 185.007 158.014C197.068 157.284 209.561 157.371 222.44 158.274C231.773 158.863 241.434 160.172 251.37 162.193C255.582 163.103 259.318 164.076 262.932 165.015C268.816 166.546 274.374 167.992 280.399 168.684C286.325 169.37 291.815 169.106 296.734 167.9C302.097 166.578 307.023 163.842 311.794 159.535C313.321 158.156 314.745 156.667 316.252 155.09C317.287 154.007 318.357 152.888 319.472 151.799C322.931 148.416 328.408 144.372 334.857 144.316C340.676 144.263 345.67 146.399 350.5 148.465L351.146 148.741C365.35 154.884 379.772 162.369 394.224 171.099C396.263 172.328 398.342 173.611 400.542 174.969C411.254 181.581 423.396 189.075 436.711 193.752C448.965 198.056 458.884 198.415 467.636 198.731C470.615 198.839 473.429 198.941 476.091 199.198C488.64 200.41 500.072 204.131 517.377 209.763L517.483 209.798C518.715 210.197 519.973 210.618 521.257 211.062C527.968 213.373 535.612 216.242 543.007 219.016C557.213 224.348 570.63 229.383 578.465 230.999L578.215 230.326Z" fill="url(#paint6_linear_231_1522)" fill-opacity="0.5"/>
<path d="M577.94 228.933C573.659 227.438 567.661 225.077 560.718 222.343C548.277 217.445 532.793 211.35 520.512 207.682C519.212 207.294 517.951 206.936 516.761 206.618C499.039 201.859 488.386 200.246 477.459 200.668C475.6 200.74 473.671 200.891 471.628 201.051C463.058 201.722 452.392 202.557 438.826 197.78C424.349 192.682 411.468 183.658 400.104 175.697C398.73 174.735 397.385 173.792 396.07 172.88C381.619 162.878 367.092 153.705 352.583 145.423L351.865 145.012C346.775 142.102 341.512 139.091 335.035 138.538C327.251 137.871 321.205 142.607 318.294 145.49C316.559 147.206 314.998 149.011 313.489 150.755C312.6 151.783 311.724 152.796 310.833 153.766C306.248 158.765 301.945 162.257 297.677 164.441C293.455 166.568 288.745 168.017 283.615 168.768C276.629 169.847 270.347 169.7 262.393 169.514C260.81 169.476 259.161 169.438 257.425 169.407C248.586 169.274 239.375 169.45 230.047 169.929C217.861 170.511 205.619 171.553 193.663 173.025C172.018 175.731 146.568 180.454 115.86 187.463L116.439 188.222C147.131 181.217 172.564 176.497 194.19 173.793C206.131 172.323 218.358 171.283 230.53 170.702C239.844 170.222 249.04 170.047 257.863 170.18C259.596 170.211 261.244 170.249 262.826 170.287C270.812 170.473 277.12 170.621 284.158 169.534C289.338 168.776 294.093 167.312 298.356 165.165C302.661 162.962 306.995 159.447 311.606 154.419C312.499 153.446 313.377 152.432 314.268 151.401C315.774 149.661 317.33 147.862 319.056 146.152C321.919 143.318 327.852 138.66 335.421 139.309C341.66 139.842 346.789 142.775 351.749 145.612L352.469 146.023C366.935 154.281 381.42 163.427 395.827 173.399C397.139 174.309 398.481 175.25 399.853 176.211C411.305 184.234 424.285 193.327 438.956 198.492C452.724 203.341 463.483 202.499 472.127 201.822C474.164 201.662 476.088 201.512 477.935 201.441C488.775 201.022 499.357 202.626 516.98 207.358C518.158 207.673 519.408 208.028 520.697 208.413C532.928 212.066 548.383 218.15 560.801 223.039C567.758 225.778 573.766 228.143 578.073 229.647L577.94 228.933Z" fill="url(#paint7_linear_231_1522)" fill-opacity="0.5"/>
<path d="M577.687 227.557C565.06 221.384 538.676 209.674 519.884 204.941C518.598 204.617 517.352 204.329 516.178 204.085C498.73 200.426 489.078 200.894 479.16 202.833C478.052 203.049 476.908 203.295 475.724 203.549C466.989 205.425 456.119 207.759 441.06 202.444C425.412 196.921 411.289 185.808 399.941 176.878L397.791 175.188C384.339 164.651 370.447 154.336 354.073 142.729L353.436 142.277C348.389 138.692 342.666 134.628 335.629 133.455C329.351 132.406 322.852 134.709 317.797 139.774C315.412 142.163 313.448 144.763 311.549 147.278L310.545 148.603C306.298 154.17 302.735 158.522 299.148 161.669C295.535 164.773 291.531 167.41 287.162 169.561C280.392 173.014 274.039 175.114 263.724 177.31C256.858 178.793 248.453 180.347 238.721 182.146L231.012 183.538C222.465 185.073 212.778 186.813 202.755 188.725C193.118 190.582 183.262 192.58 172.828 194.695C156.548 197.994 139.714 201.406 123.579 204.284L124.194 205.131C140.336 202.251 157.174 198.839 173.457 195.539C183.889 193.424 193.744 191.426 203.377 189.57C213.397 187.66 223.082 185.919 231.627 184.384L239.339 182.992C249.076 181.192 257.485 179.637 264.359 178.152C274.72 175.946 281.105 173.836 287.914 170.362C292.31 168.197 296.341 165.543 299.977 162.417C303.586 159.252 307.162 154.885 311.421 149.303L312.426 147.976C314.318 145.47 316.275 142.879 318.643 140.508C323.593 135.548 329.911 133.285 335.978 134.299C342.701 135.419 348.012 139.191 353.149 142.839L353.785 143.291C370.134 154.881 384.001 165.177 397.427 175.694L399.573 177.381C411.032 186.397 425.291 197.617 441.202 203.233C456.542 208.648 467.53 206.288 476.358 204.392C477.539 204.138 478.68 203.893 479.784 203.677C489.615 201.755 499.183 201.293 516.485 204.92C517.643 205.161 518.874 205.445 520.144 205.765C538.826 210.471 565.088 222.129 577.661 228.276L577.687 227.557Z" fill="url(#paint8_linear_231_1522)" fill-opacity="0.5"/>
<path d="M577.448 226.198C565.386 218.654 538.452 206.116 519.254 202.198C517.99 201.94 516.758 201.722 515.59 201.55C498.56 199.018 489.443 201.739 480.859 205.003L479.663 205.46C471.357 208.647 459.981 213.01 443.293 207.107C426.547 201.182 411.852 188.309 400.044 177.965L399.516 177.502C385.339 165.1 371.975 153.854 360.184 143.933L355.091 139.645C349.831 135.212 343.87 130.187 336.23 128.374C329.473 126.767 322.397 128.892 317.301 134.057C314.657 136.875 312.305 140.008 310.256 143.441C308.721 145.857 307.351 148.14 306.027 150.347C304.151 153.471 302.38 156.422 300.625 158.905C297.311 163.593 293.761 167.33 290.725 170.367C284.817 176.508 277.886 181.484 270.03 185.224C263.918 188.209 256.047 191.286 245.964 194.63C236.825 197.621 225.664 200.826 211.845 204.426C181.023 212.52 154.677 217.976 131.301 221.104L131.948 222.038C155.35 218.905 181.721 213.445 212.567 205.344C226.397 201.741 237.569 198.534 246.72 195.54C256.824 192.187 264.716 189.103 270.847 186.108C278.745 182.348 285.714 177.346 291.654 171.172C294.701 168.124 298.265 164.372 301.595 159.661C303.358 157.166 305.133 154.21 307.012 151.079C308.335 148.873 309.704 146.593 311.237 144.181C313.271 140.772 315.606 137.659 318.23 134.86C323.198 129.824 330.04 127.739 336.53 129.282C343.778 131.003 349.295 135.653 354.631 140.15L359.725 144.438C371.508 154.353 384.863 165.591 399.024 177.98L399.552 178.442C411.495 188.905 426.358 201.926 443.448 207.972C460.507 214.007 472.029 209.587 480.442 206.36L481.636 205.904C490.138 202.671 499.163 199.977 515.994 202.479C517.141 202.647 518.353 202.862 519.594 203.116C538.616 206.998 565.292 219.414 577.236 226.885L577.448 226.198Z" fill="url(#paint9_linear_231_1522)" fill-opacity="0.5"/>
<path d="M577.21 224.856C564.441 215.162 537.236 202.348 518.616 199.458C517.362 199.263 516.144 199.116 514.995 199.019C498.483 197.608 490.387 202.475 482.557 207.183C475.624 211.352 464.022 218.329 445.524 211.771C427.745 205.467 412.425 190.645 401.238 179.822C393.551 172.392 386.144 165.303 378.979 158.447C371.231 151.033 363.912 144.029 357.045 137.364L356.799 137.124C351.321 131.806 345.111 125.777 336.831 123.298C329.512 121.105 322.024 122.99 316.801 128.342C314.109 131.23 311.823 134.554 309.965 138.282C307.616 142.733 305.823 147.14 304.24 151.027C303.505 152.834 302.811 154.539 302.105 156.15C299.592 161.883 296.869 166.764 294.3 171.184C289.412 179.601 284.487 186.557 276.344 193.151C270.627 197.806 263.083 202.462 253.921 206.991C244.768 211.47 233.669 215.891 220.931 220.13C201.788 226.54 172.039 234.83 139.022 237.927L139.697 238.947C172.78 235.844 202.581 227.539 221.755 221.119C234.516 216.872 245.638 212.442 254.812 207.952C264.006 203.407 271.579 198.732 277.322 194.056C285.515 187.423 290.465 180.431 295.377 171.976C297.951 167.545 300.681 162.651 303.203 156.898C303.911 155.282 304.606 153.573 305.343 151.764C306.921 147.886 308.71 143.49 311.049 139.059C312.888 135.367 315.151 132.075 317.815 129.215C322.885 124.02 330.085 122.17 337.076 124.265C344.887 126.603 350.883 132.424 356.173 137.561L356.42 137.801C363.293 144.472 370.614 151.478 378.365 158.895C385.528 165.75 392.933 172.836 400.616 180.262C411.955 191.233 427.483 206.257 445.691 212.712C464.667 219.44 476.446 212.357 483.484 208.125C491.232 203.466 499.245 198.648 515.505 200.038C516.628 200.133 517.82 200.277 519.046 200.468C536.893 203.238 564.259 215.958 576.805 225.482L577.21 224.856Z" fill="url(#paint10_linear_231_1522)" fill-opacity="0.5"/>
<path d="M576.973 223.52C564.583 212.494 536.72 198.689 517.977 196.716C516.734 196.585 515.53 196.508 514.399 196.487C499.321 196.186 492.525 202.135 485.329 208.434L484.261 209.367C476.654 215.993 465.63 222.783 447.756 216.433C430.5 210.303 415.587 195.519 402.964 182.143L397.745 176.62C383.73 161.789 370.491 147.781 358.526 134.685C352.833 128.453 346.381 121.391 337.438 118.224C328.165 114.936 320.44 118.342 316.303 122.625C313.554 125.578 311.333 129.097 309.676 133.125C307.168 138.871 305.713 144.802 304.429 150.035C304.147 151.183 303.872 152.307 303.593 153.398C301.749 160.612 299.675 166.851 297.889 172.003C294.566 181.581 290.424 191.734 282.669 201.081C277.413 207.442 270.419 213.589 261.882 219.352C251.996 225.82 241.358 231.322 230.018 235.834C211.715 243.329 182.41 252.694 146.748 254.747L147.446 255.852C183.214 253.792 212.596 244.403 230.946 236.889C242.32 232.363 252.99 226.844 262.905 220.357C271.48 214.569 278.507 208.392 283.79 201.997C291.591 192.595 295.754 182.396 299.091 172.775C300.88 167.613 302.958 161.361 304.807 154.128C305.086 153.035 305.362 151.91 305.644 150.761C306.923 145.548 308.373 139.64 310.864 133.932C312.498 129.957 314.689 126.483 317.401 123.568C321.399 119.429 328.809 116.119 337.618 119.242C346.022 122.218 352.25 129.035 357.745 135.049C369.724 148.161 382.969 162.177 396.993 177.015L402.211 182.538C415.034 196.126 430.2 211.15 447.936 217.451C466.335 223.988 477.585 217.083 485.331 210.337L486.401 209.402C493.511 203.177 500.229 197.297 515.021 197.593C516.122 197.614 517.293 197.689 518.504 197.816C536.921 199.754 564.248 213.275 576.378 224.069L576.973 223.52Z" fill="url(#paint11_linear_231_1522)" fill-opacity="0.5"/>
<path d="M576.728 222.19C563.154 208.373 534.845 194.926 517.334 193.978C516.108 193.911 514.918 193.905 513.798 193.96C499.68 194.637 493.914 201.761 487.808 209.303C487.198 210.057 486.588 210.811 485.967 211.56C476.344 223.17 464.575 226.289 449.989 221.098C432.815 214.985 418.068 199.881 404.687 184.47C390.935 168.64 374.871 150.029 359.998 132.006C354.52 125.342 347.7 117.046 338.047 113.155C331.54 110.53 322.28 110.139 315.804 116.911C312.994 119.931 310.838 123.646 309.386 127.971C306.995 134.66 306.131 141.903 305.368 148.294L305.084 150.65C304.24 157.508 303.129 164.347 301.482 172.823C299.237 184.054 295.998 197.138 289.001 209.016C284.26 217.087 277.814 224.726 269.842 231.719C260.612 239.591 250.339 246.215 239.103 251.541C213.7 263.905 184.436 270.831 154.474 271.57L155.191 272.76C185.272 272.017 214.645 265.067 240.137 252.66C251.415 247.313 261.727 240.663 270.994 232.761C279.005 225.733 285.484 218.054 290.251 209.938C297.287 197.995 300.54 184.855 302.795 173.577C304.446 165.083 305.559 158.232 306.405 151.358L306.689 149C307.447 142.641 308.307 135.435 310.676 128.806C312.104 124.55 314.223 120.894 316.987 117.922C320.884 113.846 328.768 110.43 338.158 114.218C347.207 117.866 353.787 125.869 359.073 132.3C373.966 150.346 390.042 168.972 403.805 184.814C417.424 200.502 432.469 215.887 450.18 222.192C465.247 227.555 477.347 224.4 487.172 212.546C487.794 211.795 488.409 211.042 489.017 210.285C495.043 202.841 500.734 195.81 514.539 195.148C515.623 195.095 516.776 195.101 517.964 195.166C535.092 196.093 562.734 209.195 575.955 222.653L576.728 222.19Z" fill="url(#paint12_linear_231_1522)" fill-opacity="0.5"/>
<path d="M576.479 220.859C562.949 205.391 534.452 191.274 516.69 191.24C515.471 191.238 514.296 191.303 513.199 191.434C499.785 193.023 494.702 201.75 489.788 210.191C489.092 211.385 488.397 212.58 487.679 213.755C482.036 222.988 471.305 232.566 452.222 225.76C434.314 219.374 419.015 202.48 406.412 186.796C388.783 164.871 374.082 146.072 361.47 129.326C356.199 122.31 348.981 112.698 338.66 108.086C328.077 103.356 319.466 106.804 315.308 111.195C312.44 114.289 310.348 118.204 309.099 122.819C306.95 130.188 306.777 138.557 306.624 145.94L306.582 147.902C306.392 156.279 305.902 164.698 305.083 173.64C303.346 191.958 300.341 205.316 295.339 216.949C290.806 227.26 284.937 236.347 277.809 244.089C269.233 253.334 259.324 261.082 248.19 267.249C223.481 281.25 193.747 288.561 162.203 288.392L162.936 289.664C194.637 289.834 224.512 282.49 249.33 268.428C260.514 262.233 270.468 254.449 279.083 245.161C286.25 237.377 292.15 228.242 296.707 217.875C301.734 206.182 304.754 192.767 306.498 174.376C307.319 165.415 307.81 156.979 308 148.585L308.042 146.62C308.201 138.923 308.365 130.965 310.491 123.678C311.715 119.152 313.764 115.311 316.574 112.275C320.557 108.07 328.741 104.738 338.698 109.19C348.359 113.507 355.323 122.78 360.409 129.551C373.039 146.32 387.756 165.139 405.402 187.087C418.255 203.08 433.892 220.321 452.426 226.93C472.202 233.984 483.237 224.199 489.011 214.749C489.732 213.571 490.429 212.374 491.126 211.176C495.972 202.854 500.983 194.249 514.062 192.7C515.119 192.573 516.251 192.511 517.427 192.513C534.413 192.545 562.655 206.503 575.54 221.235L576.479 220.859Z" fill="url(#paint13_linear_231_1522)" fill-opacity="0.5"/>
<path d="M576.221 219.529C562.906 202.673 533.661 187.596 516.042 188.505C514.834 188.567 513.674 188.704 512.595 188.912C499.736 191.376 495.539 201.402 491.481 211.097C490.809 212.703 490.114 214.363 489.392 215.953C485.464 224.616 475.701 238.015 454.454 230.425C435.891 223.793 420.621 205.826 408.132 189.125C391.164 166.441 376.379 146.004 362.934 126.646C357.887 119.367 350.261 108.366 339.271 103.021C332.255 99.6081 321.638 98.2042 314.807 105.479C311.88 108.65 309.854 112.767 308.809 117.668C306.967 125.675 307.484 134.721 307.985 143.468L308.081 145.157C308.634 155.03 308.837 164.887 308.684 174.458C308.321 194.922 306.095 210.945 301.679 224.884C297.865 236.749 292.538 247.325 285.773 256.461C277.848 267.051 268.303 275.925 257.274 282.959C233.181 298.604 202.978 306.3 169.932 305.216L170.678 306.571C203.923 307.661 234.298 299.924 258.52 284.196C269.607 277.125 279.201 268.205 287.167 257.559C293.967 248.374 299.323 237.742 303.157 225.815C307.594 211.81 309.831 195.72 310.196 175.18C310.348 165.587 310.144 155.706 309.59 145.812L309.494 144.122C308.997 135.434 308.483 126.45 310.302 118.546C311.321 113.755 313.3 109.73 316.159 106.629C322.674 99.6909 332.661 100.963 339.234 104.161C348.726 108.777 355.3 117.507 361.747 126.806C375.209 146.19 390.012 166.651 406.999 189.36C412.334 196.494 419.533 205.724 427.916 213.832C437.05 222.667 445.801 228.502 454.67 231.671C476.759 239.562 486.816 225.836 490.845 216.951C491.57 215.353 492.266 213.688 492.94 212.079C496.939 202.526 501.075 192.647 513.581 190.25C514.617 190.05 515.73 189.919 516.891 189.859C533.967 188.978 562.27 203.538 575.13 219.819L576.221 219.529Z" fill="url(#paint14_linear_231_1522)" fill-opacity="0.5"/>
<path d="M575.958 218.195C562.574 199.641 533.14 183.884 515.394 185.77C514.211 185.895 513.075 186.102 511.991 186.391C499.598 189.71 496.246 201.044 493.005 212.005C492.401 214.042 491.778 216.149 491.11 218.152C483.011 242.398 462.713 237.244 456.685 235.088C437.382 228.179 421.517 208.14 409.852 191.453C393.639 168.266 378.345 145.56 364.396 123.963C357.892 113.884 350.642 103.573 339.884 97.957C328.775 92.1562 319.035 94.6848 314.309 99.7638C311.32 103.013 309.359 107.334 308.521 112.517C307.031 121.012 308.214 130.934 309.359 140.531L309.582 142.409C310.932 153.585 311.842 164.641 312.288 175.272C313.211 197.658 311.816 216.482 308.022 232.819C304.898 246.207 300.114 258.271 293.741 268.834C286.458 280.741 277.278 290.743 266.359 298.669C242.834 315.962 212.164 324.043 177.663 322.038L178.42 323.475C213.163 325.493 244.039 317.362 267.712 299.962C278.694 291.99 287.926 281.931 295.25 269.956C301.656 259.338 306.465 247.211 309.605 233.753C313.416 217.347 314.817 198.449 313.891 175.982C313.443 165.324 312.531 154.24 311.178 143.037L310.955 141.159C309.819 131.633 308.644 121.783 310.113 113.413C310.927 108.361 312.836 104.149 315.746 100.982C320.233 96.1581 329.402 93.715 339.77 99.1293C349.83 104.381 356.804 114.325 363.087 124.06C377.054 145.684 392.366 168.418 408.597 191.631C420.529 208.698 436.803 229.213 456.913 236.41C466.342 239.784 474.444 239.406 480.991 235.288C487.577 231.143 490.98 224.224 492.675 219.15C493.348 217.136 493.973 215.024 494.577 212.981C497.77 202.183 501.073 191.018 513.102 187.796C514.139 187.52 515.225 187.322 516.356 187.203C533.476 185.382 561.843 200.546 574.726 218.405L575.958 218.195Z" fill="url(#paint15_linear_231_1522)" fill-opacity="0.5"/>
<path d="M575.694 216.858C568.748 206.413 557.333 196.61 544.374 189.962C531.414 183.314 519.393 181.094 511.391 183.871C499.404 188.031 496.87 200.682 494.419 212.917C493.924 215.387 493.413 217.941 492.833 220.352C487.683 241.771 471.938 244.416 458.92 239.75C438.783 232.531 422.254 210.058 411.573 193.781C395.808 169.757 380.427 145.363 365.859 121.277C362.947 116.465 359.489 110.899 355.272 105.752C350.56 99.999 345.728 95.7933 340.5 92.8935C328.792 86.3991 318.661 88.7938 313.813 94.0475C304.893 103.713 307.889 121.096 310.787 137.907L311.089 139.662C321.637 201.149 318.57 247.448 301.714 281.207C281.245 322.198 238.849 343.212 185.398 338.861L186.162 340.378C240.022 344.763 282.73 323.612 303.334 282.349C320.267 248.439 323.353 201.962 312.768 140.264L312.466 138.508C309.605 121.91 306.647 104.748 315.334 95.3336C319.92 90.3652 329.42 88.0547 340.308 94.0944C350.946 99.9949 358.059 110.777 364.434 121.316C379.019 145.428 394.417 169.849 410.2 193.901C433.04 228.707 449.081 237.535 459.16 241.148C479.922 248.59 491.032 235.8 494.506 221.347C495.09 218.921 495.603 216.36 496.098 213.883C498.513 201.833 501.01 189.371 512.628 185.339C520.284 182.682 531.818 184.822 544.273 191.212C556.729 197.602 567.684 206.998 574.329 216.992L575.694 216.858Z" fill="url(#paint16_linear_231_1522)" fill-opacity="0.5"/>
<defs>
<linearGradient id="paint0_linear_231_1522" x1="165.575" y1="107.29" x2="308.74" y2="301.194" gradientUnits="userSpaceOnUse">
<stop offset="0.0677083" stop-color="#2CB9E9"/>
<stop offset="0.302083" stop-color="#994FFF"/>
<stop offset="1" stop-color="#E70DD4"/>
</linearGradient>
<linearGradient id="paint1_linear_231_1522" x1="171.602" y1="120.559" x2="317.695" y2="305.816" gradientUnits="userSpaceOnUse">
<stop offset="0.0677083" stop-color="#2CB9E9"/>
<stop offset="0.302083" stop-color="#994FFF"/>
<stop offset="1" stop-color="#E70DD4"/>
</linearGradient>
<linearGradient id="paint2_linear_231_1522" x1="177.621" y1="133.832" x2="325.67" y2="310.444" gradientUnits="userSpaceOnUse">
<stop offset="0.0677083" stop-color="#2CB9E9"/>
<stop offset="0.302083" stop-color="#994FFF"/>
<stop offset="1" stop-color="#E70DD4"/>
</linearGradient>
<linearGradient id="paint3_linear_231_1522" x1="183.642" y1="147.104" x2="332.762" y2="315.153" gradientUnits="userSpaceOnUse">
<stop offset="0.0677083" stop-color="#2CB9E9"/>
<stop offset="0.302083" stop-color="#994FFF"/>
<stop offset="1" stop-color="#E70DD4"/>
</linearGradient>
<linearGradient id="paint4_linear_231_1522" x1="189.665" y1="160.376" x2="339.056" y2="320.002" gradientUnits="userSpaceOnUse">
<stop offset="0.0677083" stop-color="#2CB9E9"/>
<stop offset="0.302083" stop-color="#994FFF"/>
<stop offset="1" stop-color="#E70DD4"/>
</linearGradient>
<linearGradient id="paint5_linear_231_1522" x1="195.682" y1="173.646" x2="344.622" y2="325.031" gradientUnits="userSpaceOnUse">
<stop offset="0.0677083" stop-color="#2CB9E9"/>
<stop offset="0.302083" stop-color="#994FFF"/>
<stop offset="1" stop-color="#E70DD4"/>
</linearGradient>
<linearGradient id="paint6_linear_231_1522" x1="201.702" y1="186.915" x2="349.546" y2="330.271" gradientUnits="userSpaceOnUse">
<stop offset="0.0677083" stop-color="#2CB9E9"/>
<stop offset="0.302083" stop-color="#994FFF"/>
<stop offset="1" stop-color="#E70DD4"/>
</linearGradient>
<linearGradient id="paint7_linear_231_1522" x1="207.715" y1="200.183" x2="353.883" y2="335.745" gradientUnits="userSpaceOnUse">
<stop offset="0.0677083" stop-color="#2CB9E9"/>
<stop offset="0.302083" stop-color="#994FFF"/>
<stop offset="1" stop-color="#E70DD4"/>
</linearGradient>
<linearGradient id="paint8_linear_231_1522" x1="213.727" y1="213.448" x2="357.701" y2="341.467" gradientUnits="userSpaceOnUse">
<stop offset="0.0677083" stop-color="#2CB9E9"/>
<stop offset="0.302083" stop-color="#994FFF"/>
<stop offset="1" stop-color="#E70DD4"/>
</linearGradient>
<linearGradient id="paint9_linear_231_1522" x1="219.736" y1="226.713" x2="361.059" y2="347.449" gradientUnits="userSpaceOnUse">
<stop offset="0.0677083" stop-color="#2CB9E9"/>
<stop offset="0.302083" stop-color="#994FFF"/>
<stop offset="1" stop-color="#E70DD4"/>
</linearGradient>
<linearGradient id="paint10_linear_231_1522" x1="225.76" y1="239.998" x2="364.059" y2="353.767" gradientUnits="userSpaceOnUse">
<stop offset="0.0677083" stop-color="#2CB9E9"/>
<stop offset="0.302083" stop-color="#994FFF"/>
<stop offset="1" stop-color="#E70DD4"/>
</linearGradient>
<linearGradient id="paint11_linear_231_1522" x1="231.8" y1="253.297" x2="366.749" y2="360.398" gradientUnits="userSpaceOnUse">
<stop offset="0.0677083" stop-color="#2CB9E9"/>
<stop offset="0.302083" stop-color="#994FFF"/>
<stop offset="1" stop-color="#E70DD4"/>
</linearGradient>
<linearGradient id="paint12_linear_231_1522" x1="237.848" y1="266.58" x2="369.147" y2="367.26" gradientUnits="userSpaceOnUse">
<stop offset="0.0677083" stop-color="#2CB9E9"/>
<stop offset="0.302083" stop-color="#994FFF"/>
<stop offset="1" stop-color="#E70DD4"/>
</linearGradient>
<linearGradient id="paint13_linear_231_1522" x1="243.914" y1="279.825" x2="371.3" y2="374.321" gradientUnits="userSpaceOnUse">
<stop offset="0.0677083" stop-color="#2CB9E9"/>
<stop offset="0.302083" stop-color="#994FFF"/>
<stop offset="1" stop-color="#E70DD4"/>
</linearGradient>
<linearGradient id="paint14_linear_231_1522" x1="249.986" y1="293.051" x2="373.218" y2="381.602" gradientUnits="userSpaceOnUse">
<stop offset="0.0677083" stop-color="#2CB9E9"/>
<stop offset="0.302083" stop-color="#994FFF"/>
<stop offset="1" stop-color="#E70DD4"/>
</linearGradient>
<linearGradient id="paint15_linear_231_1522" x1="256.07" y1="306.252" x2="374.936" y2="389.091" gradientUnits="userSpaceOnUse">
<stop offset="0.0677083" stop-color="#2CB9E9"/>
<stop offset="0.302083" stop-color="#994FFF"/>
<stop offset="1" stop-color="#E70DD4"/>
</linearGradient>
<linearGradient id="paint16_linear_231_1522" x1="262.166" y1="319.432" x2="376.476" y2="396.787" gradientUnits="userSpaceOnUse">
<stop offset="0.0677083" stop-color="#2CB9E9"/>
<stop offset="0.302083" stop-color="#994FFF"/>
<stop offset="1" stop-color="#E70DD4"/>
</linearGradient>
</defs>
</svg>
