<svg width="547" height="226" viewBox="0 0 547 226" fill="none" xmlns="http://www.w3.org/2000/svg">
<path d="M-33.1976 145.306L-33.019 145.134C-27.858 148.868 -19.459 149.428 -8.7318 146.755C1.24128 144.166 11.8086 139.56 22.4681 133.156C33.4392 126.572 44.1558 118.705 54.5189 111.099C63.4074 104.574 72.5997 97.8273 81.9307 91.9024C134.713 58.3899 193.657 53.3775 216.121 80.4924C217.171 81.7586 218.18 83.1174 219.157 84.4319C222.984 89.5861 226.943 94.9153 234.413 96.2999C241.252 97.5674 250.428 95.3491 260.947 89.8835C270.396 84.9458 279.915 78.0767 288.839 69.7557C297.812 61.3345 305.827 52.1137 313.578 43.1973C320.147 35.6401 326.939 27.8263 334.299 20.513C346.026 8.86147 359.809 -1.96181 374.156 -10.7879C388.821 -19.7599 403.404 -26.4355 417.296 -30.5361C431.412 -34.6558 444.649 -36.1833 456.491 -35.0589C468.261 -33.9256 478.232 -30.0932 485.327 -23.9767L485.143 -23.8092C478.063 -29.914 468.112 -33.7384 456.365 -34.8697C444.547 -35.9912 431.336 -34.4669 417.25 -30.3562C403.385 -26.2638 388.831 -19.6013 374.196 -10.6469C359.877 -1.83865 346.123 8.96289 334.419 20.5908C327.07 27.8924 320.282 35.7013 313.719 43.2527C305.961 52.1772 297.94 61.4054 288.95 69.842C279.995 78.1919 270.443 85.0847 260.961 90.0391C250.385 95.5336 241.158 97.7638 234.276 96.4875C226.767 95.0958 222.799 89.7531 218.961 84.5868C217.986 83.2728 216.976 81.9146 215.928 80.6502C193.504 53.5836 134.664 58.5864 81.9764 92.0396C72.6569 97.9567 63.4714 104.699 54.5888 111.22C44.2166 118.833 33.4924 126.704 22.5043 133.299C11.8123 139.722 1.21306 144.342 -8.79014 146.938C-19.568 149.624 -28.0077 149.059 -33.1976 145.306Z" fill="url(#paint0_linear_231_1504)" fill-opacity="0.2"/>
<path d="M-32.9021 143.972L-32.6583 143.719C-27.4732 146.617 -18.9941 146.6 -8.13826 143.667C1.90205 140.855 12.4124 136.393 23.0543 130.425C24.3583 129.695 25.7147 128.919 27.0872 128.119C36.0727 122.875 44.7012 117.04 53.046 111.396C61.8292 105.456 70.9129 99.3125 80.1552 94.0636C94.2196 86.0756 109.094 80.5074 121.788 76.1143C137.894 70.5399 150.447 67.1728 161.291 65.5168C177.733 63.0111 192.233 63.9352 203.224 68.1885C207.85 69.9128 211.987 72.3287 215.578 75.4026C217.438 77.0216 219.116 78.884 220.893 80.8556C222.496 82.6345 224.154 84.475 225.946 86.1016C228.344 88.4235 231.282 90.1109 234.684 91.1191C241.015 92.8329 249.024 91.6336 258.488 87.5541C267.346 83.7159 276.462 77.9019 285.171 70.5354C293.383 63.5257 300.783 55.7651 307.94 48.2599C314.241 41.6518 320.757 34.8185 327.883 28.4213C338.819 18.6084 351.679 9.5451 365.075 2.2111C379.867 -5.80942 394.411 -11.5637 408.173 -14.8407C422.242 -18.152 435.439 -19.1544 447.374 -17.8183C459.332 -16.4892 469.792 -12.801 477.622 -7.15256L477.366 -6.90606C469.554 -12.5409 459.12 -16.2201 447.191 -17.5462C435.285 -18.8791 422.12 -17.8792 408.086 -14.576C394.362 -11.3084 379.858 -5.56984 365.106 2.4291C351.751 9.74073 338.932 18.7749 328.033 28.5551C320.925 34.9357 314.417 41.76 308.124 48.3598C300.957 55.8766 293.545 63.6488 285.308 70.6797C276.549 78.0878 267.382 83.9348 258.473 87.7948C249.068 91.8484 240.768 93.0902 234.472 91.3861C231.05 90.3723 228.093 88.6751 225.68 86.3393C223.884 84.7088 222.224 82.8668 220.619 81.0855C218.844 79.1162 217.168 77.2566 215.313 75.6427C211.733 72.5781 207.609 70.1695 202.997 68.4505C192.037 64.2086 177.575 63.2875 161.175 65.7873C150.354 67.4393 137.823 70.8008 121.74 76.3672C109.067 80.7532 94.2208 86.3104 80.1939 94.2775C70.9728 99.514 61.8999 105.65 53.1261 111.584C44.7729 117.233 36.1358 123.074 27.1331 128.328C25.7573 129.13 24.3972 129.908 23.0914 130.639C12.4108 136.628 1.86225 141.107 -8.21457 143.929C-19.1381 146.88 -27.6757 146.895 -32.9021 143.972Z" fill="url(#paint1_linear_231_1504)" fill-opacity="0.2"/>
<path d="M-32.5929 142.642L-32.2947 142.301C-20.7243 146.915 4.19323 137.779 23.6539 127.691C24.9417 127.023 26.2809 126.317 27.6362 125.593C35.9564 121.14 43.7569 116.357 51.301 111.732C60.4882 106.099 69.1664 100.777 78.3972 96.2205C88.2286 91.3672 98.8342 87.7932 110.063 84.0103C113.154 82.9688 116.349 81.8923 119.56 80.7776C122.172 79.8703 124.758 78.9643 127.318 78.0595C138.831 74.0091 149.705 70.1835 159.634 67.7796C175.917 63.8455 190.513 63.0325 201.844 65.4296C206.718 66.34 211.14 67.9759 215.037 70.3108C217.981 72.1213 220.683 74.7797 223.297 77.3505C224.322 78.3584 225.382 79.4009 226.446 80.3847C229.441 83.1473 232.068 84.8605 234.966 85.9397C240.949 88.1181 248.56 87.7065 256.97 84.7498C264.95 81.997 273.325 77.4117 281.523 71.307C289.016 65.6504 295.834 59.2871 302.429 53.1337C308.428 47.5346 314.632 41.7453 321.488 36.3206C331.929 28.0646 344.233 20.5372 357.068 14.5518C370.831 8.12021 385.352 3.38395 399.063 0.854606C426.489 -4.18259 452.316 -0.969344 469.922 9.67107L469.599 9.99953C452.038 -0.613699 426.278 -3.81897 398.925 1.2049C385.258 3.72598 370.784 8.44662 357.068 14.8569C344.285 20.8176 332.035 28.3119 321.643 36.5285C314.813 41.9323 308.623 47.7097 302.635 53.2975C296.025 59.4656 289.191 65.8434 281.662 71.5274C273.397 77.682 264.953 82.3046 256.907 85.0795C248.409 88.0678 240.718 88.4838 234.672 86.2823C231.752 85.1949 229.108 83.4716 226.098 80.694C225.031 79.7093 223.971 78.6663 222.945 77.6572C220.337 75.0926 217.642 72.4396 214.712 70.6383C210.833 68.3143 206.432 66.6864 201.58 65.781C190.292 63.3927 175.749 64.203 159.52 68.1247C149.619 70.5211 138.757 74.343 127.259 78.3885C124.699 79.289 122.112 80.1952 119.497 81.1071C116.284 82.2229 113.088 83.2998 109.996 84.3414C98.7878 88.1182 88.2016 91.6849 78.41 96.5188C69.2102 101.061 60.5469 106.373 51.375 111.996C43.8213 116.628 36.0115 121.416 27.6706 125.88C26.3131 126.606 24.9708 127.313 23.6808 127.982C4.12508 138.12 -20.927 147.294 -32.5929 142.642Z" fill="url(#paint2_linear_231_1504)" fill-opacity="0.2"/>
<path d="M-32.2768 141.313L-31.9433 140.882C-17.9467 144.272 14.6113 129.548 24.2565 124.954C25.583 124.323 26.894 123.693 28.1893 123.065C35.6258 119.455 42.4671 115.732 49.0822 112.131C58.4516 107.032 67.3005 102.216 76.6472 98.3735C83.3359 95.6242 90.5556 93.5474 98.1993 91.3488C104.315 89.5895 110.639 87.7708 117.328 85.4403C124.522 82.9343 131.448 80.181 138.145 77.5185C145.145 74.7346 151.758 72.1055 157.961 70.0479C173.976 64.7442 188.667 62.1938 200.446 62.6713C204.877 62.8514 209.612 63.1959 214.485 65.2175C218.789 67.0013 222.56 70.546 226.206 73.9736L226.944 74.6673C229.371 77.1071 232.148 79.1459 235.247 80.7628C240.664 83.4142 247.611 83.8193 255.463 81.9416C262.587 80.2413 270.219 76.8815 277.889 72.068C284.756 67.6982 290.784 62.8662 297.167 57.75C302.791 53.242 308.606 48.5806 315.106 44.2088C325.06 37.5245 336.804 31.5364 349.071 26.8898C362.375 21.8286 376.513 18.2529 389.956 16.5505C416.731 13.1872 443.068 16.8109 462.217 26.4935L461.832 26.9056C442.731 17.2478 416.46 13.6326 389.756 16.9871C376.358 18.6835 362.27 22.2466 349.014 27.2894C336.808 31.9122 325.127 37.8682 315.233 44.5124C308.769 48.8602 302.97 53.508 297.363 58.0025C290.957 63.1368 284.908 67.9858 277.995 72.3851C270.24 77.2514 262.525 80.6483 255.323 82.3675C247.378 84.2683 240.348 83.859 234.867 81.1768C231.749 79.5519 228.955 77.502 226.513 75.0483L225.775 74.3546C222.141 70.9386 218.384 67.406 214.114 65.6374C209.282 63.632 204.578 63.2898 200.174 63.1116C188.452 62.6356 173.824 65.1765 157.875 70.4574C151.692 72.5089 145.09 75.134 138.1 77.9131C131.395 80.5791 124.462 83.336 117.253 85.8463C110.545 88.1832 104.212 90.0052 98.087 91.767C90.4628 93.9597 83.2616 96.0314 76.6107 98.7649C67.3074 102.59 58.4784 107.395 49.1309 112.483C42.5059 116.088 35.6563 119.817 28.2005 123.434C26.9035 124.063 25.5904 124.694 24.2613 125.328C14.5705 129.943 -18.1468 144.736 -32.2768 141.313Z" fill="url(#paint3_linear_231_1504)" fill-opacity="0.2"/>
<path d="M-31.9518 139.985L-31.6089 139.463C-22.4413 140.281 -3.44305 134.479 24.8606 122.217L28.7458 120.534C34.9042 117.862 40.5241 115.22 45.9597 112.664C55.8576 108.01 65.2066 103.615 74.9074 100.523C79.7977 98.9651 85.0488 97.8208 90.6097 96.6086C97.9164 95.0165 106.198 93.2115 115.094 90.1035C124.915 86.6725 134.055 82.438 142.895 78.3429C147.593 76.1665 152.031 74.1105 156.273 72.321C172.024 65.6915 186.808 61.4026 199.026 59.9173C203.488 59.3754 208.545 58.7611 213.921 60.1237C218.996 61.4063 223.417 65.1239 227.439 68.9503C229.929 71.3198 232.504 73.7701 235.529 75.5879C240.442 78.6696 246.732 79.8796 253.968 79.1351C260.279 78.4289 267.165 76.2872 274.278 72.8176C280.598 69.6801 286.217 66.0361 292.166 62.1777C297.684 58.5048 303.221 55.1349 308.743 52.0878C318.214 46.9949 329.396 42.5472 341.082 39.2252C354.909 35.3707 368.227 33.0333 380.85 32.2459C406.894 30.5321 433.741 34.5669 454.506 43.3141L454.064 43.8129C433.345 35.0846 406.561 31.0587 380.579 32.7679C367.999 33.553 354.727 35.882 340.947 39.7225C329.321 43.0276 318.204 47.4481 308.797 52.5074C303.301 55.5402 297.792 58.8941 292.3 62.5495C286.323 66.4264 280.677 70.0879 274.3 73.2536C267.093 76.7688 260.117 78.9389 253.722 79.6547C246.397 80.4108 240.029 79.188 235.055 76.0704C232.009 74.2387 229.424 71.7802 226.925 69.4031C222.927 65.5982 218.536 61.9034 213.522 60.6355C208.217 59.2907 203.206 59.8997 198.785 60.4374C186.631 61.9136 171.919 66.1835 156.238 72.7834C152.012 74.5655 147.582 76.618 142.891 78.7915C134.03 82.8962 124.868 87.1405 115.004 90.5863C106.063 93.7102 97.7566 95.5208 90.4285 97.1178C84.8859 98.3257 79.6504 99.4669 74.7965 101.013C65.1513 104.087 55.8303 108.47 45.9616 113.11C40.5197 115.668 34.8926 118.314 28.7199 120.991L24.8339 122.675C-3.58492 134.987 -22.6912 140.811 -31.9518 139.985Z" fill="url(#paint4_linear_231_1504)" fill-opacity="0.2"/>
<path d="M-31.6024 138.653L-31.2848 138.048C-20.3793 137.39 2.54256 128.435 20.9603 121.24L25.4762 119.478C26.7776 118.971 28.057 118.479 29.3145 118.001C33.386 116.452 37.1682 114.962 40.8266 113.522C52.524 108.917 62.6266 104.94 73.187 102.673C76.836 101.89 80.7218 101.369 84.8358 100.818C93.0025 99.7233 102.259 98.4825 112.865 94.7674C124.551 90.6733 135.571 84.748 145.294 79.5203C148.54 77.7748 151.606 76.1265 154.58 74.6038C169.987 66.7295 184.858 60.7025 197.588 57.1747L197.897 57.0888C202.743 55.7448 207.755 54.3554 213.356 55.0307C218.027 55.5908 222.798 58.2743 227.94 63.2345C228.466 63.7421 228.985 64.2487 229.499 64.7544C231.603 66.8163 233.59 68.7642 235.819 70.4163C240.737 74.0631 246.347 76.0534 252.491 76.3317C258.041 76.5932 264.19 75.6584 270.703 73.5629C276.655 71.6204 282.033 69.094 287.727 66.4201C292.301 64.2714 297.031 62.0491 302.412 59.9606C311.424 56.478 322.038 53.5738 333.109 51.5618C346.502 49.1765 359.418 47.9668 371.754 47.9424C396.896 47.839 424.249 52.2826 446.799 60.1358L446.306 60.7201C423.796 52.8817 396.496 48.4455 371.404 48.5488C359.105 48.5732 346.227 49.7792 332.874 52.1572C321.854 54.1595 311.297 57.0475 302.342 60.508C296.997 62.5831 292.285 64.7964 287.728 66.9368C282.003 69.626 276.594 72.1665 270.581 74.1289C263.976 76.2542 257.742 77.2027 252.115 76.9382C245.892 76.6557 240.217 74.6442 235.248 70.9599C233.005 69.2972 231.012 67.3439 228.901 65.2766C228.387 64.772 227.868 64.2657 227.343 63.7578C222.248 58.8419 217.538 56.1845 212.945 55.6335C207.455 54.972 202.513 56.3426 197.734 57.6677L197.425 57.7528C184.76 61.2637 169.958 67.2624 154.618 75.1024C151.656 76.6195 148.596 78.2643 145.356 80.0068C135.594 85.255 124.53 91.2039 112.763 95.3265C102.07 99.0726 92.7702 100.319 84.5655 101.419C80.4666 101.968 76.5944 102.487 72.9746 103.264C62.4857 105.515 52.4186 109.479 40.7621 114.067C37.1003 115.509 33.315 116.999 29.2376 118.551C27.9829 119.027 26.7062 119.518 25.4075 120.025L20.8932 121.786C2.41602 129.005 -20.5794 137.988 -31.6024 138.653Z" fill="url(#paint5_linear_231_1504)" fill-opacity="0.2"/>
<path d="M-30.9888 136.639C-23.2319 135.039 -9.85248 130.018 4.31222 124.702C11.7131 121.925 19.3665 119.053 26.0907 116.736C27.3807 116.291 28.6453 115.868 29.8845 115.466L29.9906 115.431C47.3563 109.779 58.8289 106.046 71.471 104.824C74.1544 104.565 76.9783 104.463 79.9679 104.355C88.6622 104.041 98.5165 103.685 110.63 99.4297C123.814 94.7988 135.887 87.347 146.537 80.7731C148.741 79.4124 150.823 78.1274 152.87 76.8944C167.381 68.1294 181.86 60.6144 196.122 54.4464L196.767 54.1704C201.694 52.0636 206.788 49.8845 212.776 49.9386C219.37 49.9964 224.93 54.0926 228.434 57.5179C229.552 58.611 230.624 59.7325 231.66 60.8159C233.164 62.3893 234.584 63.8748 236.104 65.2462C240.835 69.5182 245.713 72.2305 251.016 73.5374C255.874 74.7291 261.297 74.9894 267.149 74.3119C273.115 73.6264 278.643 72.1884 284.496 70.6662C288.119 69.7235 291.865 68.7492 296.098 67.8345C306.072 65.8045 315.771 64.4904 325.14 63.8996C338.047 62.9935 350.568 62.9064 362.655 63.6386C386.797 65.0747 413.939 69.8032 439.082 76.9559L438.544 77.6273C413.431 70.4846 386.326 65.7607 362.22 64.3275C350.159 63.597 337.666 63.6837 324.786 64.5873C315.453 65.1758 305.792 66.4846 295.857 68.5064C291.645 69.4162 287.908 70.3885 284.294 71.328C278.41 72.8587 272.852 74.3046 266.828 74.9973C260.902 75.683 255.411 75.4193 250.492 74.2126C245.13 72.8914 240.204 70.1554 235.432 65.8478C233.905 64.4691 232.481 62.9796 230.974 61.4029C229.939 60.3204 228.869 59.2014 227.754 58.1117C224.295 54.729 218.818 50.6847 212.37 50.6289C206.55 50.5758 201.557 52.7117 196.727 54.7776L196.081 55.0536C181.877 61.1972 167.455 68.6823 153.003 77.4123C150.964 78.6409 148.885 79.924 146.685 81.2819C135.972 87.8938 123.831 95.3883 110.515 100.065C98.2618 104.369 88.3421 104.728 79.5906 105.044C76.6111 105.152 73.7974 105.254 71.136 105.511C58.587 106.723 47.1546 110.444 29.85 116.076L29.7436 116.111C28.5114 116.51 27.2532 116.931 25.9691 117.375C19.259 119.686 11.6142 122.555 4.22003 125.329C-9.98596 130.661 -23.4033 135.696 -31.238 137.312L-30.9888 136.639Z" fill="url(#paint6_linear_231_1504)" fill-opacity="0.2"/>
<path d="M-30.7136 135.246C-26.4322 133.751 -20.4349 131.39 -13.4917 128.656C-1.05023 123.758 14.4336 117.663 26.715 113.995C28.0141 113.607 29.2758 113.249 30.4652 112.931C48.1877 108.172 58.8401 106.559 69.7678 106.981C71.6267 107.053 73.5559 107.204 75.599 107.364C84.1691 108.035 94.8349 108.87 108.4 104.093C122.878 98.9951 135.758 89.9714 147.123 82.0098C148.497 81.0475 149.842 80.1053 151.157 79.1932C165.607 69.1905 180.135 60.018 194.644 51.7362L195.362 51.3253C200.451 48.4147 205.715 45.4044 212.191 44.8514C219.975 44.1837 226.021 48.9198 228.933 51.8026C230.668 53.5194 232.228 55.3236 233.738 57.0684C234.627 58.0963 235.503 59.1087 236.393 60.0794C240.979 65.078 245.282 68.5696 249.549 70.7536C253.772 72.8811 258.481 74.3303 263.612 75.0807C270.597 76.1601 276.88 76.013 284.833 75.8268C286.416 75.7894 288.066 75.7505 289.801 75.72C298.641 75.5867 307.851 75.7625 317.179 76.2424C329.365 76.8243 341.607 77.8658 353.564 79.3375C375.209 82.0436 400.658 86.7667 431.367 93.7764L430.788 94.5353C400.096 87.5295 374.663 82.8098 353.037 80.106C341.096 78.6358 328.869 77.596 316.697 77.0146C307.383 76.5353 298.187 76.3598 289.364 76.4932C287.631 76.524 285.983 76.5625 284.401 76.5997C276.415 76.7864 270.107 76.934 263.068 75.847C257.888 75.0887 253.134 73.6254 248.871 71.4775C244.566 69.2748 240.232 65.7599 235.62 60.7323C234.728 59.7595 233.85 58.7447 232.959 57.7138C231.453 55.9744 229.896 54.1746 228.17 52.4654C225.307 49.6307 219.374 44.9725 211.806 45.6223C205.567 46.1547 200.438 49.0882 195.478 51.925L194.758 52.3363C180.292 60.5942 165.807 69.7397 151.4 79.7124C150.088 80.6225 148.745 81.5628 147.374 82.5239C135.921 90.5469 122.941 99.6403 108.271 104.805C94.5023 109.654 83.7437 108.812 75.0992 108.135C73.0626 107.975 71.1389 107.825 69.2919 107.754C58.4513 107.335 47.8698 108.939 30.247 113.671C29.0686 113.986 27.8183 114.341 26.5299 114.726C14.2987 118.379 -1.15629 124.463 -13.5748 129.352C-20.5316 132.091 -26.5396 134.456 -30.8461 135.96L-30.7136 135.246Z" fill="url(#paint7_linear_231_1504)" fill-opacity="0.2"/>
<path d="M-30.4605 133.87C-17.8334 127.697 8.5502 115.987 27.3422 111.254C28.6282 110.93 29.8745 110.642 31.0482 110.398C48.4968 106.739 58.1486 107.207 68.0665 109.146C69.1748 109.362 70.3184 109.608 71.5029 109.862C80.2378 111.738 91.1073 114.072 106.167 108.757C121.814 103.234 135.938 92.1206 147.286 83.1915L149.435 81.5013C162.888 70.9635 176.779 60.6493 193.154 49.0417L193.79 48.5903C198.838 45.0052 204.56 40.9407 211.597 39.7677C217.875 38.719 224.375 41.022 229.43 46.087C231.815 48.4756 233.779 51.0762 235.678 53.5912L236.682 54.9162C240.929 60.4827 244.492 64.8348 248.078 67.9816C251.691 71.0858 255.696 73.7226 260.064 75.8736C266.835 79.3267 273.187 81.4269 283.502 83.6227C290.368 85.1057 298.773 86.6597 308.506 88.4593L316.215 89.8508C324.762 91.3861 334.449 93.1264 344.472 95.0379C354.108 96.8952 363.964 98.893 374.399 101.008C390.679 104.307 407.513 107.719 423.648 110.597L423.032 111.444C406.891 108.564 390.053 105.152 373.77 101.852C363.337 99.7367 353.483 97.7394 343.849 95.8827C333.83 93.9725 324.144 92.2319 315.599 90.6969L307.887 89.3047C298.15 87.5046 289.741 85.9502 282.868 84.4653C272.507 82.2594 266.122 80.1487 259.313 76.6753C254.916 74.5099 250.886 71.8555 247.249 68.7305C243.641 65.5653 240.065 61.1983 235.805 55.6155L234.8 54.2887C232.908 51.783 230.952 49.1924 228.583 46.8206C223.633 41.8606 217.315 39.5976 211.248 40.6117C204.526 41.7319 199.215 45.5039 194.078 49.152L193.441 49.6042C177.092 61.1939 163.225 71.4896 149.8 82.0066L147.653 83.6941C136.195 92.7101 121.936 103.93 106.025 109.546C90.6844 114.961 79.697 112.601 70.8685 110.705C69.6874 110.451 68.547 110.206 67.4423 109.99C57.6115 108.068 48.0431 107.606 30.742 111.233C29.5841 111.474 28.3529 111.758 27.0829 112.078C8.40099 116.784 -17.8612 128.442 -30.4343 134.589L-30.4605 133.87Z" fill="url(#paint8_linear_231_1504)" fill-opacity="0.2"/>
<path d="M-30.2212 132.512C-18.1596 124.968 8.77454 112.43 27.9727 108.512C29.2362 108.253 30.4687 108.035 31.637 107.863C48.667 105.332 57.7831 108.052 66.3673 111.316L67.5636 111.773C75.8693 114.96 87.2455 119.324 103.933 113.42C120.68 107.496 135.374 94.6223 147.182 84.2787L147.711 83.8155C161.888 71.4132 175.252 60.1673 187.043 50.2461L192.136 45.9588C197.395 41.5258 203.356 36.5006 210.997 34.6875C217.754 33.0808 224.83 35.2057 229.926 40.3705C232.57 43.188 234.922 46.3214 236.97 49.754C238.505 52.1705 239.875 54.4531 241.2 56.6609C243.075 59.7843 244.846 62.7354 246.602 65.2183C249.915 69.9061 253.466 73.643 256.501 76.6807C262.409 82.8219 269.34 87.7978 277.196 91.5379C283.308 94.5228 291.18 97.5998 301.262 100.944C310.401 103.935 321.562 107.139 335.381 110.74C366.204 118.834 392.55 124.289 415.926 127.417L415.279 128.351C391.876 125.219 365.506 119.758 334.659 111.658C320.83 108.055 309.658 104.848 300.507 101.853C290.402 98.5008 282.51 95.4165 276.379 92.4219C268.481 88.6618 261.513 83.6594 255.573 77.4858C252.526 74.437 248.962 70.6855 245.632 65.9741C243.868 63.4794 242.094 60.523 240.215 57.3922C238.891 55.1868 237.522 52.9068 235.99 50.4944C233.956 47.0853 231.621 43.9727 228.996 41.1732C224.028 36.1377 217.186 34.0528 210.696 35.5956C203.448 37.3161 197.931 41.9663 192.596 46.4636L187.502 50.7518C175.719 60.6666 162.363 71.9047 148.203 84.293L147.674 84.7556C135.732 95.2183 120.868 108.239 103.779 114.286C86.7191 120.32 75.1976 115.901 66.7846 112.674L65.5904 112.217C57.0884 108.985 48.0638 106.29 31.2329 108.792C30.0855 108.961 28.8739 109.175 27.6323 109.429C8.61028 113.311 -18.0657 125.728 -30.0094 133.198L-30.2212 132.512Z" fill="url(#paint9_linear_231_1504)" fill-opacity="0.2"/>
<path d="M-29.9839 131.169C-17.2141 121.475 9.99053 108.661 28.6109 105.771C29.8645 105.576 31.0828 105.429 32.2314 105.332C48.7441 103.921 56.8397 108.788 64.6695 113.496C71.6022 117.665 83.2048 124.642 101.703 118.084C119.482 111.78 134.802 96.9582 145.988 86.135C153.675 78.7054 161.083 71.6162 168.248 64.7599C175.996 57.3456 183.314 50.3422 190.181 43.677L190.428 43.4372C195.906 38.1188 202.115 32.09 210.395 29.6111C217.714 27.4176 225.203 29.3035 230.426 34.6548C233.118 37.5428 235.404 40.8672 237.262 44.5955C239.611 49.0456 241.404 53.4526 242.987 57.3402C243.722 59.1466 244.416 60.8524 245.122 62.4625C247.635 68.1963 250.358 73.0772 252.926 77.4971C257.815 85.9136 262.739 92.8697 270.883 99.4636C276.6 104.119 284.144 108.775 293.305 113.304C302.458 117.783 313.558 122.204 326.295 126.443C345.439 132.853 375.188 141.143 408.205 144.24L407.53 145.26C374.446 142.157 344.646 133.851 325.471 127.432C312.711 123.185 301.589 118.755 292.414 114.265C283.221 109.72 275.648 105.045 269.905 100.369C261.712 93.7357 256.762 86.7445 251.85 78.2891C249.276 73.8577 246.546 68.9641 244.024 63.2106C243.315 61.5949 242.62 59.8859 241.884 58.077C240.305 54.1988 238.516 49.8029 236.178 45.3716C234.339 41.6803 232.076 38.3884 229.412 35.5283C224.342 30.3333 217.141 28.4834 210.151 30.5778C202.34 32.9162 196.344 38.7374 191.054 43.8736L190.806 44.1136C183.933 50.7853 176.612 57.7912 168.861 65.2083C161.698 72.0627 154.293 79.1494 146.611 86.5748C135.272 97.5455 119.743 112.57 101.535 119.025C82.5598 125.753 70.7807 118.669 63.7427 114.438C55.9944 109.779 47.9815 104.961 31.7214 106.351C30.5981 106.446 29.4068 106.59 28.1803 106.78C10.334 109.551 -17.0324 122.271 -29.5786 131.795L-29.9839 131.169Z" fill="url(#paint10_linear_231_1504)" fill-opacity="0.2"/>
<path d="M-29.746 129.833C-17.356 118.807 10.5067 105.002 29.2496 103.029C30.4929 102.898 31.6965 102.821 32.828 102.8C47.9057 102.499 54.7017 108.448 61.8971 114.747L62.9658 115.68C70.5729 122.306 81.5964 129.096 99.4701 122.746C116.727 116.616 131.639 101.832 144.262 88.4562L149.482 82.9326C163.497 68.1025 176.736 54.0939 188.701 40.9976C194.394 34.7662 200.846 27.7039 209.789 24.5367C219.062 21.2491 226.787 24.6547 230.923 28.938C233.673 31.8912 235.894 35.4097 237.551 39.4377C240.058 45.184 241.514 51.1152 242.798 56.3482C243.08 57.4959 243.355 58.6196 243.634 59.7109C245.477 66.9247 247.552 73.1641 249.338 78.316C252.66 87.894 256.803 98.047 264.557 107.394C269.814 113.755 276.807 119.902 285.345 125.665C295.231 132.133 305.869 137.635 317.208 142.147C335.512 149.642 364.816 159.007 400.479 161.06L399.781 162.165C364.013 160.105 334.63 150.716 316.28 143.202C304.906 138.676 294.237 133.157 284.321 126.67C275.746 120.882 268.72 114.705 263.436 108.31C255.635 98.9084 251.473 88.7089 248.136 79.0883C246.347 73.9256 244.268 67.6737 242.42 60.4407C242.14 59.3481 241.865 58.2233 241.582 57.0736C240.303 51.861 238.853 45.953 236.363 40.2454C234.729 36.2697 232.538 32.7964 229.825 29.8807C225.828 25.7419 218.417 22.4321 209.608 25.5548C201.205 28.5313 194.977 35.3482 189.482 41.3625C177.503 54.4743 164.257 68.4896 150.233 83.3282L145.016 88.8506C132.192 102.439 117.026 117.463 99.2903 123.764C80.8919 130.301 69.6413 123.396 61.8955 116.65L60.8259 115.715C53.7151 109.49 46.998 103.61 32.2051 103.906C31.1042 103.927 29.9331 104.002 28.7221 104.129C10.3055 106.067 -17.0217 119.588 -29.1513 130.382L-29.746 129.833Z" fill="url(#paint11_linear_231_1504)" fill-opacity="0.2"/>
<path d="M-29.5009 128.503C-15.9275 114.686 12.3819 101.239 29.8927 100.291C31.1186 100.224 32.3081 100.218 33.4282 100.273C47.5462 100.95 53.3129 108.074 59.4188 115.616C60.0282 116.37 60.6384 117.124 61.2595 117.873C70.8827 129.483 82.6519 132.602 97.2375 127.411C114.411 121.298 129.159 106.194 142.539 90.7826C156.291 74.9535 172.355 56.3415 187.228 38.3193C192.707 31.655 199.527 23.3588 209.18 19.4675C215.686 16.8429 224.947 16.4521 231.423 23.224C234.233 26.2438 236.389 29.9589 237.841 34.2837C240.232 40.9734 241.096 48.2164 241.858 54.6071L242.142 56.9631C242.986 63.8213 244.097 70.66 245.744 79.1364C247.99 90.3666 251.229 103.451 258.226 115.329C262.967 123.4 269.412 131.039 277.384 138.032C286.615 145.904 296.887 152.528 308.123 157.854C333.526 170.218 362.791 177.144 392.753 177.883L392.036 179.073C361.955 178.33 332.581 171.38 307.09 158.973C295.811 153.626 285.499 146.976 276.233 139.074C268.222 132.046 261.743 124.367 256.976 116.251C249.94 104.308 246.686 91.1676 244.431 79.8895C242.781 71.3964 241.668 64.5448 240.822 57.6714L240.538 55.3128C239.779 48.9542 238.92 41.7479 236.55 35.119C235.123 30.8633 233.003 27.2072 230.24 24.2349C226.343 20.1591 218.459 16.7434 209.068 20.5308C200.019 24.1788 193.44 32.1819 188.153 38.6134C173.261 56.6591 157.185 75.2854 143.422 91.127C129.802 106.815 114.758 122.2 97.0466 128.505C81.9795 133.868 69.8792 130.713 60.0544 118.859C59.4326 118.108 58.8178 117.355 58.21 116.598C52.1839 109.154 46.4921 102.123 32.688 101.461C31.6032 101.408 30.4506 101.414 29.263 101.479C12.1341 102.406 -15.5073 115.508 -28.728 128.966L-29.5009 128.503Z" fill="url(#paint12_linear_231_1504)" fill-opacity="0.2"/>
<path d="M-29.2526 127.172C-15.7227 111.704 12.7749 97.5865 30.5361 97.553C31.756 97.5506 32.9302 97.6158 34.0278 97.7469C47.4418 99.336 52.5241 108.063 57.4387 116.504C58.1342 117.698 58.8294 118.893 59.5478 120.068C65.1902 129.301 75.9214 138.879 95.0046 132.073C112.913 125.687 128.211 108.793 140.815 93.1093C158.443 71.1836 173.144 52.3848 185.757 35.6393C191.027 28.6228 198.246 19.0113 208.567 14.399C219.149 9.66859 227.761 13.1167 231.919 17.508C234.787 20.6023 236.878 24.517 238.128 29.1315C240.277 36.5014 240.45 44.8696 240.602 52.2529L240.644 54.2153C240.834 62.5915 241.325 71.0105 242.144 79.9528C243.881 98.2713 246.886 111.629 251.888 123.262C256.421 133.573 262.29 142.66 269.418 150.402C277.994 159.647 287.903 167.395 299.036 173.562C323.746 187.563 353.479 194.874 385.023 194.705L384.29 195.977C352.589 196.147 322.715 188.803 297.897 174.741C286.712 168.546 276.758 160.762 268.143 151.474C260.977 143.69 255.076 134.555 250.52 124.188C245.492 112.495 242.473 99.0799 240.729 80.6889C239.908 71.7282 239.417 63.2919 239.227 54.8976L239.185 52.9331C239.026 45.2363 238.861 37.2779 236.736 29.9906C235.512 25.4645 233.463 21.6243 230.652 18.5882C226.669 14.3832 218.486 11.0515 208.528 15.5025C198.868 19.8198 191.903 29.0934 186.817 35.8644C174.187 52.6329 159.47 71.4523 141.825 93.3998C128.972 109.393 113.335 126.634 94.8009 133.243C75.0243 140.297 63.9897 130.512 58.2152 121.062C57.495 119.884 56.7977 118.687 56.1007 117.489C51.2547 109.167 46.2431 100.562 33.1649 99.0128C32.1078 98.8857 30.9751 98.8235 29.7994 98.8258C12.8135 98.8579 -15.4283 112.816 -28.3139 127.548L-29.2526 127.172Z" fill="url(#paint13_linear_231_1504)" fill-opacity="0.2"/>
<path d="M-28.9941 125.842C-15.6799 108.987 13.5658 93.9098 31.1843 94.8184C32.3928 94.8807 33.5527 95.0172 34.6316 95.2253C47.4909 97.6899 51.6874 107.715 55.7455 117.411C56.4179 119.016 57.1125 120.676 57.8341 122.266C61.7626 130.93 71.5256 144.329 92.7729 136.738C111.336 130.106 126.605 112.139 139.094 95.4383C156.063 72.7546 170.848 52.3172 184.293 32.9596C189.339 25.6807 196.966 14.6794 207.956 9.33446C214.971 5.92155 225.588 4.51763 232.419 11.7927C235.346 14.9637 237.372 19.0804 238.417 23.9814C240.259 31.9885 239.742 41.034 239.242 49.7819L239.146 51.4706C238.593 61.3431 238.39 71.2008 238.542 80.7711C238.905 101.235 241.131 117.258 245.548 131.198C249.362 143.062 254.689 153.638 261.453 162.774C269.379 173.364 278.923 182.238 289.952 189.272C314.045 204.917 344.248 212.613 377.295 211.529L376.548 212.884C343.303 213.975 312.928 206.238 288.706 190.51C277.62 183.439 268.026 174.518 260.059 163.873C253.259 154.688 247.904 144.056 244.069 132.129C239.632 118.124 237.396 102.034 237.031 81.493C236.878 71.9006 237.082 62.02 237.636 52.1257L237.732 50.4357C238.229 41.7475 238.743 32.7639 236.925 24.86C235.905 20.0685 233.927 16.0433 231.067 12.9425C224.553 6.00438 214.566 7.27662 207.992 10.474C198.5 15.0902 191.927 23.8201 185.48 33.1194C172.017 52.5036 157.215 72.9647 140.228 95.673C134.893 102.808 127.693 112.037 119.311 120.146C110.177 128.981 101.426 134.816 92.557 137.984C70.4677 145.876 60.4107 132.149 56.3811 123.265C55.6569 121.666 54.9602 120.002 54.2864 118.393C50.2873 108.839 46.1516 98.9607 33.6456 96.563C32.6097 96.3639 31.4963 96.2326 30.336 96.1727C13.2599 95.2917 -15.0438 109.852 -27.9033 126.132L-28.9941 125.842Z" fill="url(#paint14_linear_231_1504)" fill-opacity="0.2"/>
<path d="M-28.731 124.508C-15.3472 105.955 14.0861 90.1971 31.8326 92.0837C33.0158 92.208 34.1515 92.4152 35.2354 92.7044C47.6281 96.0233 50.9803 107.358 54.222 118.319C54.8255 120.356 55.4484 122.463 56.1169 124.465C64.2159 148.712 84.5131 143.558 90.5416 141.401C109.845 134.493 125.71 114.453 137.375 97.7665C153.588 74.58 168.881 51.8731 182.83 30.2761C189.335 20.1978 196.585 9.88688 207.342 4.27048C218.451 -1.53029 228.192 0.998274 232.918 6.0773C235.906 9.32638 237.867 13.6472 238.705 18.8308C240.196 27.3253 239.012 37.2479 237.868 46.8444L237.644 48.7226C236.295 59.8987 235.385 70.9546 234.939 81.5859C234.016 103.971 235.411 122.795 239.205 139.132C242.328 152.52 247.112 164.585 253.485 175.147C260.768 187.054 269.948 197.056 280.868 204.983C304.392 222.275 335.063 230.356 369.564 228.352L368.807 229.789C334.064 231.807 303.187 223.676 279.515 206.275C268.533 198.304 259.301 188.244 251.976 176.269C245.57 165.652 240.761 153.524 237.621 140.067C233.811 123.66 232.409 104.763 233.336 82.2954C233.783 71.6371 234.696 60.5532 236.048 49.3509L236.271 47.4727C237.408 37.9464 238.583 28.0967 237.114 19.7262C236.299 14.6743 234.391 10.4627 231.481 7.29521C226.994 2.47154 217.825 0.0284414 207.456 5.44273C197.397 10.6947 190.422 20.6383 184.139 30.3739C170.172 51.998 154.861 74.7313 138.629 97.9445C126.698 115.012 110.424 135.526 90.3132 142.723C80.8841 146.097 72.783 145.72 66.2358 141.601C59.6493 137.456 56.2463 130.538 54.5513 125.463C53.879 123.45 53.2538 121.337 52.6496 119.294C49.4563 108.496 46.1533 97.3315 34.1246 94.109C33.0878 93.8331 32.0017 93.6352 30.8705 93.5161C13.7502 91.6958 -14.6166 106.86 -27.499 124.719L-28.731 124.508Z" fill="url(#paint15_linear_231_1504)" fill-opacity="0.2"/>
<path d="M-28.4672 123.171C-21.5219 112.726 -10.1067 102.923 2.85287 96.2753C15.8127 89.6268 27.8337 87.4071 35.8354 90.1845C47.8224 94.3441 50.357 106.995 52.8079 119.23C53.3025 121.7 53.8138 124.254 54.3936 126.665C59.5432 148.084 75.2886 150.729 88.3061 146.063C108.444 138.844 124.972 116.371 135.654 100.094C151.419 76.0698 166.799 51.6759 181.368 27.5903C184.279 22.7777 187.738 17.212 191.954 12.0648C196.666 6.31195 201.498 2.10627 206.727 -0.793538C218.434 -7.28788 228.566 -4.89324 233.414 0.360492C242.334 10.0262 239.338 27.409 236.44 44.2199L236.138 45.975C225.59 107.462 228.656 153.761 245.513 187.52C265.982 228.511 308.377 249.525 361.829 245.174L361.064 246.691C307.205 251.076 264.497 229.925 243.893 188.662C226.959 154.752 223.874 108.275 234.459 46.5772L234.761 44.8207C237.622 28.2234 240.58 11.0611 231.892 1.64656C227.307 -3.32176 217.807 -5.63227 206.919 0.407356C196.281 6.30785 189.167 17.09 182.793 27.629C168.208 51.7414 152.81 76.1623 137.027 100.214C114.187 135.02 98.1456 143.848 88.0665 147.461C67.3049 154.903 56.1945 142.113 52.7208 127.66C52.1369 125.234 51.6238 122.673 51.1284 120.196C48.7135 108.146 46.217 95.6841 34.599 91.6521C26.9429 88.9949 15.4088 91.1352 2.95313 97.5248C-9.50281 103.915 -20.4575 113.311 -27.1024 123.305L-28.4672 123.171Z" fill="url(#paint16_linear_231_1504)" fill-opacity="0.2"/>
<defs>
<linearGradient id="paint0_linear_231_1504" x1="381.651" y1="13.6026" x2="238.487" y2="207.507" gradientUnits="userSpaceOnUse">
<stop offset="0.0677083" stop-color="#2CB9E9"/>
<stop offset="0.302083" stop-color="#994FFF"/>
<stop offset="1" stop-color="#E70DD4"/>
</linearGradient>
<linearGradient id="paint1_linear_231_1504" x1="375.625" y1="26.8722" x2="229.532" y2="212.129" gradientUnits="userSpaceOnUse">
<stop offset="0.0677083" stop-color="#2CB9E9"/>
<stop offset="0.302083" stop-color="#994FFF"/>
<stop offset="1" stop-color="#E70DD4"/>
</linearGradient>
<linearGradient id="paint2_linear_231_1504" x1="369.606" y1="40.1445" x2="221.557" y2="216.757" gradientUnits="userSpaceOnUse">
<stop offset="0.0677083" stop-color="#2CB9E9"/>
<stop offset="0.302083" stop-color="#994FFF"/>
<stop offset="1" stop-color="#E70DD4"/>
</linearGradient>
<linearGradient id="paint3_linear_231_1504" x1="363.585" y1="53.4169" x2="214.465" y2="221.466" gradientUnits="userSpaceOnUse">
<stop offset="0.0677083" stop-color="#2CB9E9"/>
<stop offset="0.302083" stop-color="#994FFF"/>
<stop offset="1" stop-color="#E70DD4"/>
</linearGradient>
<linearGradient id="paint4_linear_231_1504" x1="357.561" y1="66.6887" x2="208.17" y2="226.315" gradientUnits="userSpaceOnUse">
<stop offset="0.0677083" stop-color="#2CB9E9"/>
<stop offset="0.302083" stop-color="#994FFF"/>
<stop offset="1" stop-color="#E70DD4"/>
</linearGradient>
<linearGradient id="paint5_linear_231_1504" x1="351.545" y1="79.96" x2="202.604" y2="231.344" gradientUnits="userSpaceOnUse">
<stop offset="0.0677083" stop-color="#2CB9E9"/>
<stop offset="0.302083" stop-color="#994FFF"/>
<stop offset="1" stop-color="#E70DD4"/>
</linearGradient>
<linearGradient id="paint6_linear_231_1504" x1="345.525" y1="93.2285" x2="197.681" y2="236.584" gradientUnits="userSpaceOnUse">
<stop offset="0.0677083" stop-color="#2CB9E9"/>
<stop offset="0.302083" stop-color="#994FFF"/>
<stop offset="1" stop-color="#E70DD4"/>
</linearGradient>
<linearGradient id="paint7_linear_231_1504" x1="339.511" y1="106.496" x2="193.343" y2="242.058" gradientUnits="userSpaceOnUse">
<stop offset="0.0677083" stop-color="#2CB9E9"/>
<stop offset="0.302083" stop-color="#994FFF"/>
<stop offset="1" stop-color="#E70DD4"/>
</linearGradient>
<linearGradient id="paint8_linear_231_1504" x1="333.5" y1="119.761" x2="189.525" y2="247.78" gradientUnits="userSpaceOnUse">
<stop offset="0.0677083" stop-color="#2CB9E9"/>
<stop offset="0.302083" stop-color="#994FFF"/>
<stop offset="1" stop-color="#E70DD4"/>
</linearGradient>
<linearGradient id="paint9_linear_231_1504" x1="327.491" y1="133.026" x2="186.168" y2="253.763" gradientUnits="userSpaceOnUse">
<stop offset="0.0677083" stop-color="#2CB9E9"/>
<stop offset="0.302083" stop-color="#994FFF"/>
<stop offset="1" stop-color="#E70DD4"/>
</linearGradient>
<linearGradient id="paint10_linear_231_1504" x1="321.467" y1="146.311" x2="183.167" y2="260.08" gradientUnits="userSpaceOnUse">
<stop offset="0.0677083" stop-color="#2CB9E9"/>
<stop offset="0.302083" stop-color="#994FFF"/>
<stop offset="1" stop-color="#E70DD4"/>
</linearGradient>
<linearGradient id="paint11_linear_231_1504" x1="315.426" y1="159.61" x2="180.477" y2="266.711" gradientUnits="userSpaceOnUse">
<stop offset="0.0677083" stop-color="#2CB9E9"/>
<stop offset="0.302083" stop-color="#994FFF"/>
<stop offset="1" stop-color="#E70DD4"/>
</linearGradient>
<linearGradient id="paint12_linear_231_1504" x1="309.379" y1="172.892" x2="178.08" y2="273.573" gradientUnits="userSpaceOnUse">
<stop offset="0.0677083" stop-color="#2CB9E9"/>
<stop offset="0.302083" stop-color="#994FFF"/>
<stop offset="1" stop-color="#E70DD4"/>
</linearGradient>
<linearGradient id="paint13_linear_231_1504" x1="303.312" y1="186.138" x2="175.926" y2="280.634" gradientUnits="userSpaceOnUse">
<stop offset="0.0677083" stop-color="#2CB9E9"/>
<stop offset="0.302083" stop-color="#994FFF"/>
<stop offset="1" stop-color="#E70DD4"/>
</linearGradient>
<linearGradient id="paint14_linear_231_1504" x1="297.241" y1="199.365" x2="174.008" y2="287.916" gradientUnits="userSpaceOnUse">
<stop offset="0.0677083" stop-color="#2CB9E9"/>
<stop offset="0.302083" stop-color="#994FFF"/>
<stop offset="1" stop-color="#E70DD4"/>
</linearGradient>
<linearGradient id="paint15_linear_231_1504" x1="291.156" y1="212.565" x2="172.291" y2="295.404" gradientUnits="userSpaceOnUse">
<stop offset="0.0677083" stop-color="#2CB9E9"/>
<stop offset="0.302083" stop-color="#994FFF"/>
<stop offset="1" stop-color="#E70DD4"/>
</linearGradient>
<linearGradient id="paint16_linear_231_1504" x1="285.061" y1="225.745" x2="170.751" y2="303.1" gradientUnits="userSpaceOnUse">
<stop offset="0.0677083" stop-color="#2CB9E9"/>
<stop offset="0.302083" stop-color="#994FFF"/>
<stop offset="1" stop-color="#E70DD4"/>
</linearGradient>
</defs>
</svg>
