<svg width="104" height="158" viewBox="0 0 104 158" fill="none" xmlns="http://www.w3.org/2000/svg">
<g opacity="0.5">
<rect x="0.898438" y="0.00952148" width="3.49443" height="3.79851" rx="1" fill="#D9D9D9"/>
<rect x="0.898438" y="11.101" width="3.49443" height="3.79851" rx="1" fill="#D9D9D9"/>
<rect x="0.898438" y="22.1924" width="3.49443" height="3.79851" rx="1" fill="#D9D9D9"/>
<rect x="0.898438" y="33.2839" width="3.49443" height="3.79851" rx="1" fill="#D9D9D9"/>
<rect x="0.898438" y="44.3754" width="3.49443" height="3.79851" rx="1" fill="#D9D9D9"/>
<rect x="0.898438" y="55.4668" width="3.49443" height="3.79851" rx="1" fill="#D9D9D9"/>
<rect x="0.898438" y="66.5583" width="3.49443" height="3.79851" rx="1" fill="#D9D9D9"/>
<rect x="0.898438" y="77.6497" width="3.49443" height="3.79851" rx="1" fill="#D9D9D9"/>
<rect x="12.9023" y="0.00952148" width="3.49443" height="3.79851" rx="1" fill="#D9D9D9"/>
<rect x="12.9023" y="11.101" width="3.49443" height="3.79851" rx="1" fill="#D9D9D9"/>
<rect x="12.9023" y="22.1924" width="3.49443" height="3.79851" rx="1" fill="#D9D9D9"/>
<rect x="12.9023" y="33.2839" width="3.49443" height="3.79851" rx="1" fill="#D9D9D9"/>
<rect x="12.9023" y="44.3754" width="3.49443" height="3.79851" rx="1" fill="#D9D9D9"/>
<rect x="12.9023" y="55.4668" width="3.49443" height="3.79851" rx="1" fill="#D9D9D9"/>
<rect x="12.9023" y="66.5583" width="3.49443" height="3.79851" rx="1" fill="#D9D9D9"/>
<rect x="12.9023" y="77.6497" width="3.49443" height="3.79851" rx="1" fill="#D9D9D9"/>
<rect x="24.9062" y="0.00952148" width="3.49443" height="3.79851" rx="1" fill="#D9D9D9"/>
<rect x="24.9062" y="11.101" width="3.49443" height="3.79851" rx="1" fill="#D9D9D9"/>
<rect x="24.9062" y="22.1924" width="3.49443" height="3.79851" rx="1" fill="#D9D9D9"/>
<rect x="24.9062" y="33.2839" width="3.49443" height="3.79851" rx="1" fill="#D9D9D9"/>
<rect x="24.9062" y="44.3754" width="3.49443" height="3.79851" rx="1" fill="#D9D9D9"/>
<rect x="24.9062" y="55.4668" width="3.49443" height="3.79851" rx="1" fill="#D9D9D9"/>
<rect x="24.9062" y="66.5583" width="3.49443" height="3.79851" rx="1" fill="#D9D9D9"/>
<rect x="24.9062" y="77.6497" width="3.49443" height="3.79851" rx="1" fill="#D9D9D9"/>
<rect x="36.9062" y="0.00952148" width="3.49443" height="3.79851" rx="1" fill="#D9D9D9"/>
<rect x="36.9062" y="11.101" width="3.49443" height="3.79851" rx="1" fill="#D9D9D9"/>
<rect x="36.9062" y="22.1924" width="3.49443" height="3.79851" rx="1" fill="#D9D9D9"/>
<rect x="36.9062" y="33.2839" width="3.49443" height="3.79851" rx="1" fill="#D9D9D9"/>
<rect x="36.9062" y="44.3754" width="3.49443" height="3.79851" rx="1" fill="#D9D9D9"/>
<rect x="36.9062" y="55.4668" width="3.49443" height="3.79851" rx="1" fill="#D9D9D9"/>
<rect x="36.9062" y="66.5583" width="3.49443" height="3.79851" rx="1" fill="#D9D9D9"/>
<rect x="36.9062" y="77.6497" width="3.49443" height="3.79851" rx="1" fill="#D9D9D9"/>
<rect x="48.9102" y="0.00952148" width="3.49443" height="3.79851" rx="1" fill="#D9D9D9"/>
<rect x="48.9102" y="11.101" width="3.49443" height="3.79851" rx="1" fill="#D9D9D9"/>
<rect x="48.9102" y="22.1924" width="3.49443" height="3.79851" rx="1" fill="#D9D9D9"/>
<rect x="48.9102" y="33.2839" width="3.49443" height="3.79851" rx="1" fill="#D9D9D9"/>
<rect x="48.9102" y="44.3754" width="3.49443" height="3.79851" rx="1" fill="#D9D9D9"/>
<rect x="48.9102" y="55.4668" width="3.49443" height="3.79851" rx="1" fill="#D9D9D9"/>
<rect x="48.9102" y="66.5583" width="3.49443" height="3.79851" rx="1" fill="#D9D9D9"/>
<rect x="48.9102" y="77.6497" width="3.49443" height="3.79851" rx="1" fill="#D9D9D9"/>
<rect x="0.898438" y="86.7805" width="3.49443" height="3.79851" rx="1" fill="#D9D9D9"/>
<rect x="0.898438" y="97.8721" width="3.49443" height="3.79851" rx="1" fill="#D9D9D9"/>
<rect x="0.898438" y="108.963" width="3.49443" height="3.79851" rx="1" fill="#D9D9D9"/>
<rect x="0.898438" y="120.055" width="3.49443" height="3.79851" rx="1" fill="#D9D9D9"/>
<rect x="0.898438" y="131.146" width="3.49443" height="3.79851" rx="1" fill="#D9D9D9"/>
<rect x="0.898438" y="142.238" width="3.49443" height="3.79851" rx="1" fill="#D9D9D9"/>
<rect x="0.898438" y="153.329" width="3.49443" height="3.79851" rx="1" fill="#D9D9D9"/>
<rect x="12.9023" y="86.7805" width="3.49443" height="3.79851" rx="1" fill="#D9D9D9"/>
<rect x="12.9023" y="97.8721" width="3.49443" height="3.79851" rx="1" fill="#D9D9D9"/>
<rect x="12.9023" y="108.963" width="3.49443" height="3.79851" rx="1" fill="#D9D9D9"/>
<rect x="12.9023" y="120.055" width="3.49443" height="3.79851" rx="1" fill="#D9D9D9"/>
<rect x="12.9023" y="131.146" width="3.49443" height="3.79851" rx="1" fill="#D9D9D9"/>
<rect x="12.9023" y="142.238" width="3.49443" height="3.79851" rx="1" fill="#D9D9D9"/>
<rect x="12.9023" y="153.329" width="3.49443" height="3.79851" rx="1" fill="#D9D9D9"/>
<rect x="24.9062" y="86.7805" width="3.49443" height="3.79851" rx="1" fill="#D9D9D9"/>
<rect x="24.9062" y="97.8721" width="3.49443" height="3.79851" rx="1" fill="#D9D9D9"/>
<rect x="24.9062" y="108.963" width="3.49443" height="3.79851" rx="1" fill="#D9D9D9"/>
<rect x="24.9062" y="120.055" width="3.49443" height="3.79851" rx="1" fill="#D9D9D9"/>
<rect x="24.9062" y="131.146" width="3.49443" height="3.79851" rx="1" fill="#D9D9D9"/>
<rect x="24.9062" y="142.238" width="3.49443" height="3.79851" rx="1" fill="#D9D9D9"/>
<rect x="24.9062" y="153.329" width="3.49443" height="3.79851" rx="1" fill="#D9D9D9"/>
<rect x="36.9062" y="86.7805" width="3.49443" height="3.79851" rx="1" fill="#D9D9D9"/>
<rect x="36.9062" y="97.8721" width="3.49443" height="3.79851" rx="1" fill="#D9D9D9"/>
<rect x="36.9062" y="108.963" width="3.49443" height="3.79851" rx="1" fill="#D9D9D9"/>
<rect x="36.9062" y="120.055" width="3.49443" height="3.79851" rx="1" fill="#D9D9D9"/>
<rect x="36.9062" y="131.146" width="3.49443" height="3.79851" rx="1" fill="#D9D9D9"/>
<rect x="36.9062" y="142.238" width="3.49443" height="3.79851" rx="1" fill="#D9D9D9"/>
<rect x="36.9062" y="153.329" width="3.49443" height="3.79851" rx="1" fill="#D9D9D9"/>
<rect x="48.9102" y="86.7805" width="3.49443" height="3.79851" rx="1" fill="#D9D9D9"/>
<rect x="48.9102" y="97.8721" width="3.49443" height="3.79851" rx="1" fill="#D9D9D9"/>
<rect x="48.9102" y="108.963" width="3.49443" height="3.79851" rx="1" fill="#D9D9D9"/>
<rect x="48.9102" y="120.055" width="3.49443" height="3.79851" rx="1" fill="#D9D9D9"/>
<rect x="48.9102" y="131.146" width="3.49443" height="3.79851" rx="1" fill="#D9D9D9"/>
<rect x="48.9102" y="142.238" width="3.49443" height="3.79851" rx="1" fill="#D9D9D9"/>
<rect x="48.9102" y="153.329" width="3.49443" height="3.79851" rx="1" fill="#D9D9D9"/>
<rect x="58.8984" y="86.7805" width="3.49443" height="3.79851" rx="1" fill="#D9D9D9"/>
<rect x="58.8984" y="97.8721" width="3.49443" height="3.79851" rx="1" fill="#D9D9D9"/>
<rect x="58.8984" y="108.963" width="3.49443" height="3.79851" rx="1" fill="#D9D9D9"/>
<rect x="58.8984" y="120.055" width="3.49443" height="3.79851" rx="1" fill="#D9D9D9"/>
<rect x="58.8984" y="131.146" width="3.49443" height="3.79851" rx="1" fill="#D9D9D9"/>
<rect x="58.8984" y="142.238" width="3.49443" height="3.79851" rx="1" fill="#D9D9D9"/>
<rect x="58.8984" y="153.329" width="3.49443" height="3.79851" rx="1" fill="#D9D9D9"/>
<rect x="70.9023" y="86.7805" width="3.49443" height="3.79851" rx="1" fill="#D9D9D9"/>
<rect x="70.9023" y="97.8721" width="3.49443" height="3.79851" rx="1" fill="#D9D9D9"/>
<rect x="70.9023" y="108.963" width="3.49443" height="3.79851" rx="1" fill="#D9D9D9"/>
<rect x="70.9023" y="120.055" width="3.49443" height="3.79851" rx="1" fill="#D9D9D9"/>
<rect x="70.9023" y="131.146" width="3.49443" height="3.79851" rx="1" fill="#D9D9D9"/>
<rect x="70.9023" y="142.238" width="3.49443" height="3.79851" rx="1" fill="#D9D9D9"/>
<rect x="70.9023" y="153.329" width="3.49443" height="3.79851" rx="1" fill="#D9D9D9"/>
<rect x="82.9062" y="86.7805" width="3.49443" height="3.79851" rx="1" fill="#D9D9D9"/>
<rect x="82.9062" y="97.8721" width="3.49443" height="3.79851" rx="1" fill="#D9D9D9"/>
<rect x="82.9062" y="108.963" width="3.49443" height="3.79851" rx="1" fill="#D9D9D9"/>
<rect x="82.9062" y="120.055" width="3.49443" height="3.79851" rx="1" fill="#D9D9D9"/>
<rect x="82.9062" y="131.146" width="3.49443" height="3.79851" rx="1" fill="#D9D9D9"/>
<rect x="82.9062" y="142.238" width="3.49443" height="3.79851" rx="1" fill="#D9D9D9"/>
<rect x="82.9062" y="153.329" width="3.49443" height="3.79851" rx="1" fill="#D9D9D9"/>
<rect x="94.9062" y="86.7805" width="3.49443" height="3.79851" rx="1" fill="#D9D9D9"/>
<rect x="94.9062" y="97.8721" width="3.49443" height="3.79851" rx="1" fill="#D9D9D9"/>
<rect x="94.9062" y="108.963" width="3.49443" height="3.79851" rx="1" fill="#D9D9D9"/>
<rect x="94.9062" y="120.055" width="3.49443" height="3.79851" rx="1" fill="#D9D9D9"/>
<rect x="94.9062" y="131.146" width="3.49443" height="3.79851" rx="1" fill="#D9D9D9"/>
<rect x="94.9062" y="142.238" width="3.49443" height="3.79851" rx="1" fill="#D9D9D9"/>
<rect x="94.9062" y="153.329" width="3.49443" height="3.79851" rx="1" fill="#D9D9D9"/>
<rect x="58.8984" y="0.00952148" width="3.49443" height="3.79851" rx="1" fill="#D9D9D9"/>
<rect x="58.8984" y="11.101" width="3.49443" height="3.79851" rx="1" fill="#D9D9D9"/>
<rect x="58.8984" y="22.1924" width="3.49443" height="3.79851" rx="1" fill="#D9D9D9"/>
<rect x="58.8984" y="33.2839" width="3.49443" height="3.79851" rx="1" fill="#D9D9D9"/>
<rect x="58.8984" y="44.3754" width="3.49443" height="3.79851" rx="1" fill="#D9D9D9"/>
<rect x="58.8984" y="55.4668" width="3.49443" height="3.79851" rx="1" fill="#D9D9D9"/>
<rect x="58.8984" y="66.5583" width="3.49443" height="3.79851" rx="1" fill="#D9D9D9"/>
<rect x="58.8984" y="77.6497" width="3.49443" height="3.79851" rx="1" fill="#D9D9D9"/>
<rect x="70.9023" y="0.00952148" width="3.49443" height="3.79851" rx="1" fill="#D9D9D9"/>
<rect x="70.9023" y="11.101" width="3.49443" height="3.79851" rx="1" fill="#D9D9D9"/>
<rect x="70.9023" y="22.1924" width="3.49443" height="3.79851" rx="1" fill="#D9D9D9"/>
<rect x="70.9023" y="33.2839" width="3.49443" height="3.79851" rx="1" fill="#D9D9D9"/>
<rect x="70.9023" y="44.3754" width="3.49443" height="3.79851" rx="1" fill="#D9D9D9"/>
<rect x="70.9023" y="55.4668" width="3.49443" height="3.79851" rx="1" fill="#D9D9D9"/>
<rect x="70.9023" y="66.5583" width="3.49443" height="3.79851" rx="1" fill="#D9D9D9"/>
<rect x="70.9023" y="77.6497" width="3.49443" height="3.79851" rx="1" fill="#D9D9D9"/>
<rect x="82.9062" y="0.00952148" width="3.49443" height="3.79851" rx="1" fill="#D9D9D9"/>
<rect x="82.9062" y="11.101" width="3.49443" height="3.79851" rx="1" fill="#D9D9D9"/>
<rect x="82.9062" y="22.1924" width="3.49443" height="3.79851" rx="1" fill="#D9D9D9"/>
<rect x="82.9062" y="33.2839" width="3.49443" height="3.79851" rx="1" fill="#D9D9D9"/>
<rect x="82.9062" y="44.3754" width="3.49443" height="3.79851" rx="1" fill="#D9D9D9"/>
<rect x="82.9062" y="55.4668" width="3.49443" height="3.79851" rx="1" fill="#D9D9D9"/>
<rect x="82.9062" y="66.5583" width="3.49443" height="3.79851" rx="1" fill="#D9D9D9"/>
<rect x="82.9062" y="77.6497" width="3.49443" height="3.79851" rx="1" fill="#D9D9D9"/>
<rect x="94.9062" y="0.00952148" width="3.49443" height="3.79851" rx="1" fill="#D9D9D9"/>
<rect x="94.9062" y="11.101" width="3.49443" height="3.79851" rx="1" fill="#D9D9D9"/>
<rect x="94.9062" y="22.1924" width="3.49443" height="3.79851" rx="1" fill="#D9D9D9"/>
<rect x="94.9062" y="33.2839" width="3.49443" height="3.79851" rx="1" fill="#D9D9D9"/>
<rect x="94.9062" y="44.3754" width="3.49443" height="3.79851" rx="1" fill="#D9D9D9"/>
<rect x="94.9062" y="55.4668" width="3.49443" height="3.79851" rx="1" fill="#D9D9D9"/>
<rect x="94.9062" y="66.5583" width="3.49443" height="3.79851" rx="1" fill="#D9D9D9"/>
<rect x="94.9062" y="77.6497" width="3.49443" height="3.79851" rx="1" fill="#D9D9D9"/>
</g>
</svg>
