<svg width="160" height="41" viewBox="0 0 160 41" fill="none" xmlns="http://www.w3.org/2000/svg">
<path d="M41.8705 0.899794L11.2598 0.889649C7.12861 0.888199 5.06002 5.73458 7.97995 8.56936C8.85219 9.41574 10.0351 9.88965 11.2688 9.88675L32.6567 9.84037L32.6089 30.594C32.6059 31.7911 33.0943 32.9389 33.9665 33.7853C36.888 36.6201 41.8825 34.6114 41.881 30.6027L41.8705 0.899794Z" fill="url(#paint0_linear_448_3712)"/>
<path d="M26.0202 13.1781L12.9455 25.865C12.0807 26.7027 12.0807 28.0621 12.9455 28.9013C13.3771 29.3201 13.9432 29.5302 14.5092 29.5302C15.0753 29.5302 15.6413 29.3201 16.073 28.9013L29.1477 16.2143C30.011 15.3752 30.011 14.0172 29.1477 13.1781C28.2859 12.3404 26.8849 12.3404 26.0202 13.1781Z" fill="url(#paint1_linear_448_3712)"/>
<path d="M17.2848 12.8273C16.4215 11.9882 15.0205 11.9882 14.1558 12.8273L1.08106 25.5143C0.217773 26.3534 0.217773 27.7114 1.08106 28.5505C1.5127 28.9694 2.07876 29.1795 2.64482 29.1795C3.21088 29.1795 3.77695 28.9694 4.20859 28.5505L17.2833 15.8636C18.1481 15.0244 18.1481 13.665 17.2848 12.8273Z" fill="url(#paint2_linear_448_3712)"/>
<path d="M25.7768 24.5374L12.7021 37.2244C11.8389 38.0621 11.8389 39.4215 12.7021 40.2606C13.1338 40.6795 13.6999 40.8896 14.2659 40.8896C14.832 40.8896 15.398 40.6795 15.8297 40.2606L28.9044 27.5737C29.7692 26.736 29.7692 25.3766 28.9044 24.5374C28.0411 23.6998 26.6401 23.6998 25.7768 24.5374Z" fill="url(#paint3_linear_448_3712)"/>
<path d="M76.8955 3.39478L72.5204 19.1904L67.8183 3.39478H64.6638L59.9328 19.1904L55.5576 3.39478H51.957L57.8491 23.6093H61.8071L66.2419 8.85271L70.646 23.6093H74.6041L80.4961 3.39478H76.8955Z" fill="black"/>
<path d="M88.2082 8.79492C86.0052 8.79492 84.1513 9.52672 82.643 10.9903C81.1159 12.4737 80.3516 14.2727 80.3516 16.3904C80.3516 18.5082 81.1159 20.3088 82.643 21.7906C84.1513 23.2542 86.0052 23.986 88.2082 23.986C90.4111 23.986 92.265 23.2542 93.7733 21.7906C95.3004 20.3088 96.0648 18.5082 96.0648 16.3904C96.0648 14.2727 95.3004 12.4737 93.7733 10.9903C92.265 9.52672 90.4094 8.79492 88.2082 8.79492ZM91.5108 19.653C90.6188 20.5186 89.5173 20.953 88.2082 20.953C86.899 20.953 85.7976 20.5202 84.9055 19.653C84.0134 18.7857 83.5657 17.6988 83.5657 16.3904C83.5657 15.0821 84.0117 13.9935 84.9055 13.1279C85.7976 12.2623 86.899 11.8278 88.2082 11.8278C89.5173 11.8278 90.6188 12.2606 91.5108 13.1279C92.4046 13.9935 92.8506 15.0821 92.8506 16.3904C92.8506 17.7004 92.4029 18.7874 91.5108 19.653Z" fill="black"/>
<path d="M102.191 11.5965V9.17146H98.9766V23.6092H102.191V16.3325C102.191 14.8508 102.647 13.7919 103.559 13.1559C104.492 12.5017 105.563 12.2126 106.774 12.2903V8.91211C104.53 8.91046 103.003 9.8058 102.191 11.5965Z" fill="black"/>
<path d="M122.068 9.17153H118.139L112.366 15.5529V3.39478H109.152V23.6093H112.366V16.9388L118.466 23.6093H122.305L115.521 16.245L122.068 9.17153Z" fill="black"/>
<path d="M136.834 16.7076C136.834 17.9597 136.451 18.9459 135.688 19.6678C134.924 20.3897 133.817 20.7515 132.37 20.7515C130.921 20.7515 129.815 20.3897 129.052 19.6678C128.288 18.9459 127.906 17.9597 127.906 16.7076V3.39478H124.484V16.9091C124.484 19.0467 125.218 20.7696 126.687 22.078C128.136 23.3483 130.031 23.9843 132.372 23.9843C134.712 23.9843 136.607 23.3483 138.056 22.078C139.523 20.7696 140.259 19.045 140.259 16.9091V3.39478H136.837V16.7076H136.834Z" fill="black"/>
<path d="M157.637 11.0184C156.167 9.53663 154.423 8.79492 152.398 8.79492C150.136 8.79492 148.401 9.61427 147.191 11.2497V9.16991H143.977V29.3844H147.191V21.5593C148.42 23.1765 150.156 23.9843 152.398 23.9843C154.441 23.9843 156.188 23.2525 157.637 21.7889C159.084 20.3253 159.809 18.5264 159.809 16.3888C159.809 14.2727 159.085 12.482 157.637 11.0184ZM155.257 19.7108C154.363 20.5764 153.243 21.0109 151.894 21.0109C150.544 21.0109 149.424 20.578 148.532 19.7108C147.64 18.8055 147.192 17.6988 147.192 16.3904C147.192 15.0623 147.638 13.9654 148.532 13.0982C149.424 12.2127 150.546 11.77 151.894 11.77C153.243 11.77 154.365 12.2127 155.257 13.0982C156.149 13.9638 156.596 15.0623 156.596 16.3904C156.596 17.7186 156.149 18.8254 155.257 19.7108Z" fill="black"/>
<path d="M51.8828 36.7995V31.5362H52.5532V36.7995H51.8828ZM52.3392 36.7995V36.1473H55.1777V36.7995H52.3392ZM52.3392 34.4181V33.7962H54.9424V34.4181H52.3392ZM52.3392 32.1884V31.5362H55.1421V32.1884H52.3392Z" fill="#1C1D1D"/>
<path d="M55.9754 36.7995V33.1971H56.6172V36.7995H55.9754ZM58.2647 36.7995V34.6229C58.2647 34.3549 58.1862 34.1451 58.0293 33.9934C57.8772 33.8367 57.6846 33.7583 57.4517 33.7583C57.2948 33.7583 57.1545 33.7937 57.0309 33.8645C56.9073 33.9353 56.8074 34.0339 56.7313 34.1603C56.6553 34.2867 56.6172 34.4383 56.6172 34.6153L56.3533 34.4788C56.3533 34.2058 56.408 33.9681 56.5174 33.7659C56.6315 33.5636 56.786 33.4069 56.981 33.2957C57.1759 33.1794 57.3946 33.1212 57.6371 33.1212C57.8748 33.1212 58.0888 33.1769 58.2789 33.2881C58.4739 33.3993 58.626 33.5561 58.7354 33.7583C58.8495 33.9605 58.9065 34.2007 58.9065 34.4788V36.7995H58.2647ZM60.554 36.7995V34.6229C60.554 34.3549 60.4755 34.1451 60.3186 33.9934C60.1665 33.8367 59.9763 33.7583 59.7481 33.7583C59.5912 33.7583 59.4486 33.7937 59.3202 33.8645C59.1966 33.9353 59.0967 34.0339 59.0207 34.1603C58.9446 34.2867 58.9065 34.4383 58.9065 34.6153L58.5428 34.4788C58.5571 34.2007 58.626 33.9631 58.7496 33.7659C58.878 33.5636 59.042 33.4069 59.2417 33.2957C59.4414 33.1794 59.6601 33.1212 59.8979 33.1212C60.1451 33.1212 60.3662 33.1769 60.5611 33.2881C60.7561 33.3993 60.9106 33.5561 61.0247 33.7583C61.1436 33.9605 61.203 34.2032 61.203 34.4864V36.7995H60.554Z" fill="#1C1D1D"/>
<path d="M63.8594 36.8753C63.6026 36.8753 63.3696 36.8197 63.1604 36.7085C62.956 36.5922 62.792 36.4329 62.6684 36.2307C62.5447 36.0284 62.4758 35.7984 62.4615 35.5405V34.456C62.4758 34.1931 62.5447 33.9631 62.6684 33.7659C62.7967 33.5636 62.9631 33.4069 63.1676 33.2957C63.3768 33.1794 63.6074 33.1212 63.8594 33.1212C64.1684 33.1212 64.4466 33.2047 64.6938 33.3715C64.9458 33.5384 65.1431 33.7634 65.2857 34.0465C65.4284 34.3296 65.4997 34.6482 65.4997 35.0021C65.4997 35.356 65.4284 35.6745 65.2857 35.9577C65.1431 36.2408 64.9458 36.4658 64.6938 36.6326C64.4466 36.7944 64.1684 36.8753 63.8594 36.8753ZM63.7524 36.2307C63.9663 36.2307 64.1541 36.1776 64.3158 36.0714C64.4775 35.9652 64.6058 35.8211 64.7009 35.6391C64.796 35.4521 64.8436 35.2372 64.8436 34.9945C64.8436 34.7569 64.796 34.5445 64.7009 34.3574C64.6058 34.1704 64.4775 34.0263 64.3158 33.9252C64.1541 33.819 63.9687 33.7659 63.7595 33.7659C63.5456 33.7659 63.3578 33.819 63.1961 33.9252C63.0345 34.0263 62.9085 34.1704 62.8181 34.3574C62.7278 34.5445 62.6826 34.7594 62.6826 35.0021C62.6826 35.2397 62.7254 35.4521 62.811 35.6391C62.9013 35.8211 63.0273 35.9652 63.189 36.0714C63.3554 36.1776 63.5432 36.2307 63.7524 36.2307ZM62.0764 38.3087V33.1971H62.7183V34.1451L62.597 35.0172L62.7183 35.897V38.3087H62.0764Z" fill="#1C1D1D"/>
<path d="M67.775 36.8753C67.4421 36.8753 67.1426 36.7919 66.8764 36.625C66.6101 36.4582 66.3985 36.2332 66.2416 35.9501C66.0847 35.6619 66.0063 35.3408 66.0063 34.9869C66.0063 34.638 66.0847 34.3246 66.2416 34.0465C66.3985 33.7634 66.6101 33.5384 66.8764 33.3715C67.1426 33.2047 67.4421 33.1212 67.775 33.1212C68.103 33.1212 68.4002 33.2047 68.6664 33.3715C68.9374 33.5333 69.1514 33.7558 69.3083 34.0389C69.4652 34.322 69.5437 34.638 69.5437 34.9869C69.5437 35.3408 69.4652 35.6619 69.3083 35.9501C69.1514 36.2332 68.9374 36.4582 68.6664 36.625C68.4002 36.7919 68.103 36.8753 67.775 36.8753ZM67.775 36.2155C67.9889 36.2155 68.1791 36.1624 68.3455 36.0562C68.5119 35.9501 68.6427 35.806 68.7378 35.624C68.8328 35.4369 68.8804 35.2245 68.8804 34.9869C68.8804 34.7543 68.8305 34.547 68.7306 34.365C68.6355 34.183 68.5048 34.0414 68.3384 33.9403C68.1767 33.8341 67.9889 33.7811 67.775 33.7811C67.561 33.7811 67.3708 33.8341 67.2044 33.9403C67.038 34.0414 66.9073 34.183 66.8122 34.365C66.7171 34.547 66.6695 34.7543 66.6695 34.9869C66.6695 35.2245 66.7171 35.4369 66.8122 35.624C66.9073 35.806 67.038 35.9501 67.2044 36.0562C67.3708 36.1624 67.561 36.2155 67.775 36.2155Z" fill="#1C1D1D"/>
<path d="M71.1393 36.7995L69.7985 33.1971H70.4689L71.4388 36.0032H71.2249L72.1877 33.1971H72.5585L73.5213 36.0032H73.3074L74.2773 33.1971H74.9477L73.614 36.7995H73.236L72.259 34.0768H72.4943L71.5101 36.7995H71.1393Z" fill="#1C1D1D"/>
<path d="M76.9897 36.8753C76.6521 36.8753 76.3479 36.7944 76.0768 36.6326C75.8058 36.4658 75.5919 36.2408 75.435 35.9577C75.2781 35.6745 75.1996 35.3535 75.1996 34.9945C75.1996 34.6406 75.2757 34.322 75.4278 34.0389C75.5847 33.7558 75.7939 33.5333 76.0554 33.3715C76.3217 33.2047 76.6189 33.1212 76.9469 33.1212C77.2607 33.1212 77.5365 33.1971 77.7742 33.3488C78.0167 33.5004 78.2045 33.7103 78.3376 33.9782C78.4755 34.2462 78.5445 34.5496 78.5445 34.8883C78.5445 34.9389 78.5421 34.9945 78.5373 35.0552C78.5326 35.1108 78.5231 35.1765 78.5088 35.2523H75.6489V34.6835H78.1665L77.9311 34.9035C77.9311 34.6608 77.8907 34.456 77.8099 34.2892C77.729 34.1173 77.6149 33.9858 77.4676 33.8948C77.3202 33.7988 77.1419 33.7507 76.9327 33.7507C76.714 33.7507 76.5214 33.8013 76.355 33.9024C76.1886 34.0035 76.0602 34.1451 75.9699 34.3271C75.8795 34.5091 75.8344 34.724 75.8344 34.9717C75.8344 35.2245 75.8819 35.447 75.977 35.6391C76.0721 35.8262 76.2076 35.9728 76.3835 36.079C76.5594 36.1801 76.7615 36.2307 76.9897 36.2307C77.1799 36.2307 77.3534 36.1953 77.5103 36.1245C77.672 36.0537 77.8099 35.9475 77.924 35.806L78.3376 36.2534C78.176 36.4557 77.9763 36.6099 77.7386 36.716C77.5056 36.8222 77.256 36.8753 76.9897 36.8753Z" fill="#1C1D1D"/>
<path d="M79.2443 36.7995V33.1971H79.8862V36.7995H79.2443ZM79.8862 34.7442L79.6437 34.6305C79.6437 34.1704 79.7435 33.8038 79.9432 33.5308C80.1429 33.2578 80.4306 33.1212 80.8062 33.1212C80.9774 33.1212 81.1319 33.1541 81.2698 33.2198C81.4076 33.2805 81.536 33.3842 81.6549 33.5308L81.2341 33.9934C81.1628 33.9125 81.0843 33.8544 80.9987 33.819C80.9132 33.7836 80.8133 33.7659 80.6992 33.7659C80.4615 33.7659 80.2665 33.8468 80.1144 34.0086C79.9623 34.1704 79.8862 34.4156 79.8862 34.7442Z" fill="#1C1D1D"/>
<path d="M82.1139 36.7995V33.1971H82.7558V36.7995H82.1139ZM82.4349 32.4766C82.316 32.4766 82.2185 32.4362 82.1425 32.3553C82.0664 32.2693 82.0283 32.1631 82.0283 32.0367C82.0283 31.9154 82.0664 31.8143 82.1425 31.7334C82.2185 31.6474 82.316 31.6045 82.4349 31.6045C82.5537 31.6045 82.6512 31.6474 82.7273 31.7334C82.8033 31.8143 82.8414 31.9154 82.8414 32.0367C82.8414 32.1631 82.8033 32.2693 82.7273 32.3553C82.6512 32.4362 82.5537 32.4766 82.4349 32.4766Z" fill="#1C1D1D"/>
<path d="M86.098 36.7995V34.6987C86.098 34.4257 86.0172 34.2007 85.8555 34.0237C85.6939 33.8468 85.4847 33.7583 85.2279 33.7583C85.0568 33.7583 84.9046 33.7988 84.7715 33.8796C84.6384 33.9605 84.5338 34.0718 84.4577 34.2133C84.3816 34.3549 84.3436 34.5167 84.3436 34.6987L84.0797 34.5395C84.0797 34.2664 84.1367 34.0237 84.2509 33.8114C84.365 33.599 84.5242 33.4322 84.7287 33.3108C84.9331 33.1844 85.1637 33.1212 85.4205 33.1212C85.6772 33.1212 85.9031 33.1895 86.098 33.326C86.2977 33.4625 86.4546 33.642 86.5687 33.8645C86.6828 34.0819 86.7399 34.3145 86.7399 34.5622V36.7995H86.098ZM83.7017 36.7995V33.1971H84.3436V36.7995H83.7017Z" fill="#1C1D1D"/>
<path d="M89.0139 38.3845C88.6668 38.3845 88.3577 38.3163 88.0867 38.1798C87.8205 38.0432 87.6065 37.8511 87.4449 37.6034L87.8585 37.1559C87.9964 37.343 88.1604 37.4846 88.3506 37.5806C88.5408 37.6817 88.7666 37.7323 89.0281 37.7323C89.3752 37.7323 89.6486 37.6337 89.8483 37.4365C90.0527 37.2444 90.1549 36.984 90.1549 36.6554V35.7605L90.2691 34.949L90.1549 34.1451V33.1971H90.7968V36.6554C90.7968 36.9992 90.7207 37.3 90.5686 37.5579C90.4212 37.8157 90.212 38.018 89.941 38.1646C89.6747 38.3112 89.3657 38.3845 89.0139 38.3845ZM89.0139 36.7388C88.7048 36.7388 88.4267 36.6604 88.1794 36.5037C87.9369 36.347 87.7444 36.1321 87.6018 35.8591C87.4591 35.581 87.3878 35.27 87.3878 34.9262C87.3878 34.5824 87.4591 34.2765 87.6018 34.0086C87.7444 33.7356 87.9369 33.5207 88.1794 33.3639C88.4267 33.2021 88.7048 33.1212 89.0139 33.1212C89.2801 33.1212 89.5155 33.1769 89.7199 33.2881C89.9244 33.3993 90.086 33.5561 90.2049 33.7583C90.3285 33.9555 90.3951 34.1881 90.4046 34.456V35.4116C90.3903 35.6745 90.3214 35.9071 90.1977 36.1093C90.0789 36.3065 89.9172 36.4607 89.7128 36.572C89.5083 36.6832 89.2754 36.7388 89.0139 36.7388ZM89.1422 36.0942C89.3514 36.0942 89.5345 36.0461 89.6914 35.9501C89.853 35.854 89.9767 35.72 90.0622 35.5481C90.1478 35.3712 90.1906 35.1664 90.1906 34.9338C90.1906 34.7012 90.1454 34.499 90.0551 34.3271C89.9695 34.1501 89.8483 34.0136 89.6914 33.9176C89.5345 33.8164 89.349 33.7659 89.1351 33.7659C88.9211 33.7659 88.7333 33.8164 88.5717 33.9176C88.41 34.0136 88.2817 34.1501 88.1866 34.3271C88.0962 34.499 88.0511 34.6987 88.0511 34.9262C88.0511 35.1538 88.0962 35.356 88.1866 35.533C88.2817 35.7099 88.41 35.8489 88.5717 35.9501C88.7381 36.0461 88.9283 36.0942 89.1422 36.0942Z" fill="#1C1D1D"/>
<path d="M92.7708 36.7995L94.7963 31.5362H95.2812L97.2995 36.7995H96.5721L94.9104 32.3477H95.16L93.484 36.7995H92.7708ZM93.7336 35.6088V34.9869H96.3367V35.6088H93.7336Z" fill="#1C1D1D"/>
<path d="M99.2231 36.8753C98.9473 36.8753 98.6977 36.8096 98.4742 36.6781C98.2555 36.5416 98.0843 36.3545 97.9607 36.1169C97.8371 35.8793 97.7753 35.6037 97.7753 35.2903V33.1971H98.4172V35.2599C98.4172 35.4571 98.4481 35.629 98.5099 35.7756C98.5764 35.9172 98.6715 36.0259 98.7951 36.1017C98.9188 36.1776 99.0638 36.2155 99.2302 36.2155C99.4822 36.2155 99.6795 36.1321 99.8221 35.9652C99.9648 35.7933 100.036 35.5582 100.036 35.2599V33.1971H100.678V35.2903C100.678 35.6037 100.616 35.8793 100.493 36.1169C100.369 36.3545 100.198 36.5416 99.979 36.6781C99.7651 36.8096 99.5131 36.8753 99.2231 36.8753Z" fill="#1C1D1D"/>
<path d="M102.059 36.7995V31.6879H102.701V36.7995H102.059ZM101.224 33.819V33.1971H103.535V33.819H101.224Z" fill="#1C1D1D"/>
<path d="M105.607 36.8753C105.274 36.8753 104.975 36.7919 104.708 36.625C104.442 36.4582 104.231 36.2332 104.074 35.9501C103.917 35.6619 103.838 35.3408 103.838 34.9869C103.838 34.638 103.917 34.3246 104.074 34.0465C104.231 33.7634 104.442 33.5384 104.708 33.3715C104.975 33.2047 105.274 33.1212 105.607 33.1212C105.935 33.1212 106.232 33.2047 106.499 33.3715C106.77 33.5333 106.983 33.7558 107.14 34.0389C107.297 34.322 107.376 34.638 107.376 34.9869C107.376 35.3408 107.297 35.6619 107.14 35.9501C106.983 36.2332 106.77 36.4582 106.499 36.625C106.232 36.7919 105.935 36.8753 105.607 36.8753ZM105.607 36.2155C105.821 36.2155 106.011 36.1624 106.178 36.0562C106.344 35.9501 106.475 35.806 106.57 35.624C106.665 35.4369 106.712 35.2245 106.712 34.9869C106.712 34.7543 106.663 34.547 106.563 34.365C106.468 34.183 106.337 34.0414 106.17 33.9403C106.009 33.8341 105.821 33.7811 105.607 33.7811C105.393 33.7811 105.203 33.8341 105.036 33.9403C104.87 34.0414 104.739 34.183 104.644 34.365C104.549 34.547 104.502 34.7543 104.502 34.9869C104.502 35.2245 104.549 35.4369 104.644 35.624C104.739 35.806 104.87 35.9501 105.036 36.0562C105.203 36.1624 105.393 36.2155 105.607 36.2155Z" fill="#1C1D1D"/>
<path d="M109.882 36.8753C109.625 36.8753 109.392 36.8197 109.183 36.7085C108.979 36.5922 108.814 36.4329 108.691 36.2307C108.567 36.0284 108.498 35.7984 108.484 35.5405V34.456C108.498 34.1931 108.567 33.9631 108.691 33.7659C108.819 33.5636 108.986 33.4069 109.19 33.2957C109.399 33.1794 109.63 33.1212 109.882 33.1212C110.191 33.1212 110.469 33.2047 110.716 33.3715C110.968 33.5384 111.166 33.7634 111.308 34.0465C111.451 34.3296 111.522 34.6482 111.522 35.0021C111.522 35.356 111.451 35.6745 111.308 35.9577C111.166 36.2408 110.968 36.4658 110.716 36.6326C110.469 36.7944 110.191 36.8753 109.882 36.8753ZM109.775 36.2307C109.989 36.2307 110.177 36.1776 110.338 36.0714C110.5 35.9652 110.628 35.8211 110.723 35.6391C110.819 35.4521 110.866 35.2372 110.866 34.9945C110.866 34.7569 110.819 34.5445 110.723 34.3574C110.628 34.1704 110.5 34.0263 110.338 33.9252C110.177 33.819 109.991 33.7659 109.782 33.7659C109.568 33.7659 109.38 33.819 109.219 33.9252C109.057 34.0263 108.931 34.1704 108.841 34.3574C108.75 34.5445 108.705 34.7594 108.705 35.0021C108.705 35.2397 108.748 35.4521 108.834 35.6391C108.924 35.8211 109.05 35.9652 109.212 36.0714C109.378 36.1776 109.566 36.2307 109.775 36.2307ZM108.099 38.3087V33.1971H108.741V34.1451L108.62 35.0172L108.741 35.897V38.3087H108.099Z" fill="#1C1D1D"/>
<path d="M112.257 36.7995V33.1971H112.899V36.7995H112.257ZM112.578 32.4766C112.459 32.4766 112.362 32.4362 112.286 32.3553C112.209 32.2693 112.171 32.1631 112.171 32.0367C112.171 31.9154 112.209 31.8143 112.286 31.7334C112.362 31.6474 112.459 31.6045 112.578 31.6045C112.697 31.6045 112.794 31.6474 112.87 31.7334C112.946 31.8143 112.984 31.9154 112.984 32.0367C112.984 32.1631 112.946 32.2693 112.87 32.3553C112.794 32.4362 112.697 32.4766 112.578 32.4766Z" fill="#1C1D1D"/>
<path d="M113.845 36.7995V31.3845H114.487V36.7995H113.845Z" fill="#1C1D1D"/>
<path d="M116.973 36.8753C116.641 36.8753 116.341 36.7919 116.075 36.625C115.809 36.4582 115.597 36.2332 115.44 35.9501C115.283 35.6619 115.205 35.3408 115.205 34.9869C115.205 34.638 115.283 34.3246 115.44 34.0465C115.597 33.7634 115.809 33.5384 116.075 33.3715C116.341 33.2047 116.641 33.1212 116.973 33.1212C117.301 33.1212 117.599 33.2047 117.865 33.3715C118.136 33.5333 118.35 33.7558 118.507 34.0389C118.664 34.322 118.742 34.638 118.742 34.9869C118.742 35.3408 118.664 35.6619 118.507 35.9501C118.35 36.2332 118.136 36.4582 117.865 36.625C117.599 36.7919 117.301 36.8753 116.973 36.8753ZM116.973 36.2155C117.187 36.2155 117.378 36.1624 117.544 36.0562C117.71 35.9501 117.841 35.806 117.936 35.624C118.031 35.4369 118.079 35.2245 118.079 34.9869C118.079 34.7543 118.029 34.547 117.929 34.365C117.834 34.183 117.703 34.0414 117.537 33.9403C117.375 33.8341 117.187 33.7811 116.973 33.7811C116.759 33.7811 116.569 33.8341 116.403 33.9403C116.236 34.0414 116.106 34.183 116.011 34.365C115.915 34.547 115.868 34.7543 115.868 34.9869C115.868 35.2245 115.915 35.4369 116.011 35.624C116.106 35.806 116.236 35.9501 116.403 36.0562C116.569 36.1624 116.759 36.2155 116.973 36.2155Z" fill="#1C1D1D"/>
<path d="M119.881 36.7995V31.6879H120.523V36.7995H119.881ZM119.047 33.819V33.1971H121.358V33.819H119.047Z" fill="#1C1D1D"/>
<path d="M123.018 36.7995L125.044 31.5362H125.529L127.547 36.7995H126.82L125.158 32.3477H125.408L123.732 36.7995H123.018ZM123.981 35.6088V34.9869H126.584V35.6088H123.981Z" fill="#1C1D1D"/>
<path d="M129.471 36.8753C129.195 36.8753 128.945 36.8096 128.722 36.6781C128.503 36.5416 128.332 36.3545 128.208 36.1169C128.085 35.8793 128.023 35.6037 128.023 35.2903V33.1971H128.665V35.2599C128.665 35.4571 128.696 35.629 128.757 35.7756C128.824 35.9172 128.919 36.0259 129.043 36.1017C129.166 36.1776 129.311 36.2155 129.478 36.2155C129.73 36.2155 129.927 36.1321 130.07 35.9652C130.212 35.7933 130.284 35.5582 130.284 35.2599V33.1971H130.925V35.2903C130.925 35.6037 130.864 35.8793 130.74 36.1169C130.616 36.3545 130.445 36.5416 130.227 36.6781C130.013 36.8096 129.761 36.8753 129.471 36.8753Z" fill="#1C1D1D"/>
<path d="M132.306 36.7995V31.6879H132.948V36.7995H132.306ZM131.472 33.819V33.1971H133.783V33.819H131.472Z" fill="#1C1D1D"/>
<path d="M135.855 36.8753C135.522 36.8753 135.222 36.7919 134.956 36.625C134.69 36.4582 134.478 36.2332 134.321 35.9501C134.164 35.6619 134.086 35.3408 134.086 34.9869C134.086 34.638 134.164 34.3246 134.321 34.0465C134.478 33.7634 134.69 33.5384 134.956 33.3715C135.222 33.2047 135.522 33.1212 135.855 33.1212C136.183 33.1212 136.48 33.2047 136.746 33.3715C137.017 33.5333 137.231 33.7558 137.388 34.0389C137.545 34.322 137.623 34.638 137.623 34.9869C137.623 35.3408 137.545 35.6619 137.388 35.9501C137.231 36.2332 137.017 36.4582 136.746 36.625C136.48 36.7919 136.183 36.8753 135.855 36.8753ZM135.855 36.2155C136.069 36.2155 136.259 36.1624 136.425 36.0562C136.592 35.9501 136.722 35.806 136.817 35.624C136.912 35.4369 136.96 35.2245 136.96 34.9869C136.96 34.7543 136.91 34.547 136.81 34.365C136.715 34.183 136.584 34.0414 136.418 33.9403C136.256 33.8341 136.069 33.7811 135.855 33.7811C135.641 33.7811 135.45 33.8341 135.284 33.9403C135.118 34.0414 134.987 34.183 134.892 34.365C134.797 34.547 134.749 34.7543 134.749 34.9869C134.749 35.2245 134.797 35.4369 134.892 35.624C134.987 35.806 135.118 35.9501 135.284 36.0562C135.45 36.1624 135.641 36.2155 135.855 36.2155Z" fill="#1C1D1D"/>
<path d="M138.346 36.7995V33.1971H138.988V36.7995H138.346ZM140.636 36.7995V34.6229C140.636 34.3549 140.557 34.1451 140.4 33.9934C140.248 33.8367 140.056 33.7583 139.823 33.7583C139.666 33.7583 139.526 33.7937 139.402 33.8645C139.278 33.9353 139.179 34.0339 139.102 34.1603C139.026 34.2867 138.988 34.4383 138.988 34.6153L138.724 34.4788C138.724 34.2058 138.779 33.9681 138.889 33.7659C139.003 33.5636 139.157 33.4069 139.352 33.2957C139.547 33.1794 139.766 33.1212 140.008 33.1212C140.246 33.1212 140.46 33.1769 140.65 33.2881C140.845 33.3993 140.997 33.5561 141.107 33.7583C141.221 33.9605 141.278 34.2007 141.278 34.4788V36.7995H140.636ZM142.925 36.7995V34.6229C142.925 34.3549 142.847 34.1451 142.69 33.9934C142.538 33.8367 142.347 33.7583 142.119 33.7583C141.962 33.7583 141.82 33.7937 141.691 33.8645C141.568 33.9353 141.468 34.0339 141.392 34.1603C141.316 34.2867 141.278 34.4383 141.278 34.6153L140.914 34.4788C140.928 34.2007 140.997 33.9631 141.121 33.7659C141.249 33.5636 141.413 33.4069 141.613 33.2957C141.813 33.1794 142.031 33.1212 142.269 33.1212C142.516 33.1212 142.737 33.1769 142.932 33.2881C143.127 33.3993 143.282 33.5561 143.396 33.7583C143.515 33.9605 143.574 34.2032 143.574 34.4864V36.7995H142.925Z" fill="#1C1D1D"/>
<path d="M145.888 36.8753C145.579 36.8753 145.299 36.7944 145.047 36.6326C144.795 36.4658 144.595 36.2408 144.448 35.9577C144.305 35.6745 144.234 35.356 144.234 35.0021C144.234 34.6482 144.305 34.3296 144.448 34.0465C144.595 33.7634 144.792 33.5384 145.039 33.3715C145.291 33.2047 145.574 33.1212 145.888 33.1212C146.145 33.1212 146.373 33.1794 146.573 33.2957C146.777 33.4069 146.941 33.5636 147.065 33.7659C147.189 33.9631 147.257 34.1931 147.272 34.456V35.5405C147.257 35.7984 147.189 36.0284 147.065 36.2307C146.946 36.4329 146.784 36.5922 146.58 36.7085C146.38 36.8197 146.15 36.8753 145.888 36.8753ZM145.995 36.2307C146.314 36.2307 146.57 36.1169 146.765 35.8894C146.96 35.6568 147.058 35.361 147.058 35.0021C147.058 34.7543 147.013 34.5395 146.922 34.3574C146.837 34.1704 146.713 34.0263 146.551 33.9252C146.39 33.819 146.202 33.7659 145.988 33.7659C145.774 33.7659 145.584 33.819 145.417 33.9252C145.256 34.0313 145.127 34.1779 145.032 34.365C144.942 34.547 144.897 34.7569 144.897 34.9945C144.897 35.2372 144.942 35.4521 145.032 35.6391C145.127 35.8211 145.258 35.9652 145.425 36.0714C145.591 36.1776 145.781 36.2307 145.995 36.2307ZM147.015 36.7995V35.8287L147.136 34.949L147.015 34.0768V33.1971H147.664V36.7995H147.015Z" fill="#1C1D1D"/>
<path d="M149.105 36.7995V31.6879H149.747V36.7995H149.105ZM148.271 33.819V33.1971H150.581V33.819H148.271Z" fill="#1C1D1D"/>
<path d="M151.217 36.7995V33.1971H151.859V36.7995H151.217ZM151.538 32.4766C151.419 32.4766 151.322 32.4362 151.246 32.3553C151.17 32.2693 151.132 32.1631 151.132 32.0367C151.132 31.9154 151.17 31.8143 151.246 31.7334C151.322 31.6474 151.419 31.6045 151.538 31.6045C151.657 31.6045 151.755 31.6474 151.831 31.7334C151.907 31.8143 151.945 31.9154 151.945 32.0367C151.945 32.1631 151.907 32.2693 151.831 32.3553C151.755 32.4362 151.657 32.4766 151.538 32.4766Z" fill="#1C1D1D"/>
<path d="M154.353 36.8753C154.02 36.8753 153.72 36.7919 153.454 36.625C153.188 36.4582 152.976 36.2332 152.819 35.9501C152.663 35.6619 152.584 35.3408 152.584 34.9869C152.584 34.638 152.663 34.3246 152.819 34.0465C152.976 33.7634 153.188 33.5384 153.454 33.3715C153.72 33.2047 154.02 33.1212 154.353 33.1212C154.681 33.1212 154.978 33.2047 155.244 33.3715C155.515 33.5333 155.729 33.7558 155.886 34.0389C156.043 34.322 156.121 34.638 156.121 34.9869C156.121 35.3408 156.043 35.6619 155.886 35.9501C155.729 36.2332 155.515 36.4582 155.244 36.625C154.978 36.7919 154.681 36.8753 154.353 36.8753ZM154.353 36.2155C154.567 36.2155 154.757 36.1624 154.923 36.0562C155.09 35.9501 155.22 35.806 155.316 35.624C155.411 35.4369 155.458 35.2245 155.458 34.9869C155.458 34.7543 155.408 34.547 155.308 34.365C155.213 34.183 155.083 34.0414 154.916 33.9403C154.755 33.8341 154.567 33.7811 154.353 33.7811C154.139 33.7811 153.949 33.8341 153.782 33.9403C153.616 34.0414 153.485 34.183 153.39 34.365C153.295 34.547 153.247 34.7543 153.247 34.9869C153.247 35.2245 153.295 35.4369 153.39 35.624C153.485 35.806 153.616 35.9501 153.782 36.0562C153.949 36.1624 154.139 36.2155 154.353 36.2155Z" fill="#1C1D1D"/>
<path d="M159.241 36.7995V34.6987C159.241 34.4257 159.16 34.2007 158.998 34.0237C158.837 33.8468 158.628 33.7583 158.371 33.7583C158.2 33.7583 158.048 33.7988 157.914 33.8796C157.781 33.9605 157.677 34.0718 157.601 34.2133C157.525 34.3549 157.487 34.5167 157.487 34.6987L157.223 34.5395C157.223 34.2664 157.28 34.0237 157.394 33.8114C157.508 33.599 157.667 33.4322 157.872 33.3108C158.076 33.1844 158.307 33.1212 158.563 33.1212C158.82 33.1212 159.046 33.1895 159.241 33.326C159.441 33.4625 159.598 33.642 159.712 33.8645C159.826 34.0819 159.883 34.3145 159.883 34.5622V36.7995H159.241ZM156.845 36.7995V33.1971H157.487V36.7995H156.845Z" fill="#1C1D1D"/>
<defs>
<linearGradient id="paint0_linear_448_3712" x1="42.5243" y1="0.125142" x2="12.7102" y2="31.0923" gradientUnits="userSpaceOnUse">
<stop stop-color="#FBCB24"/>
<stop offset="0.5168" stop-color="#E939D9"/>
<stop offset="1" stop-color="#2ABAE9"/>
</linearGradient>
<linearGradient id="paint1_linear_448_3712" x1="30.1143" y1="12.1705" x2="15.3212" y2="27.5351" gradientUnits="userSpaceOnUse">
<stop stop-color="#FBCB24"/>
<stop offset="0.5168" stop-color="#E939D9"/>
<stop offset="1" stop-color="#2ABAE9"/>
</linearGradient>
<linearGradient id="paint2_linear_448_3712" x1="18.2513" y1="11.8186" x2="3.45715" y2="27.1834" gradientUnits="userSpaceOnUse">
<stop stop-color="#FBCB24"/>
<stop offset="0.5168" stop-color="#E939D9"/>
<stop offset="1" stop-color="#2ABAE9"/>
</linearGradient>
<linearGradient id="paint3_linear_448_3712" x1="29.8722" y1="23.5298" x2="15.079" y2="38.8944" gradientUnits="userSpaceOnUse">
<stop stop-color="#FBCB24"/>
<stop offset="0.5168" stop-color="#E939D9"/>
<stop offset="1" stop-color="#2ABAE9"/>
</linearGradient>
</defs>
</svg>
