<svg width="366" height="475" viewBox="0 0 366 475" fill="none" xmlns="http://www.w3.org/2000/svg">
<path d="M354.916 237.872L354.814 237.775C351.434 240.756 346.21 241.924 339.71 241.153C333.672 240.367 327.368 238.29 321.097 235.021C314.643 231.661 308.411 227.421 302.384 223.322C297.215 219.805 291.869 216.168 286.396 213.094C255.437 195.704 219.231 197.929 203.97 218.16C203.258 219.104 202.565 220.107 201.894 221.077C199.267 224.881 196.55 228.814 191.86 230.445C187.566 231.938 182.002 231.324 175.771 228.669C170.175 226.264 164.634 222.577 159.533 217.864C154.407 213.089 149.914 207.689 145.57 202.467C141.887 198.042 138.08 193.466 133.895 189.278C127.229 182.606 119.249 176.681 110.82 172.143C102.201 167.538 93.5174 164.459 85.1313 163.034C76.6079 161.617 68.4972 161.848 61.1162 163.719C53.7788 165.588 47.4182 169.09 42.7217 173.845L42.8272 173.94C47.5139 169.194 53.8617 165.699 61.1844 163.833C68.5506 161.967 76.6449 161.736 85.1509 163.15C93.5202 164.572 102.186 167.645 110.788 172.241C119.201 176.77 127.164 182.683 133.817 189.341C137.995 193.522 141.8 198.095 145.479 202.518C149.828 207.744 154.325 213.148 159.46 217.932C164.579 222.662 170.139 226.362 175.755 228.774C182.019 231.443 187.615 232.06 191.936 230.557C196.65 228.918 199.373 224.975 202.007 221.162C202.677 220.193 203.37 219.19 204.082 218.247C219.315 198.052 255.457 195.831 286.361 213.19C291.827 216.26 297.169 219.894 302.335 223.409C308.367 227.512 314.603 231.755 321.068 235.12C327.357 238.399 333.68 240.482 339.737 241.27C346.268 242.045 351.517 240.87 354.916 237.872Z" fill="url(#paint0_linear_576_7274)" fill-opacity="0.1"/>
<path d="M354.797 237.008L354.659 236.862C351.306 239.288 346.062 240.078 339.495 239.146C333.427 238.217 327.15 236.231 320.869 233.251C320.099 232.887 319.299 232.498 318.491 232.093C313.197 229.441 308.154 226.36 303.277 223.379C298.143 220.243 292.834 216.999 287.382 214.368C279.085 210.363 270.166 208.051 262.535 206.317C252.854 204.117 245.259 203.055 238.635 202.975C228.592 202.856 219.576 204.844 212.564 208.723C209.616 210.312 206.935 212.316 204.56 214.708C203.328 215.965 202.196 217.368 200.997 218.852C199.916 220.192 198.798 221.577 197.608 222.833C196.007 224.61 194.105 226.015 191.95 227.01C187.948 228.753 183.055 228.709 177.406 226.879C172.121 225.154 166.775 222.133 161.759 218.037C157.033 214.132 152.847 209.649 148.798 205.314C145.234 201.497 141.548 197.549 137.462 193.951C131.193 188.432 123.695 183.595 115.779 179.964C107.033 176.006 98.3269 173.539 89.98 172.651C81.4451 171.77 73.3329 172.348 65.8832 174.369C58.42 176.387 51.7645 179.838 46.6366 184.351L46.7828 184.491C51.8982 179.99 58.5376 176.546 65.983 174.533C73.4143 172.517 81.5065 171.941 90.0203 172.82C98.3444 173.705 107.027 176.166 115.748 180.113C123.64 183.733 131.114 188.554 137.363 194.055C141.438 197.644 145.119 201.586 148.68 205.398C152.734 209.74 156.927 214.23 161.667 218.146C166.712 222.265 172.088 225.303 177.403 227.039C183.017 228.856 188.088 228.901 192.068 227.168C194.236 226.167 196.15 224.755 197.76 222.967C198.953 221.708 200.073 220.321 201.155 218.98C202.352 217.497 203.482 216.097 204.711 214.843C207.08 212.459 209.752 210.46 212.691 208.876C219.684 205.008 228.676 203.025 238.693 203.144C245.304 203.225 252.885 204.285 262.552 206.482C270.17 208.212 279.073 210.52 287.347 214.514C292.787 217.14 298.09 220.379 303.218 223.513C308.1 226.495 313.148 229.579 318.452 232.237C319.262 232.643 320.064 233.033 320.835 233.398C327.14 236.388 333.439 238.382 339.529 239.314C346.137 240.252 351.417 239.455 354.797 237.008Z" fill="url(#paint1_linear_576_7274)" fill-opacity="0.1"/>
<path d="M354.672 236.15L354.504 235.951C347.115 240.126 332.163 236.38 320.635 231.483C319.872 231.159 319.079 230.814 318.277 230.459C313.355 228.271 308.771 225.815 304.338 223.439C298.939 220.546 293.84 217.813 288.36 215.643C282.523 213.331 276.143 211.947 269.389 210.482C267.529 210.079 265.607 209.662 263.677 209.221C262.107 208.862 260.553 208.502 259.016 208.14C252.099 206.523 245.566 204.996 239.545 204.33C229.672 203.242 220.685 204.079 213.556 206.751C210.495 207.819 207.678 209.33 205.15 211.257C203.237 212.745 201.432 214.775 199.686 216.739C199.001 217.509 198.293 218.306 197.585 219.063C195.594 221.191 193.882 222.584 192.036 223.578C188.225 225.598 183.538 226.043 178.485 224.864C173.688 223.78 168.739 221.509 163.976 218.208C159.626 215.139 155.729 211.534 151.961 208.048C148.532 204.876 144.986 201.597 141.019 198.622C134.977 194.096 127.746 190.232 120.108 187.449C111.92 184.455 103.176 182.665 94.8229 182.272C78.1131 181.501 61.9765 186.088 50.5506 194.858L50.7341 195.047C62.1308 186.299 78.2255 181.724 94.8908 182.493C103.217 182.884 111.932 184.668 120.093 187.652C127.7 190.425 134.899 194.271 140.913 198.776C144.865 201.739 148.403 205.012 151.825 208.177C155.602 211.671 159.508 215.284 163.879 218.368C168.681 221.697 173.671 223.985 178.508 225.078C183.614 226.27 188.35 225.821 192.2 223.779C194.061 222.777 195.783 221.376 197.785 219.237C198.494 218.478 199.203 217.682 199.888 216.911C201.63 214.952 203.431 212.925 205.334 211.445C207.85 209.527 210.654 208.024 213.701 206.96C220.803 204.298 229.758 203.465 239.598 204.549C245.602 205.214 252.128 206.739 259.036 208.354C260.573 208.713 262.128 209.074 263.7 209.435C265.631 209.877 267.554 210.294 269.413 210.697C276.156 212.16 282.524 213.541 288.337 215.843C293.798 218.006 298.889 220.735 304.279 223.623C308.718 226.002 313.307 228.461 318.241 230.654C319.044 231.01 319.839 231.355 320.603 231.68C332.188 236.601 347.222 240.36 354.672 236.15Z" fill="url(#paint2_linear_576_7274)" fill-opacity="0.1"/>
<path d="M354.541 235.293L354.356 235.036C345.528 238.623 326.132 231.868 320.397 229.713C319.609 229.416 318.83 229.119 318.06 228.823C313.642 227.115 309.598 225.276 305.688 223.496C300.15 220.977 294.919 218.597 289.331 216.915C285.333 215.711 280.972 215.007 276.355 214.261C272.661 213.665 268.841 213.048 264.82 212.124C260.497 211.131 256.352 209.947 252.344 208.802C248.154 207.604 244.197 206.474 240.464 205.686C230.825 203.658 221.866 203.344 214.557 204.776C211.807 205.316 208.861 205.993 205.745 207.804C202.993 209.402 200.482 212.126 198.055 214.759L197.563 215.292C195.939 217.151 194.118 218.775 192.12 220.148C188.636 222.43 184.319 223.357 179.557 222.846C175.236 222.384 170.685 220.862 166.183 218.372C162.156 216.103 158.671 213.447 154.981 210.633C151.729 208.155 148.367 205.592 144.566 203.287C138.747 199.764 131.784 196.875 124.431 194.932C116.457 192.81 107.893 191.758 99.6634 191.892C83.2719 192.178 66.7986 197.087 54.4671 205.363L54.6844 205.602C66.9856 197.347 83.4167 192.449 99.765 192.165C107.966 192.031 116.501 193.079 124.446 195.193C131.763 197.127 138.688 200 144.473 203.501C148.252 205.794 151.605 208.349 154.847 210.82C158.55 213.644 162.047 216.31 166.101 218.594C170.653 221.111 175.254 222.65 179.622 223.117C184.441 223.635 188.809 222.697 192.335 220.388C194.345 219.008 196.176 217.375 197.81 215.506L198.302 214.973C200.721 212.348 203.223 209.634 205.953 208.049C209.044 206.253 211.97 205.58 214.703 205.045C221.978 203.619 230.897 203.933 240.496 205.952C244.217 206.737 248.168 207.866 252.352 209.061C256.365 210.207 260.514 211.393 264.846 212.388C268.878 213.314 272.704 213.932 276.403 214.53C281.008 215.273 285.358 215.976 289.334 217.173C294.896 218.848 300.115 221.222 305.64 223.736C309.556 225.517 313.605 227.359 318.035 229.071C318.805 229.368 319.586 229.665 320.376 229.963C326.137 232.128 345.629 238.914 354.541 235.293Z" fill="url(#paint3_linear_576_7274)" fill-opacity="0.1"/>
<path d="M354.411 234.437L354.225 234.121C348.513 235.533 337.055 233.455 320.166 227.942L317.848 227.185C314.173 225.983 310.83 224.75 307.597 223.557C301.709 221.385 296.148 219.334 290.303 218.186C287.357 217.608 284.167 217.34 280.788 217.056C276.349 216.684 271.317 216.262 265.972 215.027C260.07 213.664 254.63 211.701 249.369 209.802C246.572 208.792 243.931 207.839 241.397 207.045C231.989 204.107 223.061 202.64 215.578 202.803C212.846 202.863 209.749 202.931 206.355 204.349C203.151 205.686 200.23 208.586 197.549 211.521C195.89 213.339 194.173 215.219 192.211 216.719C189.017 219.241 185.065 220.644 180.627 220.831C176.759 220.956 172.608 220.176 168.383 218.532C164.632 217.034 161.34 215.132 157.855 213.118C154.627 211.187 151.372 209.46 148.11 207.947C142.508 205.441 135.816 203.528 128.755 202.414C120.397 201.148 112.277 200.846 104.509 201.513C88.4865 202.831 71.6778 208.063 58.3932 215.867L58.6414 216.159C71.8966 208.371 88.6662 203.151 104.651 201.836C112.392 201.171 120.484 201.472 128.814 202.734C135.838 203.842 142.491 205.743 148.055 208.232C151.302 209.738 154.541 211.457 157.753 213.379C161.255 215.402 164.563 217.314 168.347 218.825C172.628 220.491 176.834 221.281 180.753 221.154C185.245 220.967 189.246 219.548 192.48 216.996C194.456 215.485 196.178 213.599 197.844 211.775C200.509 208.856 203.411 205.974 206.576 204.653C209.925 203.254 212.994 203.187 215.701 203.128C223.144 202.965 232.029 204.425 241.396 207.35C243.92 208.141 246.557 209.093 249.348 210.101C254.622 212.004 260.075 213.972 266.003 215.341C271.376 216.582 276.423 217.006 280.875 217.379C284.242 217.662 287.423 217.929 290.347 218.503C296.158 219.644 301.703 221.689 307.573 223.855C310.81 225.049 314.157 226.284 317.841 227.488L320.159 228.245C337.117 233.781 348.641 235.864 354.411 234.437Z" fill="url(#paint4_linear_576_7274)" fill-opacity="0.1"/>
<path d="M354.266 233.58L354.1 233.206C347.388 233.798 333.661 229.984 322.632 226.921L319.927 226.171C319.148 225.956 318.381 225.748 317.627 225.547C315.187 224.898 312.923 224.261 310.732 223.645C303.729 221.675 297.681 219.974 291.263 219.459C289.046 219.281 286.668 219.301 284.152 219.322C279.155 219.363 273.492 219.409 267.119 217.931C260.098 216.301 253.58 213.386 247.829 210.814C245.91 209.956 244.096 209.145 242.333 208.409C233.2 204.607 224.306 201.988 216.61 200.836L216.423 200.808C213.493 200.368 210.463 199.914 206.965 200.895C204.047 201.71 200.961 203.953 197.531 207.752C197.18 208.14 196.833 208.528 196.49 208.914C195.085 210.49 193.758 211.979 192.296 213.292C189.07 216.193 185.5 218.052 181.686 218.819C178.24 219.518 174.484 219.475 170.56 218.691C166.977 217.957 163.778 216.778 160.391 215.531C157.67 214.528 154.856 213.492 151.633 212.606C146.234 211.132 139.815 210.196 133.069 209.899C124.905 209.572 116.977 209.985 109.348 211.135C93.8028 213.443 76.6605 218.996 62.3171 226.372L62.5925 226.715C76.9104 219.353 94.0198 213.81 109.534 211.507C117.14 210.36 125.045 209.948 133.185 210.274C139.899 210.57 146.284 211.5 151.649 212.964C154.85 213.845 157.653 214.878 160.364 215.876C163.77 217.131 166.987 218.316 170.608 219.058C174.586 219.853 178.394 219.897 181.888 219.188C185.751 218.411 189.363 216.532 192.622 213.602C194.093 212.279 195.424 210.786 196.834 209.206C197.177 208.821 197.524 208.434 197.874 208.045C201.273 204.28 204.32 202.061 207.189 201.258C210.618 200.298 213.605 200.746 216.494 201.179L216.681 201.206C224.338 202.354 233.191 204.96 242.285 208.746C244.04 209.479 245.85 210.288 247.767 211.145C253.54 213.727 260.084 216.654 267.154 218.294C273.58 219.785 279.269 219.738 284.288 219.697C286.796 219.676 289.165 219.657 291.365 219.834C297.739 220.345 303.766 222.041 310.745 224.003C312.937 224.62 315.203 225.257 317.647 225.907C318.399 226.107 319.164 226.314 319.942 226.53L322.645 227.279C333.71 230.353 347.481 234.178 354.266 233.58Z" fill="url(#paint5_linear_576_7274)" fill-opacity="0.1"/>
<path d="M353.984 232.293C349.267 231.958 341.244 229.87 332.751 227.659C328.313 226.504 323.724 225.31 319.681 224.398C318.906 224.223 318.145 224.06 317.399 223.909L317.335 223.896C306.878 221.763 299.97 220.354 292.212 220.734C290.566 220.814 288.824 221.013 286.981 221.224C281.619 221.836 275.542 222.529 268.263 220.833C260.342 218.987 253.25 215.152 246.994 211.769C245.699 211.068 244.476 210.407 243.272 209.777C234.738 205.296 226.161 201.646 217.65 198.875L217.265 198.752C214.324 197.811 211.283 196.837 207.577 197.44C203.495 198.102 199.849 201.363 197.51 203.981C196.763 204.817 196.044 205.667 195.348 206.488C194.339 207.681 193.385 208.808 192.377 209.867C189.235 213.167 186.081 215.439 182.735 216.814C179.67 218.069 176.303 218.755 172.717 218.856C169.062 218.962 165.715 218.524 162.172 218.061C159.978 217.774 157.71 217.478 155.138 217.267C149.071 216.854 143.138 216.893 137.373 217.385C129.435 218 121.695 219.125 114.182 220.757C99.1775 223.998 82.1508 229.721 66.2391 236.875L66.5383 237.272C82.4308 230.128 99.4341 224.412 114.417 221.176C121.913 219.548 129.636 218.425 137.557 217.81C143.3 217.321 149.21 217.282 155.253 217.693C157.813 217.902 160.075 218.198 162.263 218.484C165.825 218.95 169.19 219.39 172.882 219.283C176.512 219.181 179.922 218.486 183.025 217.215C186.408 215.826 189.593 213.533 192.762 210.205C193.775 209.14 194.731 208.011 195.743 206.816C196.437 205.995 197.156 205.147 197.9 204.313C200.21 201.728 203.802 198.509 207.793 197.862C211.395 197.277 214.376 198.231 217.259 199.154L217.645 199.277C226.121 202.037 234.664 205.672 243.164 210.136C244.363 210.763 245.584 211.424 246.877 212.122C253.17 215.525 260.302 219.382 268.302 221.247C275.665 222.962 281.782 222.264 287.179 221.648C289.017 221.438 290.752 221.24 292.385 221.161C300.086 220.784 306.97 222.188 317.389 224.313L317.453 224.326C318.196 224.476 318.953 224.638 319.724 224.813C323.758 225.723 328.342 226.915 332.776 228.069C341.294 230.287 349.34 232.381 354.104 232.72L353.984 232.293Z" fill="url(#paint6_linear_576_7274)" fill-opacity="0.1"/>
<path d="M353.884 231.389C351.311 230.795 347.721 229.785 343.564 228.616C336.115 226.522 326.845 223.915 319.433 222.627C318.649 222.49 317.887 222.37 317.167 222.271C306.445 220.768 299.938 220.698 293.157 222.012C292.004 222.236 290.803 222.52 289.531 222.82C284.197 224.078 277.558 225.644 269.408 223.736C260.71 221.7 253.197 216.892 246.569 212.65C245.768 212.137 244.983 211.635 244.216 211.15C235.782 205.837 227.258 201.085 218.701 196.926L218.278 196.719C215.276 195.257 212.172 193.744 208.194 193.987C203.413 194.277 199.435 198.011 197.489 200.211C196.33 201.522 195.273 202.874 194.252 204.182C193.65 204.953 193.057 205.712 192.458 206.444C189.37 210.215 186.532 212.954 183.782 214.816C181.064 216.636 178.078 218.049 174.867 219.035C170.491 220.416 166.613 220.912 161.703 221.539C160.726 221.664 159.707 221.794 158.635 221.937C153.175 222.684 147.469 223.672 141.675 224.874C134.108 226.415 126.484 228.268 119.015 230.381C105.49 234.234 89.5111 239.794 70.1638 247.378L70.4838 247.83C89.8206 240.25 105.789 234.694 119.302 230.844C126.762 228.734 134.377 226.883 141.935 225.344C147.72 224.144 153.416 223.157 158.867 222.412C159.938 222.269 160.955 222.139 161.932 222.014C166.862 221.384 170.756 220.886 175.164 219.495C178.406 218.499 181.421 217.072 184.166 215.235C186.939 213.357 189.797 210.6 192.903 206.807C193.504 206.073 194.098 205.312 194.701 204.54C195.72 203.236 196.774 201.887 197.927 200.582C199.841 198.418 203.745 194.747 208.394 194.465C212.226 194.231 215.251 195.705 218.176 197.131L218.601 197.337C227.132 201.484 235.63 206.222 244.04 211.52C244.805 212.004 245.588 212.505 246.388 213.017C253.067 217.292 260.638 222.137 269.452 224.2C277.724 226.136 284.421 224.556 289.802 223.287C291.069 222.988 292.267 222.706 293.413 222.484C300.139 221.179 306.603 221.25 317.265 222.744C317.978 222.843 318.733 222.962 319.511 223.097C326.892 224.38 336.145 226.983 343.58 229.073C347.745 230.244 351.342 231.256 353.93 231.853L353.884 231.389Z" fill="url(#paint7_linear_576_7274)" fill-opacity="0.1"/>
<path d="M353.794 230.495C346.295 227.567 330.566 222.241 319.181 220.856C318.402 220.762 317.646 220.687 316.932 220.635C306.324 219.842 300.33 221.066 294.098 223.298C293.402 223.548 292.682 223.82 291.937 224.102C286.439 226.18 279.599 228.766 270.552 226.641C261.152 224.432 252.976 218.345 246.406 213.455L245.162 212.53C237.372 206.765 229.299 201.19 219.756 194.987L219.385 194.745C216.444 192.828 213.109 190.655 208.815 190.537C204.985 190.43 200.849 192.583 197.467 196.443C195.872 198.263 194.526 200.186 193.225 202.045L192.537 203.024C189.63 207.143 187.206 210.386 184.83 212.827C182.439 215.241 179.829 217.38 177.019 219.23C172.657 222.176 168.622 224.179 162.131 226.62C157.81 228.26 152.533 230.092 146.422 232.214L141.584 233.872C136.22 235.705 130.14 237.783 123.845 240.007C117.791 242.158 111.594 244.424 105.034 246.822C94.7978 250.565 84.2137 254.435 74.0886 257.882L74.4267 258.389C84.5557 254.94 95.1422 251.07 105.38 247.327C111.939 244.928 118.135 242.663 124.187 240.512C130.481 238.289 136.559 236.211 141.922 234.379L146.762 232.72C152.875 230.597 158.155 228.764 162.481 227.123C169.001 224.67 173.056 222.657 177.443 219.694C180.272 217.833 182.898 215.679 185.305 213.248C187.696 210.794 190.128 207.539 193.044 203.408L193.732 202.427C195.029 200.575 196.369 198.66 197.954 196.853C201.265 193.072 205.287 190.964 208.989 191.068C213.09 191.18 216.186 193.197 219.179 195.148L219.55 195.389C229.078 201.583 237.137 207.148 244.911 212.902L246.154 213.826C252.787 218.763 261.041 224.908 270.6 227.154C279.816 229.32 286.73 226.705 292.287 224.605C293.03 224.323 293.748 224.052 294.442 223.803C300.619 221.59 306.561 220.377 317.079 221.164C317.783 221.215 318.531 221.289 319.3 221.382C330.618 222.759 346.275 228.061 353.742 230.978L353.794 230.495Z" fill="url(#paint8_linear_576_7274)" fill-opacity="0.1"/>
<path d="M353.717 229.61C346.636 225.712 330.608 219.885 318.931 219.084C318.163 219.031 317.411 219.002 316.697 218.997C306.291 218.917 300.516 221.595 295.042 224.586L294.279 225.005C288.981 227.918 281.725 231.907 271.7 229.542C261.64 227.169 253.2 219.962 246.418 214.17L246.114 213.911C237.97 206.969 230.27 200.723 223.477 195.212L220.543 192.83C217.513 190.367 214.079 187.575 209.445 187.087C205.346 186.652 200.862 188.74 197.45 192.671C195.673 194.802 194.06 197.117 192.62 199.603C191.549 201.362 190.587 203.016 189.656 204.615C188.339 206.878 187.095 209.017 185.884 210.841C183.599 214.284 181.214 217.115 179.184 219.431C175.22 224.09 170.682 228.068 165.635 231.309C161.704 233.88 156.68 236.679 150.276 239.865C144.472 242.726 137.407 245.921 128.679 249.632C109.206 257.951 92.6357 264.084 78.0193 268.383L78.3727 268.946C93.0054 264.641 109.591 258.502 129.079 250.177C137.814 246.463 144.886 243.266 150.697 240.401C157.116 237.207 162.153 234.401 166.095 231.822C171.17 228.564 175.732 224.565 179.717 219.881C181.756 217.557 184.149 214.715 186.446 211.254C187.662 209.421 188.909 207.279 190.229 205.011C191.159 203.413 192.12 201.761 193.189 200.005C194.619 197.536 196.221 195.237 197.985 193.119C201.311 189.287 205.648 187.248 209.585 187.665C213.981 188.128 217.159 190.712 220.233 193.211L223.168 195.593C229.956 201.1 237.651 207.342 245.786 214.277L246.089 214.535C252.949 220.393 261.487 227.684 271.752 230.106C282 232.523 289.349 228.483 294.715 225.532L295.477 225.114C300.898 222.152 306.616 219.5 316.9 219.579C317.602 219.583 318.34 219.612 319.096 219.664C330.666 220.459 346.54 226.228 353.551 230.088L353.717 229.61Z" fill="url(#paint9_linear_576_7274)" fill-opacity="0.1"/>
<path d="M353.638 228.736C346.228 223.47 330.047 217.484 318.675 217.314C317.91 217.303 317.164 217.319 316.458 217.364C306.316 217.982 301.063 221.998 295.983 225.882C291.485 229.321 283.957 235.077 272.846 232.446C262.166 229.918 253.437 221.468 247.064 215.298C242.683 211.063 238.458 207.029 234.372 203.128C229.953 198.909 225.779 194.924 221.868 191.122L221.727 190.986C218.607 187.952 215.07 184.513 210.073 183.64C205.657 182.867 200.93 184.835 197.43 188.902C195.619 191.085 194.038 193.521 192.701 196.186C191.024 199.38 189.693 202.493 188.518 205.238C187.972 206.514 187.457 207.719 186.939 208.861C185.096 212.927 183.166 216.444 181.355 219.639C177.907 225.721 174.511 230.832 169.142 236.005C165.371 239.654 160.47 243.477 154.575 247.367C148.688 251.224 141.6 255.225 133.508 259.26C121.345 265.35 102.527 273.699 81.9487 278.888L82.3145 279.505C102.934 274.305 121.785 265.942 133.968 259.842C142.075 255.8 149.177 251.79 155.078 247.925C160.993 244.021 165.913 240.183 169.701 236.517C175.102 231.313 178.516 226.177 181.98 220.066C183.796 216.863 185.731 213.337 187.581 209.257C188.1 208.111 188.616 206.904 189.163 205.626C190.335 202.887 191.663 199.782 193.332 196.602C194.656 193.963 196.221 191.551 198.013 189.389C201.41 185.441 205.957 183.525 210.176 184.263C214.889 185.086 218.305 188.406 221.318 191.336L221.459 191.473C225.374 195.279 229.549 199.265 233.97 203.485C238.055 207.386 242.279 211.418 246.656 215.65C253.117 221.905 261.965 230.47 272.902 233.059C284.3 235.758 291.942 229.914 296.509 226.423C301.536 222.579 306.735 218.604 316.722 217.996C317.412 217.953 318.142 217.937 318.891 217.948C329.79 218.111 346.076 224.018 353.356 229.192L353.638 228.736Z" fill="url(#paint10_linear_576_7274)" fill-opacity="0.1"/>
<path d="M353.556 227.865C346.448 221.674 329.909 215.089 318.416 215.543C317.653 215.573 316.913 215.636 316.214 215.728C306.903 216.953 302.4 221.568 297.632 226.455L296.924 227.179C291.885 232.322 284.725 237.899 273.989 235.348C263.624 232.886 255.145 224.423 248.012 216.684L245.061 213.489C237.139 204.91 229.657 196.807 222.916 189.193C219.708 185.57 216.073 181.463 210.701 180.194C205.131 178.875 200.182 181.879 197.407 185.131C195.558 187.363 194.007 189.922 192.779 192.769C190.939 196.843 189.74 200.942 188.682 204.558C188.45 205.351 188.223 206.127 187.995 206.882C186.492 211.874 184.894 216.236 183.53 219.846C180.993 226.556 177.919 233.727 172.652 240.702C169.08 245.447 164.445 250.213 158.874 254.869C152.433 260.122 145.576 264.802 138.335 268.887C126.636 275.623 108.039 284.647 85.8772 289.389L86.2532 290.061C108.481 285.304 127.127 276.257 138.856 269.504C146.119 265.407 152.996 260.712 159.456 255.443C165.052 250.767 169.709 245.978 173.299 241.208C178.598 234.192 181.686 226.988 184.235 220.248C185.601 216.631 187.202 212.26 188.71 207.255C188.938 206.499 189.165 205.721 189.397 204.927C190.451 201.325 191.645 197.243 193.473 193.196C194.684 190.387 196.214 187.86 198.039 185.657C200.72 182.515 205.47 179.604 210.762 180.857C215.81 182.05 219.318 186.013 222.414 189.51C229.163 197.134 236.65 205.241 244.576 213.824L247.525 217.019C254.773 224.881 263.396 233.48 274.049 236.011C285.1 238.637 292.406 232.962 297.537 227.725L298.246 227C302.958 222.17 307.409 217.609 316.543 216.408C317.223 216.318 317.944 216.257 318.687 216.228C329.98 215.781 346.202 222.227 353.16 228.288L353.556 227.865Z" fill="url(#paint11_linear_576_7274)" fill-opacity="0.1"/>
<path d="M353.47 227C345.77 219.057 328.937 212.753 318.154 213.776C317.399 213.847 316.664 213.955 315.968 214.098C307.202 215.884 303.276 221.187 299.12 226.801C298.705 227.362 298.289 227.923 297.867 228.482C291.33 237.144 283.894 240.34 275.134 238.252C264.819 235.794 256.458 227.102 248.958 218.075C241.25 208.804 232.251 197.894 223.96 187.265C220.907 183.333 217.106 178.437 211.332 176.751C207.439 175.614 201.731 176.228 197.385 181.362C195.494 183.645 193.974 186.329 192.858 189.355C191.042 194.048 190.143 198.966 189.349 203.306L189.055 204.906C188.187 209.566 187.156 214.238 185.71 220.054C183.755 227.766 181.093 236.81 176.167 245.403C172.828 251.241 168.456 256.951 163.173 262.375C157.067 268.504 150.379 273.899 143.161 278.518C126.826 289.176 108.376 296.567 89.8068 299.893L90.1905 300.62C108.834 297.28 127.352 289.862 143.744 279.167C150.99 274.53 157.703 269.114 163.833 262.962C169.142 257.511 173.536 251.771 176.893 245.9C181.847 237.26 184.521 228.177 186.484 220.433C187.933 214.605 188.966 209.924 189.836 205.254L190.13 203.653C190.92 199.335 191.815 194.441 193.614 189.79C194.711 186.814 196.206 184.172 198.065 181.926C200.681 178.835 205.73 175.809 211.347 177.451C216.76 179.031 220.427 183.754 223.373 187.549C231.675 198.192 240.68 209.11 248.395 218.388C256.029 227.577 264.559 236.429 275.197 238.965C284.246 241.122 291.889 237.871 298.563 229.026C298.985 228.466 299.404 227.905 299.818 227.342C303.92 221.802 307.795 216.568 316.366 214.821C317.04 214.683 317.753 214.578 318.484 214.51C329.032 213.509 345.469 219.645 352.968 227.383L353.47 227Z" fill="url(#paint12_linear_576_7274)" fill-opacity="0.1"/>
<path d="M353.386 226.136C345.797 217.086 328.882 210.352 317.897 212.009C317.143 212.123 316.414 212.277 315.728 212.468C307.351 214.798 303.768 221.106 300.303 227.207C299.813 228.07 299.322 228.934 298.819 229.787C294.864 236.486 287.744 243.896 276.283 241.155C265.528 238.584 256.917 228.748 249.911 219.466C240.112 206.491 231.966 195.327 225.008 185.337C222.102 181.15 218.121 175.414 211.97 173.309C205.662 171.151 200.162 174.268 197.369 177.593C195.439 179.93 193.949 182.742 192.943 185.942C191.243 191.067 190.714 196.671 190.248 201.616L190.123 202.931C189.584 208.542 188.856 214.211 187.899 220.26C185.902 232.657 183.37 241.861 179.691 250.102C176.367 257.416 172.279 264.039 167.48 269.883C161.71 276.868 155.191 282.978 147.994 288.149C132.005 299.834 113.246 307.527 93.7439 310.397L94.1331 311.177C113.732 308.293 132.58 300.565 148.64 288.829C155.87 283.634 162.418 277.495 168.215 270.478C173.039 264.603 177.149 257.945 180.49 250.591C184.189 242.308 186.732 233.063 188.737 220.617C189.696 214.556 190.425 208.876 190.966 203.252L191.09 201.936C191.577 196.781 192.079 191.451 193.761 186.384C194.746 183.246 196.207 180.488 198.098 178.195C200.773 175.01 206.003 172.012 211.938 174.043C217.695 176.012 221.536 181.547 224.341 185.588C231.308 195.592 239.463 206.768 249.272 219.756C256.416 229.221 265.22 239.256 276.35 241.918C288.227 244.758 295.545 237.181 299.593 230.324C300.098 229.47 300.589 228.604 301.081 227.739C304.497 221.723 308.031 215.503 316.198 213.232C316.858 213.047 317.562 212.899 318.289 212.789C328.794 211.205 345.559 217.856 352.787 226.476L353.386 226.136Z" fill="url(#paint13_linear_576_7274)" fill-opacity="0.1"/>
<path d="M353.29 225.272C345.904 215.274 328.574 207.971 317.631 210.243C316.88 210.399 316.156 210.6 315.478 210.841C307.4 213.702 304.299 220.794 301.301 227.652C300.804 228.788 300.291 229.962 299.764 231.092C296.898 237.249 290.184 247.119 277.425 244.059C266.277 241.385 257.738 230.83 250.854 220.858C241.501 207.314 233.386 195.064 226.045 183.408C223.29 179.025 219.127 172.399 212.599 169.869C208.431 168.253 201.935 168.319 197.344 173.823C195.373 176.217 193.913 179.158 193.02 182.529C191.477 188.051 191.341 194.042 191.21 199.837L191.184 200.955C191.029 207.496 190.658 214.059 190.082 220.465C188.826 234.165 186.642 245.075 183.209 254.801C180.252 263.085 176.424 270.651 171.78 277.391C166.344 285.212 159.994 292.041 152.818 297.781C137.127 310.506 118.058 318.5 97.6729 320.9L98.0664 321.734C118.574 319.32 137.752 311.282 153.526 298.489C160.739 292.719 167.123 285.855 172.587 277.993C177.255 271.217 181.103 263.61 184.076 255.283C187.526 245.511 189.72 234.555 190.98 220.804C191.558 214.384 191.929 207.805 192.085 201.25L192.111 200.13C192.241 194.376 192.376 188.425 193.899 182.975C194.771 179.679 196.197 176.804 198.122 174.463C202.501 169.214 208.614 169.119 212.519 170.633C218.157 172.818 221.783 178.027 225.303 183.627C232.653 195.299 240.778 207.564 250.141 221.122C253.082 225.382 257.07 230.865 261.846 235.487C267.051 240.524 272.169 243.593 277.496 244.87C290.761 248.052 297.673 237.935 300.613 231.621C301.141 230.485 301.656 229.308 302.154 228.17C305.109 221.412 308.164 214.424 316.02 211.641C316.671 211.41 317.366 211.217 318.087 211.067C328.693 208.865 345.467 215.912 352.6 225.568L353.29 225.272Z" fill="url(#paint14_linear_576_7274)" fill-opacity="0.1"/>
<path d="M353.196 224.405C345.852 213.281 328.441 205.54 317.369 208.477C316.631 208.672 315.918 208.918 315.233 209.214C307.4 212.602 304.756 220.488 302.199 228.113C301.723 229.531 301.232 230.997 300.717 232.397C294.486 249.354 282.192 247.831 278.571 246.961C266.98 244.172 258.177 232.29 251.802 222.25C242.942 208.299 234.626 194.581 227.086 181.477C223.571 175.362 219.606 169.162 213.235 166.428C206.656 163.605 200.504 166.214 197.325 170.053C195.313 172.505 193.882 175.576 193.103 179.116C191.753 184.93 191.985 191.444 192.21 197.744L192.253 198.977C192.525 206.313 192.531 213.61 192.271 220.667C191.714 235.529 189.903 248.231 186.734 259.499C184.127 268.735 180.561 277.244 176.087 284.9C170.982 293.54 164.8 301.087 157.647 307.412C142.225 321.184 122.848 329.48 101.609 331.403L102.005 332.29C123.392 330.354 142.9 322.005 158.419 308.147C165.613 301.786 171.83 294.196 176.963 285.506C181.461 277.811 185.046 269.257 187.666 259.974C190.849 248.657 192.668 235.906 193.227 220.99C193.487 213.914 193.481 206.599 193.209 199.246L193.165 198.013C192.942 191.759 192.712 185.292 194.042 179.564C194.8 176.113 196.193 173.12 198.152 170.73C201.171 167.085 206.965 164.586 213.105 167.222C219.063 169.778 222.876 175.759 226.272 181.666C233.821 194.786 242.147 208.52 251.017 222.487C257.537 232.757 266.57 244.917 278.646 247.822C284.308 249.184 289.338 248.166 293.595 244.797C297.878 241.406 300.331 236.465 301.635 232.916C302.153 231.507 302.646 230.038 303.122 228.616C305.641 221.104 308.247 213.336 315.849 210.047C316.504 209.764 317.186 209.53 317.892 209.343C328.573 206.509 345.355 213.954 352.423 224.662L353.196 224.405Z" fill="url(#paint15_linear_576_7274)" fill-opacity="0.1"/>
<path d="M353.104 223.538C349.334 217.219 342.767 211.752 335.086 208.538C327.405 205.323 320.082 204.977 314.993 207.588C307.369 211.499 305.164 220.187 303.032 228.589C302.601 230.285 302.156 232.039 301.676 233.704C297.412 248.494 287.54 251.749 279.723 249.863C267.631 246.947 258.54 233.502 252.753 223.642C244.212 209.089 235.928 194.253 228.13 179.546C226.572 176.608 224.713 173.218 222.364 170.179C219.739 166.783 216.963 164.431 213.875 162.989C206.96 159.759 200.573 162.316 197.31 166.283C191.306 173.581 192.283 184.905 193.229 195.858L193.327 197.001C196.754 237.064 192.525 268.272 180.398 292.409C165.673 321.718 138.392 339.759 105.549 341.906L105.946 342.847C139.039 340.683 166.52 322.522 181.343 293.019C193.525 268.774 197.774 237.445 194.335 197.244L194.237 196.1C193.304 185.287 192.338 174.106 198.186 166.998C201.273 163.246 207.265 160.805 213.696 163.809C219.978 166.744 223.835 173.272 227.247 179.707C235.053 194.43 243.347 209.283 251.898 223.852C264.272 244.936 273.749 249.315 279.801 250.774C292.268 253.782 299.784 244.19 302.661 234.21C303.144 232.535 303.591 230.776 304.022 229.076C306.122 220.8 308.294 212.242 315.683 208.452C320.553 205.953 327.579 206.292 334.961 209.382C342.344 212.472 348.646 217.711 352.253 223.756L353.104 223.538Z" fill="url(#paint16_linear_576_7274)" fill-opacity="0.1"/>
<defs>
<linearGradient id="paint0_linear_576_7274" x1="104.955" y1="189.139" x2="197.671" y2="292.608" gradientUnits="userSpaceOnUse">
<stop offset="0.0677083" stop-color="white"/>
<stop offset="0.302083" stop-color="#994FFF"/>
<stop offset="1" stop-color="#E70DD4"/>
</linearGradient>
<linearGradient id="paint1_linear_576_7274" x1="108.011" y1="197.43" x2="201.037" y2="296.012" gradientUnits="userSpaceOnUse">
<stop offset="0.0677083" stop-color="white"/>
<stop offset="0.302083" stop-color="#994FFF"/>
<stop offset="1" stop-color="#E70DD4"/>
</linearGradient>
<linearGradient id="paint2_linear_576_7274" x1="111.064" y1="205.725" x2="203.967" y2="299.541" gradientUnits="userSpaceOnUse">
<stop offset="0.0677083" stop-color="white"/>
<stop offset="0.302083" stop-color="#994FFF"/>
<stop offset="1" stop-color="#E70DD4"/>
</linearGradient>
<linearGradient id="paint3_linear_576_7274" x1="114.118" y1="214.018" x2="206.515" y2="303.205" gradientUnits="userSpaceOnUse">
<stop offset="0.0677083" stop-color="white"/>
<stop offset="0.302083" stop-color="#994FFF"/>
<stop offset="1" stop-color="#E70DD4"/>
</linearGradient>
<linearGradient id="paint4_linear_576_7274" x1="117.179" y1="222.312" x2="208.731" y2="307.014" gradientUnits="userSpaceOnUse">
<stop offset="0.0677083" stop-color="white"/>
<stop offset="0.302083" stop-color="#994FFF"/>
<stop offset="1" stop-color="#E70DD4"/>
</linearGradient>
<linearGradient id="paint5_linear_576_7274" x1="120.235" y1="230.606" x2="210.642" y2="310.972" gradientUnits="userSpaceOnUse">
<stop offset="0.0677083" stop-color="white"/>
<stop offset="0.302083" stop-color="#994FFF"/>
<stop offset="1" stop-color="#E70DD4"/>
</linearGradient>
<linearGradient id="paint6_linear_576_7274" x1="123.287" y1="238.897" x2="212.281" y2="315.08" gradientUnits="userSpaceOnUse">
<stop offset="0.0677083" stop-color="white"/>
<stop offset="0.302083" stop-color="#994FFF"/>
<stop offset="1" stop-color="#E70DD4"/>
</linearGradient>
<linearGradient id="paint7_linear_576_7274" x1="126.338" y1="247.188" x2="213.685" y2="319.338" gradientUnits="userSpaceOnUse">
<stop offset="0.0677083" stop-color="white"/>
<stop offset="0.302083" stop-color="#994FFF"/>
<stop offset="1" stop-color="#E70DD4"/>
</linearGradient>
<linearGradient id="paint8_linear_576_7274" x1="129.386" y1="255.48" x2="214.876" y2="323.744" gradientUnits="userSpaceOnUse">
<stop offset="0.0677083" stop-color="white"/>
<stop offset="0.302083" stop-color="#994FFF"/>
<stop offset="1" stop-color="#E70DD4"/>
</linearGradient>
<linearGradient id="paint9_linear_576_7274" x1="132.436" y1="263.769" x2="215.886" y2="328.294" gradientUnits="userSpaceOnUse">
<stop offset="0.0677083" stop-color="white"/>
<stop offset="0.302083" stop-color="#994FFF"/>
<stop offset="1" stop-color="#E70DD4"/>
</linearGradient>
<linearGradient id="paint10_linear_576_7274" x1="135.494" y1="272.071" x2="216.763" y2="333.026" gradientUnits="userSpaceOnUse">
<stop offset="0.0677083" stop-color="white"/>
<stop offset="0.302083" stop-color="#994FFF"/>
<stop offset="1" stop-color="#E70DD4"/>
</linearGradient>
<linearGradient id="paint11_linear_576_7274" x1="138.558" y1="280.38" x2="217.524" y2="337.92" gradientUnits="userSpaceOnUse">
<stop offset="0.0677083" stop-color="white"/>
<stop offset="0.302083" stop-color="#994FFF"/>
<stop offset="1" stop-color="#E70DD4"/>
</linearGradient>
<linearGradient id="paint12_linear_576_7274" x1="141.627" y1="288.679" x2="218.172" y2="342.929" gradientUnits="userSpaceOnUse">
<stop offset="0.0677083" stop-color="white"/>
<stop offset="0.302083" stop-color="#994FFF"/>
<stop offset="1" stop-color="#E70DD4"/>
</linearGradient>
<linearGradient id="paint13_linear_576_7274" x1="144.716" y1="296.951" x2="218.736" y2="348.029" gradientUnits="userSpaceOnUse">
<stop offset="0.0677083" stop-color="white"/>
<stop offset="0.302083" stop-color="#994FFF"/>
<stop offset="1" stop-color="#E70DD4"/>
</linearGradient>
<linearGradient id="paint14_linear_576_7274" x1="147.801" y1="305.209" x2="219.201" y2="353.231" gradientUnits="userSpaceOnUse">
<stop offset="0.0677083" stop-color="white"/>
<stop offset="0.302083" stop-color="#994FFF"/>
<stop offset="1" stop-color="#E70DD4"/>
</linearGradient>
<linearGradient id="paint15_linear_576_7274" x1="150.901" y1="313.448" x2="219.597" y2="358.526" gradientUnits="userSpaceOnUse">
<stop offset="0.0677083" stop-color="white"/>
<stop offset="0.302083" stop-color="#994FFF"/>
<stop offset="1" stop-color="#E70DD4"/>
</linearGradient>
<linearGradient id="paint16_linear_576_7274" x1="154.011" y1="321.674" x2="219.927" y2="363.916" gradientUnits="userSpaceOnUse">
<stop offset="0.0677083" stop-color="white"/>
<stop offset="0.302083" stop-color="#994FFF"/>
<stop offset="1" stop-color="#E70DD4"/>
</linearGradient>
</defs>
</svg>
