<svg width="198" height="227" viewBox="0 0 198 227" fill="none" xmlns="http://www.w3.org/2000/svg">
<path d="M38.7408 200.172L38.7273 200.086C41.4191 199.429 43.844 197.205 45.7398 193.656C47.4658 190.334 48.634 186.424 49.1891 182.113C49.7631 177.677 49.8151 173.043 49.8655 168.563C49.9086 164.72 49.9534 160.745 50.3264 156.904C52.4372 135.178 66.2845 117.699 81.8517 117.113C82.5787 117.085 83.3281 117.088 84.0529 117.091C86.8948 117.103 89.8333 117.115 92.3043 115.323C94.5666 113.682 96.2123 110.66 97.0631 106.584C97.8174 102.917 97.9054 98.8259 97.3209 94.5969C96.7142 90.3331 95.5698 86.1692 94.4633 82.1427C93.5255 78.73 92.5559 75.2013 91.9143 71.619C90.8923 65.9116 90.7087 59.8047 91.3828 53.9583C92.0895 47.9928 93.5884 42.5309 95.8172 37.8005C98.0984 33.0037 101.066 28.9943 104.603 25.929C108.125 22.8854 112.127 20.9082 116.176 20.2109L116.186 20.2973C112.145 20.993 108.152 22.9662 104.637 26.0037C101.107 29.063 98.1454 33.0642 95.8687 37.851C93.6444 42.572 92.1485 48.0231 91.4434 53.9767C90.7705 59.8113 90.9537 65.906 91.9737 71.6019C92.6141 75.1786 93.5832 78.7049 94.5204 82.1149C95.628 86.1451 96.7732 90.3124 97.381 94.5841C97.9674 98.8277 97.879 102.933 97.122 106.613C96.2665 110.711 94.611 113.749 92.3344 115.4C89.8507 117.202 86.9048 117.19 84.056 117.178C83.3316 117.175 82.5826 117.172 81.8565 117.2C66.317 117.785 52.4939 135.233 50.3871 156.92C50.0144 160.756 49.9698 164.728 49.9269 168.568C49.8763 173.053 49.8241 177.69 49.2494 182.133C48.6925 186.457 47.5205 190.379 45.7892 193.71C43.8848 197.277 41.4473 199.511 38.7408 200.172Z" fill="url(#paint0_linear_576_7292)" fill-opacity="0.1"/>
<path d="M38.347 199.809L38.3218 199.688C40.7238 198.85 42.9652 196.483 44.8033 192.843C46.4677 189.456 47.6718 185.592 48.3769 181.377C48.4638 180.861 48.5485 180.32 48.6284 179.77C49.1514 176.168 49.3699 172.542 49.581 169.034C49.8035 165.343 50.0334 161.525 50.6225 157.85C51.5188 152.258 53.4875 146.947 55.2951 142.489C57.5883 136.833 59.7219 132.63 62.0093 129.26C65.4795 124.153 69.6506 120.305 74.0717 118.132C75.9093 117.203 77.8624 116.556 79.9039 116.198C80.9709 116.018 82.076 115.94 83.2459 115.858C84.3015 115.783 85.3934 115.707 86.4451 115.547C87.9039 115.365 89.281 114.899 90.54 114.162C92.8258 112.756 94.5236 110.273 95.586 106.781C96.5734 103.509 96.9286 99.7508 96.6257 95.7815C96.3175 92.0253 95.5279 88.3383 94.7643 84.7727C94.092 81.6332 93.3967 78.3868 93.0178 75.0615C92.4377 69.9596 92.6337 64.478 93.5845 59.2093C94.6623 53.4073 96.4776 48.1491 98.9637 43.6273C101.519 39.013 104.662 35.1248 108.299 32.0776C111.94 29.0227 116.02 26.8792 120.098 25.8788L120.118 26.0019C116.05 26.9998 111.979 29.1382 108.347 32.1857C104.719 35.2253 101.584 39.1039 99.0346 43.7069C96.5551 48.2162 94.7448 53.46 93.67 59.2462C92.7222 64.4989 92.5267 69.963 93.1048 75.0479C93.4827 78.3646 94.177 81.6068 94.8485 84.7424C95.6134 88.3134 96.4041 92.006 96.7132 95.7735C97.0177 99.7654 96.6604 103.544 95.6674 106.835C94.6113 110.305 92.8516 112.879 90.5785 114.277C89.3119 115.019 87.9265 115.488 86.4588 115.671C85.4047 115.831 84.3117 115.908 83.2548 115.982C82.0863 116.065 80.9827 116.143 79.9188 116.322C77.8835 116.678 75.9364 117.324 74.1045 118.25C69.6955 120.417 65.5355 124.255 62.0746 129.349C59.7917 132.711 57.6618 136.908 55.372 142.556C53.5676 147.006 51.6023 152.307 50.7086 157.884C50.1207 161.551 49.891 165.364 49.6689 169.051C49.4573 172.562 49.2386 176.192 48.7149 179.801C48.6346 180.352 48.5496 180.894 48.4626 181.411C47.7549 185.642 46.5464 189.519 44.8759 192.919C43.0264 196.581 40.7687 198.964 38.347 199.809Z" fill="url(#paint1_linear_576_7292)" fill-opacity="0.1"/>
<path d="M37.9582 199.444L37.9164 199.29C42.619 197.031 45.9851 188.173 47.5672 180.637C47.6719 180.138 47.7766 179.617 47.8792 179.088C48.506 175.837 48.8782 172.662 49.2382 169.591C49.6764 165.851 50.0904 162.318 50.9218 158.792C51.8073 155.036 53.3515 151.331 54.9868 147.41C55.4369 146.33 55.9022 145.214 56.3582 144.086C56.7291 143.168 57.0934 142.258 57.4512 141.355C59.0669 137.298 60.5931 133.466 62.3728 130.196C65.2944 124.834 68.8753 120.595 72.7285 117.938C74.3434 116.77 76.0953 115.88 77.956 115.283C79.3783 114.841 81.037 114.644 82.6412 114.454C83.2701 114.379 83.9207 114.302 84.5516 114.211C86.3247 113.955 87.6286 113.581 88.7792 112.999C91.1375 111.787 93.0091 109.58 94.1902 106.617C95.3296 103.816 95.9241 100.522 95.9329 96.9594C95.9137 93.687 95.4653 90.4547 95.0318 87.3287C94.6373 84.4845 94.2293 81.5436 94.1236 78.4972C93.9644 73.8589 94.5573 68.854 95.8377 64.0236C97.2057 58.8414 99.3759 53.8025 102.114 49.4513C107.598 40.7526 115.583 34.2262 124.022 31.5459L124.053 31.7048C115.635 34.3783 107.671 40.8876 102.201 49.5632C99.4722 53.9004 97.309 58.9228 95.9457 64.0876C94.6704 68.8982 94.0801 73.8812 94.2382 78.4976C94.3437 81.5322 94.7508 84.467 95.1446 87.3055C95.5791 90.4388 96.0285 93.6787 96.0479 96.9668C96.0388 100.559 95.4393 103.88 94.2903 106.703C93.097 109.698 91.2059 111.928 88.8229 113.153C87.6634 113.739 86.3516 114.115 84.569 114.373C83.9372 114.464 83.2862 114.542 82.6567 114.616C81.0562 114.806 79.4012 115.002 77.9859 115.442C76.1339 116.037 74.3903 116.923 72.7832 118.086C68.9444 120.732 65.3767 124.955 62.4652 130.299C60.6901 133.561 59.1658 137.388 57.5521 141.44C57.1929 142.342 56.8284 143.253 56.4584 144.172C56.0024 145.302 55.5368 146.418 55.0865 147.498C53.4544 151.412 51.9128 155.11 51.0309 158.851C50.2025 162.365 49.7892 165.892 49.3515 169.626C48.9911 172.7 48.6185 175.879 47.9901 179.139C47.8876 179.669 47.7823 180.191 47.6776 180.691C46.0879 188.263 42.6997 197.166 37.9582 199.444Z" fill="url(#paint2_linear_576_7292)" fill-opacity="0.1"/>
<path d="M37.5718 199.078L37.5073 198.894C42.4192 195.703 45.8295 183.546 46.7578 179.896C46.8855 179.394 47.0097 178.897 47.1303 178.404C47.8221 175.576 48.3155 172.89 48.7925 170.292C49.4684 166.614 50.1066 163.139 51.222 159.73C52.0204 157.29 53.1979 154.843 54.4446 152.252C55.442 150.179 56.4735 148.036 57.4206 145.683C58.4391 143.154 59.2987 140.647 60.1302 138.223C60.9988 135.689 61.8196 133.296 62.7344 131.136C65.0995 125.562 68.0895 120.933 71.381 117.75C72.6195 116.553 73.9966 115.305 76.005 114.37C77.7783 113.544 80.0344 113.235 82.2159 112.936L82.6576 112.875C84.1659 112.709 85.6248 112.362 87.0195 111.837C89.3952 110.882 91.3804 109.03 92.7961 106.448C94.0817 104.107 94.9135 101.277 95.2404 98.131C95.5113 95.3026 95.3963 92.6109 95.2744 89.7611C95.167 87.2499 95.0561 84.6533 95.2293 81.9265C95.498 77.7531 96.4882 73.2263 98.0925 68.8347C99.8248 64.067 102.305 59.3779 105.265 55.2746C111.17 47.1077 119.436 40.5249 127.944 37.2142L127.988 37.4077C119.501 40.7105 111.256 47.2763 105.366 55.4217C102.417 59.5111 99.9452 64.1838 98.2193 68.9339C96.6226 73.3038 95.6376 77.8063 95.3703 81.9548C95.1982 84.6666 95.3089 87.2556 95.4158 89.7593C95.5381 92.6193 95.6535 95.3204 95.3808 98.168C95.0503 101.348 94.2095 104.209 92.9098 106.577C91.4776 109.189 89.4691 111.063 87.0654 112.029C85.6628 112.558 84.1955 112.908 82.6785 113.075L82.2368 113.136C80.0627 113.433 77.8144 113.741 76.0556 114.561C74.0636 115.489 72.6955 116.728 71.465 117.918C68.1889 121.086 65.2124 125.695 62.8568 131.246C61.9452 133.399 61.1257 135.788 60.2581 138.318C59.4258 140.745 58.5654 143.255 57.5446 145.789C56.5947 148.148 55.5619 150.295 54.5631 152.371C53.3194 154.955 52.145 157.396 51.3511 159.822C50.241 163.215 49.6043 166.682 48.93 170.352C48.4521 172.954 47.9582 175.643 47.2644 178.479C47.1434 178.972 47.0191 179.47 46.8915 179.973C45.9587 183.64 42.5305 195.855 37.5718 199.078Z" fill="url(#paint3_linear_576_7292)" fill-opacity="0.1"/>
<path d="M37.185 198.711L37.0909 198.506C39.8108 196.122 42.7898 189.612 45.9455 179.156L46.3786 177.721C47.0639 175.445 47.6169 173.326 48.1518 171.276C49.1256 167.543 50.0455 164.017 51.5211 160.666C52.2649 158.977 53.2512 157.274 54.2955 155.47C55.6679 153.1 57.2233 150.414 58.4795 147.284C59.8664 143.829 60.7881 140.395 61.6794 137.074C62.1533 135.308 62.6009 133.641 63.0909 132.084C64.9159 126.306 67.3142 121.288 70.0263 117.572C71.0169 116.214 72.1397 114.676 74.0479 113.463C75.8476 112.317 78.3375 111.863 80.76 111.542C82.2601 111.344 83.8114 111.139 85.2576 110.677C87.6525 109.952 89.7488 108.452 91.4027 106.28C92.8254 104.373 93.8913 102.005 94.5469 99.2962C95.1099 96.878 95.3074 94.5492 95.5166 92.0834C95.6772 89.7765 95.9501 87.528 96.3337 85.351C97.0387 81.6452 98.426 77.5975 100.346 73.645C102.645 68.9841 105.346 64.7827 108.413 61.0996C114.709 53.4815 123.256 46.8429 131.861 42.8857L131.921 43.1133C123.335 47.0616 114.808 53.6846 108.526 61.2844C105.47 64.955 102.778 69.1419 100.486 73.7866C98.5766 77.7188 97.1968 81.7427 96.4967 85.4238C96.1152 87.5904 95.8437 89.8281 95.6839 92.1239C95.4738 94.6014 95.2753 96.9414 94.7073 99.3814C94.043 102.126 92.9631 104.525 91.5218 106.457C89.8483 108.657 87.7268 110.176 85.3029 110.91C83.8462 111.376 82.2896 111.581 80.7844 111.78C78.3757 112.098 75.9019 112.549 74.1233 113.681C72.2404 114.879 71.128 116.403 70.1467 117.747C67.4485 121.444 65.0624 126.439 63.2454 132.191C62.7572 133.742 62.3104 135.406 61.8375 137.168C60.944 140.497 60.02 143.939 58.6269 147.41C57.3643 150.556 55.8043 153.25 54.428 155.627C53.387 157.425 52.4038 159.123 51.6653 160.8C50.1983 164.131 49.2812 167.647 48.3102 171.369C47.7748 173.421 47.2211 175.543 46.5341 177.824L46.1008 179.26C42.9326 189.758 39.9327 196.302 37.185 198.711Z" fill="url(#paint4_linear_576_7292)" fill-opacity="0.1"/>
<path d="M36.8054 198.335L36.675 198.12C39.3326 194.943 42.2339 186.679 44.5652 180.04L45.1375 178.412C45.303 177.944 45.4676 177.484 45.6314 177.033C46.1615 175.574 46.6361 174.208 47.0951 172.887C48.5634 168.663 49.8313 165.014 51.8272 161.597C52.5167 160.416 53.362 159.223 54.2572 157.961C56.0339 155.456 58.0477 152.616 59.5421 148.882C61.1883 144.768 62.0089 140.456 62.7328 136.652C62.9744 135.382 63.2029 134.182 63.4513 133.035C64.7438 127.092 66.5492 121.686 68.6729 117.399L68.7244 117.295C69.5325 115.663 70.3684 113.975 72.0925 112.555C73.5292 111.37 75.7452 110.602 78.8665 110.207C79.1859 110.167 79.5032 110.128 79.8186 110.091C81.1074 109.936 82.3246 109.79 83.501 109.514C86.0976 108.907 88.2901 107.76 90.0175 106.105C91.5813 104.613 92.8797 102.704 93.8635 100.45C94.7526 98.384 95.2826 96.3562 95.8438 94.2096C96.2946 92.4849 96.7605 90.7013 97.4465 88.7643C98.6007 85.5235 100.385 81.9571 102.606 78.4501C105.311 74.2179 108.305 70.3645 111.567 66.9211C118.194 59.8916 127.02 53.1976 135.782 48.5558L135.858 48.8155C127.113 53.4491 118.303 60.1301 111.689 67.1454C108.437 70.5788 105.451 74.4207 102.755 78.6404C100.544 82.1309 98.7689 85.6782 97.6219 88.8985C96.9408 90.8226 96.4765 92.5992 96.0274 94.3173C95.463 96.4761 94.93 98.5153 94.0316 100.602C93.0344 102.888 91.718 104.824 90.1327 106.337C88.383 108.013 86.1657 109.173 83.5424 109.787C82.3585 110.064 81.1377 110.211 79.8453 110.367C79.5301 110.405 79.213 110.443 78.894 110.483C75.8006 110.874 73.6101 111.631 72.1971 112.796C70.5074 114.188 69.6834 115.852 68.8864 117.462L68.8346 117.565C66.722 121.831 64.9251 127.212 63.6382 133.128C63.3909 134.272 63.1629 135.469 62.9217 136.737C62.1947 140.556 61.3709 144.885 59.7132 149.028C58.2068 152.792 56.1835 155.645 54.3985 158.162C53.5067 159.42 52.6644 160.608 51.9803 161.78C49.998 165.174 48.7346 168.81 47.2714 173.019C46.812 174.342 46.3368 175.709 45.8059 177.17C45.6422 177.619 45.4779 178.078 45.3133 178.546L44.7412 180.173C42.4025 186.834 39.4917 195.124 36.8054 198.335Z" fill="url(#paint5_linear_576_7292)" fill-opacity="0.1"/>
<path d="M36.256 197.741C37.7448 195.244 39.5115 190.464 41.3817 185.403C42.3588 182.759 43.3694 180.025 44.3306 177.666C44.5147 177.213 44.6998 176.772 44.8857 176.342L44.9017 176.306C47.5012 170.282 49.2188 166.303 52.1367 162.524C52.756 161.721 53.4685 160.913 54.2227 160.057C56.4159 157.568 58.9018 154.747 60.6043 150.48C62.4574 145.835 63.0158 140.911 63.5084 136.566C63.6103 135.667 63.7066 134.818 63.8121 133.989C64.5512 128.11 65.7251 122.501 67.3189 117.235L67.3922 116.997C67.9511 115.183 68.529 113.307 70.1353 111.65C71.9039 109.824 74.8299 109.131 76.9728 108.872C77.6568 108.789 78.3383 108.725 78.9972 108.663C79.9536 108.573 80.8566 108.488 81.7456 108.351C84.5144 107.927 86.7689 107.135 88.6379 105.93C90.348 104.825 91.8777 103.368 93.1889 101.595C94.5273 99.789 95.4828 97.9473 96.4945 95.9973C97.1207 94.7901 97.7684 93.5419 98.5662 92.1707C100.49 88.9657 102.595 85.9874 104.869 83.2523C107.97 79.4649 111.258 75.9567 114.721 72.7409C121.629 66.3125 130.501 59.7366 139.701 54.2256L139.796 54.5162C130.607 60.0209 121.748 66.5873 114.85 73.0064C111.394 76.2153 108.113 79.7158 105.019 83.4947C102.754 86.2193 100.657 89.1861 98.7404 92.3786C97.9464 93.743 97.3006 94.9881 96.6758 96.192C95.6586 98.1525 94.698 100.004 93.3466 101.828C92.0189 103.624 90.47 105.099 88.7383 106.217C86.8486 107.436 84.5728 108.236 81.7809 108.664C80.8874 108.802 79.982 108.887 79.0235 108.977C78.3655 109.039 77.6851 109.103 77.0032 109.185C74.8872 109.441 72.0015 110.122 70.2725 111.907C68.7111 113.518 68.1446 115.357 67.5967 117.136L67.5234 117.374C65.9361 122.619 64.7669 128.205 64.0308 134.061C63.9259 134.886 63.8297 135.734 63.7279 136.632C63.2323 141.001 62.6708 145.954 60.7992 150.645C59.077 154.961 56.5747 157.801 54.3671 160.306C53.6155 161.159 52.9057 161.965 52.2914 162.761C49.3948 166.512 47.6834 170.478 45.0929 176.48L45.077 176.517C44.8919 176.944 44.7077 177.382 44.5246 177.833C43.5654 180.187 42.5559 182.919 41.5796 185.56C39.7039 190.636 37.9324 195.43 36.4287 197.952L36.256 197.741Z" fill="url(#paint6_linear_576_7292)" fill-opacity="0.1"/>
<path d="M35.8343 197.372C36.4391 195.866 37.1918 193.7 38.0632 191.193C39.6247 186.7 41.5681 181.108 43.5233 176.917C43.73 176.474 43.9375 176.047 44.1403 175.649C47.151 169.713 49.4027 166.406 52.4488 163.449C52.9671 162.946 53.5321 162.44 54.1303 161.904C56.6399 159.655 59.7632 156.857 61.6655 152.076C63.6958 146.974 63.9112 141.495 64.1011 136.661C64.1242 136.076 64.1467 135.504 64.172 134.947C64.4563 128.826 65.0554 122.856 65.9653 117.079L66.01 116.793C66.3273 114.765 66.6553 112.668 68.1761 110.747C70.0027 108.437 73.2843 107.743 75.078 107.535C76.1465 107.411 77.1998 107.354 78.2185 107.298C78.8186 107.265 79.4097 107.233 79.9898 107.188C82.9773 106.956 85.3558 106.488 87.2613 105.755C89.1347 105.024 90.8968 104.014 92.5228 102.741C94.7572 101.02 96.3703 99.2383 98.4125 96.9825C98.8189 96.5334 99.2424 96.0654 99.6916 95.5753C101.987 93.0837 104.491 90.5531 107.134 88.0535C110.57 84.7787 114.185 81.5844 117.876 78.5599C124.573 73.0931 132.993 66.9881 143.618 59.8957L143.733 60.2159C133.114 67.3045 124.699 73.4056 118.008 78.8676C114.322 81.8882 110.712 85.0785 107.28 88.3496C104.641 90.8455 102.141 93.3719 99.8497 95.859C99.4012 96.3486 98.978 96.816 98.5719 97.2648C96.5212 99.5298 94.9014 101.319 92.6504 103.053C91.0085 104.338 89.2294 105.357 87.3379 106.096C85.416 106.835 83.0211 107.307 80.0163 107.54C79.4349 107.586 78.8424 107.618 78.2408 107.65C77.225 107.706 76.1744 107.763 75.1109 107.887C73.347 108.091 70.123 108.77 68.3472 111.016C66.8822 112.866 66.5625 114.91 66.2534 116.886L66.2083 117.173C65.3013 122.933 64.704 128.885 64.4203 134.988C64.3952 135.544 64.3728 136.115 64.3499 136.699C64.1584 141.57 63.9415 147.091 61.8838 152.261C59.9531 157.114 56.8026 159.936 54.2712 162.204C53.6747 162.738 53.1115 163.243 52.5967 163.743C49.5748 166.677 47.3384 169.962 44.3447 175.865C44.1441 176.259 43.9383 176.682 43.7332 177.121C41.7863 181.295 39.8465 186.877 38.2878 191.361C37.4146 193.874 36.6604 196.043 36.0522 197.558L35.8343 197.372Z" fill="url(#paint7_linear_576_7292)" fill-opacity="0.1"/>
<path d="M35.4135 197.014C36.5722 192.203 39.4143 182.398 42.7176 176.169C42.9436 175.743 43.172 175.335 43.3965 174.957C46.7248 169.328 49.449 166.736 52.7653 164.377C53.1357 164.113 53.526 163.846 53.9302 163.569C56.9105 161.527 60.6192 158.986 62.7269 153.676C64.9168 148.158 64.7206 141.896 64.5632 136.864L64.5338 135.911C64.3639 129.956 64.3898 123.925 64.6152 116.931L64.6238 116.659C64.6908 114.502 64.7668 112.056 66.2163 109.849C67.5087 107.88 70.048 106.55 73.1834 106.201C74.6625 106.037 76.105 106.033 77.5 106.031L78.2359 106.028C81.3349 106.009 83.8223 105.927 85.8885 105.586C87.9467 105.229 89.943 104.664 91.8634 103.897C94.8822 102.733 97.3107 101.402 100.823 98.986C103.169 97.3826 105.948 95.3651 109.166 93.029L111.702 91.1715C114.512 89.1106 117.697 86.7747 121.032 84.3811C124.244 82.0838 127.565 79.7548 131.081 77.289C136.566 73.4418 142.238 69.4639 147.535 65.5688L147.672 65.9176C142.372 69.814 136.699 73.793 131.213 77.6409C127.698 80.1062 124.378 82.4349 121.166 84.7314C117.833 87.1244 114.648 89.4597 111.839 91.5202L109.301 93.3784C106.082 95.7157 103.302 97.7342 100.954 99.3393C97.4254 101.766 94.9847 103.103 91.9485 104.274C90.0154 105.047 88.006 105.614 85.9342 105.974C83.8557 106.317 81.3596 106.4 78.2514 106.419L77.5147 106.421C76.1249 106.424 74.6878 106.427 73.2191 106.591C70.1488 106.932 67.6716 108.22 66.423 110.123C65.0382 112.231 64.9676 114.501 64.8992 116.697L64.8908 116.969C64.6657 123.952 64.64 129.972 64.8095 135.915L64.8388 136.866C64.9977 141.947 65.1957 148.27 62.9689 153.881C60.8221 159.29 57.0732 161.858 54.0607 163.922C53.6577 164.198 53.2687 164.465 52.8992 164.728C49.6119 167.066 46.9117 169.636 43.6115 175.217C43.39 175.591 43.1644 175.993 42.9412 176.414C39.6573 182.606 36.8289 192.367 35.6751 197.158L35.4135 197.014Z" fill="url(#paint8_linear_576_7292)" fill-opacity="0.1"/>
<path d="M34.9934 196.664C35.5161 191.723 38.2108 181.591 41.9107 175.42C42.154 175.014 42.4035 174.625 42.6522 174.263C46.2689 168.986 49.6498 167.015 53.0825 165.305L53.5615 165.067C56.8929 163.419 61.4553 161.162 63.786 155.275C66.1247 149.367 65.4562 142.577 64.9192 137.121L64.8951 136.876C64.2562 130.329 63.812 124.25 63.4203 118.887L63.2505 116.57C63.073 114.176 62.8717 111.463 64.2542 108.954C65.4756 106.734 68.1046 105.207 71.2865 104.867C72.9861 104.72 74.7204 104.72 76.4802 104.868C77.7438 104.946 78.9162 105.041 80.05 105.134C81.6544 105.265 83.17 105.389 84.5155 105.42C87.0557 105.477 89.3216 105.27 91.2031 105.06C94.9463 104.698 98.5475 103.808 101.956 102.401C104.634 101.322 107.812 99.7719 111.669 97.6615C115.152 95.7402 119.247 93.2999 124.186 90.2018C135.226 83.3046 144.144 77.1029 151.449 71.242L151.608 71.6179C144.295 77.4852 135.369 83.6927 124.32 90.5951C119.377 93.6958 115.279 96.1385 111.792 98.0624C107.925 100.177 104.739 101.731 102.053 102.813C98.6261 104.228 95.0056 105.123 91.2424 105.487C89.3539 105.698 87.0792 105.906 84.5263 105.848C83.1745 105.818 81.656 105.694 80.0481 105.562C78.9155 105.469 77.7443 105.374 76.4829 105.296C74.7352 105.149 73.0127 105.149 71.3246 105.294C68.2226 105.625 65.6699 107.096 64.4964 109.228C63.1852 111.608 63.3713 114.119 63.5514 116.547L63.7212 118.865C64.1128 124.224 64.5566 130.299 65.1948 136.839L65.2187 137.083C65.7621 142.602 66.4383 149.47 64.0518 155.499C61.6691 161.517 57.0483 163.804 53.6743 165.473L53.1959 165.71C49.7962 167.404 46.4488 169.355 42.8744 174.57C42.63 174.925 42.3848 175.308 42.1457 175.707C38.4798 181.822 35.8104 191.856 35.2929 196.749L34.9934 196.664Z" fill="url(#paint9_linear_576_7292)" fill-opacity="0.1"/>
<path d="M34.5814 196.317C34.5298 190.729 37.1983 180.464 41.1095 174.669C41.3726 174.279 41.6433 173.908 41.9137 173.568C45.7902 168.67 49.6618 167.432 53.4062 166.235C56.7218 165.175 62.2708 163.402 64.8491 156.873C67.3273 150.598 66.1336 143.226 65.2619 137.842C64.6657 134.145 64.1161 130.596 63.5847 127.164C63.01 123.453 62.4672 119.947 61.9246 116.638L61.905 116.519C61.4715 113.879 60.9802 110.886 62.2963 108.059C63.4588 105.56 66.1123 103.868 69.3939 103.532C71.1313 103.386 72.9158 103.445 74.7299 103.707C76.9302 103.984 78.9679 104.406 80.7656 104.779C81.6008 104.952 82.3895 105.116 83.1475 105.256C85.8463 105.755 88.2984 106.018 90.5461 106.227C94.8256 106.626 98.5969 106.71 103.093 105.82C106.259 105.201 109.909 104.072 113.943 102.467C117.957 100.853 122.467 98.6847 127.346 96.0215C134.693 92.0271 145.517 85.4704 155.367 76.9156L155.55 77.3171C145.68 85.8891 134.837 92.4571 127.478 96.4581C122.59 99.1259 118.071 101.299 114.048 102.916C110 104.528 106.335 105.66 103.155 106.282C98.6317 107.177 94.8411 107.094 90.5416 106.693C88.2882 106.483 85.8298 106.22 83.1216 105.718C82.3611 105.578 81.5709 105.414 80.7345 105.24C78.9412 104.869 76.9085 104.447 74.7177 104.172C72.9216 103.912 71.1549 103.853 69.4348 103.997C66.2492 104.323 63.6847 105.943 62.5742 108.33C61.3327 110.996 61.807 113.886 62.2256 116.436L62.2451 116.555C62.7884 119.867 63.3315 123.374 63.9063 127.087C64.4376 130.518 64.9869 134.065 65.5828 137.761C66.4665 143.217 67.6767 150.69 65.1386 157.117C62.4937 163.814 56.8602 165.615 53.4944 166.691C49.7889 167.875 45.9569 169.1 42.1397 173.923C41.8754 174.256 41.6108 174.619 41.3532 175C37.6047 180.554 34.8602 190.845 34.9107 196.335L34.5814 196.317Z" fill="url(#paint10_linear_576_7292)" fill-opacity="0.1"/>
<path d="M34.1733 195.968C33.5488 190.207 36.0404 179.552 40.3093 173.914C40.5925 173.54 40.8843 173.189 41.1765 172.869C45.0665 168.603 48.977 167.954 53.1173 167.267L53.7315 167.165C58.0967 166.431 63.426 164.78 65.9126 158.468C68.3137 152.375 67.0257 145.125 65.6297 138.807L65.0551 136.196C63.5128 129.185 62.0558 122.563 60.5848 116.487C59.8847 113.596 59.0914 110.319 60.3391 107.164C61.6316 103.891 64.8866 102.45 67.5016 102.194C69.2774 102.046 71.1134 102.163 72.9806 102.544C75.6823 103.048 78.1708 103.884 80.3663 104.621C80.8479 104.783 81.3192 104.941 81.7801 105.092C84.8261 106.088 87.5879 106.816 89.8877 107.396C94.1638 108.475 98.8612 109.445 104.23 109.24C107.879 109.106 111.912 108.444 116.218 107.27C121.131 105.868 125.902 104.055 130.507 101.838C138.016 98.3053 149.104 92.0975 159.285 82.5868L159.491 83.0127C149.28 92.5513 138.163 98.7759 130.635 102.318C126.016 104.541 121.231 106.36 116.303 107.766C111.978 108.944 107.925 109.61 104.258 109.744C98.8572 109.951 94.138 108.976 89.8429 107.893C87.5385 107.311 84.7711 106.582 81.7169 105.583C81.2555 105.432 80.7837 105.274 80.3012 105.112C78.1143 104.377 75.6355 103.545 72.9521 103.044C71.1094 102.668 69.2974 102.552 67.5447 102.697C65.0178 102.945 61.8802 104.318 60.6522 107.427C59.4798 110.392 60.2456 113.555 60.9211 116.346C62.394 122.429 63.8516 129.054 65.3947 136.069L65.9694 138.679C67.3873 145.097 68.6934 152.469 66.2258 158.732C63.6662 165.228 58.2361 166.919 53.7914 167.666L53.1766 167.768C49.0848 168.447 45.2198 169.089 41.4035 173.274C41.1191 173.585 40.8353 173.927 40.5595 174.292C36.3647 179.831 33.9142 190.277 34.5255 195.918L34.1733 195.968Z" fill="url(#paint11_linear_576_7292)" fill-opacity="0.1"/>
<path d="M33.767 195.623C32.4667 188.948 35.2038 178.242 39.5094 173.163C39.8107 172.808 40.1237 172.475 40.4402 172.174C44.4223 168.38 48.4766 168.264 52.7689 168.141C53.1975 168.129 53.6267 168.117 54.0569 168.1C60.7234 167.848 64.949 165.22 66.9748 160.068C69.36 154.002 67.9149 146.73 65.9981 139.775C64.0317 132.629 61.6919 124.256 59.2452 116.338C58.3349 113.416 57.2016 109.779 58.3808 106.274C59.1752 103.911 61.4913 101.248 65.6086 100.86C67.424 100.709 69.3125 100.885 71.2306 101.386C74.236 102.12 77.0327 103.395 79.5003 104.52L80.4109 104.934C83.0659 106.134 85.7847 107.256 89.2262 108.571C93.8027 110.295 99.2998 112.131 105.365 112.667C109.483 113.035 113.9 112.837 118.492 112.079C123.73 111.153 128.801 109.677 133.667 107.66C144.784 103.167 154.997 96.4593 163.201 88.2626L163.432 88.7115C155.196 96.9406 144.945 103.673 133.79 108.182C128.905 110.206 123.814 111.689 118.556 112.618C113.941 113.38 109.502 113.578 105.361 113.208C99.2618 112.67 93.7411 110.826 89.1452 109.094C85.6969 107.777 82.9729 106.653 80.3119 105.45L79.4004 105.036C76.9452 103.916 74.1627 102.647 71.1846 101.92C69.2976 101.428 67.4396 101.253 65.6535 101.401C63.1754 101.635 59.8748 103.117 58.7282 106.527C57.6228 109.813 58.716 113.322 59.5947 116.142C62.0445 124.07 64.3863 132.449 66.354 139.601C68.3053 146.681 69.7718 154.094 67.3121 160.351C65.2193 165.673 60.8934 168.385 54.0869 168.643C53.6559 168.659 53.2258 168.672 52.7966 168.683C48.5602 168.805 44.5589 168.92 40.665 172.629C40.3587 172.92 40.0554 173.243 39.7636 173.587C35.5517 178.556 32.8694 189.003 34.1361 195.504L33.767 195.623Z" fill="url(#paint12_linear_576_7292)" fill-opacity="0.1"/>
<path d="M33.3601 195.276C31.4632 188.267 34.0122 177.369 38.7083 172.412C39.0308 172.071 39.3652 171.757 39.7026 171.479C43.8216 168.073 48.2627 168.483 52.5578 168.879C53.1654 168.935 53.7732 168.992 54.3802 169.037C59.1491 169.397 65.3892 168.411 68.0348 161.667C70.5178 155.339 68.5839 147.539 66.3649 140.743C63.2649 131.241 60.4974 123.208 57.9043 116.188C56.8139 113.25 55.32 109.226 56.4206 105.384C57.5488 101.445 61.0539 99.7659 63.7128 99.5261C65.57 99.3743 67.5121 99.6108 69.4793 100.228C72.6616 101.172 75.6741 102.875 78.332 104.378L79.0388 104.777C82.0586 106.477 85.1732 108.103 88.5603 109.746C95.5148 113.096 101.047 115.054 106.497 116.095C111.354 116.989 116.131 117.255 120.765 116.889C126.316 116.434 131.689 115.293 136.826 113.481C148.339 109.524 158.813 102.766 167.115 93.9389L167.371 94.4093C159.028 103.281 148.506 110.071 136.942 114.045C131.781 115.866 126.383 117.011 120.807 117.469C116.148 117.837 111.345 117.57 106.462 116.67C100.985 115.624 95.4283 113.658 88.4462 110.294C85.052 108.648 81.931 107.019 78.9048 105.315L78.1973 104.915C75.4265 103.349 72.5616 101.729 69.4149 100.796C67.4858 100.19 65.5814 99.9573 63.76 100.105C61.2135 100.335 57.8632 101.919 56.8017 105.626C55.7715 109.222 57.2128 113.105 58.2651 115.939C60.8618 122.969 63.6324 131.01 66.7355 140.523C68.9985 147.453 70.9653 155.42 68.3957 161.969C65.6539 168.958 59.2603 169.985 54.3794 169.617C53.7708 169.571 53.1617 169.515 52.5523 169.459C48.3174 169.067 43.9384 168.663 39.9227 171.984C39.5974 172.252 39.2751 172.555 38.9643 172.883C34.4731 177.625 31.9353 188.418 33.7422 195.093L33.3601 195.276Z" fill="url(#paint13_linear_576_7292)" fill-opacity="0.1"/>
<path d="M32.956 194.924C30.5098 187.685 32.9172 176.377 37.9095 171.657C38.2519 171.333 38.6078 171.038 38.9675 170.781C43.2499 167.713 47.9164 168.641 52.4291 169.539C53.1765 169.688 53.9492 169.842 54.7042 169.974C58.8167 170.692 66.1547 170.775 69.096 163.264C71.6653 156.702 69.3435 148.685 66.7333 141.709C63.1897 132.231 59.8635 123.832 56.5649 116.033C55.3222 113.103 53.4438 108.675 54.462 104.493C55.1118 101.823 57.4284 98.5699 61.8181 98.1886C63.7182 98.0364 65.7146 98.3333 67.729 99.0679C71.056 100.23 74.1255 102.268 77.0941 104.238L77.6673 104.618C81.0206 106.839 84.4614 108.959 87.8946 110.919C95.2455 115.101 101.516 117.834 107.628 119.521C112.845 120.941 118.007 121.67 123.038 121.697C128.893 121.704 134.57 120.901 139.987 119.299C151.919 115.858 162.654 109.051 171.029 99.6124L171.311 100.104C162.886 109.599 152.091 116.446 140.095 119.905C134.65 121.516 128.944 122.323 123.058 122.315C118 122.288 112.811 121.556 107.566 120.128C101.425 118.433 95.1285 115.689 87.75 111.492C84.3089 109.526 80.8601 107.402 77.4994 105.176L76.9257 104.796C73.9775 102.839 70.9289 100.815 67.6449 99.6677C65.6761 98.949 63.7247 98.658 61.8674 98.8061C57.681 99.1696 55.4846 102.22 54.8757 104.721C53.9962 108.333 55.3486 111.992 56.9363 115.736C60.2396 123.545 63.5695 131.954 67.1169 141.442C68.2321 144.422 69.5957 148.361 70.2483 152.394C70.9592 156.789 70.708 160.45 69.4803 163.585C66.4228 171.394 58.8907 171.324 54.673 170.587C53.9144 170.455 53.1396 170.301 52.3905 170.152C47.9437 169.267 43.3454 168.352 39.1804 171.336C38.8352 171.583 38.4936 171.866 38.1648 172.177C33.326 176.752 30.9852 187.689 33.348 194.68L32.956 194.924Z" fill="url(#paint14_linear_576_7292)" fill-opacity="0.1"/>
<path d="M32.5536 194.571C29.5241 186.958 31.7398 175.456 37.1127 170.904C37.4704 170.6 37.8449 170.327 38.2347 170.085C42.6963 167.326 47.6031 168.764 52.348 170.154C53.2302 170.413 54.1423 170.68 55.0293 170.913C65.7718 173.73 69.3249 166.994 70.1584 164.862C72.8259 158.036 69.9271 149.419 67.1038 142.675C63.1815 133.303 59.1856 124.288 55.2268 115.88C53.3781 111.957 51.6447 107.778 52.505 103.604C53.3933 99.2937 56.8717 97.1079 59.9249 96.8537C61.8689 96.7007 63.9205 97.0585 65.9803 97.9098C69.3868 99.2722 72.5907 101.679 75.6893 104.007L76.2959 104.462C79.9003 107.177 83.5785 109.745 87.2291 112.095C94.9202 117.037 101.963 120.588 108.76 122.95C114.335 124.882 119.88 126.073 125.314 126.508C131.465 126.97 137.444 126.505 143.149 125.12C155.515 122.182 166.51 115.325 174.944 105.289L175.253 105.8C166.759 115.907 155.692 122.811 143.248 125.768C137.511 127.16 131.498 127.628 125.311 127.163C119.849 126.726 114.275 125.528 108.672 123.587C101.846 121.215 94.775 117.651 87.0558 112.69C83.3959 110.334 79.7083 107.76 76.0956 105.038L75.4889 104.583C72.413 102.272 69.2327 99.8834 65.8758 98.5409C63.8689 97.7106 61.8701 97.361 59.9759 97.5091C57.0764 97.7502 53.7798 99.7946 52.9509 103.818C52.1462 107.721 53.8225 111.746 55.6085 115.535C59.572 123.954 63.5726 132.98 67.4993 142.363C70.3871 149.261 73.3458 158.091 70.5665 165.203C69.2632 168.537 66.982 170.716 63.7864 171.679C60.5711 172.647 57.2164 172.148 54.9682 171.558C54.0761 171.324 53.1614 171.056 52.277 170.797C47.6026 169.427 42.7691 168.011 38.4382 170.689C38.0656 170.92 37.7075 171.182 37.3655 171.472C32.182 175.863 30.0385 186.944 32.9549 194.272L32.5536 194.571Z" fill="url(#paint15_linear_576_7292)" fill-opacity="0.1"/>
<path d="M32.1468 194.221C30.2851 190.099 29.8357 184.865 30.9142 179.862C31.9926 174.858 34.3921 171.042 37.4978 169.393C42.1498 166.923 47.3067 168.864 52.2937 170.742C53.3002 171.121 54.3412 171.513 55.3499 171.856C64.3079 174.904 69.4193 171.069 71.2156 166.464C73.9947 159.34 70.409 150.029 67.47 143.645C63.132 134.222 58.5611 124.83 53.8843 115.728C52.9499 113.909 51.8936 111.78 51.1866 109.527C50.3962 107.01 50.1861 104.783 50.544 102.719C51.345 98.0961 54.8795 95.7733 58.0272 95.5215C63.8182 95.0583 69.1863 99.5317 74.3778 103.858L74.9199 104.31C93.9214 120.119 111.148 128.955 127.584 131.322C147.541 134.196 166.229 126.778 178.855 110.968L179.19 111.499C166.468 127.429 147.649 134.906 127.559 132.013C111.049 129.635 93.7551 120.767 74.6883 104.904L74.1457 104.452C69.0201 100.18 63.7201 95.7638 58.0798 96.2148C55.1029 96.4531 51.7656 98.6175 51.0206 102.916C50.2925 107.117 52.2293 111.356 54.2758 115.339C58.9577 124.451 63.5335 133.854 67.8766 143.287C74.1611 156.939 73.0386 163.257 71.6477 166.823C68.7828 174.168 61.3034 174.587 55.259 172.531C54.2442 172.186 53.2003 171.793 52.191 171.412C47.2788 169.563 42.1993 167.651 37.6903 170.045C34.7189 171.623 32.4203 175.286 31.3838 180.095C30.3475 184.904 30.7746 189.924 32.5561 193.868L32.1468 194.221Z" fill="url(#paint16_linear_576_7292)" fill-opacity="0.1"/>
<defs>
<linearGradient id="paint0_linear_576_7292" x1="102.016" y1="56.9742" x2="121.614" y2="140.102" gradientUnits="userSpaceOnUse">
<stop offset="0.0677083" stop-color="white"/>
<stop offset="0.302083" stop-color="#994FFF"/>
<stop offset="1" stop-color="#E70DD4"/>
</linearGradient>
<linearGradient id="paint1_linear_576_7292" x1="105.124" y1="61.4303" x2="122.148" y2="142.997" gradientUnits="userSpaceOnUse">
<stop offset="0.0677083" stop-color="white"/>
<stop offset="0.302083" stop-color="#994FFF"/>
<stop offset="1" stop-color="#E70DD4"/>
</linearGradient>
<linearGradient id="paint2_linear_576_7292" x1="108.234" y1="65.8855" x2="122.898" y2="145.716" gradientUnits="userSpaceOnUse">
<stop offset="0.0677083" stop-color="white"/>
<stop offset="0.302083" stop-color="#994FFF"/>
<stop offset="1" stop-color="#E70DD4"/>
</linearGradient>
<linearGradient id="paint3_linear_576_7292" x1="111.344" y1="70.3413" x2="123.851" y2="148.289" gradientUnits="userSpaceOnUse">
<stop offset="0.0677083" stop-color="white"/>
<stop offset="0.302083" stop-color="#994FFF"/>
<stop offset="1" stop-color="#E70DD4"/>
</linearGradient>
<linearGradient id="paint4_linear_576_7292" x1="114.45" y1="74.7998" x2="124.992" y2="150.745" gradientUnits="userSpaceOnUse">
<stop offset="0.0677083" stop-color="white"/>
<stop offset="0.302083" stop-color="#994FFF"/>
<stop offset="1" stop-color="#E70DD4"/>
</linearGradient>
<linearGradient id="paint5_linear_576_7292" x1="117.56" y1="79.2553" x2="126.319" y2="153.099" gradientUnits="userSpaceOnUse">
<stop offset="0.0677083" stop-color="white"/>
<stop offset="0.302083" stop-color="#994FFF"/>
<stop offset="1" stop-color="#E70DD4"/>
</linearGradient>
<linearGradient id="paint6_linear_576_7292" x1="120.67" y1="83.709" x2="127.815" y2="155.37" gradientUnits="userSpaceOnUse">
<stop offset="0.0677083" stop-color="white"/>
<stop offset="0.302083" stop-color="#994FFF"/>
<stop offset="1" stop-color="#E70DD4"/>
</linearGradient>
<linearGradient id="paint7_linear_576_7292" x1="123.779" y1="88.1609" x2="129.468" y2="157.573" gradientUnits="userSpaceOnUse">
<stop offset="0.0677083" stop-color="white"/>
<stop offset="0.302083" stop-color="#994FFF"/>
<stop offset="1" stop-color="#E70DD4"/>
</linearGradient>
<linearGradient id="paint8_linear_576_7292" x1="126.888" y1="92.6139" x2="131.27" y2="159.724" gradientUnits="userSpaceOnUse">
<stop offset="0.0677083" stop-color="white"/>
<stop offset="0.302083" stop-color="#994FFF"/>
<stop offset="1" stop-color="#E70DD4"/>
</linearGradient>
<linearGradient id="paint9_linear_576_7292" x1="129.995" y1="97.0657" x2="133.209" y2="161.833" gradientUnits="userSpaceOnUse">
<stop offset="0.0677083" stop-color="white"/>
<stop offset="0.302083" stop-color="#994FFF"/>
<stop offset="1" stop-color="#E70DD4"/>
</linearGradient>
<linearGradient id="paint10_linear_576_7292" x1="133.11" y1="101.526" x2="135.289" y2="163.938" gradientUnits="userSpaceOnUse">
<stop offset="0.0677083" stop-color="white"/>
<stop offset="0.302083" stop-color="#994FFF"/>
<stop offset="1" stop-color="#E70DD4"/>
</linearGradient>
<linearGradient id="paint11_linear_576_7292" x1="136.225" y1="105.99" x2="137.492" y2="166.041" gradientUnits="userSpaceOnUse">
<stop offset="0.0677083" stop-color="white"/>
<stop offset="0.302083" stop-color="#994FFF"/>
<stop offset="1" stop-color="#E70DD4"/>
</linearGradient>
<linearGradient id="paint12_linear_576_7292" x1="139.331" y1="110.457" x2="139.789" y2="168.131" gradientUnits="userSpaceOnUse">
<stop offset="0.0677083" stop-color="white"/>
<stop offset="0.302083" stop-color="#994FFF"/>
<stop offset="1" stop-color="#E70DD4"/>
</linearGradient>
<linearGradient id="paint13_linear_576_7292" x1="142.418" y1="114.921" x2="142.164" y2="170.206" gradientUnits="userSpaceOnUse">
<stop offset="0.0677083" stop-color="white"/>
<stop offset="0.302083" stop-color="#994FFF"/>
<stop offset="1" stop-color="#E70DD4"/>
</linearGradient>
<linearGradient id="paint14_linear_576_7292" x1="145.496" y1="119.38" x2="144.622" y2="172.27" gradientUnits="userSpaceOnUse">
<stop offset="0.0677083" stop-color="white"/>
<stop offset="0.302083" stop-color="#994FFF"/>
<stop offset="1" stop-color="#E70DD4"/>
</linearGradient>
<linearGradient id="paint15_linear_576_7292" x1="148.564" y1="123.839" x2="147.155" y2="174.33" gradientUnits="userSpaceOnUse">
<stop offset="0.0677083" stop-color="white"/>
<stop offset="0.302083" stop-color="#994FFF"/>
<stop offset="1" stop-color="#E70DD4"/>
</linearGradient>
<linearGradient id="paint16_linear_576_7292" x1="151.618" y1="128.299" x2="149.755" y2="176.391" gradientUnits="userSpaceOnUse">
<stop offset="0.0677083" stop-color="white"/>
<stop offset="0.302083" stop-color="#994FFF"/>
<stop offset="1" stop-color="#E70DD4"/>
</linearGradient>
</defs>
</svg>
