<svg width="423" height="133" viewBox="0 0 423 133" fill="none" xmlns="http://www.w3.org/2000/svg">
<rect y="1.94922" width="423" height="130" rx="65" fill="#2ABAE9"/>
<circle cx="66.0176" cy="65.9141" r="51.6582" fill="white"/>
<circle cx="66.0176" cy="66.9316" r="62.5176" stroke="white" stroke-width="7"/>
<path d="M66.0143 67.7478C72.3485 67.7478 77.4727 62.6191 77.4727 56.2895C77.4727 49.9599 72.3485 44.8312 66.0143 44.8312C59.6802 44.8312 54.556 49.9599 54.556 56.2895C54.556 62.6191 59.6802 67.7478 66.0143 67.7478ZM66.0143 49.4145C69.8047 49.4145 72.8893 52.4991 72.8893 56.2895C72.8893 60.0799 69.8047 63.1645 66.0143 63.1645C62.2239 63.1645 59.1393 60.0799 59.1393 56.2895C59.1393 52.4991 62.2239 49.4145 66.0143 49.4145ZM84.3477 70.0395C85.8671 70.0395 87.3244 69.4359 88.3988 68.3615C89.4732 67.2871 90.0768 65.8298 90.0768 64.3103C90.0768 62.7909 89.4732 61.3336 88.3988 60.2592C87.3244 59.1848 85.8671 58.5812 84.3477 58.5812C82.8282 58.5812 81.3709 59.1848 80.2965 60.2592C79.2221 61.3336 78.6185 62.7909 78.6185 64.3103C78.6185 65.8298 79.2221 67.2871 80.2965 68.3615C81.3709 69.4359 82.8282 70.0395 84.3477 70.0395ZM84.3477 60.8728C86.2429 60.8728 87.7852 62.4151 87.7852 64.3103C87.7852 66.2056 86.2429 67.7478 84.3477 67.7478C82.4524 67.7478 80.9102 66.2056 80.9102 64.3103C80.9102 62.4151 82.4524 60.8728 84.3477 60.8728ZM84.3477 71.3916C81.2974 71.3916 79.0035 72.322 77.6629 73.6122C75.1077 71.5085 71.0674 70.0395 66.0143 70.0395C60.8214 70.0395 56.8591 71.5245 54.3452 73.6237C52.9793 72.3289 50.6602 71.3893 47.681 71.3893C42.6668 71.3893 39.6602 73.8895 39.6602 76.392C39.6602 77.641 42.6668 78.8945 47.681 78.8945C49.0652 78.8945 50.3072 78.7776 51.4004 78.5897L51.3087 79.2085C51.3087 81.5001 56.8202 83.7918 66.0143 83.7918C74.6356 83.7918 80.7199 81.5001 80.7199 79.2085L80.6718 78.6241C81.7329 78.7914 82.9543 78.8945 84.3477 78.8945C89.0479 78.8945 92.3685 77.641 92.3685 76.392C92.3685 73.8895 89.222 71.3916 84.3477 71.3916ZM47.681 76.6006C44.6812 76.6006 42.9418 76.1262 42.142 75.7893C42.6897 74.8612 44.4406 73.681 47.681 73.681C50.2179 73.681 51.8908 74.4853 52.741 75.2989L52.2024 76.0872C51.1666 76.3599 49.6633 76.6006 47.681 76.6006ZM66.0143 79.2062C61.0574 79.2062 57.9912 78.4912 56.426 77.9206C57.6199 76.3668 60.8214 74.6228 66.0143 74.6228C70.9849 74.6228 74.2414 76.3668 75.5202 77.8885C73.7899 78.5072 70.5656 79.2062 66.0143 79.2062ZM84.3477 76.6006C82.2531 76.6006 80.8047 76.3645 79.8262 76.1124C79.6558 75.8138 79.466 75.5267 79.2579 75.2531C80.0737 74.4624 81.7122 73.6833 84.3477 73.6833C87.3818 73.6833 89.2541 74.8314 89.8568 75.771C88.9631 76.1445 87.0954 76.6006 84.3477 76.6006ZM47.681 70.0395C49.2005 70.0395 50.6577 69.4359 51.7321 68.3615C52.8065 67.2871 53.4102 65.8298 53.4102 64.3103C53.4102 62.7909 52.8065 61.3336 51.7321 60.2592C50.6577 59.1848 49.2005 58.5812 47.681 58.5812C46.1615 58.5812 44.7043 59.1848 43.6299 60.2592C42.5554 61.3336 41.9518 62.7909 41.9518 64.3103C41.9518 65.8298 42.5554 67.2871 43.6299 68.3615C44.7043 69.4359 46.1615 70.0395 47.681 70.0395ZM47.681 60.8728C49.5762 60.8728 51.1185 62.4151 51.1185 64.3103C51.1185 66.2056 49.5762 67.7478 47.681 67.7478C45.7858 67.7478 44.2435 66.2056 44.2435 64.3103C44.2435 62.4151 45.7858 60.8728 47.681 60.8728Z" fill="#2ABAE9"/>
</svg>
