<svg width="430" height="130" viewBox="0 0 430 130" fill="none" xmlns="http://www.w3.org/2000/svg">
<g clip-path="url(#clip0_576_7252)">
<rect width="430" height="130" rx="65" fill="#E939D9"/>
<circle cx="364.982" cy="65" r="51.6582" fill="white"/>
<circle cx="364.982" cy="66.0176" r="62.5176" stroke="white" stroke-width="7"/>
<path d="M364.983 65.7986C371.317 65.7986 376.441 60.6699 376.441 54.3403C376.441 48.0107 371.317 42.882 364.983 42.882C358.649 42.882 353.525 48.0107 353.525 54.3403C353.525 60.6699 358.649 65.7986 364.983 65.7986ZM364.983 47.4653C368.773 47.4653 371.858 50.5499 371.858 54.3403C371.858 58.1307 368.773 61.2153 364.983 61.2153C361.193 61.2153 358.108 58.1307 358.108 54.3403C358.108 50.5499 361.193 47.4653 364.983 47.4653ZM383.316 68.0903C384.836 68.0903 386.293 67.4867 387.368 66.4123C388.442 65.3378 389.046 63.8806 389.046 62.3611C389.046 60.8417 388.442 59.3844 387.368 58.31C386.293 57.2356 384.836 56.632 383.316 56.632C381.797 56.632 380.34 57.2356 379.265 58.31C378.191 59.3844 377.587 60.8417 377.587 62.3611C377.587 63.8806 378.191 65.3378 379.265 66.4123C380.34 67.4867 381.797 68.0903 383.316 68.0903ZM383.316 58.9236C385.212 58.9236 386.754 60.4659 386.754 62.3611C386.754 64.2563 385.212 65.7986 383.316 65.7986C381.421 65.7986 379.879 64.2563 379.879 62.3611C379.879 60.4659 381.421 58.9236 383.316 58.9236ZM383.316 69.4424C380.266 69.4424 377.972 70.3728 376.632 71.663C374.076 69.5592 370.036 68.0903 364.983 68.0903C359.79 68.0903 355.828 69.5753 353.314 71.6745C351.948 70.3797 349.629 69.4401 346.65 69.4401C341.636 69.4401 338.629 71.9403 338.629 74.4428C338.629 75.6917 341.636 76.9453 346.65 76.9453C348.034 76.9453 349.276 76.8284 350.369 76.6405L350.277 77.2593C350.277 79.5509 355.789 81.8426 364.983 81.8426C373.604 81.8426 379.689 79.5509 379.689 77.2593L379.641 76.6749C380.702 76.8422 381.923 76.9453 383.316 76.9453C388.017 76.9453 391.337 75.6917 391.337 74.4428C391.337 71.9403 388.191 69.4424 383.316 69.4424ZM346.65 74.6513C343.65 74.6513 341.911 74.177 341.111 73.8401C341.658 72.912 343.409 71.7318 346.65 71.7318C349.187 71.7318 350.86 72.5361 351.71 73.3497L351.171 74.138C350.135 74.4107 348.632 74.6513 346.65 74.6513ZM364.983 77.257C360.026 77.257 356.96 76.542 355.395 75.9713C356.589 74.4176 359.79 72.6736 364.983 72.6736C369.954 72.6736 373.21 74.4176 374.489 75.9393C372.759 76.558 369.534 77.257 364.983 77.257ZM383.316 74.6513C381.222 74.6513 379.773 74.4153 378.795 74.1632C378.625 73.8646 378.435 73.5775 378.227 73.3038C379.042 72.5132 380.681 71.734 383.316 71.734C386.351 71.734 388.223 72.8822 388.826 73.8217C387.932 74.1953 386.064 74.6513 383.316 74.6513ZM346.65 68.0903C348.169 68.0903 349.626 67.4867 350.701 66.4123C351.775 65.3378 352.379 63.8806 352.379 62.3611C352.379 60.8417 351.775 59.3844 350.701 58.31C349.626 57.2356 348.169 56.632 346.65 56.632C345.13 56.632 343.673 57.2356 342.599 58.31C341.524 59.3844 340.921 60.8417 340.921 62.3611C340.921 63.8806 341.524 65.3378 342.599 66.4123C343.673 67.4867 345.13 68.0903 346.65 68.0903ZM346.65 58.9236C348.545 58.9236 350.087 60.4659 350.087 62.3611C350.087 64.2563 348.545 65.7986 346.65 65.7986C344.755 65.7986 343.212 64.2563 343.212 62.3611C343.212 60.4659 344.755 58.9236 346.65 58.9236Z" fill="#E939D9"/>
</g>
<defs>
<clipPath id="clip0_576_7252">
<rect width="430" height="130" rx="65" fill="white"/>
</clipPath>
</defs>
</svg>
