<svg width="112" height="229" viewBox="0 0 112 229" fill="none" xmlns="http://www.w3.org/2000/svg">
<rect x="7.09375" y="146.635" width="3.49443" height="3.79851" rx="1" fill="#D9D9D9"/>
<rect x="7.09375" y="157.727" width="3.49443" height="3.79851" rx="1" fill="#D9D9D9"/>
<rect x="7.09375" y="168.818" width="3.49443" height="3.79851" rx="1" fill="#D9D9D9"/>
<rect x="7.09375" y="179.91" width="3.49443" height="3.79851" rx="1" fill="#D9D9D9"/>
<rect x="7.09375" y="191.001" width="3.49443" height="3.79851" rx="1" fill="#D9D9D9"/>
<rect x="7.09375" y="202.093" width="3.49443" height="3.79851" rx="1" fill="#D9D9D9"/>
<rect x="7.09375" y="213.184" width="3.49443" height="3.79851" rx="1" fill="#D9D9D9"/>
<rect x="7.09375" y="224.275" width="3.49443" height="3.79851" rx="1" fill="#D9D9D9"/>
<rect x="19.0938" y="146.635" width="3.49443" height="3.79851" rx="1" fill="#D9D9D9"/>
<rect x="19.0938" y="157.727" width="3.49443" height="3.79851" rx="1" fill="#D9D9D9"/>
<rect x="19.0938" y="168.818" width="3.49443" height="3.79851" rx="1" fill="#D9D9D9"/>
<rect x="19.0938" y="179.91" width="3.49443" height="3.79851" rx="1" fill="#D9D9D9"/>
<rect x="19.0938" y="191.001" width="3.49443" height="3.79851" rx="1" fill="#D9D9D9"/>
<rect x="19.0938" y="202.093" width="3.49443" height="3.79851" rx="1" fill="#D9D9D9"/>
<rect x="19.0938" y="213.184" width="3.49443" height="3.79851" rx="1" fill="#D9D9D9"/>
<rect x="19.0938" y="224.275" width="3.49443" height="3.79851" rx="1" fill="#D9D9D9"/>
<rect x="31.0977" y="146.635" width="3.49443" height="3.79851" rx="1" fill="#D9D9D9"/>
<rect x="31.0977" y="157.727" width="3.49443" height="3.79851" rx="1" fill="#D9D9D9"/>
<rect x="31.0977" y="168.818" width="3.49443" height="3.79851" rx="1" fill="#D9D9D9"/>
<rect x="31.0977" y="179.91" width="3.49443" height="3.79851" rx="1" fill="#D9D9D9"/>
<rect x="31.0977" y="191.001" width="3.49443" height="3.79851" rx="1" fill="#D9D9D9"/>
<rect x="31.0977" y="202.093" width="3.49443" height="3.79851" rx="1" fill="#D9D9D9"/>
<rect x="31.0977" y="213.184" width="3.49443" height="3.79851" rx="1" fill="#D9D9D9"/>
<rect x="31.0977" y="224.275" width="3.49443" height="3.79851" rx="1" fill="#D9D9D9"/>
<path fill-rule="evenodd" clip-rule="evenodd" d="M14.0551 2.37198C42.2228 5.5499 55.9145 34.9915 73.221 57.4416C89.9367 79.1252 114.13 99.438 109.711 126.458C105.102 154.644 78.6498 172.981 52.462 184.378C27.6775 195.164 0.0278508 196.031 -24.6106 184.915C-50.0856 173.422 -70.3001 152.511 -77.8275 125.596C-85.8319 96.9757 -82.3754 65.7161 -64.6104 41.8912C-46.1552 17.1409 -16.6238 -1.08925 14.0551 2.37198Z" stroke="url(#paint0_linear_1325_4386)" stroke-width="2"/>
<defs>
<linearGradient id="paint0_linear_1325_4386" x1="156.364" y1="-84.6447" x2="-46.0909" y2="131.467" gradientUnits="userSpaceOnUse">
<stop stop-color="#FBC524"/>
<stop offset="0.52" stop-color="#E939D9"/>
<stop offset="1" stop-color="#2ABAE9"/>
</linearGradient>
</defs>
</svg>
