<svg width="73" height="262" viewBox="0 0 73 262" fill="none" xmlns="http://www.w3.org/2000/svg">
<g opacity="0.5">
<rect x="5.00781" y="191.57" width="3.49443" height="3.79851" rx="1" fill="#D9D9D9"/>
<rect x="5.00781" y="202.662" width="3.49443" height="3.79851" rx="1" fill="#D9D9D9"/>
<rect x="5.00781" y="213.753" width="3.49443" height="3.79851" rx="1" fill="#D9D9D9"/>
<rect x="5.00781" y="224.845" width="3.49443" height="3.79851" rx="1" fill="#D9D9D9"/>
<rect x="5.00781" y="235.936" width="3.49443" height="3.79851" rx="1" fill="#D9D9D9"/>
<rect x="5.00781" y="247.028" width="3.49443" height="3.79851" rx="1" fill="#D9D9D9"/>
<rect x="5.00781" y="258.119" width="3.49443" height="3.79851" rx="1" fill="#D9D9D9"/>
<rect x="17.0078" y="191.57" width="3.49443" height="3.79851" rx="1" fill="#D9D9D9"/>
<rect x="17.0078" y="202.662" width="3.49443" height="3.79851" rx="1" fill="#D9D9D9"/>
<rect x="17.0078" y="213.753" width="3.49443" height="3.79851" rx="1" fill="#D9D9D9"/>
<rect x="17.0078" y="224.845" width="3.49443" height="3.79851" rx="1" fill="#D9D9D9"/>
<rect x="17.0078" y="235.936" width="3.49443" height="3.79851" rx="1" fill="#D9D9D9"/>
<rect x="17.0078" y="247.028" width="3.49443" height="3.79851" rx="1" fill="#D9D9D9"/>
<rect x="17.0078" y="258.119" width="3.49443" height="3.79851" rx="1" fill="#D9D9D9"/>
<rect x="29.0117" y="191.57" width="3.49443" height="3.79851" rx="1" fill="#D9D9D9"/>
<rect x="29.0117" y="202.662" width="3.49443" height="3.79851" rx="1" fill="#D9D9D9"/>
<rect x="29.0117" y="213.753" width="3.49443" height="3.79851" rx="1" fill="#D9D9D9"/>
<rect x="29.0117" y="224.845" width="3.49443" height="3.79851" rx="1" fill="#D9D9D9"/>
<rect x="29.0117" y="235.936" width="3.49443" height="3.79851" rx="1" fill="#D9D9D9"/>
<rect x="29.0117" y="247.028" width="3.49443" height="3.79851" rx="1" fill="#D9D9D9"/>
<rect x="29.0117" y="258.119" width="3.49443" height="3.79851" rx="1" fill="#D9D9D9"/>
<rect x="5.00781" y="104.799" width="3.49443" height="3.79851" rx="1" fill="#D9D9D9"/>
<rect x="5.00781" y="115.891" width="3.49443" height="3.79851" rx="1" fill="#D9D9D9"/>
<rect x="5.00781" y="126.982" width="3.49443" height="3.79851" rx="1" fill="#D9D9D9"/>
<rect x="5.00781" y="138.074" width="3.49443" height="3.79851" rx="1" fill="#D9D9D9"/>
<rect x="5.00781" y="149.165" width="3.49443" height="3.79851" rx="1" fill="#D9D9D9"/>
<rect x="5.00781" y="160.257" width="3.49443" height="3.79851" rx="1" fill="#D9D9D9"/>
<rect x="5.00781" y="171.348" width="3.49443" height="3.79851" rx="1" fill="#D9D9D9"/>
<rect x="5.00781" y="182.439" width="3.49443" height="3.79851" rx="1" fill="#D9D9D9"/>
<rect x="17.0078" y="104.799" width="3.49443" height="3.79851" rx="1" fill="#D9D9D9"/>
<rect x="17.0078" y="115.891" width="3.49443" height="3.79851" rx="1" fill="#D9D9D9"/>
<rect x="17.0078" y="126.982" width="3.49443" height="3.79851" rx="1" fill="#D9D9D9"/>
<rect x="17.0078" y="138.074" width="3.49443" height="3.79851" rx="1" fill="#D9D9D9"/>
<rect x="17.0078" y="149.165" width="3.49443" height="3.79851" rx="1" fill="#D9D9D9"/>
<rect x="17.0078" y="160.257" width="3.49443" height="3.79851" rx="1" fill="#D9D9D9"/>
<rect x="17.0078" y="171.348" width="3.49443" height="3.79851" rx="1" fill="#D9D9D9"/>
<rect x="17.0078" y="182.439" width="3.49443" height="3.79851" rx="1" fill="#D9D9D9"/>
<rect x="29.0117" y="104.799" width="3.49443" height="3.79851" rx="1" fill="#D9D9D9"/>
<rect x="29.0117" y="115.891" width="3.49443" height="3.79851" rx="1" fill="#D9D9D9"/>
<rect x="29.0117" y="126.982" width="3.49443" height="3.79851" rx="1" fill="#D9D9D9"/>
<rect x="29.0117" y="138.074" width="3.49443" height="3.79851" rx="1" fill="#D9D9D9"/>
<rect x="29.0117" y="149.165" width="3.49443" height="3.79851" rx="1" fill="#D9D9D9"/>
<rect x="29.0117" y="160.257" width="3.49443" height="3.79851" rx="1" fill="#D9D9D9"/>
<rect x="29.0117" y="171.348" width="3.49443" height="3.79851" rx="1" fill="#D9D9D9"/>
<rect x="29.0117" y="182.439" width="3.49443" height="3.79851" rx="1" fill="#D9D9D9"/>
</g>
<path fill-rule="evenodd" clip-rule="evenodd" d="M-24.4254 1.86245C3.74237 5.04038 17.434 34.4819 34.7406 56.932C51.4562 78.6157 75.6497 98.9285 71.2309 125.948C66.6214 154.134 40.1694 172.471 13.9816 183.868C-10.8029 194.654 -38.4526 195.521 -63.0911 184.405C-88.5661 172.912 -108.781 152.002 -116.308 125.087C-124.312 96.4662 -120.856 65.2065 -103.091 41.3817C-84.6357 16.6314 -55.1042 -1.59877 -24.4254 1.86245Z" stroke="url(#paint0_linear_1330_4388)" stroke-width="2"/>
<defs>
<linearGradient id="paint0_linear_1330_4388" x1="117.884" y1="-85.1542" x2="-84.5714" y2="130.957" gradientUnits="userSpaceOnUse">
<stop stop-color="#FBC524"/>
<stop offset="0.52" stop-color="#E939D9"/>
<stop offset="1" stop-color="#2ABAE9"/>
</linearGradient>
</defs>
</svg>
