<svg width="84" height="195" viewBox="0 0 84 195" fill="none" xmlns="http://www.w3.org/2000/svg">
<path fill-rule="evenodd" clip-rule="evenodd" d="M86.7444 23.7795C61.6537 26.6102 49.4578 52.8355 34.0419 72.8331C19.1523 92.148 -2.39821 110.242 1.53785 134.31C5.64378 159.417 29.2061 175.751 52.5331 185.902C74.6101 195.51 99.2392 196.282 121.186 186.381C143.878 176.143 161.884 157.517 168.589 133.543C175.719 108.048 172.641 80.2037 156.816 58.9815C140.377 36.935 114.072 20.6963 86.7444 23.7795Z" stroke="url(#paint0_linear_1419_4385)" stroke-width="2"/>
<rect x="40.8906" y="0.0849609" width="3.49443" height="3.79851" rx="1" fill="#D9D9D9"/>
<rect x="40.8906" y="11.1764" width="3.49443" height="3.79851" rx="1" fill="#D9D9D9"/>
<rect x="40.8906" y="22.2678" width="3.49443" height="3.79851" rx="1" fill="#D9D9D9"/>
<rect x="40.8906" y="33.3594" width="3.49443" height="3.79851" rx="1" fill="#D9D9D9"/>
<rect x="40.8906" y="44.4508" width="3.49443" height="3.79851" rx="1" fill="#D9D9D9"/>
<rect x="40.8906" y="55.5422" width="3.49443" height="3.79851" rx="1" fill="#D9D9D9"/>
<rect x="40.8906" y="66.6338" width="3.49443" height="3.79851" rx="1" fill="#D9D9D9"/>
<rect x="40.8906" y="77.7251" width="3.49443" height="3.79851" rx="1" fill="#D9D9D9"/>
<rect x="52.8945" y="0.0849609" width="3.49443" height="3.79851" rx="1" fill="#D9D9D9"/>
<rect x="52.8945" y="11.1763" width="3.49443" height="3.79851" rx="1" fill="#D9D9D9"/>
<rect x="52.8945" y="22.2678" width="3.49443" height="3.79851" rx="1" fill="#D9D9D9"/>
<rect x="52.8945" y="33.3594" width="3.49443" height="3.79851" rx="1" fill="#D9D9D9"/>
<rect x="52.8945" y="44.4507" width="3.49443" height="3.79851" rx="1" fill="#D9D9D9"/>
<rect x="52.8945" y="55.5422" width="3.49443" height="3.79851" rx="1" fill="#D9D9D9"/>
<rect x="52.8945" y="66.6338" width="3.49443" height="3.79851" rx="1" fill="#D9D9D9"/>
<rect x="52.8945" y="77.7251" width="3.49443" height="3.79851" rx="1" fill="#D9D9D9"/>
<rect x="64.8984" y="0.0849609" width="3.49443" height="3.79851" rx="1" fill="#D9D9D9"/>
<rect x="64.8984" y="11.1763" width="3.49443" height="3.79851" rx="1" fill="#D9D9D9"/>
<rect x="64.8984" y="22.2678" width="3.49443" height="3.79851" rx="1" fill="#D9D9D9"/>
<rect x="64.8984" y="33.3594" width="3.49443" height="3.79851" rx="1" fill="#D9D9D9"/>
<rect x="64.8984" y="44.4507" width="3.49443" height="3.79851" rx="1" fill="#D9D9D9"/>
<rect x="64.8984" y="55.5422" width="3.49443" height="3.79851" rx="1" fill="#D9D9D9"/>
<rect x="64.8984" y="66.6338" width="3.49443" height="3.79851" rx="1" fill="#D9D9D9"/>
<rect x="64.8984" y="77.7251" width="3.49443" height="3.79851" rx="1" fill="#D9D9D9"/>
<rect x="76.8984" y="0.0849609" width="3.49443" height="3.79851" rx="1" fill="#D9D9D9"/>
<rect x="76.8984" y="11.1763" width="3.49443" height="3.79851" rx="1" fill="#D9D9D9"/>
<rect x="76.8984" y="22.2678" width="3.49443" height="3.79851" rx="1" fill="#D9D9D9"/>
<rect x="76.8984" y="33.3594" width="3.49443" height="3.79851" rx="1" fill="#D9D9D9"/>
<rect x="76.8984" y="44.4507" width="3.49443" height="3.79851" rx="1" fill="#D9D9D9"/>
<rect x="76.8984" y="55.5422" width="3.49443" height="3.79851" rx="1" fill="#D9D9D9"/>
<rect x="76.8984" y="66.6338" width="3.49443" height="3.79851" rx="1" fill="#D9D9D9"/>
<rect x="76.8984" y="77.7251" width="3.49443" height="3.79851" rx="1" fill="#D9D9D9"/>
<defs>
<linearGradient id="paint0_linear_1419_4385" x1="-40.0187" y1="-53.7313" x2="140.32" y2="138.772" gradientUnits="userSpaceOnUse">
<stop stop-color="#FBC524"/>
<stop offset="0.52" stop-color="#E939D9"/>
<stop offset="1" stop-color="#2ABAE9"/>
</linearGradient>
</defs>
</svg>
