<svg width="41" height="41" viewBox="0 0 41 41" fill="none" xmlns="http://www.w3.org/2000/svg">
<circle cx="20.8789" cy="20.7617" r="20" fill="#FBCB24"/>
<g clip-path="url(#clip0_473_4669)">
<path d="M20.8789 8.67834C27.7827 8.67834 33.3789 14.0881 33.3789 20.7617C33.3789 27.4353 27.7827 32.845 20.8789 32.845C13.9752 32.845 8.37891 27.4353 8.37891 20.7617C8.37891 14.0881 13.9752 8.67834 20.8789 8.67834ZM20.8789 11.095C18.2267 11.095 15.6832 12.1135 13.8078 13.9263C11.9325 15.7392 10.8789 18.1979 10.8789 20.7617C10.8789 23.3254 11.9325 25.7842 13.8078 27.597C15.6832 29.4099 18.2267 30.4283 20.8789 30.4283C23.5311 30.4283 26.0746 29.4099 27.95 27.597C29.8253 25.7842 30.8789 23.3254 30.8789 20.7617C30.8789 18.1979 29.8253 15.7392 27.95 13.9263C26.0746 12.1135 23.5311 11.095 20.8789 11.095ZM24.3789 23.0056C24.4955 22.8918 24.6344 22.8016 24.7874 22.7402C24.9404 22.6788 25.1044 22.6475 25.2701 22.6479C25.4358 22.6483 25.5997 22.6806 25.7523 22.7428C25.905 22.805 26.0433 22.896 26.1592 23.0103C26.2752 23.1246 26.3665 23.2601 26.4278 23.4089C26.4892 23.5576 26.5193 23.7167 26.5165 23.8768C26.5137 24.0369 26.4779 24.1949 26.4114 24.3415C26.3449 24.4882 26.2488 24.6206 26.1289 24.7311C24.7281 26.0611 22.8424 26.8055 20.8789 26.8033C18.9154 26.8055 17.0297 26.0611 15.6289 24.7311C15.3977 24.5056 15.2676 24.2012 15.2667 23.8837C15.2658 23.5662 15.3941 23.2612 15.6241 23.0345C15.854 22.8078 16.167 22.6776 16.4954 22.6722C16.8237 22.6668 17.1411 22.7866 17.3789 23.0056C18.3124 23.8927 19.5698 24.3889 20.8789 24.3867C22.2414 24.3867 23.4752 23.8611 24.3789 23.0056ZM16.5039 15.9283C17.0012 15.9283 17.4781 16.1193 17.8297 16.4592C18.1814 16.7991 18.3789 17.2601 18.3789 17.7408C18.3789 18.2215 18.1814 18.6826 17.8297 19.0225C17.4781 19.3624 17.0012 19.5533 16.5039 19.5533C16.0066 19.5533 15.5297 19.3624 15.1781 19.0225C14.8264 18.6826 14.6289 18.2215 14.6289 17.7408C14.6289 17.2601 14.8264 16.7991 15.1781 16.4592C15.5297 16.1193 16.0066 15.9283 16.5039 15.9283ZM25.2539 15.9283C25.7512 15.9283 26.2281 16.1193 26.5797 16.4592C26.9314 16.7991 27.1289 17.2601 27.1289 17.7408C27.1289 18.2215 26.9314 18.6826 26.5797 19.0225C26.2281 19.3624 25.7512 19.5533 25.2539 19.5533C24.7566 19.5533 24.2797 19.3624 23.9281 19.0225C23.5765 18.6826 23.3789 18.2215 23.3789 17.7408C23.3789 17.2601 23.5765 16.7991 23.9281 16.4592C24.2797 16.1193 24.7566 15.9283 25.2539 15.9283Z" fill="white"/>
</g>
<defs>
<clipPath id="clip0_473_4669">
<rect width="30" height="29" fill="white" transform="translate(5.87891 6.26172)"/>
</clipPath>
</defs>
</svg>
