<svg width="178" height="30" viewBox="0 0 178 30" fill="none" xmlns="http://www.w3.org/2000/svg">
<rect x="0.621094" y="2.56201" width="3.68796" height="4.00888" rx="1.05538" fill="#D9D9D9" fill-opacity="0.3"/>
<rect x="0.621094" y="14.2675" width="3.68796" height="4.00888" rx="1.05538" fill="#D9D9D9" fill-opacity="0.3"/>
<rect x="0.621094" y="25.9734" width="3.68796" height="4.00888" rx="1.05538" fill="#D9D9D9" fill-opacity="0.3"/>
<rect x="13.2891" y="2.56201" width="3.68796" height="4.00888" rx="1.05538" fill="#D9D9D9" fill-opacity="0.3"/>
<rect x="13.2891" y="14.2675" width="3.68796" height="4.00888" rx="1.05538" fill="#D9D9D9" fill-opacity="0.3"/>
<rect x="13.2891" y="25.9734" width="3.68796" height="4.00888" rx="1.05538" fill="#D9D9D9" fill-opacity="0.3"/>
<rect x="25.9609" y="2.56201" width="3.68796" height="4.00888" rx="1.05538" fill="#D9D9D9" fill-opacity="0.3"/>
<rect x="25.9609" y="14.2675" width="3.68796" height="4.00888" rx="1.05538" fill="#D9D9D9" fill-opacity="0.3"/>
<rect x="25.9609" y="25.9734" width="3.68796" height="4.00888" rx="1.05538" fill="#D9D9D9" fill-opacity="0.3"/>
<rect x="38.625" y="2.56201" width="3.68796" height="4.00888" rx="1.05538" fill="#D9D9D9" fill-opacity="0.3"/>
<rect x="38.625" y="14.2675" width="3.68796" height="4.00888" rx="1.05538" fill="#D9D9D9" fill-opacity="0.3"/>
<rect x="38.625" y="25.9734" width="3.68796" height="4.00888" rx="1.05538" fill="#D9D9D9" fill-opacity="0.3"/>
<rect x="51.293" y="2.56201" width="3.68796" height="4.00888" rx="1.05538" fill="#D9D9D9" fill-opacity="0.3"/>
<rect x="51.293" y="14.2675" width="3.68796" height="4.00888" rx="1.05538" fill="#D9D9D9" fill-opacity="0.3"/>
<rect x="51.293" y="25.9734" width="3.68796" height="4.00888" rx="1.05538" fill="#D9D9D9" fill-opacity="0.3"/>
<rect x="61.832" y="2.56201" width="3.68796" height="4.00888" rx="1.05538" fill="#D9D9D9" fill-opacity="0.3"/>
<rect x="61.832" y="14.2675" width="3.68796" height="4.00888" rx="1.05538" fill="#D9D9D9" fill-opacity="0.3"/>
<rect x="61.832" y="25.9734" width="3.68796" height="4.00888" rx="1.05538" fill="#D9D9D9" fill-opacity="0.3"/>
<rect x="74.5039" y="2.56201" width="3.68796" height="4.00888" rx="1.05538" fill="#D9D9D9" fill-opacity="0.3"/>
<rect x="74.5039" y="14.2675" width="3.68796" height="4.00888" rx="1.05538" fill="#D9D9D9" fill-opacity="0.3"/>
<rect x="74.5039" y="25.9734" width="3.68796" height="4.00888" rx="1.05538" fill="#D9D9D9" fill-opacity="0.3"/>
<rect x="87.1719" y="2.56201" width="3.68796" height="4.00888" rx="1.05538" fill="#D9D9D9" fill-opacity="0.3"/>
<rect x="87.1719" y="14.2675" width="3.68796" height="4.00888" rx="1.05538" fill="#D9D9D9" fill-opacity="0.3"/>
<rect x="87.1719" y="25.9734" width="3.68796" height="4.00888" rx="1.05538" fill="#D9D9D9" fill-opacity="0.3"/>
<rect x="99.8359" y="2.56195" width="3.68796" height="4.00888" rx="1.05538" fill="#D9D9D9" fill-opacity="0.3"/>
<rect x="99.8359" y="14.2675" width="3.68796" height="4.00888" rx="1.05538" fill="#D9D9D9" fill-opacity="0.3"/>
<rect x="99.8359" y="25.9733" width="3.68796" height="4.00888" rx="1.05538" fill="#D9D9D9" fill-opacity="0.3"/>
<rect x="112.504" y="2.56201" width="3.68796" height="4.00888" rx="1.05538" fill="#D9D9D9" fill-opacity="0.3"/>
<rect x="112.504" y="14.2675" width="3.68796" height="4.00888" rx="1.05538" fill="#D9D9D9" fill-opacity="0.3"/>
<rect x="112.504" y="25.9734" width="3.68796" height="4.00888" rx="1.05538" fill="#D9D9D9" fill-opacity="0.3"/>
<rect x="123.047" y="2.56201" width="3.68796" height="4.00888" rx="1.05538" fill="#D9D9D9" fill-opacity="0.3"/>
<rect x="123.047" y="14.2675" width="3.68796" height="4.00888" rx="1.05538" fill="#D9D9D9" fill-opacity="0.3"/>
<rect x="123.047" y="25.9734" width="3.68796" height="4.00888" rx="1.05538" fill="#D9D9D9" fill-opacity="0.3"/>
<rect x="135.715" y="2.56201" width="3.68796" height="4.00888" rx="1.05538" fill="#D9D9D9" fill-opacity="0.3"/>
<rect x="135.715" y="14.2675" width="3.68796" height="4.00888" rx="1.05538" fill="#D9D9D9" fill-opacity="0.3"/>
<rect x="135.715" y="25.9734" width="3.68796" height="4.00888" rx="1.05538" fill="#D9D9D9" fill-opacity="0.3"/>
<rect x="148.383" y="2.56201" width="3.68796" height="4.00888" rx="1.05538" fill="#D9D9D9" fill-opacity="0.3"/>
<rect x="148.383" y="14.2675" width="3.68796" height="4.00888" rx="1.05538" fill="#D9D9D9" fill-opacity="0.3"/>
<rect x="148.383" y="25.9734" width="3.68796" height="4.00888" rx="1.05538" fill="#D9D9D9" fill-opacity="0.3"/>
<rect x="161.047" y="2.56201" width="3.68796" height="4.00888" rx="1.05538" fill="#D9D9D9" fill-opacity="0.3"/>
<rect x="161.047" y="14.2675" width="3.68796" height="4.00888" rx="1.05538" fill="#D9D9D9" fill-opacity="0.3"/>
<rect x="161.047" y="25.9734" width="3.68796" height="4.00888" rx="1.05538" fill="#D9D9D9" fill-opacity="0.3"/>
<rect x="173.715" y="2.56201" width="3.68796" height="4.00888" rx="1.05538" fill="#D9D9D9" fill-opacity="0.3"/>
<rect x="173.715" y="14.2675" width="3.68796" height="4.00888" rx="1.05538" fill="#D9D9D9" fill-opacity="0.3"/>
<rect x="173.715" y="25.9734" width="3.68796" height="4.00888" rx="1.05538" fill="#D9D9D9" fill-opacity="0.3"/>
</svg>
