<svg width="40" height="83" viewBox="0 0 40 83" fill="none" xmlns="http://www.w3.org/2000/svg">
<rect x="-0.00390625" y="0.834961" width="3.49443" height="3.79851" rx="1" fill="#D9D9D9"/>
<rect x="-0.00390625" y="11.9263" width="3.49443" height="3.79851" rx="1" fill="#D9D9D9"/>
<rect x="-0.00390625" y="23.0178" width="3.49443" height="3.79851" rx="1" fill="#D9D9D9"/>
<rect x="-0.00390625" y="34.1094" width="3.49443" height="3.79851" rx="1" fill="#D9D9D9"/>
<rect x="-0.00390625" y="45.2007" width="3.49443" height="3.79851" rx="1" fill="#D9D9D9"/>
<rect x="-0.00390625" y="56.2922" width="3.49443" height="3.79851" rx="1" fill="#D9D9D9"/>
<rect x="-0.00390625" y="67.3838" width="3.49443" height="3.79851" rx="1" fill="#D9D9D9"/>
<rect x="-0.00390625" y="78.4751" width="3.49443" height="3.79851" rx="1" fill="#D9D9D9"/>
<rect x="12" y="0.834961" width="3.49443" height="3.79851" rx="1" fill="#D9D9D9"/>
<rect x="12" y="11.9263" width="3.49443" height="3.79851" rx="1" fill="#D9D9D9"/>
<rect x="12" y="23.0178" width="3.49443" height="3.79851" rx="1" fill="#D9D9D9"/>
<rect x="12" y="34.1094" width="3.49443" height="3.79851" rx="1" fill="#D9D9D9"/>
<rect x="12" y="45.2007" width="3.49443" height="3.79851" rx="1" fill="#D9D9D9"/>
<rect x="12" y="56.2922" width="3.49443" height="3.79851" rx="1" fill="#D9D9D9"/>
<rect x="12" y="67.3838" width="3.49443" height="3.79851" rx="1" fill="#D9D9D9"/>
<rect x="12" y="78.4751" width="3.49443" height="3.79851" rx="1" fill="#D9D9D9"/>
<rect x="24" y="0.834961" width="3.49443" height="3.79851" rx="1" fill="#D9D9D9"/>
<rect x="24" y="11.9263" width="3.49443" height="3.79851" rx="1" fill="#D9D9D9"/>
<rect x="24" y="23.0178" width="3.49443" height="3.79851" rx="1" fill="#D9D9D9"/>
<rect x="24" y="34.1094" width="3.49443" height="3.79851" rx="1" fill="#D9D9D9"/>
<rect x="24" y="45.2007" width="3.49443" height="3.79851" rx="1" fill="#D9D9D9"/>
<rect x="24" y="56.2922" width="3.49443" height="3.79851" rx="1" fill="#D9D9D9"/>
<rect x="24" y="67.3838" width="3.49443" height="3.79851" rx="1" fill="#D9D9D9"/>
<rect x="24" y="78.4751" width="3.49443" height="3.79851" rx="1" fill="#D9D9D9"/>
<rect x="36.0039" y="0.834961" width="3.49443" height="3.79851" rx="1" fill="#D9D9D9"/>
<rect x="36.0039" y="11.9263" width="3.49443" height="3.79851" rx="1" fill="#D9D9D9"/>
<rect x="36.0039" y="23.0178" width="3.49443" height="3.79851" rx="1" fill="#D9D9D9"/>
<rect x="36.0039" y="34.1094" width="3.49443" height="3.79851" rx="1" fill="#D9D9D9"/>
<rect x="36.0039" y="45.2007" width="3.49443" height="3.79851" rx="1" fill="#D9D9D9"/>
<rect x="36.0039" y="56.2922" width="3.49443" height="3.79851" rx="1" fill="#D9D9D9"/>
<rect x="36.0039" y="67.3838" width="3.49443" height="3.79851" rx="1" fill="#D9D9D9"/>
<rect x="36.0039" y="78.4751" width="3.49443" height="3.79851" rx="1" fill="#D9D9D9"/>
</svg>
