<svg width="402" height="553" viewBox="0 0 402 553" fill="none" xmlns="http://www.w3.org/2000/svg">
<path d="M11.0411 391.814L11.1286 391.652C15.6872 392.872 21.8188 391.112 28.8595 386.565C35.3812 382.268 41.8569 376.451 47.9788 369.389C54.2814 362.127 60.103 354.059 65.7328 346.257C70.5613 339.566 75.555 332.646 80.8397 326.248C110.734 290.061 151.678 271.645 174.055 284.321C175.1 284.913 176.138 285.578 177.143 286.221C181.08 288.744 185.151 291.352 190.812 290.388C195.994 289.506 202.032 285.663 208.273 279.275C213.872 273.517 219.071 266.431 223.505 258.511C227.952 250.511 231.527 242.212 234.985 234.187C237.915 227.386 240.945 220.353 244.498 213.516C250.159 202.622 257.481 191.766 265.673 182.122C274.057 172.298 282.919 164.054 291.888 157.732C301.013 151.341 310.114 146.932 318.837 144.678C327.511 142.449 335.53 142.51 342.026 144.853L341.933 145.013C335.45 142.674 327.448 142.614 318.791 144.839C310.086 147.088 301.003 151.488 291.897 157.866C282.946 164.175 274.102 172.403 265.734 182.208C257.559 191.833 250.251 202.666 244.602 213.538C241.054 220.365 238.027 227.393 235.099 234.189C231.638 242.221 228.06 250.527 223.605 258.542C219.155 266.489 213.938 273.599 208.319 279.377C202.045 285.799 195.972 289.663 190.757 290.551C185.068 291.519 180.986 288.904 177.039 286.376C176.035 285.733 174.998 285.069 173.954 284.478C151.617 271.823 110.745 290.207 80.9043 326.33C75.6261 332.719 70.6362 339.634 65.8109 346.321C60.1762 354.13 54.3503 362.203 48.038 369.477C41.8974 376.56 35.4021 382.395 28.8605 386.704C21.7868 391.273 15.6249 393.04 11.0411 391.814Z" fill="url(#paint0_linear_504_11441)" fill-opacity="0.2"/>
<path d="M10.939 390.834L11.0541 390.6C15.435 391.246 21.489 389.074 28.5613 384.319C35.0788 379.853 41.5473 374.148 47.7584 367.387C48.5198 366.559 49.308 365.688 50.1018 364.795C55.2986 358.948 60.1021 352.79 64.7477 346.834C69.6374 340.566 74.6943 334.083 80.0732 328.167C88.2585 319.164 97.5867 311.596 105.632 305.381C115.839 297.496 124.022 292.013 131.384 288.127C142.547 282.238 153.122 279.172 161.967 279.258C165.675 279.25 169.194 279.835 172.477 281.006C174.183 281.631 175.817 282.467 177.547 283.352C179.107 284.151 180.721 284.978 182.381 285.625C184.636 286.59 187.129 286.986 189.794 286.804C194.718 286.354 200.16 283.5 205.97 278.321C211.404 273.46 216.561 267.192 221.065 259.975C225.297 253.126 228.774 245.975 232.136 239.059C235.096 232.97 238.158 226.673 241.757 220.517C247.281 211.072 254.355 201.646 262.215 193.257C270.913 184.046 279.962 176.436 289.03 170.707C298.309 164.876 307.504 160.834 316.344 158.7C325.197 156.556 333.531 156.394 340.444 158.232L340.318 158.465C333.422 156.631 325.109 156.792 316.276 158.931C307.458 161.06 298.286 165.092 289.03 170.908C279.986 176.622 270.962 184.211 262.288 193.397C254.452 201.76 247.4 211.156 241.895 220.569C238.305 226.71 235.248 232.998 232.291 239.08C228.923 246.007 225.441 253.169 221.196 260.038C216.666 267.296 211.48 273.599 206.016 278.488C200.242 283.635 194.601 286.591 189.705 287.039C187.024 287.223 184.515 286.824 182.246 285.854C180.582 285.205 178.967 284.378 177.404 283.578C175.677 282.694 174.046 281.859 172.344 281.236C169.071 280.069 165.562 279.485 161.866 279.493C153.046 279.407 142.498 282.466 131.364 288.34C124.017 292.218 115.849 297.691 105.656 305.565C97.6249 311.77 88.3141 319.323 80.1508 328.302C74.7841 334.205 69.7331 340.68 64.8488 346.941C60.1984 352.903 55.3901 359.067 50.1836 364.925C49.3877 365.82 48.5973 366.694 47.8349 367.523C41.6011 374.308 35.1091 380.034 28.5679 384.516C21.4516 389.301 15.3552 391.487 10.939 390.834Z" fill="url(#paint1_linear_504_11441)" fill-opacity="0.2"/>
<path d="M10.8572 389.853L10.9907 389.546C20.3339 389.729 36.0057 377.182 47.5564 365.379C48.3209 364.598 49.113 363.778 49.9124 362.941C54.8182 357.8 59.2757 352.567 63.5868 347.507C68.8367 341.344 73.7957 335.522 79.3279 330.079C85.22 324.281 91.9637 319.154 99.1038 313.726C101.069 312.232 103.101 310.688 105.135 309.113C106.79 307.832 108.426 306.559 110.044 305.293C117.325 299.611 124.202 294.245 130.735 290.085C141.451 283.267 151.69 278.997 160.345 277.737C164.04 277.113 167.581 277.097 170.91 277.689C173.436 278.167 175.987 279.283 178.454 280.361C179.421 280.784 180.422 281.222 181.412 281.618C184.196 282.73 186.473 283.223 188.795 283.217C193.578 283.171 198.92 280.953 204.239 276.804C209.299 272.903 214.213 267.659 218.646 261.428C222.68 255.681 226.067 249.626 229.343 243.77C232.323 238.442 235.405 232.934 239.038 227.506C244.572 219.244 251.607 211.002 259.381 203.67C267.713 195.8 276.984 188.887 286.19 183.678C304.61 173.273 323.813 168.874 338.875 171.61L338.72 171.915C323.697 169.186 304.544 173.574 286.173 183.951C276.996 189.143 267.756 196.034 259.452 203.877C251.709 211.179 244.705 219.385 239.197 227.608C235.578 233.014 232.503 238.512 229.528 243.829C226.245 249.698 222.85 255.767 218.797 261.542C214.327 267.824 209.372 273.112 204.271 277.044C198.896 281.237 193.499 283.478 188.665 283.525C186.325 283.531 184.034 283.035 181.236 281.917C180.244 281.52 179.242 281.083 178.274 280.659C175.813 279.583 173.268 278.47 170.754 277.994C167.441 277.405 163.917 277.421 160.239 278.043C151.617 279.298 141.415 283.552 130.735 290.348C124.219 294.496 117.35 299.857 110.079 305.531C108.46 306.794 106.823 308.068 105.167 309.353C103.132 310.928 101.099 312.474 99.1334 313.968C92.0064 319.386 85.2749 324.503 79.4066 330.278C73.8931 335.703 68.9426 341.515 63.7013 347.667C59.3848 352.734 54.922 357.973 50.0039 363.127C49.2034 363.965 48.4092 364.787 47.6437 365.57C36.0365 377.431 20.2776 390.038 10.8572 389.853Z" fill="url(#paint2_linear_504_11441)" fill-opacity="0.2"/>
<path d="M10.768 388.871L10.9057 388.493C21.6969 387.228 41.5239 368.943 47.3436 363.369C48.144 362.602 48.9337 361.841 49.7127 361.085C54.1839 356.741 58.2033 352.472 62.0897 348.343C67.5943 342.496 72.7931 336.974 78.5748 331.985C82.7124 328.416 87.3862 325.167 92.3346 321.728C96.2937 318.977 100.388 316.131 104.624 312.846C109.179 309.313 113.484 305.68 117.649 302.167C122.001 298.495 126.112 295.026 130.064 292.05C140.269 284.371 150.171 278.898 158.698 276.222C161.906 275.215 165.369 274.243 169.322 274.373C172.814 274.487 176.335 275.932 179.739 277.329L180.429 277.612C182.732 278.649 185.192 279.325 187.783 279.633C192.272 280.052 197.33 278.557 202.503 275.283C207.196 272.314 211.864 268.09 216.222 262.87C220.108 258.155 223.288 253.341 226.655 248.243C229.622 243.752 232.689 239.107 236.314 234.484C241.866 227.413 248.86 220.358 256.54 214.08C264.865 207.256 274.132 201.229 283.34 196.649C301.685 187.546 321.349 183.295 337.289 184.988L337.11 185.366C321.209 183.678 301.596 187.917 283.299 196.996C274.122 201.56 264.887 207.567 256.593 214.365C248.951 220.612 241.994 227.629 236.475 234.658C232.87 239.255 229.812 243.886 226.854 248.365C223.475 253.48 220.284 258.312 216.372 263.058C211.966 268.336 207.246 272.606 202.501 275.608C197.268 278.921 192.15 280.435 187.608 280.011C185.001 279.702 182.527 279.023 180.21 277.98L179.52 277.697C176.128 276.305 172.619 274.865 169.156 274.752C165.235 274.623 161.794 275.589 158.606 276.59C150.12 279.253 140.261 284.703 130.098 292.35C126.159 295.317 122.054 298.78 117.709 302.447C113.54 305.964 109.229 309.601 104.665 313.141C100.416 316.435 96.3167 319.285 92.3519 322.041C87.4161 325.471 82.7543 328.711 78.64 332.26C72.8852 337.226 67.6982 342.736 62.2064 348.569C58.3141 352.703 54.29 356.978 49.807 361.333C49.0269 362.089 48.2359 362.852 47.4343 363.621C41.5869 369.221 21.662 387.594 10.768 388.871Z" fill="url(#paint3_linear_504_11441)" fill-opacity="0.2"/>
<path d="M10.6927 387.887L10.816 387.445C17.5569 385.665 29.7772 376.888 47.1391 361.357L49.5223 359.225C53.299 355.843 56.698 352.619 59.9854 349.5C65.9716 343.82 71.6259 338.456 77.8358 333.887C80.9662 331.584 84.4511 329.47 88.1415 327.231C92.9905 324.289 98.4868 320.954 104.117 316.579C110.334 311.749 115.877 306.547 121.237 301.517C124.086 298.843 126.778 296.317 129.391 294.022C139.098 285.511 148.66 278.835 157.043 274.715C160.105 273.21 163.575 271.505 167.734 271.06C171.659 270.638 175.685 272.034 179.451 273.606C181.783 274.58 184.195 275.586 186.78 276.049C191.009 276.889 195.786 276.108 200.782 273.759C205.126 271.672 209.546 268.465 213.819 264.298C217.603 260.559 220.767 256.655 224.118 252.522C227.204 248.623 230.373 244.926 233.608 241.452C239.186 235.583 246.138 229.717 253.712 224.486C262.693 218.348 271.663 213.369 280.498 209.619C298.706 201.821 318.829 197.72 335.706 198.366L335.507 198.817C318.667 198.172 298.591 202.264 280.426 210.042C271.621 213.779 262.682 218.741 253.732 224.857C246.197 230.062 239.285 235.893 233.744 241.723C230.525 245.181 227.371 248.86 224.3 252.74C220.934 256.893 217.754 260.816 213.937 264.589C209.607 268.81 205.129 272.06 200.727 274.174C195.67 276.553 190.835 277.346 186.553 276.498C183.95 276.031 181.53 275.021 179.19 274.044C175.445 272.481 171.446 271.092 167.568 271.509C163.464 271.948 160.025 273.638 156.992 275.129C148.653 279.227 139.137 285.872 129.473 294.345C126.87 296.631 124.183 299.152 121.339 301.822C115.966 306.865 110.41 312.079 104.166 316.93C98.5065 321.327 92.9941 324.672 88.1308 327.622C84.4525 329.854 80.9781 331.962 77.8708 334.248C71.6966 338.791 66.0593 344.139 60.0907 349.802C56.7995 352.924 53.3963 356.153 49.6106 359.542L47.2268 361.675C29.7945 377.269 17.5021 386.088 10.6927 387.887Z" fill="url(#paint4_linear_504_11441)" fill-opacity="0.2"/>
<path d="M10.6276 386.894L10.7133 386.402C18.3516 383.178 32.6398 371.262 44.1204 361.688L46.9358 359.341C47.7475 358.666 48.5467 358.006 49.3337 357.361C51.8813 355.273 54.2362 353.299 56.5139 351.39C63.7973 345.285 70.0875 340.012 77.1041 335.784C79.5285 334.323 82.1832 332.98 84.9941 331.558C90.5737 328.735 96.8978 325.535 103.609 320.312C111.003 314.557 117.495 307.729 123.222 301.705C125.134 299.693 126.94 297.794 128.709 296.003C137.881 286.735 147.1 278.856 155.372 273.22L155.573 273.083C158.722 270.936 161.978 268.717 166.138 267.748C169.606 266.938 173.641 267.544 178.471 269.6C178.966 269.81 179.455 270.022 179.94 270.234C181.925 271.097 183.799 271.913 185.776 272.466C190.141 273.688 194.613 273.61 199.069 272.233C203.095 270.997 207.27 268.796 211.435 265.715C215.234 262.88 218.488 259.796 221.931 256.531C224.699 253.908 227.56 251.195 230.917 248.407C236.543 243.748 243.449 239.073 250.89 234.888C259.903 229.858 268.849 225.746 277.657 222.587C295.596 216.112 316.176 212.16 334.12 211.744L333.904 212.266C315.992 212.682 295.452 216.626 277.549 223.088C268.767 226.238 259.847 230.337 250.861 235.352C243.455 239.518 236.585 244.167 230.994 248.796C227.66 251.566 224.81 254.268 222.053 256.881C218.59 260.165 215.318 263.267 211.479 266.13C207.256 269.255 203.023 271.487 198.941 272.741C194.429 274.134 189.905 274.215 185.495 272.981C183.505 272.424 181.625 271.606 179.635 270.741C179.15 270.529 178.661 270.318 178.168 270.107C173.38 268.069 169.395 267.466 165.984 268.262C161.908 269.212 158.697 271.401 155.591 273.517L155.39 273.654C147.16 279.262 137.984 287.104 128.853 296.331C127.091 298.115 125.288 300.011 123.379 302.019C117.629 308.067 111.112 314.922 103.667 320.717C96.9004 325.983 90.5466 329.198 84.9411 332.034C82.1406 333.451 79.4952 334.79 77.0901 336.24C70.1212 340.439 63.8531 345.693 56.5951 351.776C54.3153 353.688 51.9583 355.663 49.407 357.754C48.6216 358.397 47.8241 359.056 47.0143 359.73L44.2 362.076C32.6824 371.681 18.3483 383.635 10.6276 386.894Z" fill="url(#paint5_linear_504_11441)" fill-opacity="0.2"/>
<path d="M10.5944 385.371C15.7633 382.309 24.1514 375.494 33.0317 368.278C37.6716 364.508 42.4697 360.61 46.7336 357.325C47.5515 356.694 48.3562 356.085 49.1478 355.496L49.2156 355.446C60.3046 347.187 67.6305 341.731 76.3781 337.681C78.2348 336.822 80.2286 336.033 82.3395 335.198C88.4782 332.77 95.4358 330.018 103.098 324.045C111.438 317.544 118.325 309.412 124.401 302.238C125.658 300.753 126.846 299.351 128.021 297.993C136.343 288.349 144.935 279.56 153.686 271.742L154.083 271.39C157.111 268.706 160.243 265.929 164.533 264.441C169.259 262.8 174.187 264.163 177.489 265.595C178.543 266.052 179.57 266.54 180.564 267.011C182.005 267.696 183.366 268.342 184.772 268.885C189.149 270.579 193.267 271.177 197.361 270.713C201.11 270.284 205.045 269.079 209.069 267.128C213.171 265.143 216.785 262.76 220.612 260.236C222.981 258.673 225.43 257.057 228.241 255.359C234.894 251.44 241.516 248.078 248.073 245.29C257.083 241.387 266.009 238.139 274.816 235.556C292.4 230.381 312.896 226.675 332.529 225.124L332.3 225.717C312.692 227.267 292.223 230.966 274.666 236.135C265.878 238.711 256.972 241.953 247.981 245.847C241.45 248.624 234.852 251.973 228.225 255.876C225.428 257.566 222.985 259.178 220.622 260.736C216.775 263.274 213.142 265.671 208.999 267.675C204.925 269.65 200.94 270.87 197.144 271.304C193.005 271.774 188.847 271.172 184.433 269.465C183.02 268.918 181.655 268.27 180.211 267.584C179.219 267.113 178.193 266.626 177.142 266.171C173.882 264.757 169.025 263.408 164.404 265.012C160.234 266.459 157.165 269.18 154.196 271.813L153.799 272.164C145.083 279.952 136.525 288.705 128.236 298.31C127.066 299.664 125.88 301.064 124.625 302.546C118.513 309.761 111.587 317.94 103.164 324.506C95.4135 330.548 88.4097 333.318 82.2308 335.762C80.1271 336.594 78.1405 337.38 76.2989 338.233C67.6157 342.252 60.3155 347.689 49.2655 355.919L49.1976 355.97C48.4103 356.554 47.6096 357.161 46.7956 357.789C42.5407 361.067 37.7478 364.961 33.1121 368.727C24.2059 375.964 15.7941 382.799 10.5735 385.891L10.5944 385.371Z" fill="url(#paint6_linear_504_11441)" fill-opacity="0.2"/>
<path d="M10.4729 384.356C13.1831 382.25 16.9172 379.12 21.2403 375.497C28.9869 369.004 38.6277 360.923 46.5469 355.306C47.3845 354.711 48.2025 354.147 48.9782 353.628C60.5304 345.884 67.7651 342.076 75.671 339.578C77.016 339.154 78.4297 338.765 79.9268 338.353C86.2065 336.625 94.0218 334.475 102.6 327.778C111.754 320.63 118.852 311.226 125.114 302.928C125.872 301.925 126.613 300.943 127.34 299.989C135.33 289.52 143.57 279.595 152.004 270.279L152.422 269.818C155.379 266.546 158.437 263.163 162.936 261.137C168.342 258.701 173.766 260.375 176.519 261.59C178.159 262.313 179.695 263.139 181.181 263.939C182.056 264.41 182.918 264.874 183.78 265.305C188.223 267.529 192.112 268.802 195.67 269.197C199.183 269.565 202.886 269.349 206.727 268.551C211.97 267.504 216.425 265.804 222.064 263.652C223.186 263.223 224.356 262.776 225.588 262.313C231.873 259.971 238.495 257.744 245.271 255.694C254.114 252.984 263.104 250.572 271.989 248.525C288.086 244.848 307.371 241.569 330.947 238.503L330.71 239.166C307.147 242.23 287.875 245.506 271.792 249.181C262.918 251.225 253.939 253.634 245.107 256.34C238.34 258.388 231.729 260.611 225.456 262.95C224.225 263.412 223.057 263.858 221.935 264.286C216.273 266.447 211.8 268.154 206.518 269.21C202.64 270.015 198.901 270.233 195.354 269.861C191.765 269.463 187.848 268.182 183.38 265.945C182.516 265.513 181.652 265.048 180.775 264.575C179.293 263.778 177.761 262.954 176.129 262.234C173.422 261.039 168.096 259.39 162.84 261.759C158.507 263.709 155.527 267.007 152.645 270.195L152.226 270.658C143.817 279.946 135.601 289.842 127.634 300.28C126.909 301.231 126.169 302.211 125.413 303.213C119.103 311.575 111.95 321.052 102.673 328.294C93.9672 335.092 86.0838 337.261 79.7495 339.003C78.2571 339.414 76.8476 339.802 75.5114 340.224C67.6683 342.702 60.4821 346.486 48.9949 354.186C48.2265 354.7 47.4159 355.259 46.5851 355.848C38.6984 361.443 29.0756 369.509 21.3432 375.99C17.0117 379.621 13.2707 382.756 10.5448 384.874L10.4729 384.356Z" fill="url(#paint7_linear_504_11441)" fill-opacity="0.2"/>
<path d="M10.3344 383.357C17.9161 375.952 34.0348 361.284 46.3572 353.285C47.2004 352.738 48.0237 352.225 48.8053 351.76C60.4186 344.833 67.4237 342.692 74.9622 341.481C75.8045 341.345 76.679 341.221 77.5846 341.092C84.2631 340.139 92.5738 338.954 102.093 331.512C111.985 323.778 119.483 312.638 125.508 303.688L126.65 301.994C133.803 291.416 141.322 280.878 150.313 268.83L150.663 268.362C153.432 264.643 156.573 260.428 161.327 257.839C165.568 255.528 170.749 255.435 175.542 257.584C177.804 258.598 179.814 259.862 181.757 261.085L182.784 261.728C187.117 264.424 190.678 266.469 193.974 267.691C197.28 268.877 200.756 269.646 204.379 269.993C210.022 270.611 215.051 270.418 222.933 269.281C228.185 268.538 234.553 267.451 241.926 266.193L247.759 265.174C254.224 264.038 261.551 262.751 269.158 261.495C276.477 260.301 283.984 259.145 291.933 257.922C304.334 256.014 317.158 254.041 329.358 251.884L329.116 252.615C316.911 254.773 304.084 256.747 291.681 258.655C283.733 259.878 276.226 261.033 268.91 262.227C261.306 263.483 253.98 264.769 247.516 265.905L241.681 266.924C234.305 268.183 227.934 269.271 222.676 270.014C214.759 271.157 209.705 271.351 204.029 270.728C200.383 270.379 196.884 269.605 193.557 268.41C190.24 267.182 186.666 265.129 182.321 262.426L181.293 261.782C179.357 260.563 177.354 259.304 175.109 258.298C170.415 256.193 165.373 256.267 161.275 258.501C156.733 260.973 153.818 264.886 150.999 268.67L150.65 269.139C141.672 281.168 134.167 291.687 127.028 302.244L125.888 303.936C119.804 312.973 112.234 324.219 102.176 332.083C92.4789 339.665 84.0782 340.863 77.328 341.825C76.4249 341.954 75.553 342.078 74.7133 342.213C67.2409 343.413 60.2966 345.537 48.7814 352.405C48.0103 352.864 47.197 353.37 46.3643 353.911C34.1141 361.863 18.0701 376.464 10.5207 383.838L10.3344 383.357Z" fill="url(#paint8_linear_504_11441)" fill-opacity="0.2"/>
<path d="M10.181 382.375C17.0389 374.183 33.3578 358.814 46.1605 351.264C47.003 350.767 47.8328 350.305 48.6274 349.891C60.2044 343.835 67.3524 343.359 74.2472 343.387L75.2085 343.392C81.8863 343.439 91.0323 343.502 101.578 335.245C112.161 326.958 119.657 314.479 125.68 304.453L125.95 304.004C133.186 291.976 140.111 280.94 146.22 271.205L148.859 266.998C151.583 262.65 154.67 257.721 159.706 254.545C164.158 251.733 169.71 251.373 174.556 253.579C177.102 254.817 179.514 256.344 181.778 258.152C183.438 259.401 184.95 260.601 186.411 261.761C188.48 263.403 190.434 264.955 192.267 266.192C195.728 268.529 199.137 270.16 202.014 271.448C207.668 274.111 213.781 275.722 220.267 276.258C225.33 276.727 231.672 276.809 239.656 276.51C246.883 276.212 255.605 275.543 266.319 274.466C290.229 272.106 310.326 269.097 327.757 265.265L327.513 266.063C310.061 269.899 289.946 272.912 266.017 275.273C255.295 276.351 246.565 277.021 239.328 277.32C231.327 277.619 224.968 277.536 219.889 277.066C213.369 276.527 207.223 274.907 201.539 272.231C198.651 270.939 195.229 269.301 191.75 266.952C189.909 265.708 187.951 264.154 185.878 262.509C184.418 261.349 182.908 260.151 181.25 258.904C179.002 257.109 176.607 255.592 174.079 254.361C169.354 252.209 163.98 252.537 159.702 255.238C154.925 258.251 152.069 262.812 149.306 267.223L146.666 271.431C140.561 281.16 133.64 292.189 126.413 304.202L126.143 304.651C120.051 314.793 112.469 327.415 101.67 335.871C90.8888 344.312 81.6258 344.248 74.862 344.202L73.9023 344.196C67.0736 344.168 59.997 344.639 48.5554 350.624C47.7749 351.031 46.9592 351.485 46.1313 351.974C33.4462 359.454 17.2833 374.675 10.4926 382.787L10.181 382.375Z" fill="url(#paint9_linear_504_11441)" fill-opacity="0.2"/>
<path d="M10.0443 381.403C16.9066 371.572 33.3544 355.946 45.9841 349.242C46.8343 348.79 47.6704 348.38 48.4685 348.022C59.9372 342.857 66.857 344.098 73.5496 345.298C79.4755 346.361 89.393 348.14 101.079 338.977C112.312 330.171 119.8 316.21 125.267 306.016C129.026 299.016 132.665 292.319 136.185 285.841C139.991 278.836 143.586 272.219 146.937 265.947L147.058 265.722C149.731 260.717 152.761 255.045 158.098 251.253C162.816 247.9 168.606 247.272 173.587 249.573C176.184 250.847 178.592 252.521 180.79 254.577C183.506 256.998 185.816 259.532 187.853 261.767C188.8 262.806 189.694 263.786 190.574 264.699C193.707 267.95 196.791 270.568 199.658 272.913C205.114 277.379 210.255 280.845 217.612 283.245C222.783 284.947 229.259 286.185 236.861 286.924C244.446 287.632 253.408 287.805 263.498 287.436C278.67 286.909 301.86 284.957 326.172 278.647L325.928 279.511C301.566 285.833 278.337 287.789 263.139 288.317C253.032 288.686 244.051 288.513 236.449 287.803C228.82 287.061 222.318 285.818 217.124 284.108C209.723 281.694 204.556 278.211 199.073 273.725C196.2 271.373 193.108 268.748 189.964 265.486C189.081 264.57 188.185 263.588 187.237 262.548C185.205 260.318 182.901 257.791 180.196 255.38C178.021 253.344 175.637 251.686 173.066 250.424C168.232 248.19 162.655 248.769 158.149 251.971C153.114 255.548 150.188 261.025 147.607 265.858L147.486 266.084C144.132 272.362 140.535 278.981 136.728 285.989C133.209 292.465 129.571 299.16 125.815 306.156C120.273 316.489 112.683 330.64 101.18 339.659C89.1914 349.058 79.1229 347.252 73.1071 346.173C66.4841 344.986 59.6351 343.757 48.3419 348.843C47.5613 349.193 46.7439 349.595 45.9119 350.037C33.8074 356.463 17.2222 372.066 10.4799 381.724L10.0443 381.403Z" fill="url(#paint10_linear_504_11441)" fill-opacity="0.2"/>
<path d="M9.89999 380.436C16.1802 369.798 32.8669 353.332 45.7982 347.219C46.656 346.813 47.498 346.454 48.3014 346.152C59.0039 342.106 65.2475 344.412 71.858 346.853L72.8393 347.215C79.8202 349.773 89.2804 351.572 100.569 342.71C111.469 334.154 118.675 320.323 124.573 308.031L127.014 302.953C133.568 289.32 139.758 276.441 145.252 264.506C147.866 258.828 150.828 252.392 156.479 247.964C162.337 243.371 168.651 243.714 172.606 245.567C175.259 246.871 177.667 248.692 179.79 251.004C182.922 254.264 185.346 257.918 187.484 261.142C187.954 261.849 188.412 262.542 188.866 263.211C191.866 267.636 194.804 271.342 197.282 274.383C201.89 280.036 207.219 285.87 214.94 290.237C220.179 293.215 226.611 295.605 234.055 297.34C242.627 299.211 251.511 300.235 260.666 300.408C275.492 300.831 298.614 299.721 324.574 292.029L324.333 292.957C298.297 300.671 275.113 301.784 260.249 301.36C251.067 301.186 242.156 300.159 233.558 298.283C226.081 296.54 219.62 294.138 214.353 291.145C206.586 286.752 201.232 280.891 196.604 275.213C194.121 272.166 191.177 268.453 188.169 264.015C187.714 263.345 187.255 262.652 186.785 261.944C184.655 258.733 182.241 255.093 179.13 251.854C177.035 249.573 174.659 247.774 172.041 246.487C168.219 244.696 162.153 244.338 156.587 248.701C151.277 252.862 148.418 259.074 145.895 264.555C140.395 276.504 134.201 289.389 127.643 303.03L125.203 308.107C119.211 320.594 111.88 334.653 100.678 343.447C89.058 352.569 79.4088 350.749 72.3008 348.145L71.3185 347.783C64.7856 345.37 58.6146 343.092 48.1144 347.061C47.3327 347.355 46.5135 347.705 45.678 348.1C32.9717 354.106 16.6012 370.242 10.4529 380.657L9.89999 380.436Z" fill="url(#paint11_linear_504_11441)" fill-opacity="0.2"/>
<path d="M9.76479 379.471C16.2394 366.637 33.3289 350.301 45.619 345.197C46.4792 344.839 47.3277 344.532 48.1408 344.284C58.3857 341.147 64.168 344.512 70.2901 348.075C70.9013 348.431 71.5133 348.787 72.1318 349.137C81.7159 354.564 90.8526 353.683 100.063 346.444C110.907 337.921 117.92 323.915 123.885 310.049C130.017 295.804 137.153 279.082 143.575 263.064C145.935 257.146 148.872 249.779 154.861 244.68C158.897 241.241 165.423 238.617 171.629 241.562C174.342 242.896 176.749 244.868 178.795 247.432C182.064 251.363 184.371 256.058 186.407 260.2L187.16 261.726C189.363 266.165 191.752 270.523 194.906 275.855C199.13 282.903 204.497 290.957 212.267 297.235C217.538 301.504 223.925 305.046 231.252 307.76C239.684 310.75 248.569 312.628 257.839 313.38C278.874 315.299 301.399 312.544 322.978 305.413L322.743 306.403C301.078 313.562 278.469 316.328 257.362 314.403C248.056 313.647 239.137 311.762 230.673 308.76C223.309 306.032 216.889 302.472 211.59 298.179C203.776 291.867 198.386 283.779 194.144 276.701C190.983 271.358 188.589 266.992 186.381 262.543L185.628 261.015C183.603 256.894 181.307 252.223 178.068 248.328C176.055 245.804 173.688 243.863 171.02 242.55C167.285 240.777 160.855 240.467 155.029 245.43C149.415 250.21 146.581 257.317 144.304 263.028C137.874 279.067 130.733 295.802 124.596 310.058C118.525 324.172 111.365 338.445 100.181 347.235C90.6673 354.712 81.2858 355.654 71.5008 350.113C70.8813 349.762 70.2663 349.407 69.6556 349.049C63.6134 345.533 57.9064 342.212 47.889 345.279C47.1016 345.519 46.2796 345.817 45.4462 346.164C33.4241 351.156 16.7313 367.088 10.4251 379.588L9.76479 379.471Z" fill="url(#paint12_linear_504_11441)" fill-opacity="0.2"/>
<path d="M9.63183 378.504C15.6902 364.562 32.7577 347.722 45.4399 343.175C46.311 342.863 47.1651 342.608 47.9799 342.417C57.9347 340.078 63.6019 344.706 69.0826 349.181C69.858 349.814 70.6334 350.448 71.4209 351.062C77.6063 355.891 87.5082 359.656 99.5549 350.176C110.86 341.281 117.849 325.92 123.196 312.067C130.676 292.698 136.794 276.196 141.899 261.62C144.027 255.516 146.943 247.155 153.241 241.396C159.698 235.491 166.655 235.637 170.65 237.557C173.422 238.926 175.829 241.05 177.799 243.863C181.053 248.317 183.129 253.951 184.961 258.922L185.448 260.243C187.538 265.879 189.853 271.467 192.524 277.326C198.039 289.314 203.302 297.613 209.59 304.232C215.234 310.075 221.547 314.745 228.446 318.183C236.731 322.272 245.618 325.006 255.011 326.354C275.932 329.56 298.882 326.947 321.38 318.797L321.153 319.847C298.543 328.037 275.485 330.665 254.472 327.445C245.036 326.09 236.108 323.343 227.786 319.235C220.85 315.779 214.503 311.083 208.828 305.21C202.509 298.556 197.221 290.222 191.685 278.186C189.008 272.315 186.689 266.715 184.595 261.067L184.106 259.745C182.197 254.563 180.223 249.204 177.004 244.801C175.074 242.041 172.714 239.957 169.998 238.613C166.171 236.774 159.547 236.598 153.471 242.155C147.576 247.546 144.763 255.613 142.709 261.503C137.597 276.099 131.472 292.618 123.985 312.007C118.533 326.134 111.382 341.816 99.6825 351.023C87.1978 360.847 77.0312 357.018 70.7007 352.076C69.9112 351.46 69.1338 350.826 68.3564 350.191C62.9524 345.778 57.3642 341.215 47.6587 343.496C46.8738 343.679 46.05 343.925 45.2105 344.226C33.0818 348.575 16.1599 365.241 10.3902 378.52L9.63183 378.504Z" fill="url(#paint13_linear_504_11441)" fill-opacity="0.2"/>
<path d="M9.50243 377.536C15.0829 362.707 32.4611 345.026 45.2612 341.154C46.1392 340.889 46.9998 340.686 47.8192 340.552C57.5819 338.949 62.9191 344.683 68.0804 350.228C68.9354 351.146 69.819 352.096 70.7055 352.991C75.5335 357.869 85.6349 364.474 99.0449 353.911C110.761 344.681 117.479 328.6 122.506 314.085C129.338 294.37 135.133 276.736 140.223 260.175C142.131 253.95 145.013 244.542 151.618 238.115C155.835 234.012 163.093 230.355 169.671 233.552C172.502 234.958 174.91 237.235 176.8 240.295C179.984 245.259 181.725 251.529 183.408 257.592L183.734 258.762C185.641 265.603 187.796 272.344 190.138 278.799C195.171 292.593 200.5 302.899 206.907 311.233C212.4 318.312 218.674 324.131 225.638 328.608C233.771 333.775 242.661 337.366 252.182 339.329C273.046 343.808 296.421 341.336 319.779 332.182L319.562 333.292C296.064 342.501 272.556 344.988 251.581 340.486C242.01 338.512 233.074 334.903 224.899 329.708C217.897 325.208 211.591 319.358 206.068 312.241C199.631 303.868 194.279 293.519 189.227 279.674C186.88 273.203 184.72 266.447 182.808 259.592L182.482 258.42C180.81 252.398 179.082 246.171 175.939 241.271C174.092 238.279 171.74 236.052 168.973 234.676C162.7 231.628 155.861 235.035 151.91 238.879C146.206 244.43 143.546 252.028 141.109 259.981C136.012 276.564 130.21 294.219 123.37 313.956C121.223 320.157 118.232 328.254 114.135 335.891C109.67 344.213 104.779 350.402 99.1813 354.811C85.24 365.793 74.8521 359.041 69.9003 354.038C69.01 353.138 68.1239 352.186 67.267 351.266C62.181 345.802 56.9215 340.152 47.4268 341.711C46.6402 341.84 45.8141 342.034 44.9711 342.289C32.5649 346.041 15.7393 363.132 10.3495 377.455L9.50243 377.536Z" fill="url(#paint14_linear_504_11441)" fill-opacity="0.2"/>
<path d="M9.38117 376.564C14.6153 360.565 31.9687 342.374 45.0884 339.133C45.9628 338.916 46.8226 338.768 47.6645 338.688C57.2932 337.783 62.3325 344.62 67.2058 351.232C68.1122 352.461 69.0488 353.732 69.9936 354.921C81.4368 369.31 94.7364 360.643 98.5406 357.643C110.721 348.038 117.381 330.398 121.823 316.103C127.997 296.239 133.626 276.935 138.554 258.727C140.85 250.231 143.625 241.387 150.001 234.835C156.585 228.069 164.134 227.304 168.696 229.546C171.589 230.99 173.998 233.422 175.806 236.726C178.853 242.111 180.322 249.145 181.743 255.949L182.022 257.28C183.665 265.208 185.594 272.942 187.755 280.27C192.318 295.695 197.707 308.113 204.228 318.233C209.584 326.522 215.816 333.49 222.834 339.034C230.815 345.258 239.708 349.707 249.358 352.304C270.201 358.045 294 355.716 318.182 345.567L317.977 346.735C293.624 356.955 269.667 359.303 248.693 353.525C238.987 350.914 230.044 346.44 222.017 340.179C214.963 334.607 208.698 327.602 203.315 319.27C196.765 309.108 191.355 296.642 186.776 281.16C184.609 273.813 182.675 266.06 181.028 258.113L180.749 256.782C179.339 250.028 177.88 243.045 174.878 237.739C173.117 234.519 170.771 232.147 167.953 230.739C163.622 228.609 156.501 229.287 150.356 235.602C144.394 241.728 141.73 250.253 139.513 258.459C134.578 276.691 128.942 296.018 122.76 315.905C118.217 330.526 111.375 348.592 98.6858 358.599C92.736 363.29 86.8598 365.098 81.2211 363.971C75.5481 362.836 71.5027 359.008 69.1078 355.997C68.1577 354.801 67.2181 353.527 66.3099 352.295C61.5092 345.781 56.5446 339.046 47.1985 339.924C46.3933 340.001 45.5712 340.143 44.7352 340.35C32.0784 343.477 15.3484 360.993 10.3105 376.393L9.38117 376.564Z" fill="url(#paint15_linear_504_11441)" fill-opacity="0.2"/>
<path d="M9.25833 375.589C11.7839 366.732 17.6529 357.172 25.3614 349.36C33.0699 341.547 41.1409 336.979 47.506 336.825C57.0409 336.594 61.8033 344.533 66.4088 352.211C67.3382 353.761 68.2994 355.363 69.2763 356.852C77.9524 370.075 89.8193 367.858 98.0314 361.376C110.736 351.348 117.302 331.887 121.137 318.121C126.795 297.803 132.094 277.332 136.884 257.276C137.841 253.269 139.014 248.611 140.825 244.044C142.85 238.94 145.321 234.856 148.38 231.556C155.23 224.167 163.027 223.211 167.717 225.541C176.345 229.827 178.26 242.386 180.111 254.532L180.305 255.8C187.113 300.21 200.105 330.847 220.025 349.46C244.213 372.062 279.406 375.521 316.581 358.952L316.389 360.177C278.93 376.873 243.481 373.4 219.134 350.648C199.124 331.951 186.077 301.199 179.246 256.636L179.052 255.367C177.224 243.376 175.333 230.976 166.93 226.801C162.495 224.598 155.168 225.45 148.798 232.322C142.574 239.036 140.006 248.164 137.911 256.94C133.115 277.017 127.811 297.511 122.145 317.853C113.946 347.289 104.545 357.366 98.1864 362.386C85.0889 372.725 74.1667 366.876 68.3131 357.953C67.33 356.456 66.3659 354.849 65.4341 353.295C60.8973 345.732 56.2065 337.912 46.9649 338.136C40.8749 338.283 33.1333 342.674 25.7246 350.182C18.3158 357.692 12.6809 366.858 10.2647 375.333L9.25833 375.589Z" fill="url(#paint16_linear_504_11441)" fill-opacity="0.2"/>
<defs>
<linearGradient id="paint0_linear_504_11441" x1="276.718" y1="196.764" x2="229.304" y2="367.489" gradientUnits="userSpaceOnUse">
<stop offset="0.0677083" stop-color="#6A8CFE"/>
<stop offset="0.302083" stop-color="white"/>
<stop offset="1" stop-color="#A60096"/>
</linearGradient>
<linearGradient id="paint1_linear_504_11441" x1="275.506" y1="207.304" x2="223.746" y2="373.165" gradientUnits="userSpaceOnUse">
<stop offset="0.0677083" stop-color="#6A8CFE"/>
<stop offset="0.302083" stop-color="white"/>
<stop offset="1" stop-color="#A60096"/>
</linearGradient>
<linearGradient id="paint2_linear_504_11441" x1="274.31" y1="217.843" x2="218.845" y2="378.548" gradientUnits="userSpaceOnUse">
<stop offset="0.0677083" stop-color="#6A8CFE"/>
<stop offset="0.302083" stop-color="white"/>
<stop offset="1" stop-color="#A60096"/>
</linearGradient>
<linearGradient id="paint3_linear_504_11441" x1="273.099" y1="228.383" x2="214.54" y2="383.715" gradientUnits="userSpaceOnUse">
<stop offset="0.0677083" stop-color="#6A8CFE"/>
<stop offset="0.302083" stop-color="white"/>
<stop offset="1" stop-color="#A60096"/>
</linearGradient>
<linearGradient id="paint4_linear_504_11441" x1="271.894" y1="238.924" x2="210.815" y2="388.731" gradientUnits="userSpaceOnUse">
<stop offset="0.0677083" stop-color="#6A8CFE"/>
<stop offset="0.302083" stop-color="white"/>
<stop offset="1" stop-color="#A60096"/>
</linearGradient>
<linearGradient id="paint5_linear_504_11441" x1="270.687" y1="249.462" x2="207.626" y2="393.645" gradientUnits="userSpaceOnUse">
<stop offset="0.0677083" stop-color="#6A8CFE"/>
<stop offset="0.302083" stop-color="white"/>
<stop offset="1" stop-color="#A60096"/>
</linearGradient>
<linearGradient id="paint6_linear_504_11441" x1="269.48" y1="259.999" x2="204.936" y2="398.502" gradientUnits="userSpaceOnUse">
<stop offset="0.0677083" stop-color="#6A8CFE"/>
<stop offset="0.302083" stop-color="white"/>
<stop offset="1" stop-color="#A60096"/>
</linearGradient>
<linearGradient id="paint7_linear_504_11441" x1="268.285" y1="270.534" x2="202.722" y2="403.336" gradientUnits="userSpaceOnUse">
<stop offset="0.0677083" stop-color="#6A8CFE"/>
<stop offset="0.302083" stop-color="white"/>
<stop offset="1" stop-color="#A60096"/>
</linearGradient>
<linearGradient id="paint8_linear_504_11441" x1="267.087" y1="281.067" x2="200.931" y2="408.177" gradientUnits="userSpaceOnUse">
<stop offset="0.0677083" stop-color="#6A8CFE"/>
<stop offset="0.302083" stop-color="white"/>
<stop offset="1" stop-color="#A60096"/>
</linearGradient>
<linearGradient id="paint9_linear_504_11441" x1="265.88" y1="291.599" x2="199.526" y2="413.054" gradientUnits="userSpaceOnUse">
<stop offset="0.0677083" stop-color="#6A8CFE"/>
<stop offset="0.302083" stop-color="white"/>
<stop offset="1" stop-color="#A60096"/>
</linearGradient>
<linearGradient id="paint10_linear_504_11441" x1="264.683" y1="302.149" x2="198.477" y2="418.045" gradientUnits="userSpaceOnUse">
<stop offset="0.0677083" stop-color="#6A8CFE"/>
<stop offset="0.302083" stop-color="white"/>
<stop offset="1" stop-color="#A60096"/>
</linearGradient>
<linearGradient id="paint11_linear_504_11441" x1="263.467" y1="312.712" x2="197.726" y2="423.153" gradientUnits="userSpaceOnUse">
<stop offset="0.0677083" stop-color="#6A8CFE"/>
<stop offset="0.302083" stop-color="white"/>
<stop offset="1" stop-color="#A60096"/>
</linearGradient>
<linearGradient id="paint12_linear_504_11441" x1="262.245" y1="323.265" x2="197.251" y2="428.329" gradientUnits="userSpaceOnUse">
<stop offset="0.0677083" stop-color="#6A8CFE"/>
<stop offset="0.302083" stop-color="white"/>
<stop offset="1" stop-color="#A60096"/>
</linearGradient>
<linearGradient id="paint13_linear_504_11441" x1="261" y1="333.799" x2="197.008" y2="433.564" gradientUnits="userSpaceOnUse">
<stop offset="0.0677083" stop-color="#6A8CFE"/>
<stop offset="0.302083" stop-color="white"/>
<stop offset="1" stop-color="#A60096"/>
</linearGradient>
<linearGradient id="paint14_linear_504_11441" x1="259.744" y1="344.321" x2="196.993" y2="438.88" gradientUnits="userSpaceOnUse">
<stop offset="0.0677083" stop-color="#6A8CFE"/>
<stop offset="0.302083" stop-color="white"/>
<stop offset="1" stop-color="#A60096"/>
</linearGradient>
<linearGradient id="paint15_linear_504_11441" x1="258.479" y1="354.828" x2="197.189" y2="444.275" gradientUnits="userSpaceOnUse">
<stop offset="0.0677083" stop-color="#6A8CFE"/>
<stop offset="0.302083" stop-color="white"/>
<stop offset="1" stop-color="#A60096"/>
</linearGradient>
<linearGradient id="paint16_linear_504_11441" x1="257.199" y1="365.325" x2="197.572" y2="449.76" gradientUnits="userSpaceOnUse">
<stop offset="0.0677083" stop-color="#6A8CFE"/>
<stop offset="0.302083" stop-color="white"/>
<stop offset="1" stop-color="#A60096"/>
</linearGradient>
</defs>
</svg>
