<svg width="755" height="561" viewBox="0 0 755 561" fill="none" xmlns="http://www.w3.org/2000/svg">
<path d="M462.581 20.533L462.382 20.6738C465.226 26.0867 464.41 34.0425 460.026 43.6795C455.848 52.6231 449.582 61.8114 441.527 70.808C433.244 80.0687 423.737 88.8926 414.544 97.4256C406.659 104.744 398.505 112.313 391.14 120.139C349.478 164.409 334.932 218.859 358.026 244.1C359.105 245.279 360.281 246.435 361.419 247.553C365.881 251.937 370.494 256.47 370.644 263.683C370.78 270.287 367.097 278.54 359.991 287.551C353.581 295.64 345.253 303.496 335.59 310.57C325.819 317.675 315.416 323.758 305.357 329.64C296.83 334.626 288.015 339.782 279.6 345.546C266.194 354.732 253.271 365.971 242.226 378.048C230.985 390.4 222.024 403.031 215.715 415.412C209.351 428 205.688 440.166 204.869 451.435C204.07 462.638 206.227 472.573 211.107 480.166L211.302 480.02C206.432 472.442 204.279 462.527 205.076 451.346C205.894 440.1 209.55 427.959 215.9 415.397C222.196 403.04 231.14 390.435 242.358 378.107C253.381 366.054 266.279 354.838 279.657 345.671C288.059 339.915 296.869 334.763 305.388 329.781C315.457 323.894 325.868 317.805 335.657 310.687C345.354 303.589 353.71 295.706 360.143 287.588C367.286 278.529 370.99 270.228 370.851 263.583C370.701 256.333 366.076 251.789 361.604 247.394C360.466 246.277 359.29 245.121 358.214 243.944C335.161 218.747 349.68 164.394 391.268 120.203C398.624 112.387 406.772 104.824 414.652 97.5097C423.853 88.9693 433.366 80.139 441.662 70.864C449.741 61.8401 456.025 52.6238 460.216 43.6532C464.622 33.9708 465.439 25.976 462.581 20.533Z" fill="url(#paint0_linear_504_11459)" fill-opacity="0.5"/>
<path d="M461.216 20.6035L460.926 20.7928C462.942 26.0991 461.543 34.0405 456.882 43.7581C452.472 52.7301 446.358 61.8873 438.736 70.9348C437.803 72.0437 436.817 73.1946 435.804 74.3566C429.167 81.9644 422.004 89.146 415.076 96.0915C407.785 103.402 400.244 110.963 393.56 118.81C383.388 130.752 375.472 143.826 369.07 155.041C360.947 169.269 355.58 180.508 352.18 190.413C347.03 205.43 345.58 219.158 347.987 230.113C348.934 234.714 350.644 238.964 353.092 242.804C354.387 244.797 355.951 246.657 357.607 248.627C359.101 250.404 360.647 252.242 361.96 254.173C363.86 256.778 365.046 259.792 365.487 263.135C366.147 269.332 363.659 276.65 358.093 284.886C352.863 292.592 345.642 300.233 336.955 307.254C328.702 313.864 319.839 319.597 311.269 325.141C303.723 330.023 295.919 335.071 288.447 340.759C276.984 349.486 265.947 360.134 256.529 371.55C246.207 384.169 238.16 396.906 232.686 409.292C227.127 421.961 223.989 434.171 223.363 445.56C222.727 456.969 224.662 467.339 228.96 475.55L229.245 475.347C224.958 467.157 223.027 456.812 223.662 445.43C224.286 434.069 227.416 421.89 232.961 409.252C238.42 396.899 246.445 384.198 256.739 371.613C266.128 360.232 277.13 349.618 288.555 340.919C296.008 335.246 303.801 330.205 311.337 325.329C319.921 319.777 328.797 314.035 337.075 307.405C345.811 300.344 353.073 292.659 358.332 284.91C363.864 276.724 366.441 269.14 365.785 262.978C365.342 259.615 364.149 256.582 362.238 253.96C360.921 252.025 359.374 250.185 357.878 248.406C356.224 246.438 354.662 244.58 353.372 242.593C350.931 238.765 349.227 234.528 348.282 229.941C345.882 219.016 347.328 205.324 352.466 190.346C355.858 180.462 361.216 169.242 369.327 155.035C375.719 143.839 383.62 130.789 393.765 118.879C400.434 111.05 407.965 103.498 415.249 96.1957C422.183 89.2431 429.353 82.0543 436.003 74.4321C437.019 73.2671 438.007 72.113 438.941 71.0027C446.59 61.9222 452.727 52.7317 457.153 43.7271C461.843 33.949 463.249 25.9524 461.216 20.6035Z" fill="url(#paint1_linear_504_11459)" fill-opacity="0.5"/>
<path d="M459.852 20.6876L459.467 20.9143C462.135 32.4684 449.063 54.401 435.939 71.0737C435.071 72.1772 434.156 73.3226 433.221 74.4805C427.472 81.5871 421.483 88.1558 415.691 94.5087C408.636 102.245 401.973 109.553 395.973 117.497C389.584 125.957 384.33 135.341 378.769 145.276C377.238 148.011 375.655 150.838 374.033 153.674C372.712 155.981 371.397 158.264 370.087 160.523C364.216 170.682 358.67 180.279 354.681 189.21C348.148 203.857 344.968 217.407 345.488 228.394C345.592 233.102 346.486 237.497 348.155 241.509C349.462 244.548 351.645 247.491 353.756 250.337C354.583 251.453 355.439 252.607 356.236 253.757C358.474 256.99 359.737 259.717 360.33 262.598C361.504 268.541 359.859 275.608 355.572 283.03C351.556 290.082 345.668 297.219 338.309 303.956C331.508 310.101 324.119 315.505 316.974 320.732C310.472 325.487 303.75 330.404 297.281 335.988C287.435 344.494 278.004 354.857 270.008 365.957C261.421 377.857 254.383 390.73 249.654 403.185C240.217 428.101 239.181 452.796 246.812 470.937L247.189 470.685C239.577 452.59 240.61 427.96 250.022 403.11C254.735 390.694 261.75 377.863 270.309 366.004C278.272 354.949 287.662 344.631 297.461 336.165C303.905 330.603 310.613 325.696 317.102 320.95C324.264 315.711 331.67 310.294 338.504 304.12C345.923 297.328 351.859 290.131 355.907 283.022C360.24 275.522 361.903 268.381 360.715 262.376C360.118 259.472 358.848 256.728 356.598 253.479C355.8 252.327 354.944 251.172 354.115 250.055C352.01 247.215 349.831 244.279 348.531 241.255C346.87 237.262 345.981 232.887 345.878 228.201C345.36 217.256 348.528 203.755 355.04 189.157C359.017 180.251 364.557 170.665 370.421 160.518C371.727 158.259 373.042 155.975 374.368 153.666C375.992 150.829 377.575 148 379.106 145.265C384.658 135.348 389.902 125.981 396.266 117.555C402.245 109.638 408.897 102.342 415.94 94.6188C421.739 88.258 427.736 81.6814 433.499 74.557C434.436 73.3975 435.352 72.2492 436.222 71.1441C449.41 54.3899 462.542 32.3371 459.852 20.6876Z" fill="url(#paint2_linear_504_11459)" fill-opacity="0.5"/>
<path d="M458.493 20.7782L458.013 21.024C459.078 34.662 439.248 62.8888 433.145 71.2151C432.305 72.3603 431.47 73.4911 430.64 74.6075C425.867 81.0168 421.079 86.8506 416.449 92.4916C409.892 100.481 403.699 108.027 398.386 116.19C394.584 122.031 391.359 128.475 387.945 135.296C385.213 140.754 382.388 146.397 379 152.305C375.355 158.657 371.511 164.72 367.793 170.583C363.906 176.711 360.235 182.5 357.195 187.993C349.354 202.178 344.444 215.548 342.997 226.657C342.453 230.837 342.022 235.326 343.223 240.204C344.282 244.513 347.165 248.594 349.953 252.54L350.517 253.339C352.529 255.99 354.088 258.908 355.179 262.061C356.913 267.546 356.181 274.118 353.05 281.184C350.212 287.596 345.654 294.226 339.655 300.669C334.225 306.426 328.476 311.327 322.389 316.515C317.025 321.088 311.479 325.815 306.107 331.229C297.89 339.521 290.069 349.598 283.487 360.372C276.326 372.054 270.496 384.747 266.627 397.079C258.948 421.645 258.233 446.882 264.668 466.32L265.137 466.023C258.719 446.633 259.431 421.46 267.09 396.959C270.946 384.67 276.756 372.021 283.89 360.382C290.44 349.66 298.219 339.637 306.385 331.394C311.728 326.011 317.258 321.297 322.606 316.738C328.715 311.531 334.484 306.613 339.951 300.817C346.015 294.304 350.623 287.601 353.493 281.119C356.662 273.969 357.403 267.319 355.649 261.769C354.554 258.596 352.987 255.662 350.963 252.995L350.399 252.195C347.621 248.263 344.747 244.196 343.698 239.922C342.506 235.084 342.935 230.624 343.476 226.471C344.916 215.414 349.805 202.102 357.613 187.976C360.644 182.501 364.309 176.721 368.19 170.602C371.912 164.732 375.762 158.662 379.412 152.297C382.811 146.373 385.64 140.721 388.376 135.255C391.781 128.451 394.998 122.025 398.778 116.216C404.067 108.091 410.246 100.563 416.788 92.5915C421.424 86.9421 426.219 81.1012 431.003 74.6753C431.834 73.5573 432.671 72.4246 433.513 71.2774C439.644 62.9117 459.568 34.5461 458.493 20.7782Z" fill="url(#paint3_linear_504_11459)" fill-opacity="0.5"/>
<path d="M457.127 20.8773L456.557 21.1178C455.87 29.8336 447.051 46.736 430.344 71.3578L428.05 74.7375C424.411 80.0942 420.889 84.9509 417.482 89.6484C411.278 98.2022 405.419 106.282 400.789 114.892C398.455 119.233 396.471 123.976 394.369 128.999C391.608 135.598 388.478 143.079 383.963 150.932C378.978 159.603 373.311 167.512 367.831 175.16C364.919 179.226 362.167 183.066 359.711 186.764C350.605 200.495 343.965 213.683 340.51 224.901C339.248 228.998 337.819 233.641 338.287 238.889C338.726 243.841 341.674 248.558 344.794 252.918C346.727 255.618 348.725 258.41 350.026 261.525C352.266 266.605 352.436 272.685 350.522 279.349C348.798 285.153 345.563 291.273 340.981 297.401C336.856 302.837 332.346 307.538 327.57 312.515C323.047 317.117 318.821 321.783 314.915 326.486C308.348 334.571 302.138 344.36 296.957 354.795C290.902 367.154 286.427 379.271 283.594 390.975C277.661 415.111 277.27 440.889 282.518 461.697L283.082 461.36C277.845 440.598 278.235 414.88 284.153 390.802C286.977 379.138 291.436 367.063 297.47 354.746C302.624 344.365 308.796 334.633 315.32 326.601C319.208 321.921 323.414 317.278 327.915 312.698C332.714 307.697 337.246 302.974 341.408 297.489C346.05 291.28 349.327 285.08 351.075 279.199C353.014 272.453 352.845 266.298 350.579 261.155C349.268 258.018 347.263 255.217 345.325 252.507C342.222 248.173 339.292 243.487 338.857 238.593C338.395 233.415 339.812 228.814 341.062 224.755C344.498 213.597 351.107 200.473 360.173 186.802C362.619 183.119 365.366 179.285 368.275 175.226C373.768 167.56 379.447 159.632 384.454 150.923C388.992 143.029 392.132 135.526 394.901 128.908C396.995 123.901 398.974 119.173 401.29 114.864C405.894 106.303 411.736 98.2477 417.921 89.7191C421.332 85.0162 424.859 80.1533 428.506 74.7841L430.8 71.4036C447.577 46.6818 456.435 29.6815 457.127 20.8773Z" fill="url(#paint4_linear_504_11459)" fill-opacity="0.5"/>
<path d="M455.756 20.9985L455.107 21.2025C452.682 31.3183 440.113 51.4092 430.015 67.5523L427.54 71.5108C426.829 72.6518 426.135 73.7743 425.458 74.8786C423.267 78.4537 421.181 81.7669 419.164 84.9717C412.716 95.2191 407.146 104.069 403.19 113.613C401.823 116.911 400.676 120.471 399.462 124.24C397.052 131.722 394.32 140.203 388.927 149.565C382.984 159.881 375.343 169.29 368.602 177.59C366.351 180.361 364.226 182.979 362.239 185.53C351.96 198.747 343.592 211.749 338.038 223.13L337.902 223.406C335.787 227.739 333.6 232.219 333.354 237.571C333.146 242.034 335.017 246.919 339.073 252.504C339.488 253.075 339.904 253.64 340.319 254.2C342.01 256.49 343.609 258.653 344.876 260.996C347.673 266.169 348.723 271.732 347.997 277.532C347.351 282.772 345.427 288.388 342.299 294.167C339.413 299.443 336.044 304.091 332.479 309.012C329.614 312.965 326.651 317.053 323.714 321.772C318.81 329.677 314.216 339.172 310.427 349.234C305.893 361.413 302.595 373.327 300.562 384.881C296.365 408.421 296.295 434.735 300.37 457.077L301.027 456.706C296.959 434.404 297.029 408.139 301.217 384.647C303.245 373.127 306.532 361.248 311.053 349.105C314.823 339.091 319.392 329.646 324.265 321.791C327.183 317.104 330.134 313.032 332.988 309.093C336.574 304.145 339.962 299.471 342.877 294.14C346.05 288.28 348.001 282.586 348.657 277.273C349.391 271.399 348.331 265.771 345.505 260.546C344.23 258.187 342.627 256.018 340.931 253.72C340.517 253.16 340.102 252.596 339.687 252.026C335.666 246.492 333.811 241.668 334.016 237.279C334.257 232.033 336.415 227.615 338.5 223.343L338.635 223.066C344.161 211.743 352.491 198.803 362.724 185.643C364.704 183.102 366.825 180.49 369.072 177.723C375.84 169.39 383.511 159.944 389.495 149.556C394.933 140.117 397.677 131.597 400.099 124.08C401.308 120.324 402.452 116.777 403.808 113.505C407.737 104.026 413.287 95.2072 419.713 84.9957C421.732 81.7879 423.818 78.4718 426.013 74.8915C426.687 73.7897 427.38 72.6695 428.091 71.531L430.565 67.574C440.697 51.3789 453.305 31.2234 455.756 20.9985Z" fill="url(#paint5_linear_504_11459)" fill-opacity="0.5"/>
<path d="M453.671 21.262C450.829 28.2821 443.696 40.041 436.144 52.4901C432.198 58.9946 428.118 65.7209 424.737 71.6627C424.088 72.8024 423.464 73.9217 422.866 75.0206L422.815 75.1147C414.41 90.5108 408.858 100.682 405.593 112.338C404.9 114.812 404.34 117.442 403.747 120.226C402.02 128.323 400.064 137.501 393.893 148.192C387.177 159.829 377.858 169.987 369.637 178.949C367.936 180.804 366.329 182.555 364.779 184.282C353.768 196.522 343.995 208.926 335.586 221.334L335.209 221.896C332.328 226.186 329.348 230.622 328.426 236.24C327.409 242.427 330.545 248.27 333.354 252.083C334.25 253.3 335.182 254.477 336.083 255.616C337.39 257.268 338.624 258.828 339.73 260.464C343.174 265.558 345.056 270.548 345.482 275.718C345.866 280.454 345.24 285.575 343.618 290.953C341.97 296.437 339.651 301.394 337.196 306.642C335.676 309.89 334.104 313.25 332.512 317.074C328.885 326.105 326.009 334.988 323.9 343.675C320.904 355.628 318.779 367.346 317.532 378.784C315.017 401.624 315.262 427.786 318.224 452.449L318.974 452.048C316.017 427.415 315.771 401.289 318.283 378.482C319.527 367.069 321.647 355.377 324.636 343.45C326.737 334.797 329.602 325.948 333.215 316.952C334.798 313.146 336.366 309.796 337.882 306.555C340.35 301.279 342.682 296.295 344.347 290.758C345.989 285.312 346.623 280.127 346.233 275.332C345.803 270.103 343.906 265.065 340.433 259.928C339.321 258.284 338.084 256.72 336.773 255.064C335.874 253.927 334.944 252.751 334.051 251.538C331.276 247.774 328.178 242.017 329.173 235.966C330.069 230.506 332.989 226.158 335.814 221.952L336.192 221.39C344.567 209.031 354.301 196.677 365.268 184.487C366.813 182.766 368.417 181.017 370.115 179.166C378.384 170.152 387.756 159.935 394.539 148.183C400.781 137.368 402.751 128.13 404.488 119.979C405.08 117.204 405.638 114.584 406.325 112.13C409.565 100.56 415.098 90.4246 423.473 75.0826L423.525 74.9884C424.119 73.8956 424.74 72.7819 425.387 71.6474C428.761 65.7181 432.836 58.9992 436.778 52.5007C444.352 40.0154 451.505 28.2232 454.376 21.1328L453.671 21.262Z" fill="url(#paint6_linear_504_11459)" fill-opacity="0.5"/>
<path d="M452.249 21.3045C450.076 25.0846 446.77 30.3384 442.942 36.4208C436.083 47.3199 427.547 60.8842 421.928 71.8236C421.333 72.9807 420.774 74.1075 420.268 75.1727C412.686 91.0412 409.359 100.772 407.995 111.076C407.763 112.828 407.599 114.659 407.423 116.598C406.69 124.732 405.776 134.854 398.854 146.824C391.466 159.6 380.465 170.273 370.759 179.689C369.586 180.827 368.437 181.942 367.323 183.033C355.1 195.025 343.684 207.217 333.15 219.53L332.627 220.139C328.927 224.457 325.099 228.923 323.499 234.906C321.572 242.096 325.26 248.493 327.631 251.666C329.042 253.557 330.568 255.298 332.043 256.982C332.913 257.975 333.769 258.952 334.582 259.936C338.767 265.005 341.511 269.577 342.971 273.913C344.382 278.198 345.045 282.835 344.95 287.758C344.877 294.47 343.709 300.333 342.229 307.756C341.935 309.233 341.628 310.773 341.315 312.394C339.744 320.655 338.417 329.312 337.371 338.126C335.961 349.633 334.994 361.264 334.499 372.694C333.644 393.392 334.159 417.966 336.073 447.822L336.916 447.397C335.003 417.557 334.489 392.999 335.343 372.319C335.838 360.904 336.803 349.287 338.212 337.793C339.256 328.992 340.58 320.35 342.149 312.104C342.462 310.485 342.768 308.947 343.062 307.47C344.547 300.017 345.72 294.13 345.794 287.367C345.89 282.397 345.22 277.715 343.796 273.389C342.323 269.015 339.561 264.411 335.352 259.313C334.537 258.326 333.679 257.347 332.807 256.352C331.336 254.672 329.814 252.936 328.409 251.054C326.078 247.933 322.448 241.654 324.322 234.664C325.864 228.901 329.593 224.549 333.2 220.341L333.723 219.729C344.227 207.453 355.609 195.297 367.795 183.341C368.907 182.252 370.054 181.14 371.225 180.003C381.006 170.514 392.092 159.76 399.578 146.814C406.604 134.663 407.525 124.453 408.266 116.249C408.44 114.316 408.605 112.491 408.835 110.749C410.188 100.528 413.494 90.8619 421.033 75.0827C421.536 74.0274 422.089 72.9108 422.679 71.7632C428.275 60.8686 436.796 47.3296 443.642 36.4506C447.477 30.3562 450.789 25.0929 452.974 21.2907L452.249 21.3045Z" fill="url(#paint7_linear_504_11459)" fill-opacity="0.5"/>
<path d="M450.853 21.3288C442.706 32.2046 426.855 55.1127 419.124 71.9873C418.595 73.142 418.108 74.2652 417.676 75.327C411.225 91.1092 410.114 100.224 410.412 109.816C410.444 110.888 410.501 111.998 410.559 113.147C410.987 121.621 411.52 132.166 403.823 145.453C395.825 159.26 382.56 170.773 371.902 180.024L369.884 181.777C357.296 192.751 344.857 204.171 330.737 217.717L330.188 218.244C325.829 222.418 320.887 227.151 318.583 233.563C316.526 239.283 317.74 245.728 321.914 251.248C323.882 253.852 326.128 256.094 328.3 258.262L329.444 259.408C334.244 264.248 337.958 268.259 340.479 272.106C342.953 275.971 344.902 280.131 346.313 284.557C348.617 291.434 349.655 297.711 350.141 307.715C350.486 314.377 350.651 322.492 350.841 331.889L350.958 339.327C351.081 347.572 351.221 356.917 351.474 366.604C351.737 375.92 352.103 385.462 352.49 395.566C353.094 411.329 353.719 427.629 353.93 443.191L354.866 442.745C354.653 427.177 354.029 410.873 353.425 395.107C353.038 385.005 352.672 375.464 352.409 366.151C352.156 356.468 352.016 347.124 351.894 338.881L351.776 331.44C351.586 322.039 351.422 313.92 351.076 307.25C350.587 297.202 349.545 290.893 347.227 283.977C345.806 279.522 343.844 275.335 341.353 271.445C338.817 267.575 335.091 263.549 330.277 258.695L329.131 257.548C326.967 255.388 324.73 253.154 322.775 250.568C318.688 245.164 317.484 238.894 319.473 233.366C321.673 227.241 326.26 222.849 330.696 218.6L331.246 218.073C345.343 204.548 357.76 193.149 370.323 182.196L372.338 180.446C383.1 171.105 396.492 159.481 404.624 145.442C412.465 131.907 411.927 121.248 411.494 112.683C411.436 111.537 411.38 110.431 411.347 109.362C411.051 99.8543 412.154 90.8181 418.55 75.1694C418.977 74.1217 419.457 73.0122 419.98 71.8719C427.666 55.0962 443.446 32.2938 451.558 21.4644L450.853 21.3288Z" fill="url(#paint8_linear_504_11459)" fill-opacity="0.5"/>
<path d="M449.472 21.3428C440.064 31.4768 423.307 54.7727 416.314 72.1538C415.854 73.2977 415.438 74.4187 415.078 75.4867C409.806 91.0508 411.006 100.013 412.828 108.56L413.084 109.752C414.876 118.026 417.328 129.36 408.786 144.082C400.213 158.856 385.118 170.632 372.989 180.095L372.446 180.519C357.9 191.883 344.628 202.665 332.919 212.178L327.859 216.287C322.629 220.529 316.7 225.336 313.667 232.215C310.981 238.297 311.925 245.255 316.191 250.829C318.54 253.741 321.249 256.43 324.302 258.88C326.436 260.692 328.465 262.328 330.428 263.911C333.204 266.151 335.827 268.266 337.991 270.295C342.077 274.125 345.185 278.029 347.688 281.343C352.785 287.828 356.566 295.092 358.976 303.03C360.926 309.219 362.68 317.07 364.337 327.033C365.8 336.058 367.143 347.011 368.445 360.515C371.411 390.645 372.502 416.173 371.782 438.558L372.808 438.096C373.529 415.685 372.437 390.134 369.468 359.98C368.166 346.466 366.821 335.503 365.357 326.466C363.695 316.48 361.938 308.609 359.981 302.402C357.558 294.42 353.757 287.118 348.634 280.598C346.122 277.271 343.001 273.352 338.895 269.503C336.72 267.465 334.093 265.345 331.31 263.101C329.349 261.52 327.323 259.884 325.192 258.076C322.16 255.643 319.469 252.973 317.134 250.082C312.975 244.648 312.032 237.916 314.612 232.073C317.49 225.549 322.976 221.099 328.283 216.796L333.343 212.686C345.045 203.18 358.308 192.405 372.837 181.054L373.38 180.63C385.648 171.059 400.916 159.147 409.665 144.071C418.397 129.021 415.913 117.542 414.1 109.161L413.844 107.972C412.039 99.506 410.85 90.6339 416.06 75.2518C416.413 74.2028 416.822 73.1008 417.275 71.9767C424.204 54.7552 440.799 31.6823 450.115 21.6475L449.472 21.3428Z" fill="url(#paint9_linear_504_11459)" fill-opacity="0.5"/>
<path d="M448.109 21.3576C436.465 31.8225 419.391 55.3292 413.507 72.3279C413.11 73.4723 412.766 74.591 412.484 75.6522C408.402 90.9049 411.886 99.2426 415.256 107.307C418.24 114.447 423.234 126.397 413.751 142.713C404.636 158.396 387.516 170.457 375.016 179.264C366.433 185.317 358.232 191.161 350.301 196.813C341.723 202.926 333.621 208.699 325.927 214.102L325.65 214.297C319.511 218.606 312.551 223.491 308.757 230.866C305.4 237.384 306.041 244.692 310.47 250.413C312.882 253.382 315.789 256.038 319.165 258.355C323.173 261.244 327.229 263.606 330.807 265.69C332.47 266.658 334.04 267.572 335.513 268.483C340.761 271.724 345.134 275.03 349.076 278.12C356.584 284.002 362.645 289.691 367.825 298.341C371.487 304.418 374.852 312.206 377.828 321.49C380.757 330.758 383.311 341.841 385.419 354.431C388.625 373.358 391.96 402.512 389.637 433.925L390.754 433.451C393.08 401.975 389.74 372.77 386.528 353.812C384.417 341.2 381.857 330.094 378.921 320.804C375.935 311.487 372.556 303.669 368.878 297.565C363.667 288.863 357.575 283.144 350.033 277.234C346.08 274.137 341.696 270.822 336.43 267.57C334.952 266.656 333.379 265.74 331.714 264.771C328.144 262.692 324.099 260.336 320.107 257.459C316.765 255.165 313.886 252.536 311.497 249.598C307.198 244.045 306.545 237.012 309.75 230.786C313.329 223.83 320.049 219.113 325.979 214.951L326.256 214.756C333.958 209.348 342.063 203.573 350.643 197.458C358.573 191.807 366.771 185.964 375.348 179.915C388.019 170.988 405.372 158.763 414.707 142.702C424.435 125.964 419.365 113.833 416.336 106.584C413.001 98.6039 409.552 90.3513 413.573 75.332C413.849 74.2941 414.185 73.2004 414.573 72.0806C420.213 55.7886 437.221 32.1159 448.66 21.8341L448.109 21.3576Z" fill="url(#paint10_linear_504_11459)" fill-opacity="0.5"/>
<path d="M446.753 21.3738C433.856 31.277 415.698 55.2469 410.698 72.5024C410.367 73.647 410.095 74.7628 409.889 75.8196C407.137 89.8995 411.9 97.187 416.943 104.903L417.689 106.048C422.988 114.2 427.892 125.579 418.715 141.343C409.856 156.563 392.841 168.248 377.588 178.006L371.288 182.042C354.373 192.879 338.396 203.116 323.525 212.301C316.45 216.671 308.431 221.624 303.85 229.513C299.096 237.692 301.198 245.457 304.75 249.995C307.216 253.028 310.326 255.653 314.03 257.828C319.291 261.066 324.906 263.347 329.86 265.359C330.947 265.801 332.011 266.233 333.042 266.663C339.859 269.506 345.677 272.414 350.469 274.885C359.378 279.479 368.721 284.93 376.68 293.641C382.1 299.55 387.026 307.053 391.322 315.943C396.093 326.206 399.789 337.024 402.394 348.346C406.808 366.654 411.275 395.558 407.492 429.289L408.696 428.806C412.49 394.975 408.011 365.994 403.586 347.639C400.973 336.283 397.266 325.433 392.48 315.14C388.166 306.211 383.215 298.672 377.767 292.733C369.761 283.97 360.376 278.492 351.427 273.878C346.625 271.403 340.795 268.489 333.96 265.638C332.927 265.207 331.862 264.775 330.774 264.333C325.839 262.328 320.246 260.056 315.02 256.84C311.364 254.694 308.294 252.104 305.859 249.112C302.426 244.726 300.368 237.272 304.884 229.501C309.189 222.088 316.929 217.307 323.758 213.089C338.646 203.894 354.631 193.651 371.556 182.807L377.854 178.773C393.35 168.86 410.644 156.974 419.749 141.332C429.195 125.105 424.214 113.496 418.82 105.195L418.072 104.049C413.088 96.4237 408.381 89.2209 411.082 75.407C411.282 74.3788 411.547 73.2932 411.87 72.1783C416.781 55.2232 434.572 31.7109 447.198 22.0159L446.753 21.3738Z" fill="url(#paint11_linear_504_11459)" fill-opacity="0.5"/>
<path d="M445.401 21.3977C429.558 31.9779 411.68 56.4218 407.893 72.6814C407.627 73.8196 407.427 74.9331 407.299 75.9911C405.667 89.3231 411.757 95.8279 418.204 102.715C418.848 103.403 419.493 104.091 420.131 104.789C430.018 115.6 431.179 127.11 423.682 139.972C414.853 155.117 397.549 166.599 380.164 176.751C362.307 187.187 341.327 199.36 321.123 210.507C313.655 214.609 304.359 219.716 298.948 228.158C295.298 233.848 293.404 242.464 299.031 249.579C301.553 252.679 304.867 255.273 308.898 257.303C315.109 260.578 322.114 262.507 328.296 264.21L330.574 264.841C337.203 266.692 343.769 268.79 351.864 271.645C362.579 275.485 374.961 280.544 385.541 288.936C392.732 294.627 399.219 301.847 404.821 310.398C411.084 320.263 415.946 330.912 419.372 342.263C427.433 367.976 429.5 396.466 425.349 424.652L426.64 424.164C430.806 395.866 428.733 367.27 420.644 341.468C417.205 330.074 412.323 319.384 406.036 309.48C400.406 300.887 393.886 293.629 386.654 287.908C376.016 279.469 363.582 274.388 352.821 270.531C344.71 267.671 338.132 265.569 331.488 263.713L329.207 263.082C323.057 261.388 316.087 259.468 309.932 256.223C305.966 254.227 302.704 251.676 300.221 248.627C296.835 244.345 294.749 236.431 300.015 228.218C305.088 220.304 314.056 215.378 321.262 211.419C341.493 200.257 362.489 188.076 380.36 177.631C398.057 167.297 415.687 155.581 424.792 139.963C432.537 126.675 431.395 114.85 421.3 103.812C420.661 103.113 420.017 102.421 419.37 101.734C413.007 94.9372 406.997 88.517 408.591 75.4812C408.716 74.4567 408.91 73.3778 409.167 72.2751C412.871 56.3701 430.3 32.4987 445.732 22.1935L445.401 21.3977Z" fill="url(#paint12_linear_504_11459)" fill-opacity="0.5"/>
<path d="M444.045 21.4246C426.58 31.7087 408.009 56.2251 405.083 72.8607C404.882 74.0033 404.755 75.1135 404.706 76.1621C404.089 88.9757 411.872 95.0871 419.4 100.997C420.464 101.833 421.53 102.67 422.572 103.524C430.763 110.239 438.466 121.775 428.642 138.601C419.425 154.392 400.265 166.113 382.738 175.495C358.234 188.621 337.292 199.487 318.715 208.714C310.934 212.567 300.275 217.844 294.044 226.8C287.653 235.983 289.652 244.585 293.308 249.16C295.894 252.326 299.416 254.89 303.765 256.775C310.686 259.928 318.915 261.385 326.175 262.669L328.104 263.012C336.337 264.486 344.564 266.247 353.254 268.397C371.045 272.858 383.734 277.74 394.397 284.225C403.832 290.067 411.842 296.971 418.32 304.847C426.045 314.312 432.075 324.794 436.347 336.179C446.136 361.495 448.507 390.484 443.203 420.011L444.577 419.522C449.908 389.847 447.528 360.721 437.696 335.293C433.405 323.856 427.346 313.327 419.585 303.819C413.073 295.9 405.02 288.959 395.534 283.087C384.816 276.568 372.072 271.664 354.21 267.186C345.503 265.031 337.259 263.266 329.008 261.789L327.077 261.446C319.509 260.107 311.683 258.722 304.839 255.604C300.573 253.757 297.118 251.243 294.58 248.14C291.08 243.758 289.125 235.576 295.139 226.935C300.972 218.552 311.256 213.46 318.765 209.742C337.367 200.503 358.332 189.625 382.86 176.486C400.733 166.918 420.29 154.934 429.83 138.591C440.01 121.153 432.154 109.301 423.77 102.43C422.725 101.573 421.658 100.734 420.59 99.896C413.168 94.0685 405.494 88.0422 406.096 75.5494C406.142 74.5394 406.265 73.4685 406.459 72.3674C409.257 56.4579 427.629 32.1565 444.263 22.3622L444.045 21.4246Z" fill="url(#paint13_linear_504_11459)" fill-opacity="0.5"/>
<path d="M442.692 21.461C423.893 31.3284 404.255 56.3974 402.281 73.045C402.146 74.187 402.092 75.2948 402.121 76.3378C402.459 88.767 411.667 94.2493 420.572 99.551C422.046 100.429 423.571 101.337 425.023 102.259C432.93 107.279 444.56 118.499 433.611 137.232C424.044 153.598 403.83 165.126 385.318 174.244C360.173 186.634 337.601 197.325 316.312 206.928C308.308 210.53 296.212 215.974 289.148 225.444C284.638 231.489 281.524 241.219 287.589 248.745C290.241 251.978 293.973 254.512 298.638 256.249C306.238 259.214 315.247 260.128 323.96 261.012L325.642 261.184C335.473 262.192 345.232 263.526 354.649 265.15C374.781 268.655 390.228 273.219 403.262 279.512C414.346 284.921 423.914 291.548 431.826 299.298C440.984 308.361 448.185 318.676 453.329 330.098C464.841 355.09 467.515 384.578 461.063 415.373L462.521 414.883C469.012 383.904 466.325 354.248 454.752 329.122C449.582 317.641 442.343 307.272 433.137 298.162C425.182 290.371 415.564 283.708 404.421 278.271C391.326 271.948 375.815 267.364 355.608 263.845C346.168 262.219 336.386 260.882 326.534 259.871L324.851 259.699C316.198 258.821 307.25 257.913 299.748 254.987C295.187 253.291 291.538 250.815 288.944 247.656C283.159 240.479 286.041 231.319 290.267 225.655C296.367 217.476 306.051 212.667 316.276 208.065C337.594 198.449 360.193 187.745 385.365 175.342C393.273 171.447 403.552 166.129 412.918 159.529C423.122 152.338 430.304 145.042 434.875 137.222C446.259 117.747 434.354 106.201 426.244 101.052C424.785 100.126 423.256 99.216 421.778 98.3358C413.004 93.1115 403.931 87.7088 403.602 75.6209C403.574 74.6195 403.626 73.5561 403.756 72.4597C405.668 56.3245 424.643 32.0583 442.801 22.5279L442.692 21.461Z" fill="url(#paint14_linear_504_11459)" fill-opacity="0.5"/>
<path d="M441.333 21.5012C420.848 31.1712 400.507 56.3107 399.478 73.2295C399.408 74.3572 399.427 75.4534 399.536 76.5136C400.792 88.6379 411.429 93.5316 421.716 98.264C423.627 99.1445 425.605 100.054 427.472 100.99C450.075 112.328 441.685 130.548 438.575 135.863C428.615 152.879 406.259 164.644 387.895 172.993C362.377 184.597 337.483 195.414 313.902 205.143C302.899 209.678 291.545 214.876 284.252 224.086C276.719 233.597 277.627 243.115 281.869 248.328C284.588 251.63 288.532 254.136 293.51 255.723C301.648 258.433 311.631 258.859 321.286 259.27L323.175 259.352C334.422 259.816 345.478 260.673 356.04 261.9C378.277 264.497 396.622 268.715 412.123 274.796C424.824 279.794 435.948 286.142 445.332 293.746C455.893 302.411 464.267 312.559 470.309 324.016C483.539 348.731 486.517 378.716 478.92 410.731L480.461 410.244C488.111 378.005 485.117 347.819 471.804 322.948C465.728 311.426 457.306 301.22 446.684 292.506C437.252 284.862 426.07 278.481 413.303 273.458C397.736 267.35 379.32 263.114 357.001 260.508C346.412 259.278 335.328 258.419 324.055 257.953L322.165 257.872C312.581 257.464 302.672 257.041 294.652 254.37C289.8 252.825 285.956 250.386 283.305 247.17C279.276 242.22 278.359 233.251 285.39 224.374C292.21 215.762 303.157 210.765 313.786 206.384C337.396 196.642 362.319 185.813 387.866 174.196C406.649 165.656 429.54 153.582 439.916 135.853C444.781 127.541 445.728 119.892 442.731 113.121C439.714 106.309 433.442 102.05 428.712 99.6775C426.834 98.7362 424.852 97.8237 422.934 96.9417C412.801 92.2798 402.323 87.4584 401.103 75.6901C400.999 74.676 400.981 73.6279 401.048 72.5496C402.04 56.2278 421.622 31.9957 441.34 22.688L441.333 21.5012Z" fill="url(#paint15_linear_504_11459)" fill-opacity="0.5"/>
<path d="M439.97 21.5416C428.533 26.4334 417.002 35.6123 408.333 46.7262C399.662 57.8402 395.514 68.7596 396.951 76.6861C399.103 88.5603 411.172 92.8917 422.845 97.0802C425.201 97.9255 427.637 98.7996 429.922 99.7158C450.216 107.853 450.261 123.014 443.537 134.489C433.136 152.24 408.27 164.25 390.471 171.741C364.2 182.795 337.627 193.433 311.49 203.357C306.267 205.34 300.213 207.72 294.448 210.874C288.004 214.399 283.067 218.276 279.355 222.727C271.04 232.691 271.753 242.553 276.147 247.909C284.231 257.761 301.869 257.642 318.928 257.527L320.709 257.515C383.092 257.142 428.274 267.176 458.836 288.191C495.947 313.708 509.775 356.679 496.776 406.086L498.398 405.604C511.497 355.82 497.584 312.535 460.227 286.849C429.528 265.74 384.175 255.661 321.576 256.035L319.794 256.047C302.952 256.16 285.538 256.277 277.664 246.682C273.508 241.617 272.776 232.359 280.508 223.092C288.063 214.038 299.859 209.04 311.296 204.698C337.462 194.762 364.065 184.113 390.366 173.045C428.427 157.029 439.749 143.365 444.956 134.481C455.68 116.18 444.87 103.792 431.176 98.3023C428.878 97.3801 426.434 96.5032 424.072 95.656C412.575 91.5297 400.686 87.2634 398.601 75.7546C397.226 68.1706 401.216 57.6951 409.549 47.0134C417.883 36.3315 428.937 27.5211 439.88 22.841L439.97 21.5416Z" fill="url(#paint16_linear_504_11459)" fill-opacity="0.5"/>
<defs>
<linearGradient id="paint0_linear_504_11459" x1="265.07" y1="388.843" x2="474.967" y2="275.898" gradientUnits="userSpaceOnUse">
<stop offset="0.0677083" stop-color="#2CB9E9"/>
<stop offset="0.302083" stop-color="#994FFF"/>
<stop offset="1" stop-color="#E70DD4"/>
</linearGradient>
<linearGradient id="paint1_linear_504_11459" x1="279.143" y1="385.249" x2="480.598" y2="268.206" gradientUnits="userSpaceOnUse">
<stop offset="0.0677083" stop-color="#2CB9E9"/>
<stop offset="0.302083" stop-color="#994FFF"/>
<stop offset="1" stop-color="#E70DD4"/>
</linearGradient>
<linearGradient id="paint2_linear_504_11459" x1="293.217" y1="381.662" x2="486.137" y2="261.521" gradientUnits="userSpaceOnUse">
<stop offset="0.0677083" stop-color="#2CB9E9"/>
<stop offset="0.302083" stop-color="#994FFF"/>
<stop offset="1" stop-color="#E70DD4"/>
</linearGradient>
<linearGradient id="paint3_linear_504_11459" x1="307.296" y1="378.073" x2="491.68" y2="255.746" gradientUnits="userSpaceOnUse">
<stop offset="0.0677083" stop-color="#2CB9E9"/>
<stop offset="0.302083" stop-color="#994FFF"/>
<stop offset="1" stop-color="#E70DD4"/>
</linearGradient>
<linearGradient id="paint4_linear_504_11459" x1="321.37" y1="374.483" x2="497.285" y2="250.797" gradientUnits="userSpaceOnUse">
<stop offset="0.0677083" stop-color="#2CB9E9"/>
<stop offset="0.302083" stop-color="#994FFF"/>
<stop offset="1" stop-color="#E70DD4"/>
</linearGradient>
<linearGradient id="paint5_linear_504_11459" x1="335.444" y1="370.898" x2="503.009" y2="246.603" gradientUnits="userSpaceOnUse">
<stop offset="0.0677083" stop-color="#2CB9E9"/>
<stop offset="0.302083" stop-color="#994FFF"/>
<stop offset="1" stop-color="#E70DD4"/>
</linearGradient>
<linearGradient id="paint6_linear_504_11459" x1="349.517" y1="367.31" x2="508.891" y2="243.077" gradientUnits="userSpaceOnUse">
<stop offset="0.0677083" stop-color="#2CB9E9"/>
<stop offset="0.302083" stop-color="#994FFF"/>
<stop offset="1" stop-color="#E70DD4"/>
</linearGradient>
<linearGradient id="paint7_linear_504_11459" x1="363.583" y1="363.728" x2="514.95" y2="240.162" gradientUnits="userSpaceOnUse">
<stop offset="0.0677083" stop-color="#2CB9E9"/>
<stop offset="0.302083" stop-color="#994FFF"/>
<stop offset="1" stop-color="#E70DD4"/>
</linearGradient>
<linearGradient id="paint8_linear_504_11459" x1="377.654" y1="360.148" x2="521.221" y2="237.789" gradientUnits="userSpaceOnUse">
<stop offset="0.0677083" stop-color="#2CB9E9"/>
<stop offset="0.302083" stop-color="#994FFF"/>
<stop offset="1" stop-color="#E70DD4"/>
</linearGradient>
<linearGradient id="paint9_linear_504_11459" x1="391.719" y1="356.569" x2="527.708" y2="235.9" gradientUnits="userSpaceOnUse">
<stop offset="0.0677083" stop-color="#2CB9E9"/>
<stop offset="0.302083" stop-color="#994FFF"/>
<stop offset="1" stop-color="#E70DD4"/>
</linearGradient>
<linearGradient id="paint10_linear_504_11459" x1="405.808" y1="352.98" x2="534.501" y2="234.4" gradientUnits="userSpaceOnUse">
<stop offset="0.0677083" stop-color="#2CB9E9"/>
<stop offset="0.302083" stop-color="#994FFF"/>
<stop offset="1" stop-color="#E70DD4"/>
</linearGradient>
<linearGradient id="paint11_linear_504_11459" x1="419.914" y1="349.377" x2="541.584" y2="233.24" gradientUnits="userSpaceOnUse">
<stop offset="0.0677083" stop-color="#2CB9E9"/>
<stop offset="0.302083" stop-color="#994FFF"/>
<stop offset="1" stop-color="#E70DD4"/>
</linearGradient>
<linearGradient id="paint12_linear_504_11459" x1="434.005" y1="345.765" x2="548.872" y2="232.389" gradientUnits="userSpaceOnUse">
<stop offset="0.0677083" stop-color="#2CB9E9"/>
<stop offset="0.302083" stop-color="#994FFF"/>
<stop offset="1" stop-color="#E70DD4"/>
</linearGradient>
<linearGradient id="paint13_linear_504_11459" x1="448.058" y1="342.13" x2="556.334" y2="231.796" gradientUnits="userSpaceOnUse">
<stop offset="0.0677083" stop-color="#2CB9E9"/>
<stop offset="0.302083" stop-color="#994FFF"/>
<stop offset="1" stop-color="#E70DD4"/>
</linearGradient>
<linearGradient id="paint14_linear_504_11459" x1="462.099" y1="338.487" x2="564.001" y2="231.451" gradientUnits="userSpaceOnUse">
<stop offset="0.0677083" stop-color="#2CB9E9"/>
<stop offset="0.302083" stop-color="#994FFF"/>
<stop offset="1" stop-color="#E70DD4"/>
</linearGradient>
<linearGradient id="paint15_linear_504_11459" x1="476.114" y1="334.828" x2="571.853" y2="231.321" gradientUnits="userSpaceOnUse">
<stop offset="0.0677083" stop-color="#2CB9E9"/>
<stop offset="0.302083" stop-color="#994FFF"/>
<stop offset="1" stop-color="#E70DD4"/>
</linearGradient>
<linearGradient id="paint16_linear_504_11459" x1="490.11" y1="331.156" x2="579.895" y2="231.382" gradientUnits="userSpaceOnUse">
<stop offset="0.0677083" stop-color="#2CB9E9"/>
<stop offset="0.302083" stop-color="#994FFF"/>
<stop offset="1" stop-color="#E70DD4"/>
</linearGradient>
</defs>
</svg>
