<svg width="171" height="57" viewBox="0 0 171 57" fill="none" xmlns="http://www.w3.org/2000/svg">
<path d="M45.3601 5.62025L15.6572 5.61011C11.6485 5.60866 9.64124 10.455 12.4746 13.2898C13.321 14.1362 14.4688 14.6101 15.6659 14.6072L36.4195 14.5608L36.3731 35.3145C36.3702 36.5116 36.8441 37.6594 37.6905 38.5058C40.5253 41.3405 45.3717 39.3318 45.3702 35.3232L45.3601 5.62025Z" fill="white"/>
<path d="M29.9804 17.8985L17.2934 30.5855C16.4543 31.4232 16.4543 32.7826 17.2934 33.6217C17.7123 34.0406 18.2615 34.2507 18.8108 34.2507C19.3601 34.2507 19.9094 34.0406 20.3282 33.6217L33.0151 20.9348C33.8528 20.0956 33.8528 18.7377 33.0151 17.8985C32.1789 17.0608 30.8195 17.0608 29.9804 17.8985Z" fill="white"/>
<path d="M21.5038 17.5478C20.6661 16.7087 19.3067 16.7087 18.4676 17.5478L5.7806 30.2348C4.94292 31.0739 4.94292 32.4319 5.7806 33.271C6.19945 33.6898 6.74872 33.9 7.298 33.9C7.84727 33.9 8.39655 33.6898 8.81539 33.271L21.5023 20.584C22.3415 19.7449 22.3415 18.3855 21.5038 17.5478Z" fill="white"/>
<path d="M29.7449 29.2579L17.0579 41.9449C16.2203 42.7825 16.2203 44.142 17.0579 44.9811C17.4768 45.3999 18.0261 45.6101 18.5753 45.6101C19.1246 45.6101 19.6739 45.3999 20.0927 44.9811L32.7797 32.2941C33.6188 31.4564 33.6188 30.097 32.7797 29.2579C31.942 28.4202 30.5826 28.4202 29.7449 29.2579Z" fill="white"/>
<path d="M45.3601 5.62025L15.6572 5.61011C11.6485 5.60866 9.64124 10.455 12.4746 13.2898C13.321 14.1362 14.4688 14.6101 15.6659 14.6072L36.4195 14.5608L36.3731 35.3145C36.3702 36.5116 36.8441 37.6594 37.6905 38.5058C40.5253 41.3405 45.3717 39.3318 45.3702 35.3232L45.3601 5.62025Z" fill="url(#paint0_linear_164_10418)"/>
<path d="M29.9804 17.8985L17.2934 30.5855C16.4543 31.4232 16.4543 32.7826 17.2934 33.6217C17.7123 34.0406 18.2615 34.2507 18.8108 34.2507C19.3601 34.2507 19.9094 34.0406 20.3282 33.6217L33.0151 20.9348C33.8528 20.0956 33.8528 18.7377 33.0151 17.8985C32.1789 17.0608 30.8195 17.0608 29.9804 17.8985Z" fill="url(#paint1_linear_164_10418)"/>
<path d="M21.5038 17.5478C20.6661 16.7087 19.3067 16.7087 18.4676 17.5478L5.7806 30.2348C4.94292 31.0739 4.94292 32.4319 5.7806 33.271C6.19945 33.6898 6.74872 33.9 7.298 33.9C7.84727 33.9 8.39655 33.6898 8.81539 33.271L21.5023 20.584C22.3415 19.7449 22.3415 18.3855 21.5038 17.5478Z" fill="url(#paint2_linear_164_10418)"/>
<path d="M29.7449 29.2579L17.0579 41.9449C16.2203 42.7825 16.2203 44.142 17.0579 44.9811C17.4768 45.3999 18.0261 45.6101 18.5753 45.6101C19.1246 45.6101 19.6739 45.3999 20.0927 44.9811L32.7797 32.2941C33.6188 31.4564 33.6188 30.097 32.7797 29.2579C31.942 28.4202 30.5826 28.4202 29.7449 29.2579Z" fill="url(#paint3_linear_164_10418)"/>
<path d="M85.5036 13.3445L81.2582 29.1401L76.6956 13.3445H73.6346L69.0439 29.1401L64.7985 13.3445H61.3047L67.022 33.559H70.8627L75.1659 18.8024L79.4394 33.559H83.2801L88.9974 13.3445H85.5036Z" fill="white"/>
<path d="M96.4791 18.7446C94.3415 18.7446 92.5426 19.4764 91.079 20.94C89.5972 22.4234 88.8555 24.2224 88.8555 26.3401C88.8555 28.4579 89.5972 30.2585 91.079 31.7403C92.5426 33.2039 94.3415 33.9357 96.4791 33.9357C98.6167 33.9357 100.416 33.2039 101.879 31.7403C103.361 30.2585 104.103 28.4579 104.103 26.3401C104.103 24.2224 103.361 22.4234 101.879 20.94C100.416 19.4764 98.615 18.7446 96.4791 18.7446ZM99.6838 29.6027C98.8182 30.4683 97.7494 30.9027 96.4791 30.9027C95.2087 30.9027 94.14 30.4699 93.2743 29.6027C92.4087 28.7354 91.9743 27.6485 91.9743 26.3401C91.9743 25.0318 92.4071 23.9432 93.2743 23.0776C94.14 22.212 95.2087 21.7775 96.4791 21.7775C97.7494 21.7775 98.8182 22.2104 99.6838 23.0776C100.551 23.9432 100.984 25.0318 100.984 26.3401C100.984 27.6501 100.549 28.7371 99.6838 29.6027Z" fill="white"/>
<path d="M110.049 21.5462V19.1212H106.93V33.5589H110.049V26.2822C110.049 24.8005 110.491 23.7416 111.377 23.1056C112.282 22.4514 113.321 22.1623 114.495 22.24V18.8618C112.318 18.8602 110.836 19.7555 110.049 21.5462Z" fill="white"/>
<path d="M129.338 19.1212H125.525L119.924 25.5026V13.3445H116.805V33.559H119.924V26.8886L125.842 33.559H129.567L122.985 26.1947L129.338 19.1212Z" fill="white"/>
<path d="M143.663 26.6573C143.663 27.9094 143.291 28.8956 142.551 29.6175C141.809 30.3394 140.736 30.7012 139.331 30.7012C137.926 30.7012 136.852 30.3394 136.112 29.6175C135.37 28.8956 135 27.9094 135 26.6573V13.3445H131.68V26.8588C131.68 28.9964 132.392 30.7193 133.817 32.0277C135.223 33.298 137.062 33.934 139.333 33.934C141.604 33.934 143.443 33.298 144.849 32.0277C146.273 30.7193 146.986 28.9947 146.986 26.8588V13.3445H143.666V26.6573H143.663Z" fill="white"/>
<path d="M163.849 20.9681C162.423 19.4863 160.73 18.7446 158.766 18.7446C156.57 18.7446 154.887 19.564 153.713 21.1994V19.1196H150.594V39.3341H153.713V31.509C154.905 33.1262 156.59 33.934 158.766 33.934C160.748 33.934 162.443 33.2022 163.849 31.7386C165.253 30.275 165.957 28.4761 165.957 26.3385C165.957 24.2224 165.255 22.4317 163.849 20.9681ZM161.539 29.6605C160.672 30.5261 159.585 30.9606 158.277 30.9606C156.967 30.9606 155.88 30.5278 155.014 29.6605C154.149 28.7552 153.714 27.6485 153.714 26.3401C153.714 25.012 154.147 23.9151 155.014 23.0479C155.88 22.1624 156.968 21.7197 158.277 21.7197C159.585 21.7197 160.674 22.1624 161.539 23.0479C162.405 23.9135 162.839 25.012 162.839 26.3401C162.839 27.6683 162.405 28.7751 161.539 29.6605Z" fill="white"/>
<defs>
<linearGradient id="paint0_linear_164_10418" x1="45.9945" y1="4.8456" x2="16.1599" y2="34.9151" gradientUnits="userSpaceOnUse">
<stop stop-color="#FBCB24"/>
<stop offset="0.5168" stop-color="#E939D9"/>
<stop offset="1" stop-color="#2ABAE9"/>
</linearGradient>
<linearGradient id="paint1_linear_164_10418" x1="33.9531" y1="16.8909" x2="19.1498" y2="31.8101" gradientUnits="userSpaceOnUse">
<stop stop-color="#FBCB24"/>
<stop offset="0.5168" stop-color="#E939D9"/>
<stop offset="1" stop-color="#2ABAE9"/>
</linearGradient>
<linearGradient id="paint2_linear_164_10418" x1="22.4416" y1="16.5391" x2="7.63735" y2="31.4585" gradientUnits="userSpaceOnUse">
<stop stop-color="#FBCB24"/>
<stop offset="0.5168" stop-color="#E939D9"/>
<stop offset="1" stop-color="#2ABAE9"/>
</linearGradient>
<linearGradient id="paint3_linear_164_10418" x1="33.7188" y1="28.2503" x2="18.9155" y2="43.1695" gradientUnits="userSpaceOnUse">
<stop stop-color="#FBCB24"/>
<stop offset="0.5168" stop-color="#E939D9"/>
<stop offset="1" stop-color="#2ABAE9"/>
</linearGradient>
</defs>
</svg>
