<svg width="168" height="158" viewBox="0 0 168 158" fill="none" xmlns="http://www.w3.org/2000/svg">
<g opacity="0.5">
<rect width="3.49443" height="3.79851" rx="1" fill="#D9D9D9"/>
<rect y="11.0913" width="3.49443" height="3.79851" rx="1" fill="#D9D9D9"/>
<rect y="22.1829" width="3.49443" height="3.79851" rx="1" fill="#D9D9D9"/>
<rect y="33.2744" width="3.49443" height="3.79851" rx="1" fill="#D9D9D9"/>
<rect y="44.3657" width="3.49443" height="3.79851" rx="1" fill="#D9D9D9"/>
<rect y="55.4573" width="3.49443" height="3.79851" rx="1" fill="#D9D9D9"/>
<rect y="66.5488" width="3.49443" height="3.79851" rx="1" fill="#D9D9D9"/>
<rect y="77.6401" width="3.49443" height="3.79851" rx="1" fill="#D9D9D9"/>
<rect x="12.0039" width="3.49443" height="3.79851" rx="1" fill="#D9D9D9"/>
<rect x="12.0039" y="11.0913" width="3.49443" height="3.79851" rx="1" fill="#D9D9D9"/>
<rect x="12.0039" y="22.1829" width="3.49443" height="3.79851" rx="1" fill="#D9D9D9"/>
<rect x="12.0039" y="33.2744" width="3.49443" height="3.79851" rx="1" fill="#D9D9D9"/>
<rect x="12.0039" y="44.3657" width="3.49443" height="3.79851" rx="1" fill="#D9D9D9"/>
<rect x="12.0039" y="55.4573" width="3.49443" height="3.79851" rx="1" fill="#D9D9D9"/>
<rect x="12.0039" y="66.5488" width="3.49443" height="3.79851" rx="1" fill="#D9D9D9"/>
<rect x="12.0039" y="77.6401" width="3.49443" height="3.79851" rx="1" fill="#D9D9D9"/>
<rect x="24.0078" width="3.49443" height="3.79851" rx="1" fill="#D9D9D9"/>
<rect x="24.0078" y="11.0913" width="3.49443" height="3.79851" rx="1" fill="#D9D9D9"/>
<rect x="24.0078" y="22.1829" width="3.49443" height="3.79851" rx="1" fill="#D9D9D9"/>
<rect x="24.0078" y="33.2744" width="3.49443" height="3.79851" rx="1" fill="#D9D9D9"/>
<rect x="24.0078" y="44.3657" width="3.49443" height="3.79851" rx="1" fill="#D9D9D9"/>
<rect x="24.0078" y="55.4573" width="3.49443" height="3.79851" rx="1" fill="#D9D9D9"/>
<rect x="24.0078" y="66.5488" width="3.49443" height="3.79851" rx="1" fill="#D9D9D9"/>
<rect x="24.0078" y="77.6401" width="3.49443" height="3.79851" rx="1" fill="#D9D9D9"/>
<rect x="36.0078" width="3.49443" height="3.79851" rx="1" fill="#D9D9D9"/>
<rect x="36.0078" y="11.0913" width="3.49443" height="3.79851" rx="1" fill="#D9D9D9"/>
<rect x="36.0078" y="22.1829" width="3.49443" height="3.79851" rx="1" fill="#D9D9D9"/>
<rect x="36.0078" y="33.2744" width="3.49443" height="3.79851" rx="1" fill="#D9D9D9"/>
<rect x="36.0078" y="44.3657" width="3.49443" height="3.79851" rx="1" fill="#D9D9D9"/>
<rect x="36.0078" y="55.4573" width="3.49443" height="3.79851" rx="1" fill="#D9D9D9"/>
<rect x="36.0078" y="66.5488" width="3.49443" height="3.79851" rx="1" fill="#D9D9D9"/>
<rect x="36.0078" y="77.6401" width="3.49443" height="3.79851" rx="1" fill="#D9D9D9"/>
<rect x="48.0117" width="3.49443" height="3.79851" rx="1" fill="#D9D9D9"/>
<rect x="48.0117" y="11.0913" width="3.49443" height="3.79851" rx="1" fill="#D9D9D9"/>
<rect x="48.0117" y="22.1829" width="3.49443" height="3.79851" rx="1" fill="#D9D9D9"/>
<rect x="48.0117" y="33.2744" width="3.49443" height="3.79851" rx="1" fill="#D9D9D9"/>
<rect x="48.0117" y="44.3657" width="3.49443" height="3.79851" rx="1" fill="#D9D9D9"/>
<rect x="48.0117" y="55.4573" width="3.49443" height="3.79851" rx="1" fill="#D9D9D9"/>
<rect x="48.0117" y="66.5488" width="3.49443" height="3.79851" rx="1" fill="#D9D9D9"/>
<rect x="48.0117" y="77.6401" width="3.49443" height="3.79851" rx="1" fill="#D9D9D9"/>
<rect y="86.771" width="3.49443" height="3.79851" rx="1" fill="#D9D9D9"/>
<rect y="97.8625" width="3.49443" height="3.79851" rx="1" fill="#D9D9D9"/>
<rect y="108.954" width="3.49443" height="3.79851" rx="1" fill="#D9D9D9"/>
<rect y="120.045" width="3.49443" height="3.79851" rx="1" fill="#D9D9D9"/>
<rect y="131.137" width="3.49443" height="3.79851" rx="1" fill="#D9D9D9"/>
<rect y="142.228" width="3.49443" height="3.79851" rx="1" fill="#D9D9D9"/>
<rect y="153.32" width="3.49443" height="3.79851" rx="1" fill="#D9D9D9"/>
<rect x="12.0039" y="86.771" width="3.49443" height="3.79851" rx="1" fill="#D9D9D9"/>
<rect x="12.0039" y="97.8625" width="3.49443" height="3.79851" rx="1" fill="#D9D9D9"/>
<rect x="12.0039" y="108.954" width="3.49443" height="3.79851" rx="1" fill="#D9D9D9"/>
<rect x="12.0039" y="120.045" width="3.49443" height="3.79851" rx="1" fill="#D9D9D9"/>
<rect x="12.0039" y="131.137" width="3.49443" height="3.79851" rx="1" fill="#D9D9D9"/>
<rect x="12.0039" y="142.228" width="3.49443" height="3.79851" rx="1" fill="#D9D9D9"/>
<rect x="12.0039" y="153.32" width="3.49443" height="3.79851" rx="1" fill="#D9D9D9"/>
<rect x="24.0078" y="86.771" width="3.49443" height="3.79851" rx="1" fill="#D9D9D9"/>
<rect x="24.0078" y="97.8625" width="3.49443" height="3.79851" rx="1" fill="#D9D9D9"/>
<rect x="24.0078" y="108.954" width="3.49443" height="3.79851" rx="1" fill="#D9D9D9"/>
<rect x="24.0078" y="120.045" width="3.49443" height="3.79851" rx="1" fill="#D9D9D9"/>
<rect x="24.0078" y="131.137" width="3.49443" height="3.79851" rx="1" fill="#D9D9D9"/>
<rect x="24.0078" y="142.228" width="3.49443" height="3.79851" rx="1" fill="#D9D9D9"/>
<rect x="24.0078" y="153.32" width="3.49443" height="3.79851" rx="1" fill="#D9D9D9"/>
<rect x="36.0078" y="86.771" width="3.49443" height="3.79851" rx="1" fill="#D9D9D9"/>
<rect x="36.0078" y="97.8625" width="3.49443" height="3.79851" rx="1" fill="#D9D9D9"/>
<rect x="36.0078" y="108.954" width="3.49443" height="3.79851" rx="1" fill="#D9D9D9"/>
<rect x="36.0078" y="120.045" width="3.49443" height="3.79851" rx="1" fill="#D9D9D9"/>
<rect x="36.0078" y="131.137" width="3.49443" height="3.79851" rx="1" fill="#D9D9D9"/>
<rect x="36.0078" y="142.228" width="3.49443" height="3.79851" rx="1" fill="#D9D9D9"/>
<rect x="36.0078" y="153.32" width="3.49443" height="3.79851" rx="1" fill="#D9D9D9"/>
<rect x="48.0117" y="86.771" width="3.49443" height="3.79851" rx="1" fill="#D9D9D9"/>
<rect x="48.0117" y="97.8625" width="3.49443" height="3.79851" rx="1" fill="#D9D9D9"/>
<rect x="48.0117" y="108.954" width="3.49443" height="3.79851" rx="1" fill="#D9D9D9"/>
<rect x="48.0117" y="120.045" width="3.49443" height="3.79851" rx="1" fill="#D9D9D9"/>
<rect x="48.0117" y="131.137" width="3.49443" height="3.79851" rx="1" fill="#D9D9D9"/>
<rect x="48.0117" y="142.228" width="3.49443" height="3.79851" rx="1" fill="#D9D9D9"/>
<rect x="48.0117" y="153.32" width="3.49443" height="3.79851" rx="1" fill="#D9D9D9"/>
<rect x="58" y="86.771" width="3.49443" height="3.79851" rx="1" fill="#D9D9D9"/>
<rect x="58" y="97.8625" width="3.49443" height="3.79851" rx="1" fill="#D9D9D9"/>
<rect x="58" y="108.954" width="3.49443" height="3.79851" rx="1" fill="#D9D9D9"/>
<rect x="58" y="120.045" width="3.49443" height="3.79851" rx="1" fill="#D9D9D9"/>
<rect x="58" y="131.137" width="3.49443" height="3.79851" rx="1" fill="#D9D9D9"/>
<rect x="58" y="142.228" width="3.49443" height="3.79851" rx="1" fill="#D9D9D9"/>
<rect x="58" y="153.32" width="3.49443" height="3.79851" rx="1" fill="#D9D9D9"/>
<rect x="70.0039" y="86.771" width="3.49443" height="3.79851" rx="1" fill="#D9D9D9"/>
<rect x="70.0039" y="97.8625" width="3.49443" height="3.79851" rx="1" fill="#D9D9D9"/>
<rect x="70.0039" y="108.954" width="3.49443" height="3.79851" rx="1" fill="#D9D9D9"/>
<rect x="70.0039" y="120.045" width="3.49443" height="3.79851" rx="1" fill="#D9D9D9"/>
<rect x="70.0039" y="131.137" width="3.49443" height="3.79851" rx="1" fill="#D9D9D9"/>
<rect x="70.0039" y="142.228" width="3.49443" height="3.79851" rx="1" fill="#D9D9D9"/>
<rect x="70.0039" y="153.32" width="3.49443" height="3.79851" rx="1" fill="#D9D9D9"/>
<rect x="82.0078" y="86.771" width="3.49443" height="3.79851" rx="1" fill="#D9D9D9"/>
<rect x="82.0078" y="97.8625" width="3.49443" height="3.79851" rx="1" fill="#D9D9D9"/>
<rect x="82.0078" y="108.954" width="3.49443" height="3.79851" rx="1" fill="#D9D9D9"/>
<rect x="82.0078" y="120.045" width="3.49443" height="3.79851" rx="1" fill="#D9D9D9"/>
<rect x="82.0078" y="131.137" width="3.49443" height="3.79851" rx="1" fill="#D9D9D9"/>
<rect x="82.0078" y="142.228" width="3.49443" height="3.79851" rx="1" fill="#D9D9D9"/>
<rect x="82.0078" y="153.32" width="3.49443" height="3.79851" rx="1" fill="#D9D9D9"/>
<rect x="94.0078" y="86.771" width="3.49443" height="3.79851" rx="1" fill="#D9D9D9"/>
<rect x="94.0078" y="97.8625" width="3.49443" height="3.79851" rx="1" fill="#D9D9D9"/>
<rect x="94.0078" y="108.954" width="3.49443" height="3.79851" rx="1" fill="#D9D9D9"/>
<rect x="94.0078" y="120.045" width="3.49443" height="3.79851" rx="1" fill="#D9D9D9"/>
<rect x="94.0078" y="131.137" width="3.49443" height="3.79851" rx="1" fill="#D9D9D9"/>
<rect x="94.0078" y="142.228" width="3.49443" height="3.79851" rx="1" fill="#D9D9D9"/>
<rect x="94.0078" y="153.32" width="3.49443" height="3.79851" rx="1" fill="#D9D9D9"/>
<rect x="106.012" y="86.771" width="3.49443" height="3.79851" rx="1" fill="#D9D9D9"/>
<rect x="106.012" y="97.8625" width="3.49443" height="3.79851" rx="1" fill="#D9D9D9"/>
<rect x="106.012" y="108.954" width="3.49443" height="3.79851" rx="1" fill="#D9D9D9"/>
<rect x="106.012" y="120.045" width="3.49443" height="3.79851" rx="1" fill="#D9D9D9"/>
<rect x="106.012" y="131.137" width="3.49443" height="3.79851" rx="1" fill="#D9D9D9"/>
<rect x="106.012" y="142.228" width="3.49443" height="3.79851" rx="1" fill="#D9D9D9"/>
<rect x="106.012" y="153.32" width="3.49443" height="3.79851" rx="1" fill="#D9D9D9"/>
<rect x="116" y="86.771" width="3.49443" height="3.79851" rx="1" fill="#D9D9D9"/>
<rect x="116" y="97.8625" width="3.49443" height="3.79851" rx="1" fill="#D9D9D9"/>
<rect x="116" y="108.954" width="3.49443" height="3.79851" rx="1" fill="#D9D9D9"/>
<rect x="116" y="120.045" width="3.49443" height="3.79851" rx="1" fill="#D9D9D9"/>
<rect x="116" y="131.137" width="3.49443" height="3.79851" rx="1" fill="#D9D9D9"/>
<rect x="116" y="142.228" width="3.49443" height="3.79851" rx="1" fill="#D9D9D9"/>
<rect x="116" y="153.32" width="3.49443" height="3.79851" rx="1" fill="#D9D9D9"/>
<rect x="128.004" y="86.771" width="3.49443" height="3.79851" rx="1" fill="#D9D9D9"/>
<rect x="128.004" y="97.8625" width="3.49443" height="3.79851" rx="1" fill="#D9D9D9"/>
<rect x="128.004" y="108.954" width="3.49443" height="3.79851" rx="1" fill="#D9D9D9"/>
<rect x="128.004" y="120.045" width="3.49443" height="3.79851" rx="1" fill="#D9D9D9"/>
<rect x="128.004" y="131.137" width="3.49443" height="3.79851" rx="1" fill="#D9D9D9"/>
<rect x="128.004" y="142.228" width="3.49443" height="3.79851" rx="1" fill="#D9D9D9"/>
<rect x="128.004" y="153.32" width="3.49443" height="3.79851" rx="1" fill="#D9D9D9"/>
<rect x="140.008" y="86.771" width="3.49443" height="3.79851" rx="1" fill="#D9D9D9"/>
<rect x="140.008" y="97.8625" width="3.49443" height="3.79851" rx="1" fill="#D9D9D9"/>
<rect x="140.008" y="108.954" width="3.49443" height="3.79851" rx="1" fill="#D9D9D9"/>
<rect x="140.008" y="120.045" width="3.49443" height="3.79851" rx="1" fill="#D9D9D9"/>
<rect x="140.008" y="131.137" width="3.49443" height="3.79851" rx="1" fill="#D9D9D9"/>
<rect x="140.008" y="142.228" width="3.49443" height="3.79851" rx="1" fill="#D9D9D9"/>
<rect x="140.008" y="153.32" width="3.49443" height="3.79851" rx="1" fill="#D9D9D9"/>
<rect x="152.008" y="86.771" width="3.49443" height="3.79851" rx="1" fill="#D9D9D9"/>
<rect x="152.008" y="97.8625" width="3.49443" height="3.79851" rx="1" fill="#D9D9D9"/>
<rect x="152.008" y="108.954" width="3.49443" height="3.79851" rx="1" fill="#D9D9D9"/>
<rect x="152.008" y="120.045" width="3.49443" height="3.79851" rx="1" fill="#D9D9D9"/>
<rect x="152.008" y="131.137" width="3.49443" height="3.79851" rx="1" fill="#D9D9D9"/>
<rect x="152.008" y="142.228" width="3.49443" height="3.79851" rx="1" fill="#D9D9D9"/>
<rect x="152.008" y="153.32" width="3.49443" height="3.79851" rx="1" fill="#D9D9D9"/>
<rect x="164.012" y="86.771" width="3.49443" height="3.79851" rx="1" fill="#D9D9D9"/>
<rect x="164.012" y="97.8625" width="3.49443" height="3.79851" rx="1" fill="#D9D9D9"/>
<rect x="164.012" y="108.954" width="3.49443" height="3.79851" rx="1" fill="#D9D9D9"/>
<rect x="164.012" y="120.045" width="3.49443" height="3.79851" rx="1" fill="#D9D9D9"/>
<rect x="164.012" y="131.137" width="3.49443" height="3.79851" rx="1" fill="#D9D9D9"/>
<rect x="164.012" y="142.228" width="3.49443" height="3.79851" rx="1" fill="#D9D9D9"/>
<rect x="164.012" y="153.32" width="3.49443" height="3.79851" rx="1" fill="#D9D9D9"/>
<rect x="58" width="3.49443" height="3.79851" rx="1" fill="#D9D9D9"/>
<rect x="58" y="11.0913" width="3.49443" height="3.79851" rx="1" fill="#D9D9D9"/>
<rect x="58" y="22.1829" width="3.49443" height="3.79851" rx="1" fill="#D9D9D9"/>
<rect x="58" y="33.2744" width="3.49443" height="3.79851" rx="1" fill="#D9D9D9"/>
<rect x="58" y="44.3657" width="3.49443" height="3.79851" rx="1" fill="#D9D9D9"/>
<rect x="58" y="55.4573" width="3.49443" height="3.79851" rx="1" fill="#D9D9D9"/>
<rect x="58" y="66.5488" width="3.49443" height="3.79851" rx="1" fill="#D9D9D9"/>
<rect x="58" y="77.6401" width="3.49443" height="3.79851" rx="1" fill="#D9D9D9"/>
<rect x="70.0039" width="3.49443" height="3.79851" rx="1" fill="#D9D9D9"/>
<rect x="70.0039" y="11.0913" width="3.49443" height="3.79851" rx="1" fill="#D9D9D9"/>
<rect x="70.0039" y="22.1829" width="3.49443" height="3.79851" rx="1" fill="#D9D9D9"/>
<rect x="70.0039" y="33.2744" width="3.49443" height="3.79851" rx="1" fill="#D9D9D9"/>
<rect x="70.0039" y="44.3657" width="3.49443" height="3.79851" rx="1" fill="#D9D9D9"/>
<rect x="70.0039" y="55.4573" width="3.49443" height="3.79851" rx="1" fill="#D9D9D9"/>
<rect x="70.0039" y="66.5488" width="3.49443" height="3.79851" rx="1" fill="#D9D9D9"/>
<rect x="70.0039" y="77.6401" width="3.49443" height="3.79851" rx="1" fill="#D9D9D9"/>
<rect x="82.0078" width="3.49443" height="3.79851" rx="1" fill="#D9D9D9"/>
<rect x="82.0078" y="11.0913" width="3.49443" height="3.79851" rx="1" fill="#D9D9D9"/>
<rect x="82.0078" y="22.1829" width="3.49443" height="3.79851" rx="1" fill="#D9D9D9"/>
<rect x="82.0078" y="33.2744" width="3.49443" height="3.79851" rx="1" fill="#D9D9D9"/>
<rect x="82.0078" y="44.3657" width="3.49443" height="3.79851" rx="1" fill="#D9D9D9"/>
<rect x="82.0078" y="55.4573" width="3.49443" height="3.79851" rx="1" fill="#D9D9D9"/>
<rect x="82.0078" y="66.5488" width="3.49443" height="3.79851" rx="1" fill="#D9D9D9"/>
<rect x="82.0078" y="77.6401" width="3.49443" height="3.79851" rx="1" fill="#D9D9D9"/>
<rect x="94.0078" width="3.49443" height="3.79851" rx="1" fill="#D9D9D9"/>
<rect x="94.0078" y="11.0913" width="3.49443" height="3.79851" rx="1" fill="#D9D9D9"/>
<rect x="94.0078" y="22.1829" width="3.49443" height="3.79851" rx="1" fill="#D9D9D9"/>
<rect x="94.0078" y="33.2744" width="3.49443" height="3.79851" rx="1" fill="#D9D9D9"/>
<rect x="94.0078" y="44.3657" width="3.49443" height="3.79851" rx="1" fill="#D9D9D9"/>
<rect x="94.0078" y="55.4573" width="3.49443" height="3.79851" rx="1" fill="#D9D9D9"/>
<rect x="94.0078" y="66.5488" width="3.49443" height="3.79851" rx="1" fill="#D9D9D9"/>
<rect x="94.0078" y="77.6401" width="3.49443" height="3.79851" rx="1" fill="#D9D9D9"/>
<rect x="106.012" width="3.49443" height="3.79851" rx="1" fill="#D9D9D9"/>
<rect x="106.012" y="11.0913" width="3.49443" height="3.79851" rx="1" fill="#D9D9D9"/>
<rect x="106.012" y="22.1829" width="3.49443" height="3.79851" rx="1" fill="#D9D9D9"/>
<rect x="106.012" y="33.2744" width="3.49443" height="3.79851" rx="1" fill="#D9D9D9"/>
<rect x="106.012" y="44.3657" width="3.49443" height="3.79851" rx="1" fill="#D9D9D9"/>
<rect x="106.012" y="55.4573" width="3.49443" height="3.79851" rx="1" fill="#D9D9D9"/>
<rect x="106.012" y="66.5488" width="3.49443" height="3.79851" rx="1" fill="#D9D9D9"/>
<rect x="106.012" y="77.6401" width="3.49443" height="3.79851" rx="1" fill="#D9D9D9"/>
<rect x="116" width="3.49443" height="3.79851" rx="1" fill="#D9D9D9"/>
<rect x="116" y="11.0913" width="3.49443" height="3.79851" rx="1" fill="#D9D9D9"/>
<rect x="116" y="22.1829" width="3.49443" height="3.79851" rx="1" fill="#D9D9D9"/>
<rect x="116" y="33.2744" width="3.49443" height="3.79851" rx="1" fill="#D9D9D9"/>
<rect x="116" y="44.3657" width="3.49443" height="3.79851" rx="1" fill="#D9D9D9"/>
<rect x="116" y="55.4573" width="3.49443" height="3.79851" rx="1" fill="#D9D9D9"/>
<rect x="116" y="66.5488" width="3.49443" height="3.79851" rx="1" fill="#D9D9D9"/>
<rect x="116" y="77.6401" width="3.49443" height="3.79851" rx="1" fill="#D9D9D9"/>
<rect x="128.004" width="3.49443" height="3.79851" rx="1" fill="#D9D9D9"/>
<rect x="128.004" y="11.0913" width="3.49443" height="3.79851" rx="1" fill="#D9D9D9"/>
<rect x="128.004" y="22.1829" width="3.49443" height="3.79851" rx="1" fill="#D9D9D9"/>
<rect x="128.004" y="33.2744" width="3.49443" height="3.79851" rx="1" fill="#D9D9D9"/>
<rect x="128.004" y="44.3657" width="3.49443" height="3.79851" rx="1" fill="#D9D9D9"/>
<rect x="128.004" y="55.4573" width="3.49443" height="3.79851" rx="1" fill="#D9D9D9"/>
<rect x="128.004" y="66.5488" width="3.49443" height="3.79851" rx="1" fill="#D9D9D9"/>
<rect x="128.004" y="77.6401" width="3.49443" height="3.79851" rx="1" fill="#D9D9D9"/>
<rect x="140.008" width="3.49443" height="3.79851" rx="1" fill="#D9D9D9"/>
<rect x="140.008" y="11.0913" width="3.49443" height="3.79851" rx="1" fill="#D9D9D9"/>
<rect x="140.008" y="22.1829" width="3.49443" height="3.79851" rx="1" fill="#D9D9D9"/>
<rect x="140.008" y="33.2744" width="3.49443" height="3.79851" rx="1" fill="#D9D9D9"/>
<rect x="140.008" y="44.3657" width="3.49443" height="3.79851" rx="1" fill="#D9D9D9"/>
<rect x="140.008" y="55.4573" width="3.49443" height="3.79851" rx="1" fill="#D9D9D9"/>
<rect x="140.008" y="66.5488" width="3.49443" height="3.79851" rx="1" fill="#D9D9D9"/>
<rect x="140.008" y="77.6401" width="3.49443" height="3.79851" rx="1" fill="#D9D9D9"/>
<rect x="152.008" width="3.49443" height="3.79851" rx="1" fill="#D9D9D9"/>
<rect x="152.008" y="11.0913" width="3.49443" height="3.79851" rx="1" fill="#D9D9D9"/>
<rect x="152.008" y="22.1829" width="3.49443" height="3.79851" rx="1" fill="#D9D9D9"/>
<rect x="152.008" y="33.2744" width="3.49443" height="3.79851" rx="1" fill="#D9D9D9"/>
<rect x="152.008" y="44.3657" width="3.49443" height="3.79851" rx="1" fill="#D9D9D9"/>
<rect x="152.008" y="55.4573" width="3.49443" height="3.79851" rx="1" fill="#D9D9D9"/>
<rect x="152.008" y="66.5488" width="3.49443" height="3.79851" rx="1" fill="#D9D9D9"/>
<rect x="152.008" y="77.6401" width="3.49443" height="3.79851" rx="1" fill="#D9D9D9"/>
<rect x="164.012" width="3.49443" height="3.79851" rx="1" fill="#D9D9D9"/>
<rect x="164.012" y="11.0913" width="3.49443" height="3.79851" rx="1" fill="#D9D9D9"/>
<rect x="164.012" y="22.1829" width="3.49443" height="3.79851" rx="1" fill="#D9D9D9"/>
<rect x="164.012" y="33.2744" width="3.49443" height="3.79851" rx="1" fill="#D9D9D9"/>
<rect x="164.012" y="44.3657" width="3.49443" height="3.79851" rx="1" fill="#D9D9D9"/>
<rect x="164.012" y="55.4573" width="3.49443" height="3.79851" rx="1" fill="#D9D9D9"/>
<rect x="164.012" y="66.5488" width="3.49443" height="3.79851" rx="1" fill="#D9D9D9"/>
<rect x="164.012" y="77.6401" width="3.49443" height="3.79851" rx="1" fill="#D9D9D9"/>
</g>
</svg>
