<svg width="155" height="268" viewBox="0 0 155 268" fill="none" xmlns="http://www.w3.org/2000/svg">
<g opacity="0.5">
<rect x="86" y="110.48" width="3.49443" height="3.79851" rx="1" fill="#D9D9D9"/>
<rect x="86" y="121.571" width="3.49443" height="3.79851" rx="1" fill="#D9D9D9"/>
<rect x="86" y="132.663" width="3.49443" height="3.79851" rx="1" fill="#D9D9D9"/>
<rect x="86" y="143.754" width="3.49443" height="3.79851" rx="1" fill="#D9D9D9"/>
<rect x="86" y="154.846" width="3.49443" height="3.79851" rx="1" fill="#D9D9D9"/>
<rect x="86" y="165.937" width="3.49443" height="3.79851" rx="1" fill="#D9D9D9"/>
<rect x="86" y="177.029" width="3.49443" height="3.79851" rx="1" fill="#D9D9D9"/>
<rect x="86" y="188.12" width="3.49443" height="3.79851" rx="1" fill="#D9D9D9"/>
<rect x="98.0039" y="110.48" width="3.49443" height="3.79851" rx="1" fill="#D9D9D9"/>
<rect x="98.0039" y="121.571" width="3.49443" height="3.79851" rx="1" fill="#D9D9D9"/>
<rect x="98.0039" y="132.663" width="3.49443" height="3.79851" rx="1" fill="#D9D9D9"/>
<rect x="98.0039" y="143.754" width="3.49443" height="3.79851" rx="1" fill="#D9D9D9"/>
<rect x="98.0039" y="154.846" width="3.49443" height="3.79851" rx="1" fill="#D9D9D9"/>
<rect x="98.0039" y="165.937" width="3.49443" height="3.79851" rx="1" fill="#D9D9D9"/>
<rect x="98.0039" y="177.029" width="3.49443" height="3.79851" rx="1" fill="#D9D9D9"/>
<rect x="98.0039" y="188.12" width="3.49443" height="3.79851" rx="1" fill="#D9D9D9"/>
<rect x="110.008" y="110.48" width="3.49443" height="3.79851" rx="1" fill="#D9D9D9"/>
<rect x="110.008" y="121.571" width="3.49443" height="3.79851" rx="1" fill="#D9D9D9"/>
<rect x="110.008" y="132.663" width="3.49443" height="3.79851" rx="1" fill="#D9D9D9"/>
<rect x="110.008" y="143.754" width="3.49443" height="3.79851" rx="1" fill="#D9D9D9"/>
<rect x="110.008" y="154.846" width="3.49443" height="3.79851" rx="1" fill="#D9D9D9"/>
<rect x="110.008" y="165.937" width="3.49443" height="3.79851" rx="1" fill="#D9D9D9"/>
<rect x="110.008" y="177.029" width="3.49443" height="3.79851" rx="1" fill="#D9D9D9"/>
<rect x="110.008" y="188.12" width="3.49443" height="3.79851" rx="1" fill="#D9D9D9"/>
<rect x="122.008" y="110.48" width="3.49443" height="3.79851" rx="1" fill="#D9D9D9"/>
<rect x="122.008" y="121.571" width="3.49443" height="3.79851" rx="1" fill="#D9D9D9"/>
<rect x="122.008" y="132.663" width="3.49443" height="3.79851" rx="1" fill="#D9D9D9"/>
<rect x="122.008" y="143.754" width="3.49443" height="3.79851" rx="1" fill="#D9D9D9"/>
<rect x="122.008" y="154.846" width="3.49443" height="3.79851" rx="1" fill="#D9D9D9"/>
<rect x="122.008" y="165.937" width="3.49443" height="3.79851" rx="1" fill="#D9D9D9"/>
<rect x="122.008" y="177.029" width="3.49443" height="3.79851" rx="1" fill="#D9D9D9"/>
<rect x="122.008" y="188.12" width="3.49443" height="3.79851" rx="1" fill="#D9D9D9"/>
<rect x="134.012" y="110.48" width="3.49443" height="3.79851" rx="1" fill="#D9D9D9"/>
<rect x="134.012" y="121.571" width="3.49443" height="3.79851" rx="1" fill="#D9D9D9"/>
<rect x="134.012" y="132.663" width="3.49443" height="3.79851" rx="1" fill="#D9D9D9"/>
<rect x="134.012" y="143.754" width="3.49443" height="3.79851" rx="1" fill="#D9D9D9"/>
<rect x="134.012" y="154.846" width="3.49443" height="3.79851" rx="1" fill="#D9D9D9"/>
<rect x="134.012" y="165.937" width="3.49443" height="3.79851" rx="1" fill="#D9D9D9"/>
<rect x="134.012" y="177.029" width="3.49443" height="3.79851" rx="1" fill="#D9D9D9"/>
<rect x="134.012" y="188.12" width="3.49443" height="3.79851" rx="1" fill="#D9D9D9"/>
<rect x="86" y="197.251" width="3.49443" height="3.79851" rx="1" fill="#D9D9D9"/>
<rect x="86" y="208.342" width="3.49443" height="3.79851" rx="1" fill="#D9D9D9"/>
<rect x="86" y="219.434" width="3.49443" height="3.79851" rx="1" fill="#D9D9D9"/>
<rect x="86" y="230.525" width="3.49443" height="3.79851" rx="1" fill="#D9D9D9"/>
<rect x="86" y="241.617" width="3.49443" height="3.79851" rx="1" fill="#D9D9D9"/>
<rect x="86" y="252.708" width="3.49443" height="3.79851" rx="1" fill="#D9D9D9"/>
<rect x="86" y="263.8" width="3.49443" height="3.79851" rx="1" fill="#D9D9D9"/>
<rect x="98.0039" y="197.251" width="3.49443" height="3.79851" rx="1" fill="#D9D9D9"/>
<rect x="98.0039" y="208.342" width="3.49443" height="3.79851" rx="1" fill="#D9D9D9"/>
<rect x="98.0039" y="219.434" width="3.49443" height="3.79851" rx="1" fill="#D9D9D9"/>
<rect x="98.0039" y="230.525" width="3.49443" height="3.79851" rx="1" fill="#D9D9D9"/>
<rect x="98.0039" y="241.617" width="3.49443" height="3.79851" rx="1" fill="#D9D9D9"/>
<rect x="98.0039" y="252.708" width="3.49443" height="3.79851" rx="1" fill="#D9D9D9"/>
<rect x="98.0039" y="263.8" width="3.49443" height="3.79851" rx="1" fill="#D9D9D9"/>
<rect x="110.008" y="197.251" width="3.49443" height="3.79851" rx="1" fill="#D9D9D9"/>
<rect x="110.008" y="208.342" width="3.49443" height="3.79851" rx="1" fill="#D9D9D9"/>
<rect x="110.008" y="219.434" width="3.49443" height="3.79851" rx="1" fill="#D9D9D9"/>
<rect x="110.008" y="230.525" width="3.49443" height="3.79851" rx="1" fill="#D9D9D9"/>
<rect x="110.008" y="241.617" width="3.49443" height="3.79851" rx="1" fill="#D9D9D9"/>
<rect x="110.008" y="252.708" width="3.49443" height="3.79851" rx="1" fill="#D9D9D9"/>
<rect x="110.008" y="263.8" width="3.49443" height="3.79851" rx="1" fill="#D9D9D9"/>
<rect x="122.008" y="197.251" width="3.49443" height="3.79851" rx="1" fill="#D9D9D9"/>
<rect x="122.008" y="208.342" width="3.49443" height="3.79851" rx="1" fill="#D9D9D9"/>
<rect x="122.008" y="219.434" width="3.49443" height="3.79851" rx="1" fill="#D9D9D9"/>
<rect x="122.008" y="230.525" width="3.49443" height="3.79851" rx="1" fill="#D9D9D9"/>
<rect x="122.008" y="241.617" width="3.49443" height="3.79851" rx="1" fill="#D9D9D9"/>
<rect x="122.008" y="252.708" width="3.49443" height="3.79851" rx="1" fill="#D9D9D9"/>
<rect x="122.008" y="263.8" width="3.49443" height="3.79851" rx="1" fill="#D9D9D9"/>
<rect x="134.012" y="197.251" width="3.49443" height="3.79851" rx="1" fill="#D9D9D9"/>
<rect x="134.012" y="208.342" width="3.49443" height="3.79851" rx="1" fill="#D9D9D9"/>
<rect x="134.012" y="219.434" width="3.49443" height="3.79851" rx="1" fill="#D9D9D9"/>
<rect x="134.012" y="230.525" width="3.49443" height="3.79851" rx="1" fill="#D9D9D9"/>
<rect x="134.012" y="241.617" width="3.49443" height="3.79851" rx="1" fill="#D9D9D9"/>
<rect x="134.012" y="252.708" width="3.49443" height="3.79851" rx="1" fill="#D9D9D9"/>
<rect x="134.012" y="263.8" width="3.49443" height="3.79851" rx="1" fill="#D9D9D9"/>
<rect x="144" y="197.251" width="3.49443" height="3.79851" rx="1" fill="#D9D9D9"/>
<rect x="144" y="208.342" width="3.49443" height="3.79851" rx="1" fill="#D9D9D9"/>
<rect x="144" y="219.434" width="3.49443" height="3.79851" rx="1" fill="#D9D9D9"/>
<rect x="144" y="230.525" width="3.49443" height="3.79851" rx="1" fill="#D9D9D9"/>
<rect x="144" y="241.617" width="3.49443" height="3.79851" rx="1" fill="#D9D9D9"/>
<rect x="144" y="252.708" width="3.49443" height="3.79851" rx="1" fill="#D9D9D9"/>
<rect x="144" y="263.8" width="3.49443" height="3.79851" rx="1" fill="#D9D9D9"/>
<rect x="144" y="110.48" width="3.49443" height="3.79851" rx="1" fill="#D9D9D9"/>
<rect x="144" y="121.571" width="3.49443" height="3.79851" rx="1" fill="#D9D9D9"/>
<rect x="144" y="132.663" width="3.49443" height="3.79851" rx="1" fill="#D9D9D9"/>
<rect x="144" y="143.754" width="3.49443" height="3.79851" rx="1" fill="#D9D9D9"/>
<rect x="144" y="154.846" width="3.49443" height="3.79851" rx="1" fill="#D9D9D9"/>
<rect x="144" y="165.937" width="3.49443" height="3.79851" rx="1" fill="#D9D9D9"/>
<rect x="144" y="177.029" width="3.49443" height="3.79851" rx="1" fill="#D9D9D9"/>
<rect x="144" y="188.12" width="3.49443" height="3.79851" rx="1" fill="#D9D9D9"/>
</g>
<path fill-rule="evenodd" clip-rule="evenodd" d="M97.5746 1.42227C125.742 4.60019 139.434 34.0418 156.741 56.4918C173.456 78.1755 197.65 98.4883 193.231 125.508C188.621 153.694 162.169 172.031 135.982 183.428C111.197 194.214 83.5474 195.081 58.9089 183.965C33.4339 172.472 13.2194 151.562 5.69207 124.647C-2.31236 96.026 1.14415 64.7663 18.9092 40.9415C37.3643 16.1912 66.8958 -2.03895 97.5746 1.42227Z" stroke="url(#paint0_linear_1330_4389)" stroke-width="2"/>
<defs>
<linearGradient id="paint0_linear_1330_4389" x1="239.884" y1="-85.5944" x2="37.4286" y2="130.517" gradientUnits="userSpaceOnUse">
<stop stop-color="#FBC524"/>
<stop offset="0.52" stop-color="#E939D9"/>
<stop offset="1" stop-color="#2ABAE9"/>
</linearGradient>
</defs>
</svg>
