<svg width="816" height="476" viewBox="0 0 816 476" fill="none" xmlns="http://www.w3.org/2000/svg">
<path d="M625.666 17.5141L625.4 17.5595C625.336 24.492 620.399 32.2093 611.127 39.8765C602.416 46.938 591.555 53.2163 579.058 58.4133C566.203 63.767 552.39 68.0694 539.033 72.2303C527.576 75.7987 515.728 79.4895 504.51 83.833C441.057 108.404 398.582 156.786 407.813 193.979C408.244 195.716 408.781 197.478 409.302 199.183C411.342 205.865 413.451 212.775 409.837 220.212C406.528 227.02 398.657 233.622 387.074 239.303C376.644 244.388 364.478 248.286 351.425 250.724C338.252 253.142 324.998 254.203 312.182 255.229C301.319 256.099 290.088 256.999 278.927 258.719C261.146 261.461 242.762 266.538 225.762 273.4C208.43 280.446 193.161 288.903 180.594 298.42C167.865 308.12 157.975 318.726 151.308 329.823C144.695 340.863 141.609 352.072 142.381 362.237L142.647 362.184C141.875 352.039 144.956 340.853 151.555 329.835C158.209 318.76 168.079 308.176 180.781 298.496C193.323 288.998 208.562 280.557 225.86 273.526C242.826 266.678 261.173 261.611 278.918 258.875C290.061 257.157 301.285 256.258 312.139 255.389C324.967 254.362 338.232 253.299 351.429 250.877C364.527 248.43 376.735 244.519 387.201 239.416C398.846 233.704 406.762 227.064 410.091 220.213C413.723 212.738 411.608 205.811 409.563 199.112C409.043 197.408 408.506 195.647 408.076 193.912C398.861 156.785 441.26 108.488 504.6 83.9616C515.804 79.6233 527.644 75.9354 539.093 72.3695C552.462 68.205 566.285 63.8991 579.16 58.5374C591.694 53.3244 602.588 47.0267 611.325 39.9436C620.642 32.2409 625.6 24.4846 625.666 17.5141Z" fill="url(#paint0_linear_504_10898)" fill-opacity="0.1"/>
<path d="M624.306 16.9112L623.926 16.961C623.115 23.3747 617.621 30.7889 608.039 38.4015C599.088 45.3772 588.389 51.6986 576.286 57.162C574.805 57.8323 573.249 58.5192 571.661 59.2038C561.263 63.685 550.578 67.471 540.243 71.1323C529.367 74.9864 518.117 78.972 507.549 83.6745C491.466 90.8302 476.978 100.259 464.929 108.537C449.64 119.041 438.581 127.858 430.124 136.285C417.306 149.065 408.746 162.361 405.37 174.734C403.891 179.899 403.333 185.083 403.705 190.214C403.921 192.889 404.468 195.562 405.047 198.392C405.568 200.946 406.109 203.587 406.376 206.207C406.86 209.808 406.439 213.471 405.124 217.101C402.534 223.753 396.309 229.992 386.621 235.645C377.537 240.922 366.555 245.149 354.477 248.016C343.032 250.679 331.454 252.145 320.257 253.563C310.398 254.812 300.204 256.103 289.997 258.211C274.338 261.447 258.091 266.853 243.013 273.846C226.431 281.618 211.994 290.637 200.232 300.572C188.242 310.753 178.838 321.663 172.296 332.979C165.733 344.309 162.205 355.853 162.092 366.36L162.474 366.295C162.586 355.813 166.106 344.298 172.653 332.994C179.178 321.706 188.56 310.823 200.52 300.667C212.249 290.759 226.647 281.765 243.184 274.014C258.216 267.043 274.41 261.654 290.018 258.428C300.198 256.326 310.379 255.036 320.226 253.789C331.439 252.369 343.035 250.9 354.514 248.229C366.661 245.345 377.705 241.095 386.842 235.787C396.469 230.169 402.919 223.703 405.495 217.088C406.818 213.436 407.243 209.75 406.756 206.128C406.489 203.501 405.948 200.857 405.425 198.301C404.847 195.474 404.301 192.805 404.087 190.137C403.716 185.022 404.271 179.854 405.746 174.705C409.113 162.365 417.65 149.105 430.436 136.358C438.875 127.948 449.915 119.147 465.182 108.658C477.211 100.394 491.67 90.9829 507.711 83.8465C518.255 79.1546 529.491 75.1736 540.356 71.324C550.701 67.6586 561.397 63.8688 571.815 59.3795C573.407 58.6929 574.966 58.0041 576.45 57.3328C588.597 51.8493 599.334 45.5049 608.317 38.5039C617.959 30.844 623.489 23.3771 624.306 16.9112Z" fill="url(#paint1_linear_504_10898)" fill-opacity="0.1"/>
<path d="M622.941 16.3227L622.45 16.3636C619.015 29.4775 594.914 45.3961 573.505 55.9204C572.088 56.617 570.604 57.3336 569.094 58.0527C559.819 62.4619 550.59 66.203 541.665 69.8211C530.795 74.227 520.528 78.389 510.573 83.5285C499.97 89.0025 489.988 95.9812 479.42 103.37C476.511 105.404 473.503 107.507 470.453 109.599C467.97 111.3 465.506 112.98 463.059 114.637C452.074 122.102 441.697 129.153 433.176 136.295C419.21 148.013 409.067 160.271 403.845 171.743C401.493 176.6 400.069 181.529 399.596 186.45C399.279 190.199 399.861 194.283 400.424 198.233C400.644 199.782 400.872 201.383 401.046 202.951C401.53 207.359 401.333 210.767 400.406 214.002C398.448 220.649 393.17 227.049 385.146 232.503C377.579 237.713 368.152 242.085 357.509 245.32C347.714 248.227 337.736 250.087 328.086 251.886C319.306 253.522 310.228 255.215 301.047 257.714C287.071 261.523 272.528 267.435 258.993 274.808C244.469 282.705 230.938 292.362 219.864 302.735C197.732 323.499 183.858 348.193 181.801 370.487L182.297 370.416C184.349 348.179 198.187 323.549 220.26 302.84C231.298 292.5 244.785 282.874 259.261 275.005C272.741 267.661 287.219 261.775 301.129 257.983C310.274 255.494 319.334 253.805 328.096 252.172C337.769 250.369 347.77 248.505 357.612 245.584C368.343 242.322 377.847 237.914 385.476 232.661C393.584 227.149 398.917 220.683 400.895 213.966C401.83 210.706 402.029 207.277 401.542 202.846C401.369 201.276 401.141 199.673 400.919 198.123C400.358 194.182 399.777 190.107 400.093 186.377C400.563 181.479 401.981 176.573 404.323 171.739C409.525 160.31 419.632 148.098 433.552 136.419C442.048 129.296 452.413 122.253 463.386 114.798C465.828 113.138 468.293 111.458 470.782 109.757C473.835 107.664 476.843 105.56 479.753 103.526C490.302 96.1506 500.266 89.1842 510.826 83.7325C520.748 78.6103 530.998 74.4556 541.849 70.0567C550.785 66.4341 560.025 62.6886 569.324 58.2683C570.836 57.5485 572.323 56.8296 573.742 56.1323C595.256 45.5566 619.478 29.5451 622.941 16.3227Z" fill="url(#paint2_linear_504_10898)" fill-opacity="0.1"/>
<path d="M621.577 15.741L620.984 15.7544C614.909 30.2025 580.978 49.2014 570.723 54.6802C569.312 55.4338 567.914 56.1749 566.527 56.9035C558.561 61.084 550.88 64.6695 543.452 68.1362C532.933 73.0467 522.997 77.6843 513.593 83.3871C506.864 87.4684 500.38 92.4492 493.516 97.7226C488.024 101.942 482.345 106.305 475.982 110.657C469.139 115.338 462.253 119.624 455.594 123.769C448.633 128.101 442.058 132.193 436.248 136.296C421.255 146.895 409.529 158.113 402.337 168.736C399.631 172.734 396.874 177.102 395.496 182.676C394.276 187.598 394.945 193.191 395.591 198.598L395.721 199.693C396.289 203.395 396.28 207.145 395.694 210.903C394.516 217.36 390.382 223.706 383.664 229.369C377.572 234.51 369.699 239.022 360.527 242.63C352.264 245.819 344.137 247.977 335.533 250.26C327.951 252.273 320.111 254.354 312.082 257.222C299.797 261.62 286.965 268.035 274.97 275.776C261.941 284.157 249.675 294.228 239.498 304.901C219.253 326.176 205.408 351.583 201.516 374.608L202.125 374.537C206.009 351.569 219.817 326.227 240.01 305.008C250.152 294.371 262.375 284.335 275.356 275.985C287.291 268.282 300.055 261.9 312.267 257.528C320.251 254.677 328.068 252.602 335.627 250.595C344.262 248.303 352.418 246.138 360.737 242.927C370.009 239.28 377.969 234.718 384.128 229.521C390.926 223.791 395.11 217.37 396.303 210.838C396.894 207.057 396.904 203.286 396.333 199.562L396.203 198.467C395.559 193.078 394.893 187.505 396.103 182.623C397.469 177.095 400.209 172.755 402.898 168.783C410.055 158.209 421.732 147.041 436.662 136.485C442.453 132.396 449.018 128.311 455.968 123.985C462.636 119.835 469.53 115.545 476.386 110.854C482.767 106.489 488.455 102.12 493.955 97.8945C500.801 92.6343 507.268 87.6664 513.96 83.6081C523.32 77.9319 533.234 73.3049 543.729 68.4059C551.167 64.9336 558.858 61.3441 566.843 57.1523C568.232 56.4224 569.633 55.6803 571.047 54.9259C581.35 49.4209 615.445 30.3267 621.577 15.741Z" fill="url(#paint3_linear_504_10898)" fill-opacity="0.1"/>
<path d="M620.202 15.167L619.524 15.1301C614.316 23.6871 596.959 36.5759 567.933 53.4404L563.949 55.7552C557.63 59.4222 551.685 62.6366 545.935 65.7457C535.464 71.4068 525.574 76.7542 516.599 83.2524C512.074 86.5282 507.679 90.3876 503.024 94.4743C496.909 99.8445 489.977 105.931 481.507 111.713C472.157 118.097 462.543 123.366 453.245 128.461C448.303 131.17 443.635 133.728 439.327 136.287C423.344 145.797 410.036 155.973 400.841 165.713C397.483 169.271 393.678 173.302 391.397 178.891C389.242 184.164 389.641 190.438 390.393 196.432C390.859 200.144 391.341 203.983 390.979 207.806C390.503 214.1 387.498 220.391 382.171 226.246C377.475 231.317 371.15 235.963 363.515 239.951C356.684 243.459 349.863 246.025 342.64 248.742C335.857 251.201 329.329 253.872 323.092 256.74C312.513 261.743 301.393 268.662 290.933 276.75C278.623 286.369 267.971 296.522 259.125 307.067C240.796 328.768 226.983 354.887 221.227 378.724L221.949 378.659C227.693 354.874 241.473 328.817 259.758 307.167C268.573 296.658 279.188 286.539 291.455 276.953C301.862 268.907 312.916 262.028 323.425 257.058C329.632 254.205 336.129 251.547 342.879 249.099C350.136 246.369 356.991 243.791 363.883 240.252C371.618 236.212 378.026 231.504 382.785 226.366C388.18 220.44 391.224 214.073 391.708 207.702C392.072 203.852 391.588 200 391.121 196.275C390.373 190.315 389.974 184.082 392.104 178.872C394.354 173.357 398.125 169.362 401.452 165.838C410.598 156.148 423.843 146.023 439.755 136.554C444.046 134.005 448.706 131.451 453.64 128.748C462.96 123.64 472.597 118.359 481.988 111.947C490.501 106.135 497.454 100.03 503.587 94.6447C508.226 90.5711 512.609 86.7235 517.099 83.4717C526.023 77.011 535.884 71.6798 546.324 66.0352C552.081 62.9227 558.033 59.7043 564.367 56.0283L568.352 53.7129C597.497 36.7804 614.942 23.811 620.202 15.167Z" fill="url(#paint4_linear_504_10898)" fill-opacity="0.1"/>
<path d="M618.813 14.6125L618.078 14.4995C610.455 23.6251 587.802 37.913 569.601 49.3934L565.14 52.2096C563.855 53.0221 562.598 53.8245 561.366 54.6168C557.379 57.1816 553.631 59.5317 550.006 61.8046C538.415 69.0734 528.404 75.3509 519.596 83.135C516.552 85.8245 513.585 88.8909 510.445 92.1377C504.209 98.5824 497.141 105.887 487.035 112.775C475.899 120.364 463.589 126.186 452.729 131.323C449.103 133.038 445.678 134.658 442.423 136.279C425.572 144.684 410.685 153.813 399.371 162.682L399.096 162.897C394.788 166.273 390.333 169.764 387.305 175.106C384.777 179.558 384.045 185.47 385.067 193.178C385.171 193.967 385.279 194.749 385.39 195.525C385.836 198.701 386.258 201.699 386.265 204.718C386.281 211.382 384.4 217.581 380.673 223.142C377.316 228.171 372.525 232.952 366.481 237.302C360.934 241.26 355.247 244.337 349.226 247.595C344.389 250.213 339.386 252.919 334.081 256.282C325.208 261.924 315.806 269.343 306.891 277.739C296.148 287.926 286.744 298.456 278.752 309.244C262.416 331.195 248.634 358.021 240.942 382.843L241.772 382.789C249.451 358.011 263.206 331.236 279.509 309.329C287.477 298.574 296.854 288.075 307.564 277.917C316.438 269.561 325.789 262.181 334.605 256.574C339.876 253.235 344.859 250.538 349.678 247.931C355.732 244.654 361.452 241.559 367.056 237.56C373.185 233.15 378.044 228.302 381.448 223.204C385.221 217.571 387.126 211.302 387.11 204.57C387.103 201.531 386.68 198.524 386.234 195.339C386.124 194.563 386.016 193.781 385.91 192.994C384.897 185.355 385.613 179.514 388.099 175.135C391.067 169.9 395.46 166.458 399.708 163.128L399.982 162.913C411.241 154.09 426.058 145.003 442.835 136.634C446.078 135.021 449.495 133.404 453.115 131.692C464.018 126.534 476.377 120.689 487.591 113.047C497.78 106.103 504.881 98.7638 511.145 92.2891C514.274 89.0543 517.231 85.9989 520.251 83.3308C528.999 75.5995 538.975 69.3442 550.525 62.1006C554.154 59.8256 557.904 57.4732 561.898 54.9047C563.125 54.1136 564.38 53.313 565.663 52.5029L570.123 49.6879C588.383 38.1706 611.109 23.8365 618.813 14.6125Z" fill="url(#paint5_linear_504_10898)" fill-opacity="0.1"/>
<path d="M616.647 13.8487C610.234 19.6078 597.192 28.0809 583.385 37.0511C576.17 41.7379 568.71 46.5847 562.336 50.9766C561.113 51.8188 559.925 52.6526 558.772 53.478L558.674 53.5489C542.504 65.1051 531.821 72.74 522.583 83.022C520.622 85.2043 518.708 87.6115 516.682 90.1601C510.789 97.5711 504.11 105.971 492.557 113.83C479.982 122.384 465.656 128.142 453.017 133.222C450.402 134.273 447.931 135.265 445.529 136.261C428.477 143.306 412.54 151.131 397.924 159.635L397.265 160.022C392.236 162.975 387.037 166.028 383.215 171.307C379.005 177.12 378.999 184.636 379.735 189.917C379.97 191.603 380.26 193.266 380.539 194.874C380.945 197.207 381.329 199.411 381.548 201.627C382.232 208.532 381.455 214.556 379.173 220.045C377.078 225.069 373.802 229.986 369.428 234.674C364.972 239.455 360.142 243.367 355.027 247.509C351.86 250.073 348.586 252.725 345.05 255.841C336.828 263.264 329.411 270.908 322.84 278.731C313.706 289.45 305.54 300.359 298.371 311.417C284.03 333.487 270.634 360.313 260.652 386.953L261.588 386.915C271.559 360.308 284.935 333.518 299.256 311.481C306.409 300.447 314.557 289.561 323.67 278.866C330.216 271.073 337.604 263.458 345.795 256.063C349.313 252.962 352.579 250.318 355.736 247.761C360.879 243.596 365.736 239.663 370.236 234.835C374.665 230.088 377.982 225.109 380.103 220.022C382.411 214.472 383.198 208.39 382.509 201.428C382.288 199.2 381.903 196.991 381.496 194.652C381.217 193.047 380.928 191.386 380.694 189.706C379.967 184.491 379.964 177.081 384.082 171.398C387.796 166.267 392.893 163.274 397.823 160.379L398.482 159.992C413.04 151.522 428.913 143.728 445.897 136.712C448.29 135.72 450.757 134.729 453.368 133.679C466.08 128.57 480.488 122.78 493.188 114.14C504.874 106.19 511.598 97.7348 517.529 90.275C519.549 87.7353 521.456 85.3369 523.401 83.1723C532.571 72.9658 543.216 65.3578 559.329 53.842L559.428 53.7714C560.574 52.9501 561.756 52.1205 562.974 51.2825C569.334 46.8997 576.786 42.0581 583.993 37.3755C597.841 28.3792 610.92 19.8823 617.398 14.0656L616.647 13.8487Z" fill="url(#paint6_linear_504_10898)" fill-opacity="0.1"/>
<path d="M615.251 13.1897C611.175 15.9731 605.232 19.6996 598.352 24.014C586.024 31.7449 570.681 41.3665 559.533 49.7522C558.354 50.639 557.225 51.5126 556.179 52.3492C540.56 64.7948 532.264 73.0814 525.573 82.9237C524.435 84.5983 523.321 86.3855 522.141 88.278C517.191 96.2169 511.031 106.097 498.082 114.89C484.263 124.275 468.038 129.725 453.723 134.533C451.992 135.115 450.298 135.684 448.65 136.246C430.553 142.438 413.133 149.234 396.506 156.589L395.682 156.953C389.845 159.529 383.807 162.194 379.138 167.508C373.524 173.894 373.765 182.249 374.409 186.661C374.791 189.29 375.363 191.822 375.916 194.272C376.241 195.715 376.562 197.136 376.837 198.543C378.252 205.788 378.529 211.813 377.684 216.961C376.819 222.033 375.046 227.094 372.388 232.072C368.819 238.887 364.631 244.294 359.329 251.139C358.274 252.501 357.174 253.921 356.026 255.421C350.198 263.076 344.4 271.256 338.793 279.735C331.429 290.783 324.431 302.177 317.995 313.599C306.379 334.303 294.072 359.642 280.369 391.065L281.408 391.048C295.103 359.642 307.403 334.32 319.008 313.634C325.436 302.226 332.426 290.847 339.781 279.811C345.38 271.345 351.168 263.178 356.985 255.538C358.132 254.04 359.231 252.621 360.285 251.26C365.609 244.387 369.814 238.958 373.41 232.091C376.093 227.065 377.883 221.956 378.757 216.834C379.609 211.641 379.331 205.575 377.908 198.288C377.633 196.877 377.311 195.453 376.984 194.006C376.434 191.564 375.863 189.038 375.482 186.422C374.849 182.083 374.603 173.877 380.063 167.669C384.56 162.549 390.443 159.953 396.132 157.442L396.958 157.077C413.537 149.744 430.905 142.968 448.948 136.794C450.592 136.233 452.283 135.666 454.011 135.085C468.437 130.24 484.787 124.748 498.79 115.238C511.932 106.313 518.146 96.3464 523.139 88.3385C524.315 86.4517 525.426 84.6699 526.557 83.0064C533.195 73.2424 541.437 65.0116 556.968 52.636C558.005 51.8076 559.123 50.9417 560.293 50.062C571.395 41.7111 586.709 32.1076 599.015 24.3907C605.908 20.0679 611.861 16.3343 615.961 13.5348L615.251 13.1897Z" fill="url(#paint7_linear_504_10898)" fill-opacity="0.1"/>
<path d="M613.88 12.5221C600.315 19.5918 573.012 35.131 556.725 48.53C555.611 49.4469 554.553 50.3524 553.581 51.2224C539.103 64.1395 533.276 72.8941 528.566 82.8326C528.039 83.9429 527.516 85.1033 526.973 86.3051C522.972 95.1665 517.993 106.194 503.608 115.948C488.661 126.083 469.802 131.271 454.65 135.44L451.781 136.23C433.861 141.202 415.852 146.704 395.107 153.544L394.3 153.809C387.899 155.913 380.642 158.299 375.068 163.703C370.093 168.524 367.911 175.704 369.08 183.403C369.631 187.036 370.639 190.436 371.615 193.724L372.127 195.459C374.258 202.775 375.767 208.708 376.205 213.882C376.589 219.052 376.311 224.262 375.372 229.478C374.022 237.638 371.756 244.559 367.014 255.011C363.877 261.982 359.807 270.347 355.095 280.033L351.332 287.683C347.154 296.16 342.419 305.768 337.617 315.781C333.017 325.42 328.399 335.342 323.508 345.847C315.879 362.236 307.99 379.183 300.085 395.173L301.225 395.181C309.132 379.184 317.023 362.234 324.654 345.841C329.543 335.338 334.161 325.418 338.759 315.782C343.56 305.773 348.294 296.166 352.471 287.691L356.235 280.037C360.95 270.347 365.022 261.978 368.162 254.999C372.925 244.5 375.202 237.545 376.56 229.338C377.504 224.088 377.784 218.843 377.397 213.639C376.956 208.434 375.442 202.481 373.305 195.144L372.793 193.406C371.821 190.13 370.816 186.743 370.27 183.136C369.124 175.596 371.225 168.601 376.033 163.943C381.357 158.78 388.092 156.566 394.606 154.424L395.414 154.159C416.127 147.329 434.103 141.838 451.989 136.876L454.853 136.086C470.153 131.877 489.192 126.639 504.391 116.333C519.044 106.398 524.077 95.2507 528.121 86.2939C528.662 85.0955 529.185 83.9387 529.709 82.8316C534.378 72.9802 540.155 64.302 554.51 51.494C555.47 50.6357 556.514 49.7411 557.615 48.8357C573.807 35.5153 600.985 20.0489 614.492 13.0094L613.88 12.5221Z" fill="url(#paint8_linear_504_10898)" fill-opacity="0.1"/>
<path d="M612.537 11.8542C598.136 17.5426 569.753 33.0292 553.918 47.3106C552.875 48.2502 551.888 49.1887 550.982 50.1008C537.762 63.3791 534.254 73.1204 531.566 82.7473L531.193 84.0901C528.618 93.423 525.088 106.205 509.136 117.005C493.127 127.843 472.358 132.394 455.671 136.051L454.923 136.215C434.902 140.617 416.418 145.055 400.111 148.97L393.066 150.66C385.785 152.402 377.533 154.375 371.008 159.895C365.235 164.774 362.524 172.344 363.754 180.144C364.514 184.28 365.738 188.365 367.421 192.376C368.545 195.282 369.659 197.957 370.736 200.543C372.26 204.204 373.7 207.662 374.74 210.803C376.705 216.734 377.683 222.258 378.382 226.879C379.943 236.021 379.822 245.306 378.022 254.603C376.687 261.884 374.295 270.766 370.709 281.756C367.424 291.692 363.018 303.537 357.243 317.965C344.416 350.188 332.17 376.786 319.806 399.279L321.042 399.315C333.42 376.797 345.677 350.174 358.513 317.926C364.294 303.487 368.704 291.631 371.994 281.682C375.587 270.667 377.985 261.762 379.324 254.458C381.134 245.112 381.256 235.777 379.687 226.586C378.986 221.948 378.003 216.402 376.029 210.442C374.984 207.286 373.541 203.821 372.013 200.153C370.937 197.569 369.825 194.897 368.702 191.996C367.031 188.012 365.814 183.956 365.058 179.849C363.858 172.244 366.453 164.906 371.998 160.219C378.188 154.983 385.825 153.156 393.211 151.389L400.258 149.699C416.554 145.786 435.025 141.351 455.024 136.954L455.77 136.791C472.65 133.092 493.657 128.489 509.993 117.429C526.301 106.388 529.875 93.4425 532.485 83.9898L532.857 82.6489C535.519 73.1146 538.991 63.4702 552.057 50.3472C552.946 49.4511 553.916 48.5285 554.941 47.6052C570.632 33.4551 598.741 18.1159 613.001 12.4833L612.537 11.8542Z" fill="url(#paint9_linear_504_10898)" fill-opacity="0.1"/>
<path d="M611.21 11.1942C594.47 16.114 565.67 31.659 551.108 46.0985C550.127 47.0703 549.21 48.0421 548.384 48.9858C536.478 62.5346 535.51 72.7695 534.574 82.6685C533.746 91.4335 532.359 106.103 514.664 118.065C497.656 129.562 474.777 133.402 458.07 136.205C446.597 138.136 435.602 140.043 424.968 141.888C413.469 143.883 402.607 145.767 392.333 147.474L391.963 147.535C383.766 148.896 374.475 150.438 366.954 156.088C360.303 161.081 357.117 168.857 358.428 176.889C359.218 181.112 360.653 185.262 362.717 189.298C365.097 194.231 367.797 198.649 370.179 202.547C371.286 204.358 372.332 206.068 373.286 207.726C376.683 213.632 379.198 219.171 381.41 224.275C385.622 233.995 388.532 242.802 389.045 254.194C389.427 262.209 388.631 271.824 386.678 282.774C384.686 293.683 381.386 306.261 376.869 320.155C370.112 341.061 358.151 372.471 339.53 403.386L340.859 403.454C359.518 372.476 371.499 341.012 378.266 320.072C382.792 306.153 386.099 293.55 388.095 282.614C390.055 271.626 390.854 261.973 390.47 253.923C389.954 242.462 387.03 233.61 382.799 223.845C380.581 218.727 378.059 213.174 374.65 207.248C373.693 205.584 372.645 203.871 371.537 202.057C369.161 198.169 366.467 193.762 364.097 188.85C362.053 184.855 360.632 180.746 359.848 176.565C358.575 168.769 361.607 161.267 367.958 156.499C375.053 151.169 384.025 149.679 391.941 148.365L392.311 148.304C402.595 146.595 413.461 144.711 424.964 142.715C435.595 140.871 446.586 138.965 458.053 137.034C474.987 134.193 498.179 130.302 515.597 118.527C533.749 106.256 535.156 91.3632 535.998 82.4653C536.924 72.6693 537.882 62.5389 549.606 49.1975C550.414 48.2747 551.311 47.3248 552.27 46.3737C566.227 32.5346 595.049 16.7875 611.496 11.9535L611.21 11.1942Z" fill="url(#paint10_linear_504_10898)" fill-opacity="0.1"/>
<path d="M609.886 10.5395C592.225 14.266 562.132 29.747 548.294 44.8865C547.376 45.8909 546.531 46.8952 545.781 47.8722C535.775 60.882 536.594 70.6777 537.461 81.0491L537.588 82.588C538.475 93.5309 537.299 107.572 520.189 119.122C503.67 130.274 481.088 133.782 461.218 136.193L453.008 137.195C430.965 139.887 410.143 142.43 390.943 144.447C381.807 145.406 371.454 146.493 362.901 152.279C354.031 158.275 352.022 167.241 353.1 173.631C353.91 177.947 355.556 182.166 358.013 186.219C361.426 192.128 365.679 197.235 369.433 201.741C370.256 202.729 371.062 203.696 371.837 204.646C376.964 210.921 381.087 216.769 384.445 221.662C390.687 230.76 396.901 240.949 400.077 253.779C402.251 262.492 403.116 272.589 402.646 283.79C401.923 296.626 399.868 309.497 396.492 322.344C391.23 343.216 380.497 374.93 359.252 407.489L360.671 407.591C381.978 374.936 392.74 343.138 398.016 322.212C401.402 309.327 403.462 296.418 404.188 283.542C404.659 272.293 403.789 262.148 401.604 253.389C398.41 240.483 392.167 230.247 385.898 221.109C382.533 216.206 378.401 210.346 373.261 204.054C372.485 203.103 371.678 202.135 370.853 201.145C367.115 196.657 362.878 191.569 359.488 185.701C357.062 181.701 355.436 177.538 354.635 173.279C353.594 167.103 355.483 158.475 363.91 152.778C371.946 147.342 381.94 146.292 390.758 145.366C409.981 143.347 430.813 140.803 452.869 138.109L461.077 137.108C481.263 134.658 504.219 131.084 521.197 119.623C538.809 107.733 540.031 93.4193 539.128 82.2771L539.001 80.7365C538.144 70.4868 537.335 60.8051 547.152 48.0413C547.881 47.0907 548.704 46.1136 549.598 45.1355C563.195 30.2591 592.692 15.0631 609.982 11.4149L609.886 10.5395Z" fill="url(#paint11_linear_504_10898)" fill-opacity="0.1"/>
<path d="M608.563 9.89443C587.693 12.8538 557.625 28.9577 545.481 43.6804C544.63 44.7108 543.856 45.7485 543.181 46.7651C534.651 59.566 537.164 69.2196 539.824 79.4401C540.09 80.4606 540.357 81.4825 540.611 82.5104C544.56 98.4392 539.688 110.762 525.717 120.181C509.268 131.271 486.512 134.428 464.369 136.187C441.621 138.003 414.942 140.046 389.549 141.426C380.173 141.918 368.501 142.53 358.856 148.469C352.353 152.472 346.028 160.329 347.774 170.376C348.603 174.788 350.463 179.077 353.313 183.143C357.626 189.559 363.411 194.996 368.515 199.793L370.395 201.564C375.856 206.734 381.127 212.126 387.486 219.045C395.87 228.268 405.236 239.559 411.117 253.361C415.123 262.728 417.648 273.308 418.621 284.808C419.55 297.978 418.714 311.255 416.119 324.536C410.533 354.772 397.689 384.875 378.977 411.592L380.482 411.733C399.268 384.909 412.161 354.694 417.766 324.354C420.371 311.021 421.21 297.694 420.277 284.473C419.298 272.916 416.76 262.281 412.732 252.862C406.819 238.983 397.414 227.644 388.994 218.382C382.622 211.449 377.341 206.047 371.868 200.865L369.986 199.092C364.908 194.319 359.152 188.91 354.878 182.552C352.073 178.553 350.241 174.334 349.423 169.994C348.372 163.947 350.475 154.836 359.859 149.059C368.901 143.491 380.161 142.9 389.209 142.426C414.635 141.044 441.335 139 464.101 137.183C486.639 135.392 509.834 132.158 526.799 120.721C541.231 110.991 546.286 98.3551 542.253 82.092C541.998 81.0623 541.735 80.037 541.465 79.0161C538.839 68.9287 536.36 59.4012 544.699 46.8841C545.354 45.8999 546.104 44.8946 546.928 43.8966C558.807 29.4945 588.141 13.7528 608.469 10.8706L608.563 9.89443Z" fill="url(#paint12_linear_504_10898)" fill-opacity="0.1"/>
<path d="M607.236 9.25212C584.948 11.107 554.171 26.9419 542.666 42.4747C541.876 43.5415 541.174 44.612 540.58 45.6579C533.304 58.4321 537.663 68.5218 541.88 78.2797C542.476 79.6602 543.073 81.0409 543.638 82.4294C548.078 93.3367 549.533 108.923 531.242 121.238C514.078 132.795 489.398 135.277 467.52 136.181C436.928 137.452 410.966 138.18 388.152 138.406C378.601 138.488 365.52 138.6 354.812 144.658C343.832 150.869 341.287 160.639 342.446 167.117C343.303 171.628 345.38 175.989 348.614 180.065C353.68 186.709 360.896 192.268 367.264 197.172L368.955 198.477C376.168 204.055 383.224 209.924 390.526 216.419C405.447 229.777 415.202 241.039 422.158 252.936C428.26 263.568 432.425 274.579 434.6 285.824C437.155 299.308 437.538 312.992 435.745 326.727C432.041 357.413 419.232 388.176 398.703 415.692L400.29 415.872C420.921 388.219 433.793 357.312 437.514 326.491C439.315 312.693 438.93 298.947 436.362 285.401C434.176 274.096 429.988 263.026 423.854 252.337C416.862 240.379 407.064 229.066 392.085 215.656C384.768 209.147 377.697 203.266 370.469 197.676L368.775 196.37C362.138 191.257 355.274 185.971 350.266 179.401C347.093 175.405 345.054 171.129 344.211 166.706C343.102 160.501 345.472 151.182 355.803 145.337C365.826 139.667 378.448 139.559 387.664 139.48C410.509 139.254 436.5 138.525 467.122 137.253C489.433 136.331 514.635 133.776 532.399 121.816C551.354 109.053 549.915 93.0679 545.37 81.9047C544.803 80.5127 544.205 79.1287 543.607 77.7445C539.45 68.1232 535.152 58.1743 542.246 45.7202C542.817 44.7123 543.495 43.6801 544.256 42.652C555.26 27.7972 585.732 12.0831 606.959 10.3171L607.236 9.25212Z" fill="url(#paint13_linear_504_10898)" fill-opacity="0.1"/>
<path d="M605.905 8.61898C582.541 9.38809 550.441 25.2586 539.852 41.2752C539.126 42.3738 538.496 43.4779 537.981 44.5571C531.831 57.4112 537.899 67.564 543.768 77.3824C544.739 79.0086 545.745 80.6896 546.671 82.349C551.72 91.387 557.146 108.595 536.77 122.298C518.967 134.269 493.367 136.032 470.671 136.179C439.842 136.382 412.391 136.125 386.751 135.392C377.116 135.108 362.554 134.679 350.772 140.85C343.25 144.789 335.161 153.18 337.118 163.862C338.004 168.475 340.3 172.909 343.917 176.991C349.739 183.778 357.995 189.169 365.979 194.383L367.52 195.391C376.523 201.285 385.287 207.477 393.57 213.794C411.257 227.334 423.851 239.637 433.205 252.511C441.131 263.517 446.951 275.016 450.581 286.843C454.735 300.626 456.339 314.719 455.373 328.923C453.507 360.131 440.732 391.554 418.43 419.794L420.099 420.016C442.535 391.606 455.385 360.006 457.262 328.631C458.233 314.353 456.619 300.187 452.444 286.332C448.794 274.442 442.943 262.883 434.975 251.818C425.578 238.883 412.932 226.528 395.179 212.937C386.877 206.605 378.092 200.399 369.069 194.492L367.527 193.484C359.597 188.306 351.398 182.951 345.651 176.252C342.113 172.263 339.866 167.929 338.999 163.422C337.131 153.234 344.699 145.309 351.746 141.618C361.922 136.289 373.814 136.173 386.124 136.535C411.798 137.27 439.282 137.527 470.145 137.323C479.84 137.261 492.575 136.919 505.092 134.817C518.731 132.527 529.495 128.633 538 122.913C559.184 108.668 553.661 90.9911 548.484 81.7216C547.552 80.0546 546.545 78.369 545.571 76.7391C539.788 67.0641 533.809 57.0594 539.79 44.558C540.285 43.5221 540.889 42.4623 541.587 41.4074C551.848 25.8836 582.887 10.5043 605.454 9.76173L605.905 8.61898Z" fill="url(#paint14_linear_504_10898)" fill-opacity="0.1"/>
<path d="M604.566 7.98742C579.671 7.72064 546.853 23.3154 537.039 40.076C536.383 41.1925 535.831 42.321 535.384 43.4571C530.283 56.4546 538.043 66.7139 545.548 76.6349C546.942 78.4796 548.384 80.3865 549.706 82.2658C565.707 105.025 548.079 119.47 542.295 123.356C523.773 135.797 495.972 136.743 473.821 136.177C443.04 135.394 413.273 134.116 385.346 132.378C372.317 131.562 358.603 131.249 346.733 137.041C334.476 143.022 330.396 153.186 331.791 160.606C332.705 165.323 335.222 169.832 339.22 173.915C345.696 180.709 355.151 186.084 364.295 191.282L366.084 192.3C376.743 198.34 387.013 204.686 396.612 211.165C416.813 224.82 432.396 238.205 444.252 252.083C453.958 263.469 461.433 275.454 466.566 287.86C472.287 301.931 475.115 316.433 475.002 331.117C474.946 362.892 462.205 394.974 438.158 423.893L439.905 424.159C464.121 395.036 476.951 362.742 477.007 330.768C477.122 316 474.278 301.415 468.523 287.263C463.364 274.792 455.85 262.745 446.094 251.3C434.188 237.362 418.544 223.925 398.269 210.219C388.646 203.724 378.35 197.362 367.665 191.308L365.876 190.29C356.799 185.13 347.414 179.795 341.033 173.1C337.135 169.122 334.679 164.73 333.786 160.135C332.461 153.089 336.246 143.48 347.686 137.898C358.786 132.482 372 132.799 384.586 133.587C412.548 135.327 442.35 136.607 473.167 137.391C495.823 137.969 524.304 136.972 543.6 124.011C552.648 117.933 557.551 110.594 558.175 102.2C558.801 93.7533 554.941 86.3027 551.592 81.5397C550.263 79.6498 548.817 77.7372 547.418 75.8881C540.025 66.1146 532.381 56.0083 537.331 43.3919C537.76 42.3056 538.288 41.2266 538.915 40.159C548.382 23.9896 579.991 8.94512 603.955 9.20244L604.566 7.98742Z" fill="url(#paint15_linear_504_10898)" fill-opacity="0.1"/>
<path d="M603.227 7.3546C589.592 6.68832 573.631 10.3512 559.436 17.4054C545.24 24.4592 535.529 33.5524 532.791 42.3546C528.689 55.5399 538.13 65.934 547.262 75.9858C549.105 78.0144 551.011 80.1124 552.748 82.1785C568.178 100.527 560.321 116.026 547.824 124.411C528.491 137.383 498.13 137.337 476.973 136.174C445.748 134.457 414.447 132.165 383.941 129.361C377.845 128.802 370.736 128.234 363.504 128.601C355.421 129.011 348.616 130.525 342.698 133.23C329.446 139.287 324.997 149.707 326.465 157.347C329.167 171.404 346.326 180.012 362.921 188.336L364.653 189.206C425.316 219.696 463.881 252.298 482.554 288.872C505.226 333.284 496.237 383.99 457.89 427.989L459.712 428.3C498.353 383.965 507.425 332.897 484.601 288.191C465.846 251.452 427.137 218.72 366.265 188.124L364.532 187.254C348.148 179.035 331.206 170.537 328.575 156.846C327.187 149.62 331.302 139.807 343.626 134.174C355.667 128.67 369.706 129.407 383.054 130.635C413.594 133.441 444.93 135.735 476.192 137.454C521.43 139.941 539.526 131.597 549.203 125.104C569.135 111.731 565.113 93.7365 554.7 81.356C552.953 79.2773 551.042 77.1732 549.193 75.1391C540.2 65.2378 530.899 54.9998 534.875 42.22C537.495 33.7983 546.822 25.0802 560.466 18.3006C574.11 11.5211 589.417 7.99842 602.462 8.63646L603.227 7.3546Z" fill="url(#paint16_linear_504_10898)" fill-opacity="0.1"/>
<defs>
<linearGradient id="paint0_linear_504_10898" x1="242.28" y1="295.723" x2="504.596" y2="295.634" gradientUnits="userSpaceOnUse">
<stop stop-color="white"/>
<stop offset="0.296875" stop-color="#722BD4" stop-opacity="0.97"/>
<stop offset="0.598958" stop-color="#D51CDE"/>
<stop offset="1" stop-color="#E70DD4"/>
</linearGradient>
<linearGradient id="paint1_linear_504_10898" x1="257.793" y1="299.019" x2="514.429" y2="290.778" gradientUnits="userSpaceOnUse">
<stop stop-color="white"/>
<stop offset="0.296875" stop-color="#722BD4" stop-opacity="0.97"/>
<stop offset="0.598958" stop-color="#D51CDE"/>
<stop offset="1" stop-color="#E70DD4"/>
</linearGradient>
<linearGradient id="paint2_linear_504_10898" x1="273.305" y1="302.324" x2="523.634" y2="286.784" gradientUnits="userSpaceOnUse">
<stop stop-color="white"/>
<stop offset="0.296875" stop-color="#722BD4" stop-opacity="0.97"/>
<stop offset="0.598958" stop-color="#D51CDE"/>
<stop offset="1" stop-color="#E70DD4"/>
</linearGradient>
<linearGradient id="paint3_linear_504_10898" x1="288.823" y1="305.626" x2="532.344" y2="283.616" gradientUnits="userSpaceOnUse">
<stop stop-color="white"/>
<stop offset="0.296875" stop-color="#722BD4" stop-opacity="0.97"/>
<stop offset="0.598958" stop-color="#D51CDE"/>
<stop offset="1" stop-color="#E70DD4"/>
</linearGradient>
<linearGradient id="paint4_linear_504_10898" x1="304.336" y1="308.927" x2="540.656" y2="281.236" gradientUnits="userSpaceOnUse">
<stop stop-color="white"/>
<stop offset="0.296875" stop-color="#722BD4" stop-opacity="0.97"/>
<stop offset="0.598958" stop-color="#D51CDE"/>
<stop offset="1" stop-color="#E70DD4"/>
</linearGradient>
<linearGradient id="paint5_linear_504_10898" x1="319.849" y1="312.233" x2="548.66" y2="279.611" gradientUnits="userSpaceOnUse">
<stop stop-color="white"/>
<stop offset="0.296875" stop-color="#722BD4" stop-opacity="0.97"/>
<stop offset="0.598958" stop-color="#D51CDE"/>
<stop offset="1" stop-color="#E70DD4"/>
</linearGradient>
<linearGradient id="paint6_linear_504_10898" x1="335.353" y1="315.534" x2="556.425" y2="278.685" gradientUnits="userSpaceOnUse">
<stop stop-color="white"/>
<stop offset="0.296875" stop-color="#722BD4" stop-opacity="0.97"/>
<stop offset="0.598958" stop-color="#D51CDE"/>
<stop offset="1" stop-color="#E70DD4"/>
</linearGradient>
<linearGradient id="paint7_linear_504_10898" x1="350.858" y1="318.84" x2="564.022" y2="278.423" gradientUnits="userSpaceOnUse">
<stop stop-color="white"/>
<stop offset="0.296875" stop-color="#722BD4" stop-opacity="0.97"/>
<stop offset="0.598958" stop-color="#D51CDE"/>
<stop offset="1" stop-color="#E70DD4"/>
</linearGradient>
<linearGradient id="paint8_linear_504_10898" x1="366.358" y1="322.147" x2="571.498" y2="278.777" gradientUnits="userSpaceOnUse">
<stop stop-color="white"/>
<stop offset="0.296875" stop-color="#722BD4" stop-opacity="0.97"/>
<stop offset="0.598958" stop-color="#D51CDE"/>
<stop offset="1" stop-color="#E70DD4"/>
</linearGradient>
<linearGradient id="paint9_linear_504_10898" x1="381.859" y1="325.455" x2="578.908" y2="279.702" gradientUnits="userSpaceOnUse">
<stop stop-color="white"/>
<stop offset="0.296875" stop-color="#722BD4" stop-opacity="0.97"/>
<stop offset="0.598958" stop-color="#D51CDE"/>
<stop offset="1" stop-color="#E70DD4"/>
</linearGradient>
<linearGradient id="paint10_linear_504_10898" x1="397.388" y1="328.763" x2="586.381" y2="281.156" gradientUnits="userSpaceOnUse">
<stop stop-color="white"/>
<stop offset="0.296875" stop-color="#722BD4" stop-opacity="0.97"/>
<stop offset="0.598958" stop-color="#D51CDE"/>
<stop offset="1" stop-color="#E70DD4"/>
</linearGradient>
<linearGradient id="paint11_linear_504_10898" x1="412.937" y1="332.066" x2="593.926" y2="283.085" gradientUnits="userSpaceOnUse">
<stop stop-color="white"/>
<stop offset="0.296875" stop-color="#722BD4" stop-opacity="0.97"/>
<stop offset="0.598958" stop-color="#D51CDE"/>
<stop offset="1" stop-color="#E70DD4"/>
</linearGradient>
<linearGradient id="paint12_linear_504_10898" x1="428.477" y1="335.352" x2="601.485" y2="285.419" gradientUnits="userSpaceOnUse">
<stop stop-color="white"/>
<stop offset="0.296875" stop-color="#722BD4" stop-opacity="0.97"/>
<stop offset="0.598958" stop-color="#D51CDE"/>
<stop offset="1" stop-color="#E70DD4"/>
</linearGradient>
<linearGradient id="paint13_linear_504_10898" x1="443.996" y1="338.598" x2="609.059" y2="288.095" gradientUnits="userSpaceOnUse">
<stop stop-color="white"/>
<stop offset="0.296875" stop-color="#722BD4" stop-opacity="0.97"/>
<stop offset="0.598958" stop-color="#D51CDE"/>
<stop offset="1" stop-color="#E70DD4"/>
</linearGradient>
<linearGradient id="paint14_linear_504_10898" x1="459.502" y1="341.826" x2="616.676" y2="291.12" gradientUnits="userSpaceOnUse">
<stop stop-color="white"/>
<stop offset="0.296875" stop-color="#722BD4" stop-opacity="0.97"/>
<stop offset="0.598958" stop-color="#D51CDE"/>
<stop offset="1" stop-color="#E70DD4"/>
</linearGradient>
<linearGradient id="paint15_linear_504_10898" x1="474.994" y1="345.027" x2="624.344" y2="294.454" gradientUnits="userSpaceOnUse">
<stop stop-color="white"/>
<stop offset="0.296875" stop-color="#722BD4" stop-opacity="0.97"/>
<stop offset="0.598958" stop-color="#D51CDE"/>
<stop offset="1" stop-color="#E70DD4"/>
</linearGradient>
<linearGradient id="paint16_linear_504_10898" x1="490.477" y1="348.205" x2="632.08" y2="298.079" gradientUnits="userSpaceOnUse">
<stop stop-color="white"/>
<stop offset="0.296875" stop-color="#722BD4" stop-opacity="0.97"/>
<stop offset="0.598958" stop-color="#D51CDE"/>
<stop offset="1" stop-color="#E70DD4"/>
</linearGradient>
</defs>
</svg>
